<svg xmlns="http://www.w3.org/2000/svg" xmlns:xlink="http://www.w3.org/1999/xlink" width="160" zoomAndPan="magnify" viewBox="0 0 120 119.999999" height="160" preserveAspectRatio="xMidYMid meet" version="1.0"><defs><clipPath id="818dcac713"><path d="M 0 15.933594 L 120 15.933594 L 120 104.433594 L 0 104.433594 Z M 0 15.933594 " clip-rule="nonzero"/></clipPath></defs><path fill="#f43fc1" d="M 111.59375 103.875 L 21.273438 103.875 C 18 103.875 14.894531 101.210938 14.316406 97.914062 L 1.492188 24.894531 C 1.492188 24.894531 -0.867188 16.175781 8.085938 16.175781 L 8.179688 16.222656 C 8.398438 16.199219 8.613281 16.175781 8.832031 16.175781 L 99.152344 16.175781 C 102.421875 16.175781 105.527344 18.839844 106.105469 22.132812 L 118.933594 95.152344 C 120.570312 104.433594 111.59375 103.875 111.59375 103.875 Z M 111.59375 103.875 " fill-opacity="1" fill-rule="nonzero"/><path fill="#f5f1e1" d="M 106.105469 22.132812 C 105.527344 18.839844 102.738281 16.175781 99.871094 16.175781 L 8.085938 16.175781 C 5.222656 16.175781 3.390625 18.839844 3.96875 22.132812 L 4.691406 26.253906 L 106.851562 26.253906 Z M 93.640625 23.105469 C 92.605469 23.105469 91.617188 22.253906 91.425781 21.214844 C 91.234375 20.171875 91.929688 19.324219 92.964844 19.324219 C 94 19.324219 94.988281 20.171875 95.179688 21.214844 C 95.371094 22.253906 94.675781 23.105469 93.640625 23.105469 Z M 31.644531 32.988281 L 34.292969 47.984375 L 17.640625 47.984375 L 14.992188 32.988281 Z M 31.644531 32.988281 " fill-opacity="1" fill-rule="nonzero"/><path fill="#02a402" d="M 23.125 36.742188 C 22.933594 35.652344 23.65625 34.757812 24.761719 34.757812 C 25.871094 34.757812 26.90625 35.652344 27.097656 36.742188 C 27.289062 37.832031 26.566406 38.730469 25.460938 38.730469 C 24.351562 38.730469 23.320312 37.859375 23.125 36.742188 Z M 33.546875 44.011719 L 30.585938 40.59375 C 29.890625 39.796875 28.710938 39.675781 28.132812 40.351562 L 25.507812 43.40625 L 21.851562 38.679688 C 21.128906 37.738281 19.78125 37.640625 19.226562 38.488281 L 16.652344 42.414062 L 17.640625 47.984375 L 34.292969 47.984375 Z M 37.253906 75.917969 L 20.886719 75.917969 L 24.234375 95.03125 L 44.207031 95.03125 L 41.535156 79.84375 Z M 89.476562 21.214844 C 89.285156 20.171875 88.296875 19.324219 87.261719 19.324219 C 86.226562 19.324219 85.527344 20.171875 85.722656 21.214844 C 85.914062 22.253906 86.902344 23.105469 87.9375 23.105469 C 88.96875 23.105469 89.644531 22.253906 89.476562 21.214844 Z M 89.476562 21.214844 " fill-opacity="1" fill-rule="nonzero"/><path fill="#ffc900" d="M 99.34375 23.105469 C 98.308594 23.105469 97.320312 22.253906 97.128906 21.214844 C 96.9375 20.171875 97.632812 19.324219 98.667969 19.324219 C 99.703125 19.324219 100.691406 20.171875 100.882812 21.214844 C 101.074219 22.253906 100.378906 23.105469 99.34375 23.105469 Z M 36.3125 50.042969 L 16.339844 50.042969 L 12.96875 30.929688 L 32.945312 30.929688 Z M 17.640625 47.984375 L 34.292969 47.984375 L 31.644531 32.988281 L 14.992188 32.988281 Z M 37.324219 55.761719 L 39.851562 70.175781 L 19.878906 70.175781 L 17.351562 55.761719 Z M 31.644531 62.980469 L 25.027344 59.855469 L 26.132812 66.128906 Z M 28.855469 84.324219 C 27.265625 84.324219 26.207031 85.609375 26.496094 87.207031 C 26.785156 88.804688 28.300781 90.089844 29.890625 90.089844 C 31.476562 90.089844 32.535156 88.804688 32.246094 87.207031 C 31.933594 85.632812 30.441406 84.324219 28.855469 84.324219 Z M 36.3125 86.964844 C 34.726562 86.964844 33.667969 88.25 33.957031 89.847656 C 34.246094 91.445312 35.761719 92.730469 37.347656 92.730469 C 38.9375 92.730469 39.996094 91.445312 39.707031 89.847656 C 39.417969 88.25 37.902344 86.964844 36.3125 86.964844 Z M 38.261719 81.683594 L 30.632812 78.195312 L 31.210938 81.441406 L 38.839844 84.929688 Z M 38.261719 81.683594 " fill-opacity="1" fill-rule="nonzero"/><g clip-path="url(#818dcac713)"><path fill="#2d2828" d="M 99.34375 23.347656 C 99.921875 23.347656 100.402344 23.128906 100.738281 22.714844 C 101.074219 22.304688 101.21875 21.746094 101.125 21.164062 C 100.929688 20.027344 99.824219 19.082031 98.691406 19.082031 C 98.117188 19.082031 97.632812 19.300781 97.296875 19.710938 C 96.960938 20.125 96.816406 20.679688 96.914062 21.261719 C 97.105469 22.402344 98.210938 23.347656 99.34375 23.347656 Z M 97.660156 20.027344 C 97.898438 19.734375 98.261719 19.566406 98.691406 19.566406 C 99.609375 19.566406 100.5 20.316406 100.667969 21.261719 C 100.738281 21.699219 100.644531 22.109375 100.402344 22.402344 C 100.160156 22.691406 99.800781 22.859375 99.367188 22.859375 C 98.453125 22.859375 97.5625 22.109375 97.394531 21.164062 C 97.296875 20.730469 97.394531 20.339844 97.660156 20.027344 Z M 93.640625 23.347656 C 94.21875 23.347656 94.699219 23.128906 95.035156 22.714844 C 95.371094 22.304688 95.515625 21.746094 95.421875 21.164062 C 95.226562 20.027344 94.121094 19.082031 92.988281 19.082031 C 92.410156 19.082031 91.929688 19.300781 91.59375 19.710938 C 91.257812 20.125 91.113281 20.679688 91.207031 21.261719 C 91.402344 22.402344 92.484375 23.347656 93.640625 23.347656 Z M 91.929688 20.027344 C 92.171875 19.734375 92.53125 19.566406 92.964844 19.566406 C 93.878906 19.566406 94.769531 20.316406 94.9375 21.261719 C 95.011719 21.699219 94.914062 22.109375 94.675781 22.402344 C 94.433594 22.691406 94.074219 22.859375 93.640625 22.859375 C 92.726562 22.859375 91.835938 22.109375 91.667969 21.164062 C 91.59375 20.730469 91.691406 20.339844 91.929688 20.027344 Z M 87.9375 23.347656 C 88.511719 23.347656 88.996094 23.128906 89.332031 22.714844 C 89.667969 22.304688 89.8125 21.746094 89.714844 21.164062 C 89.523438 20.027344 88.417969 19.082031 87.285156 19.082031 C 86.707031 19.082031 86.226562 19.300781 85.890625 19.710938 C 85.554688 20.125 85.410156 20.679688 85.503906 21.261719 C 85.699219 22.402344 86.78125 23.347656 87.9375 23.347656 Z M 86.226562 20.027344 C 86.46875 19.734375 86.828125 19.566406 87.261719 19.566406 C 88.175781 19.566406 89.066406 20.316406 89.234375 21.261719 C 89.308594 21.699219 89.210938 22.109375 88.96875 22.402344 C 88.730469 22.691406 88.367188 22.859375 87.9375 22.859375 C 87.019531 22.859375 86.132812 22.109375 85.960938 21.164062 C 85.890625 20.730469 85.988281 20.339844 86.226562 20.027344 Z M 36.507812 50.1875 C 36.554688 50.140625 36.578125 50.066406 36.554688 49.996094 L 33.210938 30.878906 C 33.1875 30.757812 33.089844 30.6875 32.96875 30.6875 L 12.996094 30.6875 C 12.921875 30.6875 12.851562 30.710938 12.800781 30.785156 C 12.753906 30.855469 12.730469 30.90625 12.753906 30.976562 L 16.121094 50.09375 C 16.148438 50.214844 16.242188 50.285156 16.363281 50.285156 L 36.339844 50.285156 C 36.386719 50.285156 36.457031 50.238281 36.507812 50.1875 Z M 16.53125 49.800781 L 13.257812 31.171875 L 32.753906 31.171875 L 36.027344 49.800781 Z M 31.644531 32.746094 L 14.992188 32.746094 C 14.917969 32.746094 14.847656 32.769531 14.800781 32.84375 C 14.75 32.914062 14.726562 32.964844 14.75 33.035156 L 17.398438 48.03125 C 17.421875 48.152344 17.519531 48.226562 17.640625 48.226562 L 34.292969 48.226562 C 34.363281 48.226562 34.4375 48.203125 34.484375 48.128906 C 34.535156 48.058594 34.558594 48.007812 34.535156 47.9375 L 31.886719 32.941406 C 31.863281 32.820312 31.765625 32.746094 31.644531 32.746094 Z M 31.453125 33.230469 L 33.210938 43.285156 L 30.753906 40.449219 C 30.347656 39.964844 29.746094 39.675781 29.144531 39.675781 C 28.660156 39.675781 28.226562 39.867188 27.9375 40.207031 L 25.507812 43.042969 L 22.042969 38.535156 C 21.609375 37.953125 20.9375 37.640625 20.285156 37.664062 C 19.757812 37.6875 19.300781 37.929688 19.035156 38.34375 L 16.796875 41.757812 L 15.304688 33.207031 L 31.453125 33.207031 Z M 16.917969 42.460938 L 19.421875 38.609375 C 19.613281 38.316406 19.902344 38.148438 20.285156 38.148438 C 20.792969 38.125 21.320312 38.390625 21.65625 38.828125 L 28.539062 47.742188 L 17.832031 47.742188 Z M 29.167969 47.742188 L 25.820312 43.429688 L 28.324219 40.523438 C 28.515625 40.28125 28.828125 40.160156 29.167969 40.160156 C 29.625 40.160156 30.082031 40.378906 30.417969 40.765625 L 33.378906 44.179688 C 33.378906 44.179688 33.402344 44.179688 33.402344 44.203125 L 34.027344 47.765625 L 29.167969 47.765625 Z M 25.4375 38.972656 C 26.039062 38.972656 26.542969 38.730469 26.90625 38.316406 C 27.265625 37.882812 27.410156 37.300781 27.289062 36.695312 C 27.074219 35.484375 25.917969 34.515625 24.738281 34.515625 C 24.136719 34.515625 23.632812 34.757812 23.269531 35.167969 C 22.910156 35.605469 22.765625 36.1875 22.886719 36.792969 C 23.101562 38.003906 24.234375 38.972656 25.4375 38.972656 Z M 23.65625 35.484375 C 23.921875 35.167969 24.304688 35 24.761719 35 C 25.75 35 26.6875 35.796875 26.855469 36.792969 C 26.929688 37.25 26.832031 37.6875 26.566406 38.003906 C 26.304688 38.316406 25.917969 38.488281 25.460938 38.488281 C 24.472656 38.488281 23.535156 37.6875 23.367188 36.695312 C 23.269531 36.257812 23.367188 35.824219 23.65625 35.484375 Z M 39.851562 70.441406 C 39.925781 70.441406 39.996094 70.417969 40.042969 70.34375 C 40.09375 70.273438 40.117188 70.222656 40.09375 70.152344 L 37.566406 55.738281 C 37.542969 55.617188 37.445312 55.542969 37.324219 55.542969 L 17.351562 55.542969 C 17.277344 55.542969 17.207031 55.566406 17.15625 55.640625 C 17.109375 55.710938 17.085938 55.761719 17.109375 55.832031 L 19.636719 70.25 C 19.660156 70.371094 19.757812 70.441406 19.878906 70.441406 Z M 19.972656 58.960938 L 18.144531 58.960938 L 17.902344 57.554688 L 19.734375 57.554688 Z M 20.070312 59.445312 L 20.308594 60.847656 L 18.480469 60.847656 L 18.242188 59.445312 Z M 20.40625 61.332031 L 20.648438 62.738281 L 18.816406 62.738281 L 18.578125 61.332031 Z M 20.71875 63.222656 L 20.960938 64.628906 L 19.132812 64.628906 L 18.890625 63.222656 Z M 21.054688 65.113281 L 21.296875 66.519531 L 19.46875 66.519531 L 19.226562 65.113281 Z M 19.5625 67.003906 L 21.394531 67.003906 L 21.632812 68.40625 L 19.804688 68.40625 Z M 19.949219 56.003906 L 34.796875 56.003906 L 37.253906 69.933594 L 22.402344 69.933594 Z M 37.230469 67.003906 L 39.058594 67.003906 L 39.296875 68.40625 L 37.46875 68.40625 Z M 37.132812 66.519531 L 36.890625 65.113281 L 38.722656 65.113281 L 38.960938 66.519531 Z M 36.796875 64.628906 L 36.554688 63.222656 L 38.382812 63.222656 L 38.625 64.628906 Z M 36.457031 62.738281 L 36.21875 61.332031 L 38.046875 61.332031 L 38.289062 62.738281 Z M 36.144531 60.847656 L 35.90625 59.445312 L 37.734375 59.445312 L 37.976562 60.847656 Z M 37.636719 58.960938 L 35.808594 58.960938 L 35.566406 57.554688 L 37.398438 57.554688 Z M 37.734375 69.957031 L 37.542969 68.917969 L 39.371094 68.917969 L 39.5625 69.957031 Z M 37.300781 57.046875 L 35.472656 57.046875 L 35.28125 56.003906 L 37.109375 56.003906 Z M 19.46875 56.003906 L 19.660156 57.046875 L 17.808594 57.046875 L 17.613281 56.003906 Z M 19.902344 68.890625 L 21.730469 68.890625 L 21.921875 69.933594 L 20.09375 69.933594 Z M 31.742188 62.761719 L 25.125 59.636719 C 25.050781 59.589844 24.957031 59.613281 24.882812 59.660156 C 24.8125 59.710938 24.785156 59.808594 24.785156 59.902344 L 25.894531 66.179688 C 25.917969 66.25 25.964844 66.324219 26.039062 66.347656 C 26.0625 66.371094 26.109375 66.371094 26.132812 66.371094 C 26.183594 66.371094 26.207031 66.371094 26.253906 66.347656 L 31.789062 63.222656 C 31.863281 63.175781 31.910156 63.101562 31.910156 63.003906 C 31.886719 62.882812 31.8125 62.785156 31.742188 62.761719 Z M 26.277344 65.742188 L 25.316406 60.265625 L 31.09375 63.003906 Z M 39.875 89.507812 C 39.875 89.484375 39.875 89.460938 39.875 89.4375 L 38.695312 82.726562 L 38.503906 81.636719 C 38.480469 81.5625 38.433594 81.488281 38.359375 81.464844 L 30.730469 77.976562 C 30.660156 77.929688 30.5625 77.953125 30.492188 78 C 30.417969 78.050781 30.394531 78.148438 30.394531 78.242188 L 30.875 80.957031 L 31.667969 85.511719 C 30.972656 84.664062 29.914062 84.082031 28.828125 84.082031 C 27.988281 84.082031 27.265625 84.398438 26.785156 85.003906 C 26.277344 85.609375 26.085938 86.40625 26.230469 87.253906 C 26.519531 88.953125 28.15625 90.355469 29.839844 90.355469 C 30.683594 90.355469 31.40625 90.042969 31.886719 89.4375 C 32.390625 88.832031 32.585938 88.03125 32.441406 87.183594 L 31.5 81.851562 L 38.601562 85.097656 L 39.128906 88.175781 C 38.433594 87.328125 37.375 86.746094 36.289062 86.746094 C 35.449219 86.746094 34.726562 87.0625 34.246094 87.667969 C 33.738281 88.273438 33.546875 89.074219 33.691406 89.921875 C 33.980469 91.617188 35.617188 93.023438 37.300781 93.023438 C 38.144531 93.023438 38.867188 92.707031 39.347656 92.101562 C 39.851562 91.496094 40.042969 90.695312 39.898438 89.847656 C 39.925781 89.726562 39.898438 89.628906 39.875 89.507812 Z M 31.550781 89.121094 C 31.140625 89.605469 30.5625 89.871094 29.863281 89.871094 C 28.398438 89.871094 26.976562 88.660156 26.710938 87.183594 C 26.589844 86.480469 26.734375 85.800781 27.144531 85.316406 C 27.554688 84.832031 28.132812 84.566406 28.828125 84.566406 C 30.296875 84.566406 31.71875 85.777344 31.984375 87.253906 C 32.101562 87.984375 31.957031 88.636719 31.550781 89.121094 Z M 31.429688 81.273438 L 31.164062 79.816406 L 30.949219 78.632812 L 38.046875 81.878906 L 38.503906 84.542969 Z M 39.007812 91.761719 C 38.601562 92.246094 38.023438 92.511719 37.324219 92.511719 C 35.855469 92.511719 34.4375 91.300781 34.171875 89.824219 C 34.050781 89.121094 34.195312 88.441406 34.605469 87.957031 C 35.015625 87.472656 35.59375 87.207031 36.289062 87.207031 C 37.757812 87.207031 39.179688 88.417969 39.441406 89.894531 C 39.585938 90.625 39.417969 91.277344 39.007812 91.761719 Z M 41.703125 79.648438 L 37.398438 75.722656 C 37.347656 75.675781 37.300781 75.652344 37.230469 75.652344 L 20.863281 75.652344 C 20.792969 75.652344 20.71875 75.675781 20.671875 75.75 C 20.625 75.820312 20.597656 75.871094 20.625 75.941406 L 23.96875 95.058594 C 23.992188 95.179688 24.089844 95.25 24.210938 95.25 L 44.183594 95.25 C 44.257812 95.25 44.328125 95.226562 44.375 95.152344 C 44.425781 95.082031 44.449219 95.03125 44.425781 94.960938 L 41.753906 79.769531 C 41.777344 79.746094 41.753906 79.695312 41.703125 79.648438 Z M 24.449219 94.789062 L 21.175781 76.160156 L 37.15625 76.160156 L 41.320312 79.964844 L 43.917969 94.789062 Z M 41.128906 35.773438 C 41.128906 35.628906 41.222656 35.53125 41.367188 35.53125 L 99.703125 35.53125 C 99.847656 35.53125 99.945312 35.628906 99.945312 35.773438 C 99.945312 35.917969 99.847656 36.015625 99.703125 36.015625 L 41.367188 36.015625 C 41.246094 36.015625 41.128906 35.894531 41.128906 35.773438 Z M 71.089844 39.140625 L 41.921875 39.140625 C 41.777344 39.140625 41.679688 39.042969 41.679688 38.898438 C 41.679688 38.753906 41.777344 38.65625 41.921875 38.65625 L 71.089844 38.65625 C 71.234375 38.65625 71.332031 38.753906 71.332031 38.898438 C 71.332031 39.042969 71.210938 39.140625 71.089844 39.140625 Z M 74.097656 38.65625 L 100.257812 38.65625 C 100.402344 38.65625 100.5 38.753906 100.5 38.898438 C 100.5 39.042969 100.402344 39.140625 100.257812 39.140625 L 74.097656 39.140625 C 73.953125 39.140625 73.855469 39.042969 73.855469 38.898438 C 73.855469 38.753906 73.953125 38.65625 74.097656 38.65625 Z M 42.234375 42.046875 C 42.234375 41.902344 42.332031 41.804688 42.476562 41.804688 L 59.683594 41.804688 C 59.828125 41.804688 59.921875 41.902344 59.921875 42.046875 C 59.921875 42.195312 59.828125 42.292969 59.683594 42.292969 L 42.476562 42.292969 C 42.332031 42.292969 42.234375 42.195312 42.234375 42.046875 Z M 63.125 41.804688 L 100.8125 41.804688 C 100.957031 41.804688 101.050781 41.902344 101.050781 42.046875 C 101.050781 42.195312 100.957031 42.292969 100.8125 42.292969 L 63.125 42.292969 C 62.980469 42.292969 62.882812 42.195312 62.882812 42.046875 C 62.882812 41.902344 62.980469 41.804688 63.125 41.804688 Z M 42.789062 45.199219 C 42.789062 45.054688 42.882812 44.957031 43.027344 44.957031 L 82.519531 44.957031 C 82.664062 44.957031 82.761719 45.054688 82.761719 45.199219 C 82.761719 45.34375 82.664062 45.441406 82.519531 45.441406 L 43.027344 45.441406 C 42.882812 45.441406 42.789062 45.320312 42.789062 45.199219 Z M 84.878906 44.761719 L 101.316406 44.761719 C 101.460938 44.761719 101.558594 44.859375 101.558594 45.003906 C 101.558594 45.148438 101.460938 45.246094 101.316406 45.246094 L 84.878906 45.246094 C 84.734375 45.246094 84.640625 45.148438 84.640625 45.003906 C 84.640625 44.859375 84.757812 44.761719 84.878906 44.761719 Z M 103.652344 58.5 L 45.316406 58.5 C 45.171875 58.5 45.074219 58.402344 45.074219 58.257812 C 45.074219 58.109375 45.171875 58.015625 45.316406 58.015625 L 103.652344 58.015625 C 103.796875 58.015625 103.890625 58.109375 103.890625 58.257812 C 103.890625 58.402344 103.796875 58.5 103.652344 58.5 Z M 75.035156 61.648438 L 45.867188 61.648438 C 45.722656 61.648438 45.628906 61.550781 45.628906 61.40625 C 45.628906 61.261719 45.722656 61.164062 45.867188 61.164062 L 75.035156 61.164062 C 75.179688 61.164062 75.277344 61.261719 75.277344 61.40625 C 75.277344 61.550781 75.179688 61.648438 75.035156 61.648438 Z M 78.042969 61.164062 L 104.203125 61.164062 C 104.347656 61.164062 104.445312 61.261719 104.445312 61.40625 C 104.445312 61.550781 104.347656 61.648438 104.203125 61.648438 L 78.042969 61.648438 C 77.898438 61.648438 77.804688 61.550781 77.804688 61.40625 C 77.804688 61.261719 77.925781 61.164062 78.042969 61.164062 Z M 63.628906 64.796875 L 46.421875 64.796875 C 46.277344 64.796875 46.179688 64.699219 46.179688 64.554688 C 46.179688 64.410156 46.277344 64.3125 46.421875 64.3125 L 63.628906 64.3125 C 63.773438 64.3125 63.871094 64.410156 63.871094 64.554688 C 63.871094 64.699219 63.75 64.796875 63.628906 64.796875 Z M 67.070312 64.3125 L 104.757812 64.3125 C 104.902344 64.3125 105 64.410156 105 64.554688 C 105 64.699219 104.902344 64.796875 104.757812 64.796875 L 67.070312 64.796875 C 66.925781 64.796875 66.828125 64.699219 66.828125 64.554688 C 66.828125 64.410156 66.925781 64.3125 67.070312 64.3125 Z M 86.46875 67.921875 L 46.976562 67.921875 C 46.832031 67.921875 46.734375 67.824219 46.734375 67.679688 C 46.734375 67.535156 46.832031 67.4375 46.976562 67.4375 L 86.46875 67.4375 C 86.613281 67.4375 86.707031 67.535156 86.707031 67.679688 C 86.707031 67.824219 86.589844 67.921875 86.46875 67.921875 Z M 88.828125 67.269531 L 105.261719 67.269531 C 105.40625 67.269531 105.503906 67.367188 105.503906 67.511719 C 105.503906 67.65625 105.40625 67.753906 105.261719 67.753906 L 88.828125 67.753906 C 88.683594 67.753906 88.585938 67.65625 88.585938 67.511719 C 88.585938 67.367188 88.707031 67.269531 88.828125 67.269531 Z M 107.597656 80.519531 C 107.742188 80.519531 107.839844 80.617188 107.839844 80.761719 C 107.839844 80.910156 107.742188 81.003906 107.597656 81.003906 L 49.261719 81.003906 C 49.117188 81.003906 49.019531 80.910156 49.019531 80.761719 C 49.019531 80.617188 49.117188 80.519531 49.261719 80.519531 Z M 78.984375 84.15625 L 49.816406 84.15625 C 49.671875 84.15625 49.574219 84.058594 49.574219 83.914062 C 49.574219 83.765625 49.671875 83.671875 49.816406 83.671875 L 78.984375 83.671875 C 79.128906 83.671875 79.222656 83.765625 79.222656 83.914062 C 79.222656 84.058594 79.128906 84.15625 78.984375 84.15625 Z M 81.992188 83.671875 L 108.152344 83.671875 C 108.296875 83.671875 108.390625 83.765625 108.390625 83.914062 C 108.390625 84.058594 108.296875 84.15625 108.152344 84.15625 L 81.992188 84.15625 C 81.847656 84.15625 81.75 84.058594 81.75 83.914062 C 81.75 83.765625 81.871094 83.671875 81.992188 83.671875 Z M 67.574219 87.28125 L 50.367188 87.28125 C 50.222656 87.28125 50.128906 87.183594 50.128906 87.039062 C 50.128906 86.890625 50.222656 86.796875 50.367188 86.796875 L 67.574219 86.796875 C 67.71875 86.796875 67.816406 86.890625 67.816406 87.039062 C 67.816406 87.183594 67.71875 87.28125 67.574219 87.28125 Z M 71.015625 86.796875 L 108.703125 86.796875 C 108.847656 86.796875 108.945312 86.890625 108.945312 87.039062 C 108.945312 87.183594 108.847656 87.28125 108.703125 87.28125 L 71.015625 87.28125 C 70.871094 87.28125 70.777344 87.183594 70.777344 87.039062 C 70.777344 86.890625 70.871094 86.796875 71.015625 86.796875 Z M 90.65625 90.1875 C 90.65625 90.332031 90.558594 90.429688 90.414062 90.429688 L 50.921875 90.429688 C 50.777344 90.429688 50.683594 90.332031 50.683594 90.1875 C 50.683594 90.042969 50.777344 89.945312 50.921875 89.945312 L 90.414062 89.945312 C 90.535156 89.945312 90.65625 90.066406 90.65625 90.1875 Z M 92.773438 89.773438 L 109.210938 89.773438 C 109.355469 89.773438 109.449219 89.871094 109.449219 90.019531 C 109.449219 90.164062 109.355469 90.261719 109.210938 90.261719 L 92.773438 90.261719 C 92.628906 90.261719 92.53125 90.164062 92.53125 90.019531 C 92.53125 89.871094 92.652344 89.773438 92.773438 89.773438 Z M 119.171875 95.128906 L 107.066406 26.203125 L 106.347656 22.085938 C 105.746094 18.695312 102.855469 15.933594 99.871094 15.933594 L 8.085938 15.933594 C 5.367188 15.933594 3.390625 16.730469 2.210938 18.28125 C 0.191406 20.921875 1.226562 24.800781 1.25 24.921875 L 14.078125 97.941406 C 14.679688 101.332031 17.902344 104.09375 21.273438 104.09375 L 111.570312 104.09375 C 111.59375 104.09375 111.714844 104.09375 111.882812 104.09375 C 112.867188 104.09375 115.925781 103.898438 117.824219 101.765625 C 119.222656 100.242188 119.679688 97.988281 119.171875 95.128906 Z M 117.730469 99.246094 C 116.863281 100.289062 115.5625 100.871094 114.070312 100.871094 L 23.75 100.871094 C 20.597656 100.871094 17.589844 98.277344 17.011719 95.105469 L 4.980469 26.496094 L 106.636719 26.496094 L 118.691406 95.203125 C 118.957031 96.753906 118.621094 98.183594 117.730469 99.246094 Z M 99.152344 16.417969 C 102.304688 16.417969 105.3125 19.007812 105.890625 22.183594 L 106.5625 26.035156 L 4.882812 26.035156 L 4.1875 22.109375 C 3.921875 20.582031 4.257812 19.128906 5.148438 18.0625 C 6.015625 17.023438 7.316406 16.441406 8.808594 16.441406 L 99.152344 16.441406 Z M 117.488281 101.476562 C 115.394531 103.828125 111.640625 103.632812 111.59375 103.632812 L 21.273438 103.632812 C 18.121094 103.632812 15.113281 101.039062 14.535156 97.867188 L 1.730469 24.824219 C 1.707031 24.800781 0.722656 21.019531 2.597656 18.574219 C 3.296875 17.652344 4.304688 17.023438 5.628906 16.683594 C 5.316406 16.902344 5.027344 17.144531 4.789062 17.457031 C 3.800781 18.644531 3.417969 20.367188 3.730469 22.183594 L 4.449219 26.300781 L 16.554688 95.203125 C 17.15625 98.59375 20.382812 101.355469 23.75 101.355469 L 114.070312 101.355469 C 115.707031 101.355469 117.152344 100.726562 118.113281 99.5625 C 118.402344 99.199219 118.644531 98.8125 118.835938 98.398438 C 118.644531 99.636719 118.210938 100.652344 117.488281 101.476562 Z M 117.488281 101.476562 " fill-opacity="1" fill-rule="nonzero"/></g></svg>