<svg xmlns="http://www.w3.org/2000/svg" xmlns:xlink="http://www.w3.org/1999/xlink" width="160" zoomAndPan="magnify" viewBox="0 0 120 119.999999" height="160" preserveAspectRatio="xMidYMid meet" version="1.0"><defs><clipPath id="7ffa2dac6b"><path d="M 6 0.480469 L 114 0.480469 L 114 119.730469 L 6 119.730469 Z M 6 0.480469 " clip-rule="nonzero"/></clipPath><clipPath id="3babdce650"><path d="M 6 3 L 109 3 L 109 119.730469 L 6 119.730469 Z M 6 3 " clip-rule="nonzero"/></clipPath><clipPath id="7a4856e92f"><path d="M 15 0.480469 L 114 0.480469 L 114 111 L 15 111 Z M 15 0.480469 " clip-rule="nonzero"/></clipPath><clipPath id="3b37193083"><path d="M 6 0.480469 L 114 0.480469 L 114 119.730469 L 6 119.730469 Z M 6 0.480469 " clip-rule="nonzero"/></clipPath></defs><g clip-path="url(#7ffa2dac6b)"><path fill="#2d2828" d="M 10.3125 119.671875 C 7.957031 119.671875 6.042969 117.753906 6.042969 115.394531 L 6.042969 14.121094 C 6.042969 12.171875 7.359375 10.472656 9.246094 9.984375 L 9.269531 9.976562 L 9.277344 9.953125 C 9.664062 8.445312 10.835938 7.269531 12.339844 6.882812 L 12.367188 6.875 L 12.371094 6.851562 C 12.757812 5.34375 13.933594 4.167969 15.4375 3.78125 L 15.460938 3.773438 L 15.46875 3.75 C 15.957031 1.859375 17.65625 0.539062 19.597656 0.539062 L 109.691406 0.539062 C 112.046875 0.539062 113.960938 2.460938 113.960938 4.820312 L 113.960938 106.089844 C 113.960938 108.039062 112.644531 109.742188 110.757812 110.230469 L 110.734375 110.234375 L 110.730469 110.257812 C 110.34375 111.765625 109.167969 112.941406 107.664062 113.332031 L 107.640625 113.335938 L 107.632812 113.363281 C 107.246094 114.867188 106.070312 116.046875 104.566406 116.433594 L 104.542969 116.4375 L 104.535156 116.464844 C 104.050781 118.351562 102.351562 119.671875 100.40625 119.671875 Z M 10.3125 119.671875 " fill-opacity="1" fill-rule="nonzero"/></g><path fill="#ffc900" d="M 110.519531 110.023438 C 110.195312 111.574219 108.976562 112.796875 107.425781 113.125 C 107.15625 113.179688 106.878906 113.210938 106.597656 113.210938 L 16.503906 113.210938 C 14.289062 113.210938 12.492188 111.410156 12.492188 109.191406 L 12.492188 7.921875 C 12.492188 7.632812 12.523438 7.355469 12.578125 7.089844 C 12.90625 5.535156 14.125 4.3125 15.675781 3.988281 C 15.664062 4.03125 15.65625 4.078125 15.648438 4.121094 C 15.609375 4.347656 15.585938 4.582031 15.585938 4.820312 L 15.585938 106.089844 C 15.585938 108.308594 17.382812 110.109375 19.597656 110.109375 L 109.691406 110.109375 C 109.976562 110.109375 110.253906 110.078125 110.519531 110.023438 Z M 60.003906 6.609375 C 60.875 6.609375 61.578125 5.902344 61.578125 5.03125 C 61.578125 4.15625 60.875 3.449219 60.003906 3.449219 C 59.132812 3.449219 58.425781 4.15625 58.425781 5.03125 C 58.425781 5.902344 59.132812 6.609375 60.003906 6.609375 Z M 24.714844 18.003906 C 27.230469 18.003906 29.273438 15.957031 29.273438 13.433594 C 29.273438 10.914062 27.230469 8.867188 24.714844 8.867188 C 22.195312 8.867188 20.152344 10.914062 20.152344 13.433594 C 20.152344 15.957031 22.195312 18.003906 24.714844 18.003906 Z M 24.714844 18.003906 " fill-opacity="1" fill-rule="nonzero"/><path fill="#f43fc1" d="M 107.425781 113.125 C 107.101562 114.675781 105.878906 115.898438 104.332031 116.226562 C 104.0625 116.28125 103.785156 116.3125 103.5 116.3125 L 13.410156 116.3125 C 11.191406 116.3125 9.398438 114.511719 9.398438 112.292969 L 9.398438 11.019531 C 9.398438 10.734375 9.425781 10.457031 9.484375 10.1875 C 9.808594 8.636719 11.027344 7.414062 12.578125 7.089844 C 12.523438 7.355469 12.492188 7.632812 12.492188 7.921875 L 12.492188 109.191406 C 12.492188 111.410156 14.289062 113.210938 16.503906 113.210938 L 106.597656 113.210938 C 106.878906 113.210938 107.15625 113.179688 107.425781 113.125 Z M 65.59375 6.609375 C 66.464844 6.609375 67.171875 5.902344 67.171875 5.03125 C 67.171875 4.15625 66.464844 3.449219 65.59375 3.449219 C 64.722656 3.449219 64.019531 4.15625 64.019531 5.03125 C 64.019531 5.902344 64.722656 6.609375 65.59375 6.609375 Z M 33.59375 13.078125 L 44.777344 13.078125 C 45.292969 13.078125 45.710938 12.660156 45.710938 12.144531 L 45.710938 11.152344 C 45.710938 10.636719 45.292969 10.21875 44.777344 10.21875 L 33.59375 10.21875 C 33.078125 10.21875 32.660156 10.636719 32.660156 11.152344 L 32.660156 12.144531 C 32.660156 12.660156 33.078125 13.078125 33.59375 13.078125 Z M 33.59375 13.078125 " fill-opacity="1" fill-rule="nonzero"/><g clip-path="url(#3babdce650)"><path fill="#0041d1" d="M 103.5 116.3125 C 103.785156 116.3125 104.0625 116.28125 104.332031 116.226562 C 103.949219 118.046875 102.335938 119.414062 100.40625 119.414062 L 10.3125 119.414062 C 8.097656 119.414062 6.300781 117.613281 6.300781 115.394531 L 6.300781 14.121094 C 6.300781 12.1875 7.664062 10.574219 9.484375 10.1875 C 9.425781 10.457031 9.398438 10.734375 9.398438 11.019531 L 9.398438 112.292969 C 9.398438 114.511719 11.191406 116.3125 13.410156 116.3125 Z M 108.851562 21.199219 L 108.851562 93.144531 L 20.4375 93.144531 L 20.4375 21.199219 Z M 92.964844 62.738281 C 92.964844 58.710938 89.707031 55.445312 85.6875 55.445312 L 83.917969 55.445312 C 83.917969 49.550781 79.152344 44.773438 73.269531 44.773438 C 71.902344 44.773438 70.59375 45.035156 69.394531 45.507812 C 66.898438 41.320312 62.335938 38.515625 57.113281 38.515625 C 49.222656 38.515625 42.824219 44.925781 42.824219 52.832031 C 42.824219 53.734375 42.910156 54.613281 43.070312 55.464844 C 39.300781 55.738281 36.324219 58.890625 36.324219 62.738281 C 36.324219 66.765625 39.582031 70.03125 43.605469 70.03125 L 85.6875 70.03125 C 89.707031 70.03125 92.964844 66.765625 92.964844 62.738281 Z M 71.1875 6.609375 C 72.058594 6.609375 72.765625 5.902344 72.765625 5.03125 C 72.765625 4.15625 72.058594 3.449219 71.1875 3.449219 C 70.316406 3.449219 69.609375 4.15625 69.609375 5.03125 C 69.609375 5.902344 70.316406 6.609375 71.1875 6.609375 Z M 33.59375 16.652344 L 50.777344 16.652344 C 51.292969 16.652344 51.710938 16.234375 51.710938 15.71875 C 51.710938 15.203125 51.292969 14.785156 50.777344 14.785156 L 33.59375 14.785156 C 33.078125 14.785156 32.660156 15.203125 32.660156 15.71875 C 32.660156 16.234375 33.078125 16.652344 33.59375 16.652344 Z M 33.59375 16.652344 " fill-opacity="1" fill-rule="nonzero"/></g><g clip-path="url(#7a4856e92f)"><path fill="#f5f1e1" d="M 109.691406 0.800781 L 19.597656 0.800781 C 17.667969 0.800781 16.054688 2.167969 15.675781 3.988281 C 15.664062 4.03125 15.65625 4.078125 15.648438 4.121094 C 15.609375 4.347656 15.585938 4.582031 15.585938 4.820312 L 15.585938 106.089844 C 15.585938 108.308594 17.382812 110.109375 19.597656 110.109375 L 109.691406 110.109375 C 109.976562 110.109375 110.253906 110.078125 110.519531 110.023438 C 112.339844 109.640625 113.703125 108.023438 113.703125 106.089844 L 113.703125 4.820312 C 113.703125 2.597656 111.90625 0.800781 109.691406 0.800781 Z M 71.1875 3.449219 C 72.058594 3.449219 72.765625 4.15625 72.765625 5.03125 C 72.765625 5.902344 72.058594 6.609375 71.1875 6.609375 C 70.316406 6.609375 69.609375 5.902344 69.609375 5.03125 C 69.609375 4.15625 70.316406 3.449219 71.1875 3.449219 Z M 65.59375 3.449219 C 66.464844 3.449219 67.171875 4.15625 67.171875 5.03125 C 67.171875 5.902344 66.464844 6.609375 65.59375 6.609375 C 64.722656 6.609375 64.019531 5.902344 64.019531 5.03125 C 64.019531 4.15625 64.722656 3.449219 65.59375 3.449219 Z M 60.003906 3.449219 C 60.875 3.449219 61.578125 4.15625 61.578125 5.03125 C 61.578125 5.902344 60.875 6.609375 60.003906 6.609375 C 59.132812 6.609375 58.425781 5.902344 58.425781 5.03125 C 58.425781 4.15625 59.132812 3.449219 60.003906 3.449219 Z M 32.660156 11.152344 C 32.660156 10.636719 33.078125 10.21875 33.59375 10.21875 L 44.777344 10.21875 C 45.292969 10.21875 45.710938 10.636719 45.710938 11.152344 L 45.710938 12.144531 C 45.710938 12.660156 45.292969 13.078125 44.777344 13.078125 L 33.59375 13.078125 C 33.078125 13.078125 32.660156 12.660156 32.660156 12.144531 Z M 33.59375 14.785156 L 50.777344 14.785156 C 51.292969 14.785156 51.710938 15.203125 51.710938 15.71875 C 51.710938 16.234375 51.292969 16.652344 50.777344 16.652344 L 33.59375 16.652344 C 33.078125 16.652344 32.660156 16.234375 32.660156 15.71875 C 32.660156 15.203125 33.078125 14.785156 33.59375 14.785156 Z M 24.714844 8.867188 C 27.230469 8.867188 29.273438 10.914062 29.273438 13.433594 C 29.273438 15.957031 27.230469 18.003906 24.714844 18.003906 C 22.195312 18.003906 20.152344 15.957031 20.152344 13.433594 C 20.152344 10.914062 22.195312 8.867188 24.714844 8.867188 Z M 108.851562 93.144531 L 20.4375 93.144531 L 20.4375 21.199219 L 108.851562 21.199219 Z M 36.324219 62.738281 C 36.324219 58.890625 39.300781 55.738281 43.070312 55.464844 C 42.910156 54.613281 42.824219 53.734375 42.824219 52.832031 C 42.824219 44.925781 49.222656 38.515625 57.113281 38.515625 C 62.335938 38.515625 66.898438 41.320312 69.394531 45.507812 C 70.59375 45.035156 71.902344 44.773438 73.269531 44.773438 C 79.152344 44.773438 83.917969 49.550781 83.917969 55.445312 L 85.6875 55.445312 C 89.707031 55.445312 92.964844 58.710938 92.964844 62.738281 C 92.964844 66.765625 89.707031 70.03125 85.6875 70.03125 L 43.605469 70.03125 C 39.582031 70.03125 36.324219 66.765625 36.324219 62.738281 Z M 36.324219 62.738281 " fill-opacity="1" fill-rule="nonzero"/></g><path fill="#f5f1e1" d="M 103.632812 32.742188 L 98.1875 32.742188 C 97.589844 32.742188 97.105469 32.257812 97.105469 31.664062 L 97.105469 26.207031 C 97.105469 25.609375 97.589844 25.125 98.1875 25.125 L 98.578125 25.125 L 98.578125 24.65625 C 98.578125 24.058594 99.0625 23.574219 99.65625 23.574219 L 105.105469 23.574219 C 105.699219 23.574219 106.183594 24.058594 106.183594 24.65625 L 106.183594 30.113281 C 106.183594 30.707031 105.699219 31.191406 105.105469 31.191406 L 104.710938 31.191406 L 104.710938 31.664062 C 104.710938 32.257812 104.226562 32.742188 103.632812 32.742188 Z M 98.1875 25.726562 C 97.921875 25.726562 97.710938 25.941406 97.710938 26.207031 L 97.710938 31.664062 C 97.710938 31.925781 97.921875 32.140625 98.1875 32.140625 L 103.632812 32.140625 C 103.894531 32.140625 104.109375 31.925781 104.109375 31.664062 L 104.109375 31.191406 L 99.65625 31.191406 C 99.0625 31.191406 98.578125 30.707031 98.578125 30.113281 L 98.578125 25.726562 Z M 99.179688 30.113281 C 99.179688 30.375 99.394531 30.589844 99.65625 30.589844 L 105.105469 30.589844 C 105.367188 30.589844 105.582031 30.375 105.582031 30.113281 L 105.582031 24.65625 C 105.582031 24.390625 105.367188 24.175781 105.105469 24.175781 L 99.65625 24.175781 C 99.394531 24.175781 99.179688 24.390625 99.179688 24.65625 Z M 99.179688 30.113281 " fill-opacity="1" fill-rule="nonzero"/><g clip-path="url(#3b37193083)"><path fill="#2d2828" d="M 109.691406 0.496094 L 19.597656 0.496094 C 17.636719 0.496094 15.914062 1.847656 15.425781 3.738281 C 13.90625 4.128906 12.722656 5.316406 12.328125 6.839844 C 10.8125 7.230469 9.625 8.421875 9.234375 9.941406 C 7.351562 10.429688 6 12.15625 6 14.121094 L 6 115.394531 C 6 117.777344 7.933594 119.714844 10.3125 119.714844 L 100.40625 119.714844 C 102.367188 119.714844 104.089844 118.363281 104.578125 116.472656 C 106.097656 116.082031 107.285156 114.894531 107.675781 113.371094 C 109.191406 112.980469 110.378906 111.792969 110.769531 110.269531 C 112.65625 109.78125 114.003906 108.058594 114.003906 106.089844 L 114.003906 4.820312 C 114.003906 2.4375 112.070312 0.496094 109.691406 0.496094 Z M 113.402344 106.089844 C 113.402344 107.839844 112.164062 109.367188 110.460938 109.726562 C 110.207031 109.78125 109.949219 109.808594 109.691406 109.808594 L 19.597656 109.808594 C 17.554688 109.808594 15.890625 108.140625 15.890625 106.089844 L 15.890625 4.820312 C 15.890625 4.5625 15.914062 4.300781 15.96875 4.050781 C 16.328125 2.339844 17.855469 1.101562 19.597656 1.101562 L 109.691406 1.101562 C 111.738281 1.101562 113.402344 2.769531 113.402344 4.820312 Z M 110.109375 110.390625 C 109.691406 111.621094 108.652344 112.554688 107.363281 112.828125 C 107.113281 112.882812 106.851562 112.910156 106.597656 112.910156 L 16.503906 112.910156 C 14.457031 112.910156 12.792969 111.242188 12.792969 109.191406 L 12.792969 96.550781 L 15.285156 96.550781 L 15.285156 106.089844 C 15.285156 108.472656 17.222656 110.410156 19.597656 110.410156 L 109.691406 110.410156 C 109.691406 110.410156 109.691406 110.410156 109.695312 110.410156 C 109.765625 110.410156 109.835938 110.410156 109.90625 110.40625 C 109.933594 110.40625 109.960938 110.402344 109.988281 110.398438 C 110.03125 110.398438 110.070312 110.394531 110.109375 110.390625 Z M 107.011719 113.492188 C 106.597656 114.722656 105.558594 115.65625 104.269531 115.929688 C 104.015625 115.984375 103.757812 116.011719 103.5 116.011719 L 13.410156 116.011719 C 11.363281 116.011719 9.699219 114.34375 9.699219 112.292969 L 9.699219 102.453125 C 9.699219 102.449219 9.699219 102.449219 9.699219 102.449219 L 9.699219 99.652344 L 12.191406 99.652344 L 12.191406 109.191406 C 12.191406 111.574219 14.125 113.511719 16.503906 113.511719 L 106.597656 113.511719 C 106.667969 113.511719 106.742188 113.511719 106.8125 113.507812 C 106.835938 113.507812 106.855469 113.503906 106.878906 113.503906 C 106.921875 113.5 106.96875 113.496094 107.011719 113.492188 Z M 103.917969 116.59375 C 103.414062 118.074219 102 119.109375 100.40625 119.109375 L 10.3125 119.109375 C 8.265625 119.109375 6.601562 117.441406 6.601562 115.394531 L 6.601562 102.75 L 9.09375 102.75 L 9.09375 112.292969 C 9.09375 114.675781 11.03125 116.613281 13.410156 116.613281 L 103.5 116.613281 C 103.574219 116.613281 103.644531 116.613281 103.71875 116.609375 C 103.742188 116.605469 103.761719 116.605469 103.785156 116.601562 C 103.832031 116.601562 103.875 116.597656 103.917969 116.59375 Z M 6.601562 14.121094 C 6.601562 12.523438 7.636719 11.109375 9.117188 10.601562 C 9.113281 10.644531 9.109375 10.6875 9.105469 10.726562 C 9.105469 10.753906 9.101562 10.777344 9.101562 10.804688 C 9.097656 10.875 9.09375 10.949219 9.09375 11.019531 L 9.09375 30.429688 L 6.601562 30.429688 Z M 9.699219 11.019531 C 9.699219 10.765625 9.726562 10.503906 9.777344 10.25 C 10.050781 8.960938 10.984375 7.917969 12.210938 7.5 C 12.207031 7.546875 12.203125 7.59375 12.199219 7.636719 C 12.199219 7.660156 12.199219 7.679688 12.195312 7.703125 C 12.191406 7.773438 12.191406 7.847656 12.191406 7.921875 L 12.191406 27.328125 L 9.699219 27.328125 Z M 12.792969 7.921875 C 12.792969 7.664062 12.820312 7.402344 12.875 7.148438 C 13.144531 5.859375 14.078125 4.820312 15.304688 4.402344 C 15.300781 4.445312 15.300781 4.492188 15.296875 4.539062 C 15.292969 4.558594 15.292969 4.578125 15.292969 4.601562 C 15.289062 4.671875 15.285156 4.746094 15.285156 4.820312 L 15.285156 24.226562 L 12.792969 24.226562 Z M 9.699219 30.730469 L 9.699219 27.929688 L 12.191406 27.929688 L 12.191406 99.046875 L 9.699219 99.046875 Z M 12.792969 27.628906 L 12.792969 24.832031 L 15.285156 24.832031 L 15.285156 95.945312 L 12.792969 95.945312 Z M 9.09375 31.03125 L 9.09375 102.148438 L 6.601562 102.148438 L 6.601562 31.03125 Z M 108.851562 20.898438 L 20.4375 20.898438 C 20.273438 20.898438 20.136719 21.035156 20.136719 21.199219 L 20.136719 93.144531 C 20.136719 93.3125 20.273438 93.449219 20.4375 93.449219 L 108.851562 93.449219 C 109.019531 93.449219 109.152344 93.3125 109.152344 93.144531 L 109.152344 21.199219 C 109.152344 21.035156 109.019531 20.898438 108.851562 20.898438 Z M 108.550781 92.84375 L 20.738281 92.84375 L 20.738281 21.503906 L 108.550781 21.503906 Z M 60.003906 6.914062 C 61.039062 6.914062 61.882812 6.070312 61.882812 5.03125 C 61.882812 3.992188 61.039062 3.148438 60.003906 3.148438 C 58.964844 3.148438 58.125 3.992188 58.125 5.03125 C 58.125 6.070312 58.964844 6.914062 60.003906 6.914062 Z M 60.003906 3.753906 C 60.707031 3.753906 61.277344 4.324219 61.277344 5.03125 C 61.277344 5.734375 60.707031 6.308594 60.003906 6.308594 C 59.300781 6.308594 58.726562 5.734375 58.726562 5.03125 C 58.726562 4.324219 59.300781 3.753906 60.003906 3.753906 Z M 65.59375 6.914062 C 66.632812 6.914062 67.472656 6.070312 67.472656 5.03125 C 67.472656 3.992188 66.632812 3.148438 65.59375 3.148438 C 64.558594 3.148438 63.714844 3.992188 63.714844 5.03125 C 63.714844 6.070312 64.558594 6.914062 65.59375 6.914062 Z M 65.59375 3.753906 C 66.296875 3.753906 66.871094 4.324219 66.871094 5.03125 C 66.871094 5.734375 66.296875 6.308594 65.59375 6.308594 C 64.890625 6.308594 64.320312 5.734375 64.320312 5.03125 C 64.320312 4.324219 64.890625 3.753906 65.59375 3.753906 Z M 71.1875 6.914062 C 72.222656 6.914062 73.066406 6.070312 73.066406 5.03125 C 73.066406 3.992188 72.222656 3.148438 71.1875 3.148438 C 70.152344 3.148438 69.308594 3.992188 69.308594 5.03125 C 69.308594 6.070312 70.152344 6.914062 71.1875 6.914062 Z M 72.464844 5.03125 C 72.464844 5.734375 71.890625 6.308594 71.1875 6.308594 C 70.484375 6.308594 69.910156 5.734375 69.910156 5.03125 C 69.910156 4.324219 70.484375 3.753906 71.1875 3.753906 C 71.890625 3.753906 72.464844 4.324219 72.464844 5.03125 Z M 26.921875 97.714844 C 26.332031 97.714844 25.785156 97.996094 25.4375 98.464844 C 25.082031 97.992188 24.515625 97.710938 23.933594 97.714844 C 23.386719 97.722656 22.875 97.9375 22.488281 98.328125 C 22.09375 98.71875 21.878906 99.246094 21.878906 99.800781 L 21.878906 100.003906 C 21.878906 100.5625 22.09375 101.085938 22.488281 101.480469 L 25.148438 104.144531 C 25.226562 104.222656 25.332031 104.269531 25.441406 104.269531 C 25.554688 104.269531 25.660156 104.222656 25.738281 104.144531 L 28.394531 101.480469 C 28.789062 101.085938 29.007812 100.5625 29.007812 100.003906 L 29.007812 99.800781 C 29.007812 99.246094 28.789062 98.71875 28.394531 98.328125 C 28.003906 97.933594 27.480469 97.714844 26.921875 97.714844 Z M 28.402344 100.003906 C 28.402344 100.402344 28.25 100.773438 27.96875 101.054688 L 25.441406 103.585938 L 22.914062 101.054688 C 22.632812 100.773438 22.480469 100.402344 22.480469 100.003906 L 22.480469 99.800781 C 22.480469 99.40625 22.632812 99.035156 22.914062 98.753906 C 23.1875 98.476562 23.554688 98.324219 23.941406 98.320312 C 23.945312 98.320312 23.953125 98.320312 23.957031 98.320312 C 24.417969 98.320312 24.855469 98.59375 25.078125 99.019531 L 25.175781 99.203125 C 25.226562 99.300781 25.328125 99.363281 25.441406 99.363281 C 25.554688 99.363281 25.65625 99.300781 25.710938 99.203125 L 25.820312 98.988281 C 26.035156 98.574219 26.457031 98.320312 26.921875 98.320312 C 27.320312 98.320312 27.691406 98.472656 27.96875 98.753906 C 28.25 99.035156 28.402344 99.40625 28.402344 99.800781 Z M 38.363281 102.519531 C 38.609375 102.046875 38.742188 101.523438 38.742188 100.992188 C 38.742188 99.183594 37.273438 97.714844 35.46875 97.714844 C 33.667969 97.714844 32.199219 99.183594 32.199219 100.992188 C 32.199219 102.796875 33.667969 104.269531 35.46875 104.269531 C 36 104.269531 36.527344 104.136719 36.996094 103.890625 L 38.363281 104.257812 C 38.386719 104.265625 38.414062 104.269531 38.441406 104.269531 C 38.519531 104.269531 38.59375 104.238281 38.652344 104.179688 C 38.730469 104.101562 38.757812 103.992188 38.730469 103.886719 Z M 37.75 102.558594 L 38.011719 103.539062 L 37.03125 103.273438 C 36.957031 103.253906 36.875 103.265625 36.804688 103.304688 C 36.398438 103.539062 35.9375 103.664062 35.46875 103.664062 C 34 103.664062 32.804688 102.464844 32.804688 100.992188 C 32.804688 99.519531 34 98.320312 35.46875 98.320312 C 36.941406 98.320312 38.136719 99.519531 38.136719 100.992188 C 38.136719 101.460938 38.015625 101.921875 37.78125 102.328125 C 37.742188 102.398438 37.730469 102.480469 37.75 102.558594 Z M 48.734375 97.878906 C 48.722656 97.851562 48.703125 97.824219 48.679688 97.804688 C 48.660156 97.78125 48.632812 97.761719 48.605469 97.75 C 48.574219 97.730469 48.535156 97.722656 48.5 97.714844 C 48.464844 97.714844 48.429688 97.714844 48.390625 97.726562 C 48.382812 97.726562 48.375 97.730469 48.367188 97.734375 L 42.429688 99.804688 C 42.304688 99.847656 42.222656 99.96875 42.230469 100.101562 C 42.234375 100.234375 42.324219 100.347656 42.453125 100.382812 L 45.339844 101.152344 L 46.109375 104.042969 C 46.144531 104.171875 46.257812 104.261719 46.390625 104.269531 C 46.394531 104.269531 46.394531 104.269531 46.398438 104.269531 C 46.527344 104.269531 46.640625 104.1875 46.683594 104.066406 L 48.75 98.121094 C 48.753906 98.109375 48.757812 98.101562 48.757812 98.09375 C 48.769531 98.054688 48.773438 98.019531 48.765625 97.980469 C 48.761719 97.945312 48.753906 97.910156 48.734375 97.878906 Z M 43.558594 100.050781 L 47.324219 98.734375 L 45.496094 100.566406 Z M 46.4375 102.9375 L 45.921875 100.996094 L 47.75 99.164062 Z M 108.851562 97.714844 L 104.09375 97.714844 C 103.929688 97.714844 103.792969 97.851562 103.792969 98.019531 L 103.792969 103.964844 C 103.792969 104.078125 103.855469 104.175781 103.949219 104.230469 C 104.046875 104.285156 104.160156 104.28125 104.253906 104.222656 L 106.472656 102.839844 L 108.691406 104.222656 C 108.742188 104.253906 108.796875 104.269531 108.851562 104.269531 C 108.902344 104.269531 108.953125 104.257812 109 104.230469 C 109.09375 104.175781 109.152344 104.078125 109.152344 103.964844 L 109.152344 98.019531 C 109.152344 97.851562 109.019531 97.714844 108.851562 97.714844 Z M 108.550781 103.421875 L 106.632812 102.226562 C 106.585938 102.199219 106.527344 102.183594 106.472656 102.183594 C 106.417969 102.183594 106.363281 102.199219 106.316406 102.226562 L 104.398438 103.421875 L 104.398438 98.320312 L 108.550781 98.320312 Z M 24.714844 18.304688 C 27.394531 18.304688 29.574219 16.121094 29.574219 13.433594 C 29.574219 10.75 27.394531 8.566406 24.714844 8.566406 C 22.03125 8.566406 19.851562 10.75 19.851562 13.433594 C 19.851562 16.121094 22.03125 18.304688 24.714844 18.304688 Z M 28.972656 13.433594 C 28.972656 15.789062 27.0625 17.703125 24.714844 17.703125 C 22.367188 17.703125 20.457031 15.789062 20.457031 13.433594 C 20.457031 11.082031 22.367188 9.167969 24.714844 9.167969 C 27.0625 9.167969 28.972656 11.082031 28.972656 13.433594 Z M 33.59375 13.382812 L 44.777344 13.382812 C 45.460938 13.382812 46.011719 12.828125 46.011719 12.144531 L 46.011719 11.152344 C 46.011719 10.46875 45.460938 9.914062 44.777344 9.914062 L 33.59375 9.914062 C 32.914062 9.914062 32.359375 10.46875 32.359375 11.152344 L 32.359375 12.144531 C 32.359375 12.828125 32.914062 13.382812 33.59375 13.382812 Z M 32.964844 11.152344 C 32.964844 10.804688 33.246094 10.519531 33.59375 10.519531 L 44.777344 10.519531 C 45.128906 10.519531 45.410156 10.804688 45.410156 11.152344 L 45.410156 12.144531 C 45.410156 12.496094 45.128906 12.777344 44.777344 12.777344 L 33.59375 12.777344 C 33.246094 12.777344 32.964844 12.496094 32.964844 12.144531 Z M 33.59375 16.953125 L 50.777344 16.953125 C 51.457031 16.953125 52.011719 16.402344 52.011719 15.71875 C 52.011719 15.039062 51.457031 14.484375 50.777344 14.484375 L 33.59375 14.484375 C 32.914062 14.484375 32.359375 15.039062 32.359375 15.71875 C 32.359375 16.402344 32.914062 16.953125 33.59375 16.953125 Z M 33.59375 15.085938 L 50.777344 15.085938 C 51.125 15.085938 51.40625 15.371094 51.40625 15.71875 C 51.40625 16.066406 51.125 16.351562 50.777344 16.351562 L 33.59375 16.351562 C 33.246094 16.351562 32.964844 16.066406 32.964844 15.71875 C 32.964844 15.371094 33.246094 15.085938 33.59375 15.085938 Z M 43.605469 70.332031 L 85.6875 70.332031 C 89.867188 70.332031 93.265625 66.925781 93.265625 62.738281 C 93.265625 58.550781 89.867188 55.140625 85.6875 55.140625 L 84.214844 55.140625 C 84.054688 49.230469 79.207031 44.472656 73.269531 44.472656 C 71.984375 44.472656 70.726562 44.695312 69.519531 45.136719 C 66.871094 40.859375 62.140625 38.214844 57.113281 38.214844 C 49.070312 38.214844 42.523438 44.773438 42.523438 52.832031 C 42.523438 53.613281 42.589844 54.40625 42.71875 55.195312 C 38.9375 55.640625 36.023438 58.890625 36.023438 62.738281 C 36.023438 66.925781 39.425781 70.332031 43.605469 70.332031 Z M 43.089844 55.765625 C 43.175781 55.761719 43.257812 55.71875 43.308594 55.648438 C 43.359375 55.582031 43.382812 55.496094 43.367188 55.410156 C 43.207031 54.550781 43.125 53.683594 43.125 52.832031 C 43.125 45.105469 49.402344 38.816406 57.113281 38.816406 C 62.015625 38.816406 66.621094 41.441406 69.132812 45.660156 C 69.210938 45.789062 69.363281 45.84375 69.503906 45.789062 C 70.707031 45.316406 71.976562 45.078125 73.269531 45.078125 C 78.976562 45.078125 83.617188 49.726562 83.617188 55.445312 C 83.617188 55.609375 83.753906 55.746094 83.917969 55.746094 L 85.6875 55.746094 C 89.535156 55.746094 92.664062 58.882812 92.664062 62.738281 C 92.664062 66.589844 89.535156 69.726562 85.6875 69.726562 L 43.605469 69.726562 C 39.757812 69.726562 36.625 66.589844 36.625 62.738281 C 36.625 59.09375 39.464844 56.03125 43.089844 55.765625 Z M 43.089844 55.765625 " fill-opacity="1" fill-rule="nonzero"/></g></svg>