<svg xmlns="http://www.w3.org/2000/svg" xmlns:xlink="http://www.w3.org/1999/xlink" width="800" zoomAndPan="magnify" viewBox="0 0 600 89.999999" height="120" preserveAspectRatio="xMidYMid meet" version="1.0"><defs><clipPath id="7499601d47"><path d="M 0 28.648438 L 600 28.648438 L 600 55.648438 L 0 55.648438 Z M 0 28.648438 " clip-rule="nonzero"/></clipPath></defs><g clip-path="url(#7499601d47)"><path fill="#d9aabf" d="M 591.925781 45.085938 C 592.199219 45.902344 591.746094 46.265625 591.199219 46.71875 C 587.480469 49.894531 580.585938 48.714844 578.136719 44.359375 C 577.683594 43.542969 577.230469 42.636719 576.6875 41.730469 C 575.960938 40.550781 574.960938 40.1875 573.691406 40.550781 C 572.785156 40.820312 571.96875 41.273438 571.152344 41.730469 C 567.976562 43.722656 564.894531 45.71875 561.71875 47.625 C 559.902344 48.714844 558.089844 49.800781 555.910156 50.164062 C 553.097656 50.710938 551.011719 49.257812 550.742188 46.355469 C 550.558594 44.359375 550.648438 42.273438 550.921875 40.277344 C 551.011719 39.640625 551.285156 38.824219 550.558594 38.371094 C 549.832031 37.917969 549.199219 38.464844 548.652344 38.734375 C 544.664062 41.003906 541.035156 43.632812 537.132812 46.082031 C 534.320312 47.898438 531.328125 49.441406 528.0625 50.164062 C 527.515625 50.257812 526.972656 50.347656 526.429688 50.347656 C 522.890625 50.527344 520.894531 48.714844 520.53125 45.175781 C 520.441406 43.816406 520.351562 42.363281 519.988281 41.09375 C 519.625 39.824219 519.171875 39.640625 517.992188 40.277344 C 514.363281 42.363281 511.097656 44.902344 507.558594 47.171875 C 504.65625 48.984375 501.753906 50.980469 498.398438 51.890625 C 494.585938 52.976562 492.136719 51.253906 491.867188 47.261719 C 491.773438 45.628906 491.867188 44.085938 491.773438 42.453125 C 491.683594 40.820312 491.320312 40.640625 489.871094 41.457031 C 484.335938 44.449219 479.164062 47.988281 473.449219 50.710938 C 470.367188 52.160156 467.371094 53.613281 463.835938 53.523438 C 460.839844 53.429688 459.296875 52.160156 458.664062 49.257812 C 458.390625 47.808594 458.480469 46.445312 458.390625 44.996094 C 458.390625 43.722656 458.390625 42.453125 458.300781 41.273438 C 458.210938 39.734375 457.484375 39.28125 456.125 40.097656 C 453.039062 41.820312 449.953125 43.632812 446.960938 45.449219 C 442.425781 48.078125 437.796875 50.710938 432.628906 52.070312 C 431.902344 52.25 431.085938 52.433594 430.359375 52.523438 C 426.550781 52.796875 424.191406 51.253906 423.011719 47.535156 C 422.375 45.539062 421.921875 43.542969 421.289062 41.546875 C 420.382812 38.734375 419.203125 38.191406 416.390625 39.097656 C 412.851562 40.1875 409.765625 42.183594 406.59375 43.996094 C 402.691406 46.265625 398.789062 48.714844 394.707031 50.617188 C 392.984375 51.433594 391.171875 52.070312 389.265625 52.34375 C 386.179688 52.886719 383.730469 51.527344 382.734375 48.53125 C 382.1875 46.898438 381.917969 45.175781 381.464844 43.542969 C 381.28125 43 381.191406 42.453125 380.917969 41.910156 C 380.285156 40.367188 379.46875 39.914062 377.835938 40.367188 C 374.476562 41.273438 371.484375 43 368.402344 44.539062 C 363.773438 46.898438 359.328125 49.800781 354.339844 51.527344 C 352.707031 52.070312 351.074219 52.523438 349.257812 52.433594 C 346.628906 52.25 344.90625 50.980469 343.90625 48.625 C 343.179688 46.808594 342.910156 44.996094 342.363281 43.179688 C 341.367188 39.460938 340.1875 38.917969 336.558594 40.457031 C 331.117188 42.816406 326.125 45.902344 320.863281 48.53125 C 317.597656 50.164062 314.242188 51.796875 310.523438 52.34375 C 305.898438 52.976562 303.085938 50.800781 302.449219 46.171875 C 302.175781 44.085938 302.175781 41.910156 302.175781 39.824219 C 302.175781 37.917969 301.632812 37.554688 299.910156 38.460938 C 295.644531 40.640625 292.015625 43.632812 288.207031 46.355469 C 285.304688 48.53125 282.308594 50.617188 279.136719 52.34375 C 277.050781 53.429688 274.871094 54.246094 272.421875 54.15625 C 269.792969 54.066406 267.976562 52.976562 266.796875 50.617188 C 266.070312 49.257812 265.527344 47.898438 264.800781 46.535156 C 263.804688 44.722656 263.167969 44.539062 261.355469 45.449219 C 256.820312 47.808594 252.375 50.257812 247.839844 52.613281 C 245.660156 53.792969 243.484375 54.609375 240.945312 54.792969 C 237.585938 54.972656 235.046875 53.339844 233.957031 50.164062 C 233.414062 48.53125 233.050781 46.808594 232.6875 45.175781 C 232.507812 44.539062 232.324219 43.816406 232.144531 43.179688 C 231.507812 41.546875 230.691406 41.273438 229.242188 42.183594 C 226.429688 43.996094 223.980469 46.082031 221.257812 48.078125 C 219.171875 49.621094 217.175781 51.433594 214.726562 52.523438 C 213.820312 52.886719 213.003906 53.339844 212.09375 53.613281 C 209.011719 54.609375 206.742188 53.613281 205.382812 50.710938 C 204.929688 49.621094 204.65625 48.441406 204.203125 47.261719 C 203.207031 44.269531 202.117188 43.722656 199.125 44.8125 C 195.3125 46.171875 192.046875 48.441406 188.601562 50.4375 C 185.878906 52.070312 183.15625 53.523438 180.164062 54.699219 C 179.4375 54.972656 178.53125 54.882812 177.894531 55.335938 C 176.988281 55.335938 176.171875 55.335938 175.265625 55.335938 C 175.175781 55.246094 175.082031 55.0625 174.992188 55.0625 C 172.179688 54.339844 170.546875 52.433594 169.277344 49.984375 C 168.550781 48.714844 168.007812 47.351562 167.28125 46.082031 C 165.648438 43.179688 164.015625 42.453125 160.75 43.363281 C 157.484375 44.179688 154.582031 45.8125 151.679688 47.445312 C 148.050781 49.441406 144.421875 51.707031 140.429688 53.066406 C 132.628906 55.878906 129.542969 53.523438 127.367188 47.445312 C 127.09375 46.71875 126.730469 45.902344 126.367188 45.175781 C 125.824219 43.996094 124.917969 43.722656 123.648438 44.085938 C 122.285156 44.539062 120.925781 45.085938 119.65625 45.902344 C 116.753906 47.625 113.847656 49.441406 111.039062 51.164062 C 109.132812 52.34375 107.136719 53.066406 105.050781 53.429688 C 102.691406 53.882812 100.695312 52.976562 99.425781 50.800781 C 98.972656 49.984375 98.609375 49.078125 98.335938 48.167969 C 97.882812 46.445312 97.429688 44.722656 96.886719 43.089844 C 95.886719 40.097656 94.527344 39.550781 91.625 40.730469 C 89.082031 41.820312 86.726562 43.269531 84.367188 44.632812 C 81.464844 46.265625 78.742188 48.167969 75.476562 49.167969 C 71.484375 50.4375 67.765625 50.4375 64.679688 47.261719 C 63.683594 46.265625 62.683594 45.355469 61.777344 44.269531 C 59.78125 42 57.421875 41.636719 54.613281 42.726562 C 51.617188 43.90625 48.894531 45.71875 46.085938 47.351562 C 43.453125 48.894531 40.914062 50.710938 38.011719 51.796875 C 32.75 53.882812 29.9375 52.25 28.847656 46.808594 C 28.484375 44.902344 28.304688 43 27.667969 41.09375 C 27.035156 39.1875 26.21875 38.917969 24.402344 39.914062 C 22.953125 40.730469 21.589844 41.730469 20.320312 42.90625 C 17.597656 45.265625 15.058594 47.714844 12.335938 50.074219 C 10.523438 51.617188 8.617188 53.160156 6.351562 53.792969 C 3.449219 54.699219 1.269531 53.523438 0.542969 50.527344 C 0.453125 49.984375 0.542969 49.441406 0 48.984375 C 0 47.714844 0 46.355469 0 45.085938 C 0.726562 43.542969 0.726562 41.730469 1.269531 40.1875 C 1.453125 39.734375 1.542969 39.1875 1.90625 38.734375 C 2.269531 38.191406 2.902344 38.007812 3.539062 38.191406 C 4.265625 38.371094 4.71875 38.734375 4.71875 39.550781 C 4.71875 40.457031 4.808594 41.367188 4.625 42.273438 C 4.265625 44.269531 4.171875 46.265625 4.171875 48.167969 C 4.171875 48.804688 4.171875 49.441406 4.898438 49.800781 C 5.625 50.164062 6.167969 49.800781 6.714844 49.441406 C 8.800781 47.988281 10.703125 46.445312 12.519531 44.722656 C 15.242188 42.089844 18.054688 39.550781 21.136719 37.375 C 22.226562 36.648438 23.3125 35.921875 24.585938 35.558594 C 27.214844 34.742188 29.484375 35.742188 30.753906 38.191406 C 31.839844 40.277344 32.113281 42.636719 32.566406 44.902344 C 32.65625 45.265625 32.65625 45.628906 32.75 45.902344 C 33.382812 48.53125 34.199219 49.078125 36.832031 47.988281 C 39.007812 47.171875 41.003906 45.8125 43 44.632812 C 45.902344 42.90625 48.714844 41.09375 51.800781 39.640625 C 53.25 39.007812 54.703125 38.460938 56.246094 38.191406 C 59.328125 37.738281 61.960938 38.554688 64.136719 40.914062 C 65.042969 41.910156 66.042969 42.816406 66.949219 43.816406 C 68.855469 45.902344 71.210938 46.445312 73.933594 45.539062 C 76.203125 44.8125 78.199219 43.632812 80.195312 42.546875 C 83.007812 40.914062 85.910156 39.277344 88.722656 37.644531 C 90.261719 36.738281 91.988281 36.195312 93.800781 36.105469 C 96.070312 35.921875 97.882812 36.738281 99.152344 38.644531 C 100.332031 40.367188 100.878906 42.273438 101.421875 44.269531 C 101.695312 45.449219 101.964844 46.71875 102.511719 47.898438 C 103.144531 49.257812 104.050781 49.710938 105.59375 49.257812 C 107.953125 48.53125 110.128906 47.261719 112.125 45.902344 C 115.210938 43.90625 118.203125 41.820312 121.742188 40.550781 C 125.824219 39.007812 128.453125 40.003906 130.359375 43.996094 C 130.902344 45.175781 131.265625 46.535156 131.8125 47.714844 C 132.71875 49.800781 134.078125 50.527344 136.4375 50.164062 C 137.796875 49.984375 139.070312 49.441406 140.339844 48.894531 C 145.78125 46.265625 150.863281 43.179688 156.394531 40.730469 C 158.574219 39.824219 160.75 39.097656 163.109375 39.007812 C 165.832031 39.007812 167.824219 40.097656 169.550781 42.089844 C 170.457031 43.179688 171.089844 44.539062 171.726562 45.8125 C 172.179688 46.71875 172.632812 47.714844 173.179688 48.53125 C 174.8125 51.164062 176.351562 51.707031 179.257812 50.710938 C 182.703125 49.53125 185.695312 47.535156 188.78125 45.71875 C 191.59375 44.085938 194.316406 42.363281 197.398438 41.183594 C 198.667969 40.730469 200.03125 40.367188 201.390625 40.277344 C 203.839844 40.09375 205.65625 41.183594 206.835938 43.363281 C 207.652344 44.902344 208.011719 46.628906 208.648438 48.167969 C 209.464844 50.074219 209.917969 50.257812 211.824219 49.441406 C 215.632812 47.804688 218.628906 45.175781 221.800781 42.726562 C 223.890625 41.09375 225.882812 39.460938 228.152344 38.191406 C 231.417969 36.375 234.140625 37.285156 235.5 40.820312 C 236.136719 42.453125 236.40625 44.269531 236.859375 45.992188 C 237.132812 46.988281 237.40625 47.988281 237.769531 48.984375 C 238.222656 50.164062 239.21875 50.800781 240.488281 50.800781 C 242.121094 50.800781 243.664062 50.257812 245.117188 49.621094 C 249.742188 47.535156 253.917969 44.632812 258.453125 42.453125 C 259.539062 41.910156 260.539062 41.457031 261.71875 41.183594 C 264.4375 40.457031 266.433594 41.273438 267.796875 43.722656 C 268.519531 45.085938 269.066406 46.445312 269.699219 47.804688 C 270.878906 50.347656 272.058594 50.800781 274.691406 49.894531 C 277.957031 48.804688 280.769531 46.808594 283.582031 44.8125 C 287.390625 42.089844 291.109375 39.277344 295.011719 36.648438 C 296.554688 35.652344 298.09375 34.742188 299.820312 34.109375 C 302.902344 32.929688 304.988281 34.019531 305.898438 37.101562 C 306.441406 38.824219 306.53125 40.550781 306.167969 42.363281 C 305.898438 43.722656 306.078125 44.996094 306.441406 46.355469 C 306.984375 48.078125 307.890625 48.621094 309.707031 48.351562 C 312.335938 47.988281 314.785156 47.082031 317.144531 45.902344 C 322.40625 43.179688 327.667969 40.457031 332.929688 37.738281 C 334.472656 36.921875 336.015625 36.375 337.648438 35.921875 C 341.457031 35.015625 344.089844 36.46875 345.359375 40.09375 C 345.902344 41.636719 346.175781 43.179688 346.628906 44.722656 C 346.71875 44.996094 346.808594 45.265625 346.902344 45.628906 C 347.808594 48.441406 348.804688 48.984375 351.617188 48.261719 C 355.246094 47.261719 358.421875 45.449219 361.597656 43.722656 C 365.769531 41.546875 369.851562 39.097656 374.296875 37.464844 C 375.203125 37.101562 376.203125 36.738281 377.109375 36.558594 C 380.285156 35.742188 382.644531 36.921875 384.183594 39.824219 C 385.09375 41.546875 385.273438 43.542969 385.726562 45.449219 C 386.273438 48.351562 387.269531 48.984375 390.082031 48.078125 C 394.074219 46.808594 397.609375 44.632812 401.238281 42.546875 C 404.867188 40.367188 408.496094 38.191406 412.308594 36.375 C 413.757812 35.652344 415.300781 35.195312 416.84375 34.925781 C 420.5625 34.289062 423.285156 35.742188 424.644531 39.371094 C 425.371094 41.273438 425.824219 43.363281 426.367188 45.355469 C 427.277344 48.441406 428.363281 48.984375 431.449219 48.261719 C 435.894531 47.261719 439.703125 45.085938 443.605469 42.816406 C 446.960938 40.914062 450.226562 38.917969 453.582031 37.011719 C 454.492188 36.46875 455.488281 36.011719 456.578125 35.742188 C 459.207031 35.015625 461.113281 36.105469 461.839844 38.734375 C 462.203125 40.09375 462.203125 41.457031 462.292969 42.816406 C 462.382812 44.269531 462.292969 45.71875 462.382812 47.082031 C 462.5625 49.441406 463.472656 50.074219 465.832031 49.53125 C 468.550781 48.894531 471.183594 47.714844 473.632812 46.355469 C 478.347656 43.722656 482.976562 40.914062 487.691406 38.28125 C 488.960938 37.554688 490.234375 36.828125 491.773438 36.828125 C 494.042969 36.738281 495.3125 37.828125 495.496094 40.097656 C 495.585938 41.457031 495.585938 42.816406 495.585938 44.269531 C 495.585938 44.722656 495.585938 45.175781 495.585938 45.539062 C 495.765625 48.167969 496.582031 48.804688 499.03125 47.714844 C 502.117188 46.445312 504.746094 44.359375 507.558594 42.546875 C 510.28125 40.820312 513.003906 38.917969 515.722656 37.285156 C 520.167969 34.5625 523.070312 35.921875 523.890625 41.09375 C 524.070312 42.363281 524.160156 43.632812 524.34375 44.902344 C 524.613281 46.355469 525.25 46.71875 526.699219 46.628906 C 528.242188 46.445312 529.605469 45.8125 530.964844 45.175781 C 535.773438 42.816406 540.035156 39.550781 544.570312 36.828125 C 545.75 36.105469 546.839844 35.378906 548.019531 34.835938 C 551.738281 33.019531 554.640625 34.742188 554.730469 38.917969 C 554.730469 40.820312 554.460938 42.726562 554.371094 44.632812 C 554.277344 46.355469 554.824219 46.71875 556.457031 46.171875 C 558.269531 45.539062 559.8125 44.359375 561.445312 43.363281 C 563.984375 41.820312 566.433594 40.1875 568.882812 38.644531 C 570.425781 37.738281 572.058594 37.011719 573.78125 36.738281 C 576.140625 36.285156 577.957031 37.101562 579.316406 39.007812 C 579.953125 39.914062 580.40625 40.820312 580.859375 41.820312 C 581.765625 43.816406 583.308594 44.8125 585.484375 44.8125 C 587.027344 44.8125 588.570312 44.632812 590.113281 44.539062 C 590.929688 44.359375 591.5625 44.359375 591.925781 45.085938 Z M 596.460938 39.914062 C 595.464844 40.367188 595.011719 41.183594 595.011719 42.363281 C 595.011719 43.363281 595.464844 44.085938 596.28125 44.449219 C 597.277344 44.902344 598.277344 44.539062 599.003906 43.722656 C 599.363281 43.363281 599.636719 42.816406 600 42.363281 C 600 41.820312 600 41.367188 600 40.820312 C 598.730469 39.640625 597.550781 39.371094 596.460938 39.914062 Z M 4.171875 33.835938 C 5.351562 33.746094 6.167969 32.746094 6.351562 31.386719 C 6.441406 30.027344 5.804688 29.210938 4.71875 28.664062 C 4.355469 28.664062 3.992188 28.664062 3.71875 28.664062 C 3.628906 28.9375 3.265625 28.847656 3.085938 28.9375 C 1.996094 29.574219 1.542969 31.207031 1.996094 32.476562 C 2.269531 33.5625 3.085938 33.925781 4.171875 33.835938 Z M 4.171875 33.835938 " fill-opacity="1" fill-rule="nonzero"/></g></svg>