<svg xmlns="http://www.w3.org/2000/svg" xmlns:xlink="http://www.w3.org/1999/xlink" width="160" zoomAndPan="magnify" viewBox="0 0 120 119.999999" height="160" preserveAspectRatio="xMidYMid meet" version="1.0"><defs><clipPath id="b1a08fa09f"><path d="M 0.5625 4.453125 L 119.8125 4.453125 L 119.8125 115.453125 L 0.5625 115.453125 Z M 0.5625 4.453125 " clip-rule="nonzero"/></clipPath><clipPath id="6ba06323aa"><path d="M 0.5625 4.453125 L 119.8125 4.453125 L 119.8125 115.453125 L 0.5625 115.453125 Z M 0.5625 4.453125 " clip-rule="nonzero"/></clipPath></defs><g clip-path="url(#b1a08fa09f)"><path fill="#2d2828" d="M 27.160156 115.4375 C 12.550781 115.4375 0.664062 103.550781 0.664062 88.941406 L 0.664062 31.046875 C 0.664062 16.4375 12.550781 4.550781 27.160156 4.550781 L 94.828125 4.550781 C 108.339844 4.550781 119.332031 15.542969 119.332031 29.054688 L 119.332031 90.933594 C 119.332031 104.445312 108.339844 115.4375 94.828125 115.4375 Z M 27.160156 115.4375 " fill-opacity="1" fill-rule="nonzero"/></g><path fill="#e367a6" d="M 118.734375 29.054688 L 118.734375 90.933594 C 118.734375 91.695312 118.695312 92.445312 118.625 93.191406 C 117.488281 105.335938 107.269531 114.839844 94.828125 114.839844 L 85.054688 114.839844 C 97.910156 114.839844 108.574219 105.472656 110.601562 93.191406 C 110.828125 91.808594 110.953125 90.390625 110.953125 88.941406 L 110.953125 31.046875 C 110.953125 29.726562 110.851562 28.429688 110.664062 27.160156 C 108.785156 14.699219 98.035156 5.148438 85.054688 5.148438 L 94.828125 5.148438 C 107.390625 5.148438 117.6875 14.84375 118.652344 27.160156 C 118.703125 27.785156 118.734375 28.417969 118.734375 29.054688 Z M 118.734375 29.054688 " fill-opacity="1" fill-rule="nonzero"/><path fill="#a9c1dc" d="M 110.664062 27.160156 C 108.785156 14.699219 98.035156 5.148438 85.054688 5.148438 L 27.160156 5.148438 C 12.859375 5.148438 1.261719 16.746094 1.261719 31.046875 L 1.261719 88.941406 C 1.261719 103.246094 12.859375 114.839844 27.160156 114.839844 L 85.054688 114.839844 C 97.910156 114.839844 108.574219 105.472656 110.601562 93.191406 C 110.828125 91.808594 110.953125 90.390625 110.953125 88.941406 L 110.953125 31.046875 C 110.953125 29.726562 110.851562 28.429688 110.664062 27.160156 Z M 83.71875 71.179688 C 86.351562 75.0625 88.191406 79.527344 88.996094 84.34375 C 89.476562 87.242188 87.207031 89.875 84.269531 89.875 L 27.945312 89.875 C 25.007812 89.875 22.738281 87.242188 23.222656 84.34375 C 24.023438 79.527344 25.863281 75.0625 28.5 71.179688 C 33.003906 64.539062 39.839844 59.605469 47.835938 57.566406 C 44.328125 55.734375 41.503906 52.773438 39.839844 49.167969 C 38.789062 46.890625 38.199219 44.359375 38.199219 41.683594 C 38.199219 35.703125 41.136719 30.410156 45.640625 27.160156 C 48.59375 25.027344 52.222656 23.769531 56.148438 23.777344 C 59.996094 23.785156 63.589844 25.039062 66.53125 27.160156 C 70.847656 30.273438 73.757812 35.253906 74 40.898438 C 74.125 43.859375 73.53125 46.671875 72.378906 49.167969 C 70.714844 52.773438 67.890625 55.734375 64.378906 57.566406 C 72.375 59.605469 79.210938 64.539062 83.71875 71.179688 Z M 83.71875 71.179688 " fill-opacity="1" fill-rule="nonzero"/><path fill="#e6959a" d="M 84.269531 89.875 L 27.945312 89.875 C 25.007812 89.875 22.738281 87.242188 23.222656 84.34375 C 24.023438 79.527344 25.863281 75.0625 28.5 71.179688 C 33.003906 64.539062 39.839844 59.605469 47.835938 57.566406 C 44.328125 55.734375 41.503906 52.773438 39.839844 49.167969 C 38.789062 46.890625 38.199219 44.359375 38.199219 41.683594 C 38.199219 35.703125 41.136719 30.410156 45.640625 27.160156 C 48.59375 25.027344 52.222656 23.769531 56.148438 23.777344 C 59.996094 23.785156 63.589844 25.039062 66.53125 27.160156 C 70.847656 30.273438 73.757812 35.253906 74 40.898438 C 74.125 43.859375 73.53125 46.671875 72.378906 49.167969 C 70.714844 52.773438 67.890625 55.734375 64.378906 57.566406 C 72.375 59.605469 79.210938 64.539062 83.71875 71.179688 C 86.351562 75.0625 88.191406 79.527344 88.996094 84.34375 C 89.476562 87.242188 87.207031 89.875 84.269531 89.875 Z M 84.269531 89.875 " fill-opacity="1" fill-rule="nonzero"/><g clip-path="url(#6ba06323aa)"><path fill="#2d2828" d="M 94.828125 4.453125 L 27.160156 4.453125 C 12.496094 4.453125 0.566406 16.382812 0.566406 31.046875 L 0.566406 88.941406 C 0.566406 103.605469 12.496094 115.539062 27.160156 115.539062 L 94.828125 115.539062 C 108.394531 115.539062 119.433594 104.5 119.433594 90.933594 L 119.433594 29.054688 C 119.433594 15.488281 108.394531 4.453125 94.828125 4.453125 Z M 118.039062 70.484375 L 111.652344 70.484375 L 111.652344 49.867188 L 118.039062 49.867188 Z M 118.039062 90.933594 C 118.039062 91.457031 118.015625 91.976562 117.980469 92.492188 L 111.40625 92.492188 C 111.5625 91.332031 111.652344 90.144531 111.652344 88.941406 L 111.652344 71.878906 L 118.039062 71.878906 Z M 27.160156 114.144531 C 26.210938 114.144531 25.273438 114.085938 24.347656 113.980469 C 11.769531 112.578125 1.960938 101.886719 1.960938 88.941406 L 1.960938 31.046875 C 1.960938 18.105469 11.769531 7.410156 24.347656 6.007812 C 25.273438 5.902344 26.210938 5.847656 27.160156 5.847656 L 85.054688 5.847656 C 97.382812 5.847656 107.667969 14.75 109.832031 26.460938 C 109.875 26.695312 109.917969 26.925781 109.957031 27.160156 C 109.992188 27.390625 110.019531 27.625 110.046875 27.855469 C 110.179688 28.902344 110.257812 29.964844 110.257812 31.046875 L 110.257812 88.941406 C 110.257812 90.148438 110.167969 91.332031 110 92.492188 C 109.96875 92.726562 109.929688 92.960938 109.890625 93.191406 C 109.851562 93.421875 109.8125 93.65625 109.765625 93.886719 C 107.460938 105.421875 97.257812 114.144531 85.054688 114.144531 Z M 111.246094 26.460938 C 109.558594 16.800781 102.648438 8.921875 93.535156 5.847656 L 94.828125 5.847656 C 106.75 5.847656 116.59375 14.882812 117.890625 26.460938 Z M 93.535156 114.144531 C 102.535156 111.105469 109.386719 103.382812 111.183594 93.886719 L 117.84375 93.886719 C 116.386719 105.292969 106.625 114.144531 94.828125 114.144531 Z M 111.652344 48.472656 L 111.652344 31.046875 C 111.652344 29.96875 111.578125 28.902344 111.453125 27.855469 L 118.007812 27.855469 C 118.027344 28.253906 118.039062 28.652344 118.039062 29.054688 L 118.039062 48.472656 Z M 88.464844 88.625 C 89.5 87.402344 89.945312 85.800781 89.683594 84.230469 C 88.9375 79.761719 87.320312 75.585938 85.015625 71.878906 C 84.867188 71.644531 84.722656 71.410156 84.570312 71.179688 C 84.417969 70.945312 84.257812 70.714844 84.097656 70.484375 C 79.824219 64.316406 73.554688 59.621094 66.152344 57.339844 C 69.035156 55.484375 71.308594 52.875 72.785156 49.867188 C 72.898438 49.636719 73.015625 49.40625 73.121094 49.167969 C 73.222656 48.941406 73.3125 48.707031 73.402344 48.472656 C 74.34375 46.089844 74.808594 43.507812 74.695312 40.871094 C 74.476562 35.738281 72.082031 31.109375 68.445312 27.855469 C 68.179688 27.617188 67.90625 27.382812 67.625 27.160156 C 67.320312 26.917969 67.007812 26.6875 66.6875 26.460938 C 63.671875 24.34375 60.027344 23.089844 56.148438 23.078125 C 52.253906 23.078125 48.535156 24.261719 45.414062 26.460938 C 45.097656 26.683594 44.789062 26.917969 44.484375 27.160156 C 44.203125 27.382812 43.929688 27.613281 43.660156 27.855469 C 43.425781 28.070312 43.191406 28.289062 42.964844 28.515625 C 39.445312 32.03125 37.503906 36.707031 37.503906 41.683594 C 37.503906 44.054688 37.949219 46.347656 38.78125 48.472656 C 38.875 48.707031 38.976562 48.9375 39.078125 49.167969 C 39.179688 49.40625 39.285156 49.636719 39.398438 49.867188 C 40.875 52.878906 43.152344 55.476562 46.058594 57.339844 C 38.660156 59.621094 32.390625 64.316406 28.121094 70.484375 C 27.960938 70.714844 27.800781 70.945312 27.644531 71.179688 C 27.492188 71.410156 27.347656 71.644531 27.203125 71.878906 C 24.894531 75.585938 23.277344 79.761719 22.535156 84.230469 C 22.273438 85.800781 22.714844 87.402344 23.75 88.625 C 24.796875 89.859375 26.328125 90.570312 27.945312 90.570312 L 84.269531 90.570312 C 85.890625 90.570312 87.417969 89.859375 88.464844 88.625 Z M 24.8125 87.722656 C 24.042969 86.816406 23.714844 85.625 23.910156 84.460938 C 24.675781 79.875 26.394531 75.613281 28.859375 71.878906 C 29.015625 71.644531 29.171875 71.410156 29.332031 71.179688 C 29.496094 70.945312 29.660156 70.710938 29.828125 70.484375 C 34.210938 64.546875 40.570312 60.140625 48.007812 58.242188 C 48.289062 58.167969 48.496094 57.933594 48.527344 57.644531 C 48.5625 57.359375 48.414062 57.082031 48.15625 56.949219 C 45.039062 55.320312 42.570312 52.832031 40.96875 49.867188 C 40.84375 49.636719 40.726562 49.40625 40.613281 49.167969 C 40.503906 48.9375 40.390625 48.707031 40.289062 48.472656 C 39.386719 46.367188 38.898438 44.066406 38.898438 41.683594 C 38.898438 37.082031 40.691406 32.753906 43.953125 29.5 C 44.550781 28.902344 45.1875 28.355469 45.855469 27.855469 C 46.1875 27.609375 46.527344 27.378906 46.875 27.160156 C 47.261719 26.910156 47.65625 26.675781 48.0625 26.460938 C 50.511719 25.164062 53.257812 24.472656 56.109375 24.472656 C 56.121094 24.472656 56.132812 24.472656 56.144531 24.472656 C 58.972656 24.480469 61.660156 25.199219 64.039062 26.460938 C 64.449219 26.679688 64.84375 26.914062 65.230469 27.160156 C 65.578125 27.378906 65.917969 27.613281 66.25 27.855469 C 70.320312 30.867188 73.074219 35.609375 73.300781 40.929688 C 73.414062 43.558594 72.914062 46.132812 71.902344 48.472656 C 71.800781 48.707031 71.695312 48.941406 71.585938 49.167969 C 71.472656 49.40625 71.351562 49.636719 71.226562 49.867188 C 69.617188 52.835938 67.152344 55.332031 64.058594 56.949219 C 63.800781 57.082031 63.65625 57.359375 63.6875 57.644531 C 63.722656 57.933594 63.929688 58.167969 64.207031 58.242188 C 71.648438 60.140625 78.003906 64.546875 82.386719 70.484375 C 82.554688 70.710938 82.71875 70.945312 82.882812 71.179688 C 83.042969 71.410156 83.199219 71.644531 83.355469 71.878906 C 85.820312 75.613281 87.542969 79.875 88.308594 84.460938 C 88.5 85.625 88.171875 86.816406 87.402344 87.722656 C 86.621094 88.644531 85.476562 89.175781 84.269531 89.175781 L 27.945312 89.175781 C 26.738281 89.175781 25.597656 88.644531 24.8125 87.722656 Z M 24.8125 87.722656 " fill-opacity="1" fill-rule="nonzero"/></g></svg>