<svg xmlns="http://www.w3.org/2000/svg" xmlns:xlink="http://www.w3.org/1999/xlink" width="160" zoomAndPan="magnify" viewBox="0 0 120 119.999999" height="160" preserveAspectRatio="xMidYMid meet" version="1.0"><defs><clipPath id="70acb693f1"><path d="M 3.382812 0 L 116.632812 0 L 116.632812 120 L 3.382812 120 Z M 3.382812 0 " clip-rule="nonzero"/></clipPath><clipPath id="c9261a039b"><path d="M 3.382812 0 L 116.632812 0 L 116.632812 120 L 3.382812 120 Z M 3.382812 0 " clip-rule="nonzero"/></clipPath></defs><g clip-path="url(#70acb693f1)"><path fill="#2d2828" d="M 34.417969 119.808594 C 22.523438 119.808594 11.855469 111.835938 8.472656 100.421875 C 5.210938 95.585938 3.496094 89.980469 3.496094 84.175781 L 3.496094 29.214844 C 3.496094 13.210938 16.515625 0.191406 32.515625 0.191406 L 87.480469 0.191406 C 103.480469 0.191406 116.5 13.210938 116.5 29.214844 L 116.5 84.175781 C 116.5 89.980469 114.785156 95.585938 111.539062 100.390625 C 108.140625 111.835938 97.472656 119.808594 85.578125 119.808594 Z M 34.417969 119.808594 " fill-opacity="1" fill-rule="nonzero"/></g><path fill="#e367a6" d="M 87.480469 0.875 L 32.515625 0.875 C 16.867188 0.875 4.179688 13.5625 4.179688 29.214844 L 4.179688 84.175781 C 4.179688 99.828125 16.867188 112.511719 32.515625 112.511719 L 87.480469 112.511719 C 103.128906 112.511719 115.816406 99.828125 115.816406 84.175781 L 115.816406 29.214844 C 115.816406 13.5625 103.128906 0.875 87.480469 0.875 Z M 87.480469 0.875 " fill-opacity="1" fill-rule="nonzero"/><path fill="#757abe" d="M 37.921875 30.269531 L 50.125 30.269531 L 50.125 46.824219 L 33.570312 46.824219 L 33.570312 34.621094 C 33.570312 32.21875 35.523438 30.269531 37.921875 30.269531 Z M 82.074219 30.269531 L 69.871094 30.269531 L 69.871094 46.824219 L 86.425781 46.824219 L 86.425781 34.621094 C 86.425781 32.21875 84.472656 30.269531 82.074219 30.269531 Z M 33.570312 64.972656 L 50.125 64.972656 L 50.125 48.417969 L 33.570312 48.417969 Z M 51.722656 83.121094 L 68.273438 83.121094 L 68.273438 66.566406 L 51.722656 66.566406 Z M 51.722656 83.121094 " fill-opacity="1" fill-rule="nonzero"/><path fill="#e367a6" d="M 51.722656 48.417969 L 68.273438 48.417969 L 68.273438 64.972656 L 51.722656 64.972656 Z M 51.722656 48.417969 " fill-opacity="1" fill-rule="nonzero"/><path fill="#a1cba2" d="M 86.425781 66.566406 L 86.425781 78.769531 C 86.425781 81.171875 84.472656 83.121094 82.074219 83.121094 L 69.871094 83.121094 L 69.871094 66.566406 Z M 86.425781 66.566406 " fill-opacity="1" fill-rule="nonzero"/><path fill="#f5f1e1" d="M 82.074219 28.671875 L 37.921875 28.671875 C 34.644531 28.671875 31.976562 31.339844 31.976562 34.621094 L 31.976562 78.769531 C 31.976562 82.050781 34.644531 84.71875 37.921875 84.71875 L 82.074219 84.71875 C 85.351562 84.71875 88.019531 82.050781 88.019531 78.769531 L 88.019531 34.621094 C 88.019531 31.339844 85.351562 28.671875 82.074219 28.671875 Z M 86.425781 78.769531 C 86.425781 81.171875 84.472656 83.121094 82.074219 83.121094 L 69.871094 83.121094 L 69.871094 66.566406 L 86.425781 66.566406 Z M 86.425781 34.621094 L 86.425781 46.824219 L 69.871094 46.824219 L 69.871094 30.269531 L 82.074219 30.269531 C 84.472656 30.269531 86.425781 32.21875 86.425781 34.621094 Z M 51.722656 48.417969 L 68.273438 48.417969 L 68.273438 64.972656 L 51.722656 64.972656 Z M 50.125 64.972656 L 33.570312 64.972656 L 33.570312 48.417969 L 50.125 48.417969 Z M 50.125 30.269531 L 50.125 46.824219 L 33.570312 46.824219 L 33.570312 34.621094 C 33.570312 32.21875 35.523438 30.269531 37.921875 30.269531 Z M 51.722656 66.566406 L 68.273438 66.566406 L 68.273438 83.121094 L 51.722656 83.121094 Z M 51.722656 66.566406 " fill-opacity="1" fill-rule="nonzero"/><g clip-path="url(#c9261a039b)"><path fill="#2d2828" d="M 87.480469 0.078125 L 32.515625 0.078125 C 16.449219 0.078125 3.382812 13.148438 3.382812 29.214844 L 3.382812 84.175781 C 3.382812 90.199219 5.21875 95.804688 8.363281 100.453125 C 11.695312 111.695312 22.109375 119.921875 34.417969 119.921875 L 85.578125 119.921875 C 97.886719 119.921875 108.300781 111.695312 111.632812 100.453125 C 114.777344 95.800781 116.613281 90.199219 116.613281 84.175781 L 116.613281 29.214844 C 116.613281 13.148438 103.542969 0.078125 87.480469 0.078125 Z M 115.019531 84.175781 C 115.019531 88.167969 114.15625 91.964844 112.621094 95.390625 C 112.277344 96.15625 111.902344 96.902344 111.496094 97.628906 C 111.085938 98.359375 110.644531 99.066406 110.171875 99.753906 C 105.203125 106.972656 96.886719 111.714844 87.480469 111.714844 L 32.515625 111.714844 C 23.109375 111.714844 14.792969 106.972656 9.824219 99.753906 C 9.351562 99.070312 8.910156 98.359375 8.5 97.628906 C 8.089844 96.902344 7.714844 96.15625 7.375 95.394531 C 5.839844 91.964844 4.976562 88.171875 4.976562 84.175781 L 4.976562 29.214844 C 4.976562 14.027344 17.332031 1.675781 32.515625 1.675781 L 87.480469 1.675781 C 102.664062 1.675781 115.019531 14.027344 115.019531 29.214844 Z M 82.074219 28.671875 L 37.921875 28.671875 C 34.644531 28.671875 31.976562 31.339844 31.976562 34.621094 L 31.976562 78.769531 C 31.976562 82.050781 34.644531 84.71875 37.921875 84.71875 L 82.074219 84.71875 C 85.351562 84.71875 88.019531 82.050781 88.019531 78.769531 L 88.019531 34.621094 C 88.019531 31.339844 85.351562 28.671875 82.074219 28.671875 Z M 86.425781 78.769531 C 86.425781 81.171875 84.472656 83.121094 82.074219 83.121094 L 69.871094 83.121094 L 69.871094 66.566406 L 86.425781 66.566406 Z M 86.425781 34.621094 L 86.425781 46.824219 L 69.871094 46.824219 L 69.871094 30.269531 L 82.074219 30.269531 C 84.472656 30.269531 86.425781 32.21875 86.425781 34.621094 Z M 86.425781 64.972656 L 69.871094 64.972656 L 69.871094 48.417969 L 86.425781 48.417969 Z M 51.722656 48.417969 L 68.273438 48.417969 L 68.273438 64.972656 L 51.722656 64.972656 Z M 50.125 64.972656 L 33.570312 64.972656 L 33.570312 48.417969 L 50.125 48.417969 Z M 68.273438 46.824219 L 51.722656 46.824219 L 51.722656 30.269531 L 68.273438 30.269531 Z M 50.125 30.269531 L 50.125 46.824219 L 33.570312 46.824219 L 33.570312 34.621094 C 33.570312 32.21875 35.523438 30.269531 37.921875 30.269531 Z M 33.570312 66.566406 L 50.125 66.566406 L 50.125 83.121094 L 37.921875 83.121094 C 35.523438 83.121094 33.570312 81.171875 33.570312 78.769531 Z M 51.722656 66.566406 L 68.273438 66.566406 L 68.273438 83.121094 L 51.722656 83.121094 Z M 51.722656 66.566406 " fill-opacity="1" fill-rule="nonzero"/></g></svg>