<svg xmlns="http://www.w3.org/2000/svg" xmlns:xlink="http://www.w3.org/1999/xlink" width="160" zoomAndPan="magnify" viewBox="0 0 120 119.999999" height="160" preserveAspectRatio="xMidYMid meet" version="1.0"><defs><clipPath id="5bdd478fc5"><path d="M 5.5625 0 L 114.3125 0 L 114.3125 120 L 5.5625 120 Z M 5.5625 0 " clip-rule="nonzero"/></clipPath><clipPath id="e453e8dce1"><path d="M 5.5625 2 L 110 2 L 110 120 L 5.5625 120 Z M 5.5625 2 " clip-rule="nonzero"/></clipPath><clipPath id="08b291230d"><path d="M 15 0 L 114.3125 0 L 114.3125 111 L 15 111 Z M 15 0 " clip-rule="nonzero"/></clipPath><clipPath id="cdc4373198"><path d="M 5.5625 0 L 114.3125 0 L 114.3125 120 L 5.5625 120 Z M 5.5625 0 " clip-rule="nonzero"/></clipPath></defs><g clip-path="url(#5bdd478fc5)"><path fill="#2d2828" d="M 9.910156 119.933594 C 7.539062 119.933594 5.605469 118 5.605469 115.628906 L 5.605469 13.734375 C 5.605469 11.773438 6.933594 10.0625 8.835938 9.570312 L 8.859375 9.5625 L 8.867188 9.539062 C 9.253906 8.023438 10.441406 6.839844 11.957031 6.449219 L 11.980469 6.441406 L 11.988281 6.417969 C 12.378906 4.902344 13.5625 3.71875 15.078125 3.328125 L 15.101562 3.320312 L 15.109375 3.296875 C 15.597656 1.394531 17.3125 0.0664062 19.273438 0.0664062 L 110.085938 0.0664062 C 112.460938 0.0664062 114.390625 2 114.390625 4.375 L 114.390625 106.265625 C 114.390625 108.226562 113.066406 109.941406 111.164062 110.429688 L 111.140625 110.4375 L 111.132812 110.460938 C 110.742188 111.976562 109.558594 113.160156 108.042969 113.550781 L 108.019531 113.558594 L 108.011719 113.582031 C 107.621094 115.097656 106.4375 116.285156 104.921875 116.671875 L 104.898438 116.679688 L 104.890625 116.703125 C 104.398438 118.605469 102.6875 119.933594 100.726562 119.933594 Z M 9.910156 119.933594 " fill-opacity="1" fill-rule="nonzero"/></g><path fill="#ffc900" d="M 110.925781 110.222656 C 110.59375 111.785156 109.367188 113.015625 107.804688 113.34375 C 107.535156 113.402344 107.253906 113.429688 106.96875 113.429688 L 16.152344 113.429688 C 13.917969 113.429688 12.109375 111.621094 12.109375 109.386719 L 12.109375 7.492188 C 12.109375 7.207031 12.136719 6.925781 12.195312 6.65625 C 12.523438 5.09375 13.753906 3.863281 15.316406 3.535156 C 15.304688 3.582031 15.296875 3.625 15.289062 3.671875 C 15.25 3.898438 15.226562 4.132812 15.226562 4.371094 L 15.226562 106.265625 C 15.226562 108.5 17.039062 110.3125 19.273438 110.3125 L 110.085938 110.3125 C 110.375 110.3125 110.652344 110.28125 110.925781 110.222656 Z M 60 6.175781 C 60.878906 6.175781 61.589844 5.464844 61.589844 4.585938 C 61.589844 3.707031 60.878906 2.996094 60 2.996094 C 59.121094 2.996094 58.410156 3.707031 58.410156 4.585938 C 58.410156 5.464844 59.121094 6.175781 60 6.175781 Z M 24.425781 17.636719 C 26.964844 17.636719 29.023438 15.582031 29.023438 13.042969 C 29.023438 10.503906 26.964844 8.445312 24.425781 8.445312 C 21.890625 8.445312 19.832031 10.503906 19.832031 13.042969 C 19.832031 15.582031 21.890625 17.636719 24.425781 17.636719 Z M 24.425781 17.636719 " fill-opacity="1" fill-rule="nonzero"/><path fill="#f43fc1" d="M 107.804688 113.34375 C 107.476562 114.90625 106.246094 116.136719 104.683594 116.464844 C 104.414062 116.519531 104.132812 116.550781 103.847656 116.550781 L 13.03125 116.550781 C 10.796875 116.550781 8.988281 114.742188 8.988281 112.507812 L 8.988281 10.613281 C 8.988281 10.328125 9.019531 10.046875 9.074219 9.777344 C 9.402344 8.214844 10.632812 6.984375 12.195312 6.65625 C 12.136719 6.925781 12.109375 7.207031 12.109375 7.492188 L 12.109375 109.386719 C 12.109375 111.621094 13.917969 113.429688 16.152344 113.429688 L 106.96875 113.429688 C 107.253906 113.429688 107.535156 113.402344 107.804688 113.34375 Z M 65.636719 6.175781 C 66.515625 6.175781 67.226562 5.464844 67.226562 4.585938 C 67.226562 3.707031 66.515625 2.996094 65.636719 2.996094 C 64.757812 2.996094 64.046875 3.707031 64.046875 4.585938 C 64.046875 5.464844 64.757812 6.175781 65.636719 6.175781 Z M 33.378906 12.683594 L 44.652344 12.683594 C 45.171875 12.683594 45.59375 12.265625 45.59375 11.746094 L 45.59375 10.746094 C 45.59375 10.226562 45.171875 9.804688 44.652344 9.804688 L 33.378906 9.804688 C 32.859375 9.804688 32.4375 10.226562 32.4375 10.746094 L 32.4375 11.746094 C 32.4375 12.265625 32.859375 12.683594 33.378906 12.683594 Z M 33.378906 12.683594 " fill-opacity="1" fill-rule="nonzero"/><g clip-path="url(#e453e8dce1)"><path fill="#3972ac" d="M 103.847656 116.550781 C 104.132812 116.550781 104.414062 116.519531 104.683594 116.464844 C 104.296875 118.296875 102.671875 119.671875 100.726562 119.671875 L 9.910156 119.671875 C 7.679688 119.671875 5.867188 117.859375 5.867188 115.628906 L 5.867188 13.734375 C 5.867188 11.785156 7.242188 10.160156 9.074219 9.777344 C 9.019531 10.046875 8.988281 10.328125 8.988281 10.613281 L 8.988281 112.507812 C 8.988281 114.742188 10.796875 116.550781 13.03125 116.550781 Z M 109.242188 20.855469 L 109.242188 93.242188 L 20.117188 93.242188 L 20.117188 20.855469 Z M 93.226562 62.648438 C 93.226562 58.59375 89.941406 55.308594 85.890625 55.308594 L 84.109375 55.308594 C 84.109375 49.378906 79.300781 44.574219 73.375 44.574219 C 71.996094 44.574219 70.675781 44.835938 69.464844 45.3125 C 66.953125 41.097656 62.351562 38.277344 57.089844 38.277344 C 49.132812 38.277344 42.683594 44.726562 42.683594 52.683594 C 42.683594 53.585938 42.769531 54.472656 42.929688 55.332031 C 39.128906 55.605469 36.132812 58.777344 36.132812 62.648438 C 36.132812 66.699219 39.417969 69.984375 43.46875 69.984375 L 85.890625 69.984375 C 89.941406 69.984375 93.226562 66.699219 93.226562 62.648438 Z M 71.273438 6.175781 C 72.152344 6.175781 72.863281 5.464844 72.863281 4.585938 C 72.863281 3.707031 72.152344 2.996094 71.273438 2.996094 C 70.398438 2.996094 69.683594 3.707031 69.683594 4.585938 C 69.683594 5.464844 70.398438 6.175781 71.273438 6.175781 Z M 33.378906 16.28125 L 50.699219 16.28125 C 51.21875 16.28125 51.640625 15.859375 51.640625 15.339844 C 51.640625 14.820312 51.21875 14.402344 50.699219 14.402344 L 33.378906 14.402344 C 32.859375 14.402344 32.4375 14.820312 32.4375 15.339844 C 32.4375 15.859375 32.859375 16.28125 33.378906 16.28125 Z M 33.378906 16.28125 " fill-opacity="1" fill-rule="nonzero"/></g><g clip-path="url(#08b291230d)"><path fill="#f5f1e1" d="M 110.085938 0.328125 L 19.273438 0.328125 C 17.324219 0.328125 15.699219 1.703125 15.316406 3.535156 C 15.304688 3.582031 15.296875 3.625 15.289062 3.671875 C 15.25 3.898438 15.226562 4.132812 15.226562 4.371094 L 15.226562 106.265625 C 15.226562 108.5 17.039062 110.3125 19.273438 110.3125 L 110.085938 110.3125 C 110.375 110.3125 110.652344 110.28125 110.925781 110.222656 C 112.757812 109.839844 114.132812 108.214844 114.132812 106.265625 L 114.132812 4.371094 C 114.132812 2.140625 112.320312 0.328125 110.085938 0.328125 Z M 71.273438 2.996094 C 72.152344 2.996094 72.863281 3.707031 72.863281 4.585938 C 72.863281 5.464844 72.152344 6.175781 71.273438 6.175781 C 70.398438 6.175781 69.683594 5.464844 69.683594 4.585938 C 69.683594 3.707031 70.398438 2.996094 71.273438 2.996094 Z M 65.636719 2.996094 C 66.515625 2.996094 67.226562 3.707031 67.226562 4.585938 C 67.226562 5.464844 66.515625 6.175781 65.636719 6.175781 C 64.757812 6.175781 64.046875 5.464844 64.046875 4.585938 C 64.046875 3.707031 64.757812 2.996094 65.636719 2.996094 Z M 60 2.996094 C 60.878906 2.996094 61.589844 3.707031 61.589844 4.585938 C 61.589844 5.464844 60.878906 6.175781 60 6.175781 C 59.121094 6.175781 58.410156 5.464844 58.410156 4.585938 C 58.410156 3.707031 59.121094 2.996094 60 2.996094 Z M 32.4375 10.746094 C 32.4375 10.226562 32.859375 9.804688 33.378906 9.804688 L 44.652344 9.804688 C 45.171875 9.804688 45.59375 10.226562 45.59375 10.746094 L 45.59375 11.746094 C 45.59375 12.265625 45.171875 12.683594 44.652344 12.683594 L 33.378906 12.683594 C 32.859375 12.683594 32.4375 12.265625 32.4375 11.746094 Z M 33.378906 14.402344 L 50.699219 14.402344 C 51.21875 14.402344 51.640625 14.820312 51.640625 15.339844 C 51.640625 15.859375 51.21875 16.28125 50.699219 16.28125 L 33.378906 16.28125 C 32.859375 16.28125 32.4375 15.859375 32.4375 15.339844 C 32.4375 14.820312 32.859375 14.402344 33.378906 14.402344 Z M 24.425781 8.445312 C 26.964844 8.445312 29.023438 10.503906 29.023438 13.042969 C 29.023438 15.582031 26.964844 17.636719 24.425781 17.636719 C 21.890625 17.636719 19.832031 15.582031 19.832031 13.042969 C 19.832031 10.503906 21.890625 8.445312 24.425781 8.445312 Z M 109.242188 93.242188 L 20.117188 93.242188 L 20.117188 20.855469 L 109.242188 20.855469 Z M 36.132812 62.648438 C 36.132812 58.777344 39.128906 55.605469 42.929688 55.332031 C 42.769531 54.472656 42.683594 53.585938 42.683594 52.683594 C 42.683594 44.726562 49.132812 38.277344 57.089844 38.277344 C 62.351562 38.277344 66.953125 41.097656 69.464844 45.3125 C 70.675781 44.835938 71.996094 44.574219 73.375 44.574219 C 79.300781 44.574219 84.109375 49.378906 84.109375 55.308594 L 85.890625 55.308594 C 89.941406 55.308594 93.226562 58.59375 93.226562 62.648438 C 93.226562 66.699219 89.941406 69.984375 85.890625 69.984375 L 43.46875 69.984375 C 39.417969 69.984375 36.132812 66.699219 36.132812 62.648438 Z M 36.132812 62.648438 " fill-opacity="1" fill-rule="nonzero"/></g><path fill="#f5f1e1" d="M 103.980469 32.46875 L 98.488281 32.46875 C 97.890625 32.46875 97.402344 31.980469 97.402344 31.382812 L 97.402344 25.890625 C 97.402344 25.292969 97.890625 24.804688 98.488281 24.804688 L 98.886719 24.804688 L 98.886719 24.332031 C 98.886719 23.730469 99.375 23.242188 99.972656 23.242188 L 105.464844 23.242188 C 106.0625 23.242188 106.550781 23.730469 106.550781 24.332031 L 106.550781 29.820312 C 106.550781 30.421875 106.0625 30.910156 105.464844 30.910156 L 105.066406 30.910156 L 105.066406 31.382812 C 105.066406 31.980469 104.578125 32.46875 103.980469 32.46875 Z M 98.488281 25.410156 C 98.226562 25.410156 98.007812 25.625 98.007812 25.890625 L 98.007812 31.382812 C 98.007812 31.644531 98.226562 31.863281 98.488281 31.863281 L 103.980469 31.863281 C 104.246094 31.863281 104.460938 31.644531 104.460938 31.382812 L 104.460938 30.910156 L 99.972656 30.910156 C 99.375 30.910156 98.886719 30.421875 98.886719 29.820312 L 98.886719 25.410156 Z M 99.492188 29.820312 C 99.492188 30.085938 99.707031 30.300781 99.972656 30.300781 L 105.464844 30.300781 C 105.730469 30.300781 105.945312 30.085938 105.945312 29.820312 L 105.945312 24.332031 C 105.945312 24.066406 105.730469 23.851562 105.464844 23.851562 L 99.972656 23.851562 C 99.707031 23.851562 99.492188 24.066406 99.492188 24.332031 Z M 99.492188 29.820312 " fill-opacity="1" fill-rule="nonzero"/><g clip-path="url(#cdc4373198)"><path fill="#2d2828" d="M 110.085938 0.0234375 L 19.273438 0.0234375 C 17.292969 0.0234375 15.558594 1.386719 15.066406 3.285156 C 13.535156 3.679688 12.339844 4.875 11.945312 6.40625 C 10.414062 6.800781 9.21875 7.996094 8.824219 9.527344 C 6.925781 10.019531 5.5625 11.753906 5.5625 13.734375 L 5.5625 115.628906 C 5.5625 118.023438 7.515625 119.976562 9.910156 119.976562 L 100.726562 119.976562 C 102.707031 119.976562 104.441406 118.613281 104.933594 116.714844 C 106.464844 116.320312 107.660156 115.125 108.054688 113.59375 C 109.585938 113.199219 110.78125 112.003906 111.175781 110.472656 C 113.074219 109.980469 114.4375 108.246094 114.4375 106.265625 L 114.4375 4.375 C 114.4375 1.976562 112.484375 0.0234375 110.085938 0.0234375 Z M 113.828125 106.265625 C 113.828125 108.027344 112.582031 109.566406 110.863281 109.925781 C 110.609375 109.980469 110.347656 110.007812 110.085938 110.007812 L 19.273438 110.007812 C 17.210938 110.007812 15.53125 108.328125 15.53125 106.265625 L 15.53125 4.375 C 15.53125 4.113281 15.558594 3.851562 15.613281 3.597656 C 15.972656 1.878906 17.511719 0.632812 19.273438 0.632812 L 110.085938 0.632812 C 112.148438 0.632812 113.828125 2.308594 113.828125 4.375 Z M 110.507812 110.59375 C 110.085938 111.832031 109.042969 112.773438 107.742188 113.046875 C 107.488281 113.101562 107.226562 113.128906 106.96875 113.128906 L 16.152344 113.128906 C 14.089844 113.128906 12.410156 111.449219 12.410156 109.386719 L 12.410156 96.667969 L 14.925781 96.667969 L 14.925781 106.265625 C 14.925781 108.664062 16.875 110.613281 19.273438 110.613281 L 110.085938 110.613281 C 110.089844 110.613281 110.089844 110.613281 110.089844 110.613281 C 110.160156 110.613281 110.234375 110.613281 110.304688 110.609375 C 110.332031 110.609375 110.359375 110.605469 110.386719 110.601562 C 110.429688 110.601562 110.46875 110.597656 110.507812 110.59375 Z M 107.386719 113.714844 C 106.96875 114.953125 105.921875 115.894531 104.621094 116.167969 C 104.367188 116.21875 104.105469 116.246094 103.847656 116.246094 L 13.03125 116.246094 C 10.96875 116.246094 9.292969 114.570312 9.292969 112.507812 L 9.292969 99.789062 L 11.804688 99.789062 L 11.804688 109.386719 C 11.804688 111.785156 13.753906 113.734375 16.152344 113.734375 L 106.96875 113.734375 C 107.039062 113.734375 107.113281 113.734375 107.1875 113.730469 C 107.207031 113.726562 107.230469 113.726562 107.25 113.726562 C 107.296875 113.722656 107.34375 113.71875 107.386719 113.714844 Z M 104.265625 116.835938 C 103.757812 118.324219 102.335938 119.367188 100.726562 119.367188 L 9.910156 119.367188 C 7.847656 119.367188 6.171875 117.691406 6.171875 115.628906 L 6.171875 102.90625 L 8.683594 102.90625 L 8.683594 112.507812 C 8.683594 114.90625 10.632812 116.855469 13.03125 116.855469 L 103.847656 116.855469 C 103.921875 116.855469 103.992188 116.851562 104.066406 116.847656 C 104.089844 116.847656 104.113281 116.847656 104.136719 116.84375 C 104.179688 116.839844 104.222656 116.839844 104.265625 116.835938 Z M 6.171875 13.734375 C 6.171875 12.125 7.214844 10.703125 8.703125 10.191406 C 8.699219 10.234375 8.699219 10.277344 8.695312 10.320312 C 8.691406 10.34375 8.691406 10.371094 8.691406 10.394531 C 8.6875 10.46875 8.683594 10.539062 8.683594 10.613281 L 8.683594 30.140625 L 6.171875 30.140625 Z M 9.292969 10.613281 C 9.292969 10.355469 9.320312 10.09375 9.371094 9.839844 C 9.644531 8.539062 10.585938 7.492188 11.824219 7.070312 C 11.820312 7.117188 11.816406 7.164062 11.8125 7.210938 C 11.8125 7.230469 11.8125 7.253906 11.808594 7.273438 C 11.804688 7.347656 11.804688 7.421875 11.804688 7.492188 L 11.804688 27.019531 L 9.292969 27.019531 Z M 12.410156 7.492188 C 12.410156 7.234375 12.4375 6.972656 12.492188 6.71875 C 12.765625 5.417969 13.707031 4.371094 14.945312 3.953125 C 14.941406 3.996094 14.9375 4.042969 14.933594 4.089844 C 14.933594 4.109375 14.929688 4.132812 14.929688 4.152344 C 14.925781 4.226562 14.925781 4.300781 14.925781 4.375 L 14.925781 23.898438 L 12.410156 23.898438 Z M 9.292969 30.445312 L 9.292969 27.628906 L 11.804688 27.628906 L 11.804688 99.179688 L 9.292969 99.179688 Z M 12.410156 27.324219 L 12.410156 24.507812 L 14.925781 24.507812 L 14.925781 96.058594 L 12.410156 96.058594 Z M 8.683594 30.746094 L 8.683594 102.300781 L 6.171875 102.300781 L 6.171875 30.746094 Z M 109.242188 20.550781 L 20.117188 20.550781 C 19.949219 20.550781 19.8125 20.6875 19.8125 20.855469 L 19.8125 93.242188 C 19.8125 93.410156 19.949219 93.546875 20.117188 93.546875 L 109.242188 93.546875 C 109.410156 93.546875 109.546875 93.410156 109.546875 93.242188 L 109.546875 20.855469 C 109.546875 20.6875 109.410156 20.550781 109.242188 20.550781 Z M 108.9375 92.941406 L 20.421875 92.941406 L 20.421875 21.160156 L 108.9375 21.160156 Z M 60 6.480469 C 61.042969 6.480469 61.894531 5.628906 61.894531 4.585938 C 61.894531 3.542969 61.042969 2.691406 60 2.691406 C 58.957031 2.691406 58.105469 3.542969 58.105469 4.585938 C 58.105469 5.628906 58.957031 6.480469 60 6.480469 Z M 60 3.300781 C 60.707031 3.300781 61.285156 3.875 61.285156 4.585938 C 61.285156 5.296875 60.707031 5.871094 60 5.871094 C 59.289062 5.871094 58.714844 5.296875 58.714844 4.585938 C 58.714844 3.875 59.289062 3.300781 60 3.300781 Z M 65.636719 6.480469 C 66.679688 6.480469 67.53125 5.628906 67.53125 4.585938 C 67.53125 3.542969 66.679688 2.691406 65.636719 2.691406 C 64.59375 2.691406 63.742188 3.542969 63.742188 4.585938 C 63.742188 5.628906 64.59375 6.480469 65.636719 6.480469 Z M 65.636719 3.300781 C 66.347656 3.300781 66.921875 3.875 66.921875 4.585938 C 66.921875 5.296875 66.347656 5.871094 65.636719 5.871094 C 64.929688 5.871094 64.351562 5.296875 64.351562 4.585938 C 64.351562 3.875 64.929688 3.300781 65.636719 3.300781 Z M 71.273438 6.480469 C 72.320312 6.480469 73.167969 5.628906 73.167969 4.585938 C 73.167969 3.542969 72.320312 2.691406 71.273438 2.691406 C 70.230469 2.691406 69.382812 3.542969 69.382812 4.585938 C 69.382812 5.628906 70.230469 6.480469 71.273438 6.480469 Z M 72.5625 4.585938 C 72.5625 5.296875 71.984375 5.871094 71.273438 5.871094 C 70.566406 5.871094 69.988281 5.296875 69.988281 4.585938 C 69.988281 3.875 70.566406 3.300781 71.273438 3.300781 C 71.984375 3.300781 72.5625 3.875 72.5625 4.585938 Z M 26.65625 97.839844 C 26.058594 97.839844 25.507812 98.125 25.160156 98.59375 C 24.796875 98.121094 24.230469 97.835938 23.640625 97.839844 C 23.089844 97.847656 22.574219 98.066406 22.183594 98.457031 C 21.789062 98.851562 21.570312 99.378906 21.570312 99.941406 L 21.570312 100.144531 C 21.570312 100.707031 21.789062 101.234375 22.183594 101.628906 L 24.863281 104.308594 C 24.945312 104.390625 25.050781 104.433594 25.164062 104.433594 C 25.273438 104.433594 25.378906 104.390625 25.460938 104.308594 L 28.140625 101.628906 C 28.535156 101.234375 28.753906 100.707031 28.753906 100.144531 L 28.753906 99.941406 C 28.753906 99.378906 28.535156 98.851562 28.140625 98.457031 C 27.742188 98.058594 27.214844 97.839844 26.65625 97.839844 Z M 28.148438 100.144531 C 28.148438 100.542969 27.992188 100.917969 27.710938 101.199219 L 25.160156 103.746094 L 22.613281 101.199219 C 22.332031 100.917969 22.175781 100.542969 22.175781 100.144531 L 22.175781 99.941406 C 22.175781 99.542969 22.332031 99.167969 22.613281 98.886719 C 22.890625 98.609375 23.257812 98.453125 23.648438 98.449219 C 23.65625 98.449219 23.660156 98.449219 23.664062 98.449219 C 24.128906 98.449219 24.574219 98.722656 24.796875 99.152344 L 24.890625 99.335938 C 24.945312 99.4375 25.046875 99.5 25.160156 99.5 C 25.273438 99.5 25.378906 99.4375 25.429688 99.335938 L 25.542969 99.121094 C 25.761719 98.707031 26.1875 98.449219 26.65625 98.449219 C 27.054688 98.449219 27.429688 98.601562 27.710938 98.886719 C 27.992188 99.167969 28.148438 99.542969 28.148438 99.941406 Z M 38.1875 102.671875 C 38.4375 102.199219 38.566406 101.671875 38.566406 101.136719 C 38.566406 99.320312 37.089844 97.839844 35.269531 97.839844 C 33.453125 97.839844 31.972656 99.320312 31.972656 101.136719 C 31.972656 102.953125 33.453125 104.433594 35.269531 104.433594 C 35.804688 104.433594 36.335938 104.300781 36.808594 104.054688 L 38.183594 104.421875 C 38.210938 104.429688 38.238281 104.433594 38.265625 104.433594 C 38.34375 104.433594 38.421875 104.402344 38.480469 104.34375 C 38.554688 104.265625 38.585938 104.15625 38.558594 104.050781 Z M 37.570312 102.710938 L 37.832031 103.699219 L 36.847656 103.433594 C 36.769531 103.414062 36.683594 103.425781 36.613281 103.464844 C 36.207031 103.699219 35.742188 103.824219 35.269531 103.824219 C 33.789062 103.824219 32.582031 102.621094 32.582031 101.136719 C 32.582031 99.652344 33.789062 98.449219 35.269531 98.449219 C 36.753906 98.449219 37.960938 99.652344 37.960938 101.136719 C 37.960938 101.609375 37.835938 102.074219 37.597656 102.480469 C 37.558594 102.550781 37.546875 102.632812 37.570312 102.710938 Z M 48.644531 98.003906 C 48.628906 97.976562 48.609375 97.953125 48.585938 97.929688 C 48.566406 97.90625 48.539062 97.886719 48.511719 97.875 C 48.476562 97.855469 48.441406 97.847656 48.40625 97.84375 C 48.371094 97.839844 48.332031 97.839844 48.296875 97.851562 C 48.289062 97.851562 48.277344 97.855469 48.269531 97.859375 L 42.289062 99.941406 C 42.160156 99.984375 42.078125 100.105469 42.082031 100.242188 C 42.089844 100.375 42.179688 100.488281 42.308594 100.523438 L 45.21875 101.296875 L 45.996094 104.207031 C 46.027344 104.335938 46.144531 104.429688 46.277344 104.433594 C 46.28125 104.433594 46.285156 104.433594 46.289062 104.433594 C 46.417969 104.433594 46.53125 104.351562 46.574219 104.230469 L 48.660156 98.246094 C 48.660156 98.238281 48.664062 98.230469 48.667969 98.222656 C 48.675781 98.183594 48.679688 98.144531 48.675781 98.109375 C 48.671875 98.074219 48.660156 98.039062 48.644531 98.003906 Z M 43.421875 100.191406 L 47.21875 98.867188 L 45.375 100.710938 Z M 46.328125 103.09375 L 45.804688 101.140625 L 47.648438 99.296875 Z M 109.242188 97.839844 L 104.445312 97.839844 C 104.277344 97.839844 104.144531 97.976562 104.144531 98.144531 L 104.144531 104.128906 C 104.144531 104.242188 104.203125 104.34375 104.300781 104.394531 C 104.394531 104.449219 104.515625 104.445312 104.605469 104.386719 L 106.84375 102.996094 L 109.082031 104.386719 C 109.128906 104.417969 109.1875 104.433594 109.242188 104.433594 C 109.292969 104.433594 109.34375 104.421875 109.390625 104.394531 C 109.484375 104.34375 109.546875 104.242188 109.546875 104.128906 L 109.546875 98.144531 C 109.546875 97.976562 109.410156 97.839844 109.242188 97.839844 Z M 108.9375 103.582031 L 107.003906 102.382812 C 106.957031 102.351562 106.898438 102.335938 106.84375 102.335938 C 106.789062 102.335938 106.734375 102.351562 106.683594 102.382812 L 104.75 103.582031 L 104.75 98.449219 L 108.9375 98.449219 Z M 24.425781 17.941406 C 27.128906 17.941406 29.328125 15.746094 29.328125 13.042969 C 29.328125 10.339844 27.128906 8.144531 24.425781 8.144531 C 21.726562 8.144531 19.527344 10.339844 19.527344 13.042969 C 19.527344 15.746094 21.726562 17.941406 24.425781 17.941406 Z M 28.71875 13.042969 C 28.71875 15.410156 26.792969 17.335938 24.425781 17.335938 C 22.058594 17.335938 20.136719 15.410156 20.136719 13.042969 C 20.136719 10.675781 22.058594 8.75 24.425781 8.75 C 26.792969 8.75 28.71875 10.675781 28.71875 13.042969 Z M 33.378906 12.988281 L 44.652344 12.988281 C 45.339844 12.988281 45.898438 12.429688 45.898438 11.746094 L 45.898438 10.746094 C 45.898438 10.058594 45.339844 9.5 44.652344 9.5 L 33.378906 9.5 C 32.695312 9.5 32.136719 10.058594 32.136719 10.746094 L 32.136719 11.746094 C 32.136719 12.429688 32.695312 12.988281 33.378906 12.988281 Z M 32.742188 10.746094 C 32.742188 10.394531 33.027344 10.109375 33.378906 10.109375 L 44.652344 10.109375 C 45.003906 10.109375 45.289062 10.394531 45.289062 10.746094 L 45.289062 11.746094 C 45.289062 12.097656 45.003906 12.382812 44.652344 12.382812 L 33.378906 12.382812 C 33.027344 12.382812 32.742188 12.097656 32.742188 11.746094 Z M 33.378906 16.582031 L 50.699219 16.582031 C 51.386719 16.582031 51.945312 16.027344 51.945312 15.339844 C 51.945312 14.65625 51.386719 14.097656 50.699219 14.097656 L 33.378906 14.097656 C 32.695312 14.097656 32.136719 14.65625 32.136719 15.339844 C 32.136719 16.027344 32.695312 16.582031 33.378906 16.582031 Z M 33.378906 14.703125 L 50.699219 14.703125 C 51.050781 14.703125 51.335938 14.988281 51.335938 15.339844 C 51.335938 15.691406 51.050781 15.976562 50.699219 15.976562 L 33.378906 15.976562 C 33.027344 15.976562 32.742188 15.691406 32.742188 15.339844 C 32.742188 14.988281 33.027344 14.703125 33.378906 14.703125 Z M 43.46875 70.289062 L 85.890625 70.289062 C 90.105469 70.289062 93.53125 66.859375 93.53125 62.648438 C 93.53125 58.433594 90.105469 55.003906 85.890625 55.003906 L 84.40625 55.003906 C 84.246094 49.058594 79.359375 44.269531 73.375 44.269531 C 72.078125 44.269531 70.808594 44.496094 69.59375 44.9375 C 66.921875 40.636719 62.15625 37.972656 57.089844 37.972656 C 48.976562 37.972656 42.378906 44.570312 42.378906 52.683594 C 42.378906 53.46875 42.445312 54.265625 42.574219 55.058594 C 38.765625 55.503906 35.828125 58.777344 35.828125 62.648438 C 35.828125 66.859375 39.257812 70.289062 43.46875 70.289062 Z M 42.953125 55.632812 C 43.039062 55.628906 43.117188 55.585938 43.171875 55.515625 C 43.222656 55.449219 43.246094 55.359375 43.230469 55.277344 C 43.070312 54.410156 42.988281 53.539062 42.988281 52.683594 C 42.988281 44.90625 49.3125 38.582031 57.089844 38.582031 C 62.027344 38.582031 66.667969 41.21875 69.203125 45.46875 C 69.28125 45.59375 69.4375 45.648438 69.578125 45.59375 C 70.792969 45.121094 72.070312 44.878906 73.375 44.878906 C 79.125 44.878906 83.804688 49.558594 83.804688 55.308594 C 83.804688 55.476562 83.941406 55.613281 84.109375 55.613281 L 85.890625 55.613281 C 89.769531 55.613281 92.925781 58.769531 92.925781 62.648438 C 92.925781 66.527344 89.769531 69.679688 85.890625 69.679688 L 43.46875 69.679688 C 39.589844 69.679688 36.4375 66.527344 36.4375 62.648438 C 36.4375 58.980469 39.296875 55.898438 42.953125 55.632812 Z M 42.953125 55.632812 " fill-opacity="1" fill-rule="nonzero"/></g></svg>