<svg xmlns="http://www.w3.org/2000/svg" xmlns:xlink="http://www.w3.org/1999/xlink" width="160" zoomAndPan="magnify" viewBox="0 0 120 119.999999" height="160" preserveAspectRatio="xMidYMid meet" version="1.0"><defs><clipPath id="9c176768ce"><path d="M 0 4 L 120 4 L 120 116.425781 L 0 116.425781 Z M 0 4 " clip-rule="nonzero"/></clipPath><clipPath id="7fd7833bdd"><path d="M 0 3.925781 L 120 3.925781 L 120 116.425781 L 0 116.425781 Z M 0 3.925781 " clip-rule="nonzero"/></clipPath></defs><g clip-path="url(#9c176768ce)"><path fill="#2d2828" d="M 26.855469 116.320312 C 12.105469 116.320312 0.109375 104.28125 0.109375 89.484375 L 0.109375 30.859375 C 0.109375 16.066406 12.105469 4.027344 26.855469 4.027344 L 95.15625 4.027344 C 108.796875 4.027344 119.890625 15.160156 119.890625 28.84375 L 119.890625 91.503906 C 119.890625 105.1875 108.796875 116.320312 95.15625 116.320312 Z M 26.855469 116.320312 " fill-opacity="1" fill-rule="nonzero"/></g><path fill="#f43fc1" d="M 119.289062 28.84375 L 119.289062 91.503906 C 119.289062 92.273438 119.246094 93.035156 119.175781 93.789062 C 118.027344 106.085938 107.714844 115.714844 95.15625 115.714844 L 85.289062 115.714844 C 98.265625 115.714844 109.03125 106.226562 111.078125 93.789062 C 111.308594 92.386719 111.433594 90.953125 111.433594 89.484375 L 111.433594 30.859375 C 111.433594 29.523438 111.332031 28.207031 111.140625 26.921875 C 109.246094 14.304688 98.394531 4.632812 85.289062 4.632812 L 95.15625 4.632812 C 107.839844 4.632812 118.226562 14.449219 119.207031 26.921875 C 119.253906 27.558594 119.289062 28.195312 119.289062 28.84375 Z M 119.289062 28.84375 " fill-opacity="1" fill-rule="nonzero"/><path fill="#ffc900" d="M 111.140625 26.921875 C 109.246094 14.304688 98.394531 4.632812 85.289062 4.632812 L 26.855469 4.632812 C 12.417969 4.632812 0.710938 16.375 0.710938 30.859375 L 0.710938 89.484375 C 0.710938 103.972656 12.417969 115.714844 26.855469 115.714844 L 85.289062 115.714844 C 98.265625 115.714844 109.03125 106.226562 111.078125 93.789062 C 111.308594 92.386719 111.433594 90.953125 111.433594 89.484375 L 111.433594 30.859375 C 111.433594 29.523438 111.332031 28.207031 111.140625 26.921875 Z M 83.941406 71.5 C 86.601562 75.433594 88.457031 79.953125 89.269531 84.832031 C 89.757812 87.765625 87.464844 90.429688 84.5 90.429688 L 27.648438 90.429688 C 24.679688 90.429688 22.390625 87.765625 22.878906 84.832031 C 23.6875 79.953125 25.546875 75.433594 28.203125 71.5 C 32.75 64.773438 39.652344 59.78125 47.722656 57.714844 C 44.179688 55.859375 41.328125 52.863281 39.652344 49.210938 C 38.589844 46.90625 37.996094 44.339844 37.996094 41.632812 C 37.996094 35.574219 40.957031 30.214844 45.507812 26.921875 C 48.488281 24.761719 52.152344 23.488281 56.113281 23.496094 C 60 23.503906 63.625 24.777344 66.59375 26.921875 C 70.953125 30.074219 73.886719 35.117188 74.132812 40.835938 C 74.257812 43.835938 73.660156 46.679688 72.496094 49.210938 C 70.816406 52.863281 67.964844 55.859375 64.421875 57.714844 C 72.492188 59.78125 79.394531 64.773438 83.941406 71.5 Z M 83.941406 71.5 " fill-opacity="1" fill-rule="nonzero"/><path fill="#f5f1e1" d="M 84.5 90.429688 L 27.648438 90.429688 C 24.679688 90.429688 22.390625 87.765625 22.878906 84.832031 C 23.6875 79.953125 25.546875 75.433594 28.203125 71.5 C 32.75 64.773438 39.652344 59.78125 47.722656 57.714844 C 44.179688 55.859375 41.328125 52.863281 39.652344 49.210938 C 38.589844 46.90625 37.996094 44.339844 37.996094 41.632812 C 37.996094 35.574219 40.957031 30.214844 45.507812 26.921875 C 48.488281 24.761719 52.152344 23.488281 56.113281 23.496094 C 60 23.503906 63.625 24.777344 66.59375 26.921875 C 70.953125 30.074219 73.886719 35.117188 74.132812 40.835938 C 74.257812 43.835938 73.660156 46.679688 72.496094 49.210938 C 70.816406 52.863281 67.964844 55.859375 64.421875 57.714844 C 72.492188 59.78125 79.394531 64.773438 83.941406 71.5 C 86.601562 75.433594 88.457031 79.953125 89.269531 84.832031 C 89.757812 87.765625 87.464844 90.429688 84.5 90.429688 Z M 84.5 90.429688 " fill-opacity="1" fill-rule="nonzero"/><g clip-path="url(#7fd7833bdd)"><path fill="#2d2828" d="M 95.15625 3.925781 L 26.855469 3.925781 C 12.050781 3.925781 0.0078125 16.007812 0.0078125 30.859375 L 0.0078125 89.484375 C 0.0078125 104.335938 12.050781 116.417969 26.855469 116.417969 L 95.15625 116.417969 C 108.851562 116.417969 119.992188 105.242188 119.992188 91.503906 L 119.992188 28.84375 C 119.992188 15.105469 108.851562 3.925781 95.15625 3.925781 Z M 118.585938 70.792969 L 112.136719 70.792969 L 112.136719 49.917969 L 118.585938 49.917969 Z M 118.585938 91.503906 C 118.585938 92.035156 118.558594 92.5625 118.523438 93.082031 L 111.890625 93.082031 C 112.046875 91.90625 112.136719 90.707031 112.136719 89.484375 L 112.136719 72.207031 L 118.585938 72.207031 Z M 26.855469 115.007812 C 25.894531 115.007812 24.945312 114.949219 24.015625 114.84375 C 11.320312 113.421875 1.414062 102.59375 1.414062 89.484375 L 1.414062 30.859375 C 1.414062 17.753906 11.320312 6.925781 24.015625 5.503906 C 24.945312 5.398438 25.894531 5.339844 26.855469 5.339844 L 85.289062 5.339844 C 97.738281 5.339844 108.117188 14.355469 110.300781 26.214844 C 110.34375 26.453125 110.390625 26.683594 110.425781 26.921875 C 110.460938 27.15625 110.488281 27.394531 110.519531 27.628906 C 110.652344 28.6875 110.730469 29.765625 110.730469 30.859375 L 110.730469 89.484375 C 110.730469 90.707031 110.636719 91.90625 110.472656 93.082031 C 110.4375 93.320312 110.402344 93.554688 110.359375 93.789062 C 110.320312 94.023438 110.28125 94.261719 110.234375 94.496094 C 107.90625 106.175781 97.609375 115.007812 85.289062 115.007812 Z M 111.730469 26.214844 C 110.027344 16.433594 103.046875 8.453125 93.851562 5.339844 L 95.15625 5.339844 C 107.1875 5.339844 117.128906 14.488281 118.433594 26.214844 Z M 93.851562 115.007812 C 102.933594 111.933594 109.851562 104.113281 111.664062 94.496094 L 118.386719 94.496094 C 116.917969 106.046875 107.0625 115.007812 95.15625 115.007812 Z M 112.136719 48.503906 L 112.136719 30.859375 C 112.136719 29.765625 112.0625 28.6875 111.9375 27.628906 L 118.554688 27.628906 C 118.574219 28.03125 118.585938 28.4375 118.585938 28.84375 L 118.585938 48.503906 Z M 88.734375 89.164062 C 89.777344 87.929688 90.226562 86.304688 89.960938 84.714844 C 89.210938 80.191406 87.578125 75.960938 85.25 72.207031 C 85.101562 71.96875 84.957031 71.734375 84.804688 71.5 C 84.648438 71.261719 84.484375 71.027344 84.324219 70.792969 C 80.011719 64.550781 73.683594 59.792969 66.210938 57.484375 C 69.121094 55.605469 71.414062 52.964844 72.90625 49.917969 C 73.023438 49.683594 73.140625 49.449219 73.246094 49.210938 C 73.347656 48.980469 73.4375 48.742188 73.53125 48.503906 C 74.476562 46.09375 74.949219 43.480469 74.835938 40.804688 C 74.613281 35.609375 72.199219 30.921875 68.527344 27.628906 C 68.257812 27.386719 67.984375 27.148438 67.699219 26.921875 C 67.390625 26.675781 67.074219 26.441406 66.75 26.214844 C 63.707031 24.070312 60.03125 22.800781 56.113281 22.789062 C 52.183594 22.792969 48.429688 23.988281 45.277344 26.214844 C 44.960938 26.441406 44.644531 26.675781 44.339844 26.921875 C 44.058594 27.148438 43.78125 27.382812 43.507812 27.628906 C 43.269531 27.84375 43.035156 28.066406 42.808594 28.292969 C 39.25 31.855469 37.292969 36.589844 37.292969 41.632812 C 37.292969 44.03125 37.746094 46.355469 38.582031 48.503906 C 38.675781 48.742188 38.78125 48.976562 38.882812 49.210938 C 38.984375 49.449219 39.09375 49.683594 39.207031 49.917969 C 40.695312 52.96875 42.996094 55.597656 45.929688 57.484375 C 38.460938 59.792969 32.132812 64.550781 27.820312 70.792969 C 27.660156 71.027344 27.5 71.261719 27.34375 71.5 C 27.191406 71.734375 27.042969 71.96875 26.894531 72.207031 C 24.566406 75.960938 22.9375 80.191406 22.183594 84.714844 C 21.917969 86.304688 22.367188 87.929688 23.410156 89.164062 C 24.46875 90.417969 26.011719 91.136719 27.648438 91.136719 L 84.5 91.136719 C 86.132812 91.136719 87.675781 90.417969 88.734375 89.164062 Z M 24.484375 88.253906 C 23.707031 87.332031 23.375 86.128906 23.570312 84.949219 C 24.34375 80.304688 26.078125 75.988281 28.570312 72.207031 C 28.726562 71.96875 28.882812 71.734375 29.046875 71.5 C 29.210938 71.261719 29.375 71.027344 29.546875 70.792969 C 33.96875 64.78125 40.386719 60.320312 47.898438 58.398438 C 48.179688 58.324219 48.386719 58.085938 48.421875 57.792969 C 48.457031 57.503906 48.308594 57.222656 48.046875 57.085938 C 44.898438 55.4375 42.410156 52.921875 40.792969 49.917969 C 40.667969 49.683594 40.546875 49.449219 40.433594 49.210938 C 40.320312 48.976562 40.207031 48.746094 40.105469 48.503906 C 39.195312 46.371094 38.699219 44.042969 38.699219 41.632812 C 38.699219 36.96875 40.511719 32.585938 43.800781 29.292969 C 44.410156 28.6875 45.050781 28.132812 45.726562 27.628906 C 46.058594 27.378906 46.402344 27.144531 46.753906 26.921875 C 47.144531 26.671875 47.542969 26.433594 47.953125 26.214844 C 50.425781 24.902344 53.195312 24.203125 56.074219 24.203125 C 56.085938 24.203125 56.097656 24.203125 56.113281 24.203125 C 58.960938 24.210938 61.679688 24.9375 64.078125 26.214844 C 64.492188 26.433594 64.890625 26.671875 65.28125 26.921875 C 65.632812 27.144531 65.976562 27.382812 66.308594 27.628906 C 70.417969 30.675781 73.199219 35.480469 73.429688 40.867188 C 73.542969 43.53125 73.035156 46.136719 72.015625 48.503906 C 71.914062 48.742188 71.808594 48.980469 71.695312 49.210938 C 71.578125 49.449219 71.457031 49.683594 71.332031 49.917969 C 69.710938 52.921875 67.21875 55.453125 64.097656 57.085938 C 63.839844 57.222656 63.691406 57.503906 63.722656 57.792969 C 63.757812 58.085938 63.964844 58.324219 64.25 58.398438 C 71.757812 60.320312 78.175781 64.78125 82.597656 70.792969 C 82.769531 71.027344 82.933594 71.261719 83.097656 71.5 C 83.261719 71.734375 83.417969 71.96875 83.574219 72.207031 C 86.066406 75.988281 87.800781 80.304688 88.574219 84.949219 C 88.769531 86.128906 88.4375 87.332031 87.660156 88.253906 C 86.871094 89.1875 85.71875 89.722656 84.5 89.722656 L 27.648438 89.722656 C 26.425781 89.722656 25.273438 89.1875 24.484375 88.253906 Z M 24.484375 88.253906 " fill-opacity="1" fill-rule="nonzero"/></g></svg>