<svg xmlns="http://www.w3.org/2000/svg" xmlns:xlink="http://www.w3.org/1999/xlink" width="160" zoomAndPan="magnify" viewBox="0 0 120 119.999999" height="160" preserveAspectRatio="xMidYMid meet" version="1.0"><defs><clipPath id="4dcc08d013"><path d="M 0.503906 4.398438 L 119.753906 4.398438 L 119.753906 115.398438 L 0.503906 115.398438 Z M 0.503906 4.398438 " clip-rule="nonzero"/></clipPath><clipPath id="84bd631c16"><path d="M 0.503906 4.398438 L 119.753906 4.398438 L 119.753906 115.398438 L 0.503906 115.398438 Z M 0.503906 4.398438 " clip-rule="nonzero"/></clipPath></defs><g clip-path="url(#4dcc08d013)"><path fill="#2d2828" d="M 27.128906 115.492188 C 12.503906 115.492188 0.605469 103.59375 0.605469 88.96875 L 0.605469 31.023438 C 0.605469 16.398438 12.503906 4.5 27.128906 4.5 L 94.859375 4.5 C 108.382812 4.5 119.386719 15.503906 119.386719 29.027344 L 119.386719 90.964844 C 119.386719 104.488281 108.382812 115.492188 94.859375 115.492188 Z M 27.128906 115.492188 " fill-opacity="1" fill-rule="nonzero"/></g><path fill="#fe80cd" d="M 118.789062 29.027344 L 118.789062 90.964844 C 118.789062 104.179688 108.074219 114.894531 94.859375 114.894531 L 85.074219 114.894531 C 87.703125 114.894531 90.242188 114.5 92.632812 113.769531 C 100.871094 111.265625 107.371094 104.765625 109.878906 96.527344 C 110.605469 94.136719 111 91.597656 111 88.96875 L 111 31.023438 C 111 23.058594 107.40625 15.933594 101.753906 11.179688 C 97.246094 7.386719 91.429688 5.097656 85.074219 5.097656 L 94.859375 5.097656 C 98.640625 5.097656 102.214844 5.976562 105.394531 7.539062 C 112.332031 10.949219 117.378906 17.621094 118.535156 25.554688 C 118.699219 26.6875 118.789062 27.847656 118.789062 29.027344 Z M 118.789062 29.027344 " fill-opacity="1" fill-rule="nonzero"/><path fill="#f5f1e1" d="M 101.753906 11.179688 C 97.246094 7.386719 91.429688 5.097656 85.074219 5.097656 L 27.128906 5.097656 C 12.808594 5.097656 1.203125 16.703125 1.203125 31.023438 L 1.203125 88.96875 C 1.203125 103.285156 12.808594 114.894531 27.128906 114.894531 L 85.074219 114.894531 C 87.703125 114.894531 90.242188 114.5 92.632812 113.769531 C 100.871094 111.265625 107.371094 104.765625 109.878906 96.527344 C 110.605469 94.136719 111 91.597656 111 88.96875 L 111 31.023438 C 111 23.058594 107.40625 15.933594 101.753906 11.179688 Z M 42.769531 37.335938 L 46.746094 19.757812 L 49.046875 32.730469 L 49.894531 37.503906 L 67.472656 41.480469 L 49.726562 44.628906 L 46.464844 66.46875 L 45.75 71.246094 L 45.320312 67.609375 L 42.601562 44.460938 L 38.289062 43.488281 L 25.023438 40.484375 Z M 20.386719 81.492188 L 31.199219 79.578125 L 33.621094 68.867188 L 35.195312 77.738281 L 35.539062 79.679688 L 46.246094 82.101562 L 35.4375 84.019531 L 33.015625 100.234375 L 31.097656 83.917969 L 29.398438 83.53125 Z M 93.472656 62.238281 L 79.347656 64.742188 L 78.699219 64.859375 L 78.605469 65.484375 L 75.390625 87.019531 L 73.460938 70.625 L 72.769531 64.71875 L 58.132812 61.40625 L 72.90625 58.785156 L 76.21875 44.152344 L 78.839844 58.925781 L 83.996094 60.09375 Z M 93.472656 62.238281 " fill-opacity="1" fill-rule="nonzero"/><path fill="#ffc900" d="M 93.472656 62.238281 L 79.347656 64.742188 L 78.699219 64.859375 L 78.605469 65.484375 L 75.390625 87.019531 L 73.460938 70.625 L 72.769531 64.71875 L 58.132812 61.40625 L 72.90625 58.785156 L 76.21875 44.152344 L 78.839844 58.925781 L 83.996094 60.09375 Z M 35.195312 77.738281 L 33.621094 68.867188 L 31.199219 79.578125 L 20.386719 81.492188 L 29.398438 83.53125 L 31.097656 83.917969 L 33.015625 100.234375 L 35.4375 84.019531 L 46.246094 82.101562 L 35.539062 79.679688 Z M 49.894531 37.503906 L 49.046875 32.730469 L 46.746094 19.757812 L 42.769531 37.335938 L 25.023438 40.484375 L 38.289062 43.488281 L 42.601562 44.460938 L 45.320312 67.609375 L 45.75 71.246094 L 46.464844 66.46875 L 49.726562 44.628906 L 67.472656 41.480469 Z M 49.894531 37.503906 " fill-opacity="1" fill-rule="nonzero"/><g clip-path="url(#84bd631c16)"><path fill="#2d2828" d="M 94.859375 4.398438 L 27.128906 4.398438 C 12.449219 4.398438 0.503906 16.34375 0.503906 31.023438 L 0.503906 88.96875 C 0.503906 103.648438 12.449219 115.589844 27.128906 115.589844 L 94.859375 115.589844 C 108.4375 115.589844 119.484375 104.542969 119.484375 90.964844 L 119.484375 29.027344 C 119.484375 15.449219 108.4375 4.398438 94.859375 4.398438 Z M 118.089844 87.324219 L 111.167969 94.246094 C 111.515625 92.539062 111.695312 90.777344 111.695312 88.96875 L 111.695312 64.535156 L 118.089844 58.144531 Z M 118.089844 90.964844 C 118.089844 103.773438 107.667969 114.195312 94.859375 114.195312 L 93.5625 114.195312 C 101.609375 111.480469 107.949219 105.023438 110.492188 96.898438 L 118.089844 89.300781 Z M 30.878906 114.195312 L 27.128906 114.195312 C 26.175781 114.195312 25.234375 114.136719 24.3125 114.035156 C 11.722656 112.628906 1.902344 101.925781 1.902344 88.96875 L 1.902344 31.023438 C 1.902344 18.066406 11.722656 7.363281 24.3125 5.957031 C 25.234375 5.855469 26.175781 5.796875 27.128906 5.796875 L 85.074219 5.796875 C 90.972656 5.796875 96.402344 7.835938 100.703125 11.242188 C 100.886719 11.386719 101.070312 11.53125 101.25 11.683594 C 101.429688 11.832031 101.605469 11.988281 101.777344 12.140625 C 107 16.765625 110.300781 23.515625 110.300781 31.023438 L 110.300781 88.96875 C 110.300781 91.46875 109.929688 93.882812 109.25 96.167969 C 109.101562 96.664062 108.945312 97.152344 108.765625 97.636719 C 108.558594 98.207031 108.320312 98.765625 108.070312 99.320312 C 105.539062 104.917969 101.023438 109.433594 95.425781 111.964844 C 94.871094 112.214844 94.3125 112.453125 93.742188 112.660156 C 93.257812 112.839844 92.769531 112.996094 92.273438 113.144531 C 89.988281 113.824219 87.574219 114.195312 85.074219 114.195312 Z M 104.1875 7.757812 L 101.695312 10.25 C 99.289062 8.320312 96.546875 6.800781 93.5625 5.796875 L 94.859375 5.796875 C 98.175781 5.796875 101.332031 6.5 104.1875 7.757812 Z M 111.695312 31.40625 L 111.695312 31.023438 C 111.695312 23.128906 108.242188 16.03125 102.765625 11.152344 L 105.519531 8.398438 C 111.929688 11.722656 116.597656 17.941406 117.789062 25.3125 Z M 111.695312 62.5625 L 111.695312 33.378906 L 118.003906 27.074219 C 118.054688 27.71875 118.089844 28.371094 118.089844 29.027344 L 118.089844 56.167969 Z M 46.402344 81.417969 L 36.144531 79.101562 L 35.945312 77.972656 L 35.796875 77.136719 L 35.648438 76.296875 L 34.308594 68.746094 C 34.25 68.417969 33.96875 68.179688 33.636719 68.171875 C 33.3125 68.15625 33.011719 68.390625 32.941406 68.714844 L 30.621094 78.96875 L 20.265625 80.808594 C 19.9375 80.863281 19.699219 81.144531 19.691406 81.476562 C 19.683594 81.808594 19.910156 82.101562 20.234375 82.175781 L 28.011719 83.933594 L 28.816406 84.117188 L 29.621094 84.296875 L 30.460938 84.488281 L 32.320312 100.3125 C 32.363281 100.660156 32.652344 100.925781 33.003906 100.929688 C 33.007812 100.929688 33.011719 100.929688 33.015625 100.929688 C 33.359375 100.929688 33.652344 100.679688 33.703125 100.335938 L 36.054688 84.617188 L 46.367188 82.789062 C 46.695312 82.730469 46.9375 82.449219 46.945312 82.117188 C 46.953125 81.785156 46.726562 81.492188 46.402344 81.417969 Z M 34.746094 83.914062 L 33.097656 94.957031 L 31.789062 83.835938 C 31.753906 83.539062 31.539062 83.300781 31.25 83.234375 L 30.789062 83.128906 L 29.984375 82.949219 L 29.179688 82.765625 L 23.917969 81.578125 L 31.320312 80.261719 C 31.597656 80.214844 31.816406 80.003906 31.878906 79.730469 L 33.539062 72.398438 L 34.445312 77.5 L 34.742188 79.179688 L 34.851562 79.800781 C 34.898438 80.078125 35.109375 80.296875 35.382812 80.359375 L 42.71875 82.015625 L 35.316406 83.332031 C 35.019531 83.382812 34.789062 83.617188 34.746094 83.914062 Z M 72.730469 70.371094 L 72.832031 71.253906 L 72.9375 72.140625 L 74.695312 87.101562 C 74.738281 87.449219 75.027344 87.710938 75.378906 87.71875 C 75.382812 87.71875 75.386719 87.71875 75.390625 87.71875 C 75.734375 87.71875 76.027344 87.464844 76.078125 87.121094 L 79.261719 65.8125 L 79.316406 65.457031 L 79.683594 65.390625 L 93.597656 62.925781 C 93.921875 62.867188 94.164062 62.585938 94.171875 62.253906 C 94.179688 61.921875 93.953125 61.628906 93.628906 61.554688 L 85.386719 59.691406 L 84.578125 59.507812 L 83.773438 59.328125 L 79.445312 58.347656 L 76.90625 44.027344 C 76.847656 43.703125 76.566406 43.460938 76.234375 43.453125 C 75.914062 43.449219 75.609375 43.671875 75.535156 43.996094 L 72.328125 58.179688 L 58.011719 60.722656 C 57.683594 60.777344 57.441406 61.058594 57.433594 61.390625 C 57.425781 61.722656 57.652344 62.015625 57.976562 62.089844 L 72.132812 65.289062 Z M 73.589844 58.941406 L 76.136719 47.679688 L 78.152344 59.046875 C 78.199219 59.324219 78.410156 59.542969 78.683594 59.605469 L 82.609375 60.496094 L 83.414062 60.675781 L 84.21875 60.859375 L 89.945312 62.152344 L 81.40625 63.667969 L 80.207031 63.882812 L 79.007812 64.09375 L 78.578125 64.171875 C 78.28125 64.222656 78.054688 64.457031 78.007812 64.753906 L 77.949219 65.152344 L 77.777344 66.3125 L 77.601562 67.472656 L 75.472656 81.742188 L 74.195312 70.882812 L 74.089844 69.996094 L 73.988281 69.113281 L 73.460938 64.636719 C 73.425781 64.34375 73.210938 64.101562 72.921875 64.039062 L 61.660156 61.492188 L 73.027344 59.472656 C 73.304688 59.425781 73.527344 59.214844 73.589844 58.941406 Z M 68.167969 41.496094 C 68.175781 41.164062 67.949219 40.875 67.625 40.800781 L 50.5 36.925781 L 49.796875 32.964844 L 49.648438 32.128906 L 49.5 31.289062 L 47.433594 19.636719 C 47.375 19.308594 47.09375 19.070312 46.761719 19.0625 C 46.433594 19.050781 46.136719 19.28125 46.0625 19.605469 L 42.191406 36.730469 L 24.898438 39.796875 C 24.574219 39.855469 24.332031 40.136719 24.324219 40.46875 C 24.316406 40.800781 24.542969 41.09375 24.867188 41.167969 L 36.902344 43.886719 L 38.511719 44.253906 L 41.964844 45.035156 L 44.589844 67.355469 L 44.691406 68.238281 L 44.796875 69.121094 L 45.054688 71.328125 C 45.097656 71.675781 45.386719 71.941406 45.738281 71.945312 C 45.742188 71.945312 45.746094 71.945312 45.75 71.945312 C 46.09375 71.945312 46.386719 71.691406 46.441406 71.351562 L 47.121094 66.800781 L 47.464844 64.480469 L 50.34375 45.230469 L 67.59375 42.167969 C 67.921875 42.109375 68.160156 41.828125 68.167969 41.496094 Z M 49.035156 44.527344 L 45.832031 65.96875 L 43.292969 44.378906 C 43.261719 44.085938 43.042969 43.847656 42.753906 43.78125 L 39.675781 43.085938 L 38.871094 42.902344 L 38.066406 42.722656 L 28.550781 40.566406 L 42.734375 38.050781 L 42.890625 38.023438 C 43.167969 37.976562 43.386719 37.765625 43.449219 37.492188 L 43.492188 37.292969 L 46.660156 23.289062 L 48.292969 32.492188 L 48.445312 33.332031 L 48.59375 34.171875 L 49.207031 37.625 C 49.253906 37.902344 49.464844 38.125 49.738281 38.183594 L 63.941406 41.398438 L 49.605469 43.941406 C 49.308594 43.996094 49.078125 44.230469 49.035156 44.527344 Z M 49.035156 44.527344 " fill-opacity="1" fill-rule="nonzero"/></g></svg>