<svg xmlns="http://www.w3.org/2000/svg" xmlns:xlink="http://www.w3.org/1999/xlink" width="160" zoomAndPan="magnify" viewBox="0 0 120 119.999999" height="160" preserveAspectRatio="xMidYMid meet" version="1.0"><defs><clipPath id="2f812ad314"><path d="M 0 0 L 119.25 0 L 119.25 111 L 0 111 Z M 0 0 " clip-rule="nonzero"/></clipPath><clipPath id="1d465e3c2c"><path d="M 0 0 L 119.25 0 L 119.25 111 L 0 111 Z M 0 0 " clip-rule="nonzero"/></clipPath></defs><g clip-path="url(#2f812ad314)"><path fill="#2d2828" d="M 26.65625 111.207031 C 12.019531 111.207031 0.105469 99.296875 0.105469 84.660156 L 0.105469 26.648438 C 0.105469 12.011719 12.019531 0.101562 26.65625 0.101562 L 94.460938 0.101562 C 108 0.101562 119.015625 11.113281 119.015625 24.652344 L 119.015625 86.65625 C 119.015625 100.195312 108 111.207031 94.460938 111.207031 Z M 26.65625 111.207031 " fill-opacity="1" fill-rule="nonzero"/></g><path fill="#8d5fff" d="M 118.414062 24.652344 L 118.414062 86.65625 C 118.414062 87.417969 118.375 88.171875 118.304688 88.917969 C 117.164062 101.085938 106.925781 110.609375 94.460938 110.609375 L 84.667969 110.609375 C 97.546875 110.609375 108.230469 101.222656 110.265625 88.917969 C 110.492188 87.53125 110.617188 86.109375 110.617188 84.660156 L 110.617188 26.648438 C 110.617188 25.324219 110.515625 24.023438 110.324219 22.753906 C 108.445312 10.269531 97.675781 0.699219 84.667969 0.699219 L 94.460938 0.699219 C 107.050781 0.699219 117.363281 10.414062 118.332031 22.753906 C 118.382812 23.378906 118.414062 24.011719 118.414062 24.652344 Z M 118.414062 24.652344 " fill-opacity="1" fill-rule="nonzero"/><path fill="#ff81ce" d="M 110.324219 22.753906 C 108.445312 10.269531 97.675781 0.699219 84.667969 0.699219 L 26.65625 0.699219 C 12.324219 0.699219 0.707031 12.316406 0.707031 26.648438 L 0.707031 84.660156 C 0.707031 98.992188 12.324219 110.609375 26.65625 110.609375 L 84.667969 110.609375 C 97.546875 110.609375 108.230469 101.222656 110.265625 88.917969 C 110.492188 87.53125 110.617188 86.109375 110.617188 84.660156 L 110.617188 26.648438 C 110.617188 25.324219 110.515625 24.023438 110.324219 22.753906 Z M 83.328125 66.863281 C 85.964844 70.753906 87.808594 75.226562 88.613281 80.054688 C 89.097656 82.957031 86.824219 85.59375 83.878906 85.59375 L 27.445312 85.59375 C 24.5 85.59375 22.226562 82.957031 22.710938 80.054688 C 23.515625 75.226562 25.359375 70.753906 27.996094 66.863281 C 32.511719 60.207031 39.363281 55.265625 47.371094 53.21875 C 43.855469 51.386719 41.027344 48.421875 39.359375 44.808594 C 38.308594 42.527344 37.71875 39.984375 37.71875 37.308594 C 37.71875 31.316406 40.660156 26.011719 45.171875 22.753906 C 48.132812 20.617188 51.769531 19.355469 55.703125 19.363281 C 59.558594 19.371094 63.160156 20.628906 66.105469 22.753906 C 70.433594 25.871094 73.347656 30.863281 73.589844 36.519531 C 73.714844 39.488281 73.121094 42.304688 71.964844 44.808594 C 70.296875 48.421875 67.464844 51.386719 63.949219 53.21875 C 71.960938 55.265625 78.8125 60.207031 83.328125 66.863281 Z M 83.328125 66.863281 " fill-opacity="1" fill-rule="nonzero"/><path fill="#f5f1e1" d="M 83.878906 85.59375 L 27.445312 85.59375 C 24.5 85.59375 22.226562 82.957031 22.710938 80.054688 C 23.515625 75.226562 25.359375 70.753906 27.996094 66.863281 C 32.511719 60.207031 39.363281 55.265625 47.371094 53.21875 C 43.855469 51.386719 41.027344 48.421875 39.359375 44.808594 C 38.308594 42.527344 37.71875 39.984375 37.71875 37.308594 C 37.71875 31.316406 40.660156 26.011719 45.171875 22.753906 C 48.132812 20.617188 51.769531 19.355469 55.703125 19.363281 C 59.558594 19.371094 63.160156 20.628906 66.105469 22.753906 C 70.433594 25.871094 73.347656 30.863281 73.589844 36.519531 C 73.714844 39.488281 73.121094 42.304688 71.964844 44.808594 C 70.296875 48.421875 67.464844 51.386719 63.949219 53.21875 C 71.960938 55.265625 78.8125 60.207031 83.328125 66.863281 C 85.964844 70.753906 87.808594 75.226562 88.613281 80.054688 C 89.097656 82.957031 86.824219 85.59375 83.878906 85.59375 Z M 83.878906 85.59375 " fill-opacity="1" fill-rule="nonzero"/><g clip-path="url(#1d465e3c2c)"><path fill="#2d2828" d="M 94.460938 0 L 26.65625 0 C 11.960938 0 0.0078125 11.957031 0.0078125 26.648438 L 0.0078125 84.660156 C 0.0078125 99.355469 11.960938 111.308594 26.65625 111.308594 L 94.460938 111.308594 C 108.054688 111.308594 119.113281 100.25 119.113281 86.65625 L 119.113281 24.652344 C 119.113281 11.058594 108.054688 0 94.460938 0 Z M 117.714844 66.164062 L 111.316406 66.164062 L 111.316406 45.507812 L 117.714844 45.507812 Z M 117.714844 86.65625 C 117.714844 87.179688 117.691406 87.699219 117.65625 88.21875 L 111.070312 88.21875 C 111.226562 87.050781 111.316406 85.867188 111.316406 84.660156 L 111.316406 67.5625 L 117.714844 67.5625 Z M 26.65625 109.910156 C 25.703125 109.910156 24.765625 109.851562 23.835938 109.75 C 11.234375 108.34375 1.40625 97.628906 1.40625 84.660156 L 1.40625 26.648438 C 1.40625 13.679688 11.234375 2.964844 23.835938 1.558594 C 24.765625 1.457031 25.703125 1.398438 26.65625 1.398438 L 84.667969 1.398438 C 97.019531 1.398438 107.324219 10.316406 109.492188 22.054688 C 109.535156 22.285156 109.582031 22.519531 109.617188 22.753906 C 109.652344 22.984375 109.679688 23.21875 109.710938 23.453125 C 109.84375 24.5 109.917969 25.566406 109.917969 26.648438 L 109.917969 84.660156 C 109.917969 85.867188 109.828125 87.054688 109.664062 88.21875 C 109.628906 88.453125 109.59375 88.683594 109.554688 88.917969 C 109.511719 89.148438 109.472656 89.382812 109.425781 89.617188 C 107.117188 101.175781 96.894531 109.910156 84.667969 109.910156 Z M 110.910156 22.054688 C 109.222656 12.375 102.292969 4.476562 93.164062 1.398438 L 94.460938 1.398438 C 106.40625 1.398438 116.269531 10.449219 117.566406 22.054688 Z M 93.164062 109.910156 C 102.179688 106.867188 109.050781 99.128906 110.847656 89.617188 L 117.519531 89.617188 C 116.0625 101.046875 106.28125 109.910156 94.460938 109.910156 Z M 111.316406 44.109375 L 111.316406 26.648438 C 111.316406 25.566406 111.242188 24.5 111.117188 23.453125 L 117.683594 23.453125 C 117.707031 23.851562 117.714844 24.25 117.714844 24.652344 L 117.714844 44.109375 Z M 88.085938 84.339844 C 89.121094 83.117188 89.566406 81.511719 89.304688 79.9375 C 88.558594 75.460938 86.9375 71.273438 84.625 67.5625 C 84.480469 67.328125 84.332031 67.09375 84.183594 66.863281 C 84.027344 66.625 83.867188 66.394531 83.707031 66.164062 C 79.425781 59.984375 73.144531 55.277344 65.726562 52.996094 C 68.613281 51.136719 70.890625 48.523438 72.375 45.507812 C 72.488281 45.273438 72.605469 45.042969 72.710938 44.808594 C 72.8125 44.578125 72.898438 44.34375 72.992188 44.109375 C 73.933594 41.722656 74.398438 39.136719 74.285156 36.492188 C 74.066406 31.351562 71.671875 26.710938 68.027344 23.453125 C 67.757812 23.210938 67.484375 22.976562 67.203125 22.753906 C 66.898438 22.507812 66.582031 22.277344 66.261719 22.054688 C 63.242188 19.933594 59.589844 18.671875 55.703125 18.664062 C 51.800781 18.664062 48.074219 19.851562 44.945312 22.054688 C 44.628906 22.277344 44.320312 22.507812 44.015625 22.753906 C 43.734375 22.976562 43.457031 23.210938 43.191406 23.453125 C 42.953125 23.664062 42.722656 23.882812 42.496094 24.109375 C 38.964844 27.632812 37.019531 32.320312 37.019531 37.308594 C 37.019531 39.679688 37.46875 41.980469 38.300781 44.109375 C 38.394531 44.34375 38.496094 44.574219 38.597656 44.808594 C 38.699219 45.042969 38.808594 45.277344 38.917969 45.507812 C 40.398438 48.527344 42.683594 51.128906 45.59375 52.996094 C 38.179688 55.277344 31.898438 59.984375 27.617188 66.164062 C 27.457031 66.394531 27.296875 66.625 27.140625 66.863281 C 26.992188 67.09375 26.84375 67.328125 26.699219 67.5625 C 24.386719 71.273438 22.765625 75.460938 22.019531 79.9375 C 21.757812 81.511719 22.203125 83.117188 23.238281 84.339844 C 24.289062 85.582031 25.820312 86.292969 27.445312 86.292969 L 83.878906 86.292969 C 85.503906 86.292969 87.035156 85.582031 88.085938 84.339844 Z M 24.304688 83.4375 C 23.535156 82.527344 23.203125 81.335938 23.398438 80.167969 C 24.164062 75.574219 25.886719 71.300781 28.359375 67.5625 C 28.515625 67.324219 28.671875 67.09375 28.832031 66.863281 C 28.996094 66.628906 29.160156 66.394531 29.332031 66.164062 C 33.71875 60.214844 40.09375 55.800781 47.546875 53.898438 C 47.828125 53.824219 48.035156 53.589844 48.066406 53.300781 C 48.101562 53.011719 47.953125 52.734375 47.695312 52.601562 C 44.570312 50.96875 42.097656 48.476562 40.492188 45.507812 C 40.367188 45.277344 40.25 45.042969 40.136719 44.808594 C 40.027344 44.578125 39.914062 44.34375 39.8125 44.109375 C 38.90625 42 38.417969 39.695312 38.417969 37.308594 C 38.417969 32.695312 40.214844 28.359375 43.480469 25.101562 C 44.082031 24.5 44.722656 23.949219 45.390625 23.453125 C 45.722656 23.203125 46.0625 22.972656 46.410156 22.753906 C 46.796875 22.503906 47.195312 22.269531 47.601562 22.054688 C 50.054688 20.753906 52.804688 20.0625 55.660156 20.0625 C 55.675781 20.0625 55.6875 20.0625 55.699219 20.0625 C 58.53125 20.070312 61.226562 20.789062 63.609375 22.054688 C 64.019531 22.269531 64.414062 22.507812 64.804688 22.753906 C 65.152344 22.972656 65.492188 23.207031 65.824219 23.453125 C 69.902344 26.46875 72.664062 31.21875 72.890625 36.550781 C 73.003906 39.1875 72.5 41.765625 71.488281 44.109375 C 71.386719 44.34375 71.28125 44.578125 71.171875 44.808594 C 71.054688 45.042969 70.933594 45.277344 70.8125 45.507812 C 69.199219 48.480469 66.726562 50.984375 63.628906 52.601562 C 63.371094 52.734375 63.222656 53.011719 63.257812 53.300781 C 63.289062 53.589844 63.496094 53.824219 63.777344 53.898438 C 71.230469 55.800781 77.605469 60.214844 81.992188 66.164062 C 82.164062 66.394531 82.328125 66.628906 82.492188 66.863281 C 82.652344 67.09375 82.808594 67.324219 82.964844 67.5625 C 85.4375 71.300781 87.160156 75.574219 87.925781 80.167969 C 88.121094 81.335938 87.789062 82.527344 87.019531 83.4375 C 86.234375 84.363281 85.089844 84.894531 83.878906 84.894531 L 27.445312 84.894531 C 26.234375 84.894531 25.089844 84.363281 24.304688 83.4375 Z M 24.304688 83.4375 " fill-opacity="1" fill-rule="nonzero"/></g></svg>