<svg xmlns="http://www.w3.org/2000/svg" xmlns:xlink="http://www.w3.org/1999/xlink" width="160" zoomAndPan="magnify" viewBox="0 0 120 119.999999" height="160" preserveAspectRatio="xMidYMid meet" version="1.0"><defs><clipPath id="3ada591798"><path d="M 0 0 L 117 0 L 117 120 L 0 120 Z M 0 0 " clip-rule="nonzero"/></clipPath></defs><path fill="#f5f1e1" d="M 0.753906 20.5625 L 0.753906 74.105469 C 0.753906 85.035156 9.613281 93.894531 20.539062 93.894531 L 40.511719 93.894531 L 56.742188 118.242188 C 57.617188 119.554688 59.546875 119.554688 60.421875 118.242188 L 76.652344 93.894531 L 96.621094 93.894531 C 107.550781 93.894531 116.410156 85.035156 116.410156 74.105469 L 116.410156 20.5625 C 116.410156 9.632812 107.550781 0.773438 96.621094 0.773438 L 20.539062 0.773438 C 9.613281 0.773438 0.753906 9.632812 0.753906 20.5625 Z M 0.753906 20.5625 " fill-opacity="1" fill-rule="nonzero"/><path fill="#f0cf54" d="M 90.957031 25.984375 C 87.695312 22.722656 83.269531 20.890625 78.65625 20.890625 L 67.4375 20.890625 L 67.4375 25.894531 C 66.601562 26.824219 65.867188 27.863281 65.273438 29.003906 L 64.191406 31.082031 L 63.253906 29.285156 C 60.578125 24.15625 55.285156 20.816406 49.503906 20.890625 L 38.167969 20.890625 L 38.167969 25.289062 C 37.914062 25.511719 37.664062 25.742188 37.421875 25.984375 C 34.160156 29.246094 32.324219 33.671875 32.324219 38.289062 L 32.324219 40.269531 C 32.324219 44.886719 34.160156 49.3125 37.421875 52.574219 L 58.550781 73.703125 L 52.972656 73.703125 L 52.972656 78.875 L 64.191406 78.875 C 64.480469 78.875 64.765625 78.765625 64.988281 78.546875 L 90.957031 52.574219 C 94.222656 49.3125 96.054688 44.886719 96.054688 40.269531 L 96.054688 38.289062 C 96.054688 33.671875 94.222656 29.246094 90.957031 25.984375 Z M 90.957031 25.984375 " fill-opacity="1" fill-rule="nonzero"/><path fill="#e85a95" d="M 79.742188 25.984375 C 76.480469 22.722656 72.054688 20.890625 67.4375 20.890625 C 61.816406 20.890625 56.65625 24.015625 54.058594 29.003906 L 52.972656 31.082031 L 52.039062 29.285156 C 49.363281 24.15625 44.070312 20.816406 38.285156 20.890625 C 33.753906 20.949219 29.414062 22.773438 26.207031 25.984375 C 22.941406 29.246094 21.109375 33.671875 21.109375 38.289062 L 21.109375 40.269531 C 21.109375 44.886719 22.941406 49.3125 26.207031 52.574219 L 52.175781 78.546875 C 52.617188 78.984375 53.332031 78.984375 53.769531 78.546875 L 79.742188 52.574219 C 83.003906 49.3125 84.835938 44.886719 84.835938 40.269531 L 84.835938 38.289062 C 84.835938 33.671875 83.003906 29.246094 79.742188 25.984375 Z M 79.742188 25.984375 " fill-opacity="1" fill-rule="nonzero"/><g clip-path="url(#3ada591798)"><path fill="#2d2828" d="M 96.621094 0.0195312 L 20.539062 0.0195312 C 9.214844 0.0195312 0 9.234375 0 20.5625 L 0 74.105469 C 0 85.433594 9.214844 94.648438 20.539062 94.648438 L 40.109375 94.648438 L 56.117188 118.660156 C 56.667969 119.488281 57.589844 119.980469 58.582031 119.980469 C 59.574219 119.980469 60.496094 119.484375 61.046875 118.660156 L 77.054688 94.648438 L 96.621094 94.648438 C 107.949219 94.648438 117.164062 85.433594 117.164062 74.105469 L 117.164062 20.5625 C 117.164062 9.234375 107.949219 0.0195312 96.621094 0.0195312 Z M 115.65625 74.105469 C 115.65625 84.601562 107.117188 93.140625 96.621094 93.140625 L 76.652344 93.140625 C 76.402344 93.140625 76.167969 93.265625 76.027344 93.476562 L 59.792969 117.824219 C 59.519531 118.238281 59.078125 118.472656 58.582031 118.472656 C 58.085938 118.472656 57.644531 118.238281 57.367188 117.824219 L 41.136719 93.476562 C 40.996094 93.265625 40.761719 93.140625 40.511719 93.140625 L 20.539062 93.140625 C 10.042969 93.140625 1.507812 84.601562 1.507812 74.105469 L 1.507812 20.5625 C 1.507812 10.066406 10.042969 1.527344 20.539062 1.527344 L 96.621094 1.527344 C 107.117188 1.527344 115.65625 10.066406 115.65625 20.5625 Z M 78.65625 20.136719 L 67.4375 20.136719 C 64.179688 20.136719 61.089844 21.128906 58.511719 22.890625 C 55.859375 21.097656 52.722656 20.089844 49.503906 20.136719 L 38.496094 20.136719 C 38.488281 20.136719 38.476562 20.136719 38.46875 20.136719 C 38.40625 20.136719 38.339844 20.136719 38.277344 20.136719 L 38.167969 20.136719 C 38.144531 20.136719 38.125 20.140625 38.101562 20.144531 C 33.40625 20.246094 29 22.125 25.671875 25.453125 C 22.246094 28.878906 20.355469 33.4375 20.355469 38.289062 L 20.355469 40.269531 C 20.355469 45.121094 22.246094 49.679688 25.671875 53.105469 L 51.644531 79.078125 C 52 79.433594 52.472656 79.628906 52.972656 79.628906 L 64.191406 79.628906 C 64.691406 79.628906 65.164062 79.433594 65.519531 79.078125 L 91.492188 53.105469 C 94.917969 49.679688 96.808594 45.121094 96.808594 40.269531 L 96.808594 38.289062 C 96.808594 33.4375 94.917969 28.878906 91.492188 25.453125 C 88.0625 22.023438 83.503906 20.136719 78.65625 20.136719 Z M 95.300781 40.269531 C 95.300781 44.71875 93.570312 48.898438 90.425781 52.042969 L 64.457031 78.011719 C 64.359375 78.109375 64.25 78.121094 64.191406 78.121094 L 55.257812 78.121094 L 80.273438 53.105469 C 83.703125 49.679688 85.589844 45.121094 85.589844 40.269531 L 85.589844 38.289062 C 85.589844 33.4375 83.703125 28.878906 80.273438 25.453125 C 78.640625 23.816406 76.746094 22.539062 74.691406 21.640625 L 78.65625 21.640625 C 83.101562 21.640625 87.28125 23.375 90.425781 26.515625 C 93.570312 29.660156 95.300781 33.839844 95.300781 38.289062 Z M 21.863281 38.289062 C 21.863281 33.839844 23.59375 29.660156 26.738281 26.515625 C 29.617188 23.640625 33.378906 21.941406 37.414062 21.679688 C 37.664062 21.664062 37.914062 21.652344 38.167969 21.648438 C 38.210938 21.648438 38.253906 21.644531 38.296875 21.644531 C 38.355469 21.644531 38.410156 21.640625 38.46875 21.640625 C 38.621094 21.640625 38.769531 21.652344 38.917969 21.660156 C 44.0625 21.828125 48.902344 24.902344 51.371094 29.632812 L 52.304688 31.429688 C 52.4375 31.679688 52.691406 31.832031 52.972656 31.832031 C 53.253906 31.832031 53.511719 31.679688 53.640625 31.429688 L 54.726562 29.351562 C 55.671875 27.53125 56.972656 25.980469 58.511719 24.753906 C 58.71875 24.589844 58.929688 24.429688 59.148438 24.277344 C 59.359375 24.125 59.578125 23.984375 59.796875 23.847656 C 61.835938 22.5625 64.195312 21.796875 66.6875 21.667969 C 66.9375 21.65625 67.1875 21.640625 67.4375 21.640625 C 67.691406 21.640625 67.941406 21.648438 68.191406 21.660156 C 72.355469 21.84375 76.242188 23.550781 79.210938 26.515625 C 82.351562 29.660156 84.085938 33.839844 84.085938 38.289062 L 84.085938 40.269531 C 84.085938 44.71875 82.351562 48.898438 79.210938 52.042969 L 58.582031 72.667969 L 58.050781 73.203125 L 57.550781 73.703125 L 56.796875 74.453125 L 53.238281 78.011719 C 53.164062 78.085938 53.070312 78.121094 52.972656 78.121094 C 52.878906 78.121094 52.78125 78.085938 52.707031 78.011719 L 26.738281 52.042969 C 23.59375 48.898438 21.863281 44.71875 21.863281 40.269531 Z M 49.683594 21.640625 C 52.367188 21.640625 54.980469 22.441406 57.238281 23.855469 C 55.683594 25.164062 54.367188 26.78125 53.390625 28.65625 L 52.972656 29.453125 L 52.703125 28.9375 C 51.007812 25.679688 48.28125 23.140625 45.09375 21.644531 L 49.511719 21.644531 C 49.570312 21.644531 49.628906 21.640625 49.683594 21.640625 Z M 49.683594 21.640625 " fill-opacity="1" fill-rule="nonzero"/></g></svg>