<svg xmlns="http://www.w3.org/2000/svg" xmlns:xlink="http://www.w3.org/1999/xlink" width="160" zoomAndPan="magnify" viewBox="0 0 120 119.999999" height="160" preserveAspectRatio="xMidYMid meet" version="1.0"><defs><clipPath id="d35608408d"><path d="M 23 3 L 101.371094 3 L 101.371094 111 L 23 111 Z M 23 3 " clip-rule="nonzero"/></clipPath><clipPath id="a1caee3b09"><path d="M 19 0 L 101.371094 0 L 101.371094 120 L 19 120 Z M 19 0 " clip-rule="nonzero"/></clipPath></defs><path fill="#0041d1" d="M 100.640625 8.78125 L 92.019531 111.191406 C 91.617188 115.867188 87.507812 119.636719 82.820312 119.636719 L 27.089844 119.636719 C 22.402344 119.636719 18.921875 115.839844 19.328125 111.191406 L 27.972656 8.78125 C 28.351562 4.132812 32.484375 0.339844 37.148438 0.339844 L 92.851562 0.339844 C 97.566406 0.339844 101.019531 4.132812 100.640625 8.78125 Z M 100.640625 8.78125 " fill-opacity="1" fill-rule="nonzero"/><path fill="#f5f1e1" d="M 87.8125 3.480469 L 37.902344 3.480469 C 34.25 3.480469 31.046875 6.445312 30.71875 10.066406 L 22.300781 109.910156 C 22 113.554688 24.695312 116.496094 28.351562 116.496094 L 78.257812 116.496094 C 81.914062 116.496094 85.113281 113.527344 85.441406 109.910156 L 93.859375 10.066406 C 94.1875 6.421875 91.464844 3.480469 87.8125 3.480469 Z M 87.382812 21.375 L 86.171875 35.875 C 85.996094 37.882812 84.234375 39.492188 82.242188 39.492188 L 71.90625 39.492188 C 69.890625 39.492188 68.402344 37.859375 68.578125 35.875 L 69.789062 21.375 C 69.964844 19.363281 71.730469 17.753906 73.722656 17.753906 L 84.054688 17.753906 C 86.046875 17.753906 87.535156 19.363281 87.382812 21.375 Z M 82.570312 24.617188 C 82.367188 26.976562 80.300781 28.886719 77.929688 28.886719 C 75.5625 28.886719 73.824219 26.976562 74.023438 24.617188 C 74.226562 22.253906 76.292969 20.34375 78.660156 20.34375 C 81.03125 20.34375 82.769531 22.253906 82.570312 24.617188 Z M 82.570312 24.617188 " fill-opacity="1" fill-rule="nonzero"/><path fill="#f43fc1" d="M 74.277344 92.945312 C 71.125 92.796875 68.101562 93.601562 65.453125 95.082031 C 62.351562 96.84375 58.875 97.722656 55.445312 97.722656 L 54.386719 97.722656 C 50.960938 97.722656 47.632812 96.84375 44.835938 95.082031 C 42.464844 93.601562 39.566406 92.796875 36.390625 92.945312 C 30.921875 93.222656 25.957031 96.339844 23.082031 100.839844 L 22.324219 109.933594 C 22.023438 113.578125 24.71875 116.519531 28.375 116.519531 L 78.285156 116.519531 C 81.9375 116.519531 85.140625 113.554688 85.46875 109.933594 L 86.222656 100.839844 C 84.105469 96.339844 79.671875 93.222656 74.277344 92.945312 Z M 34.199219 106.894531 L 32.308594 106.894531 L 32.359375 106.316406 L 32.785156 106.316406 L 32.835938 105.738281 L 33.871094 105.738281 L 33.820312 106.316406 L 34.25 106.316406 Z M 34.347656 104.480469 C 34.300781 104.960938 33.871094 105.363281 33.390625 105.363281 C 32.914062 105.363281 32.535156 104.960938 32.585938 104.480469 L 32.761719 102.296875 C 32.8125 101.816406 33.242188 101.414062 33.71875 101.414062 C 34.199219 101.414062 34.578125 101.816406 34.527344 102.296875 Z M 56.152344 108.527344 C 56.152344 108.628906 56.101562 108.730469 56.027344 108.804688 C 55.949219 108.878906 55.851562 108.90625 55.75 108.90625 C 55.269531 108.90625 54.816406 108.78125 54.363281 108.554688 C 53.910156 108.328125 53.53125 108.027344 53.179688 107.648438 C 52.824219 107.273438 52.574219 106.871094 52.371094 106.390625 C 52.171875 105.914062 52.09375 105.460938 52.144531 104.984375 C 52.144531 104.882812 52.195312 104.785156 52.269531 104.707031 C 52.347656 104.632812 52.449219 104.582031 52.546875 104.582031 L 53.304688 104.582031 C 53.429688 104.582031 53.53125 104.609375 53.582031 104.683594 C 53.65625 104.734375 53.683594 104.832031 53.707031 104.960938 L 53.808594 105.5625 C 53.808594 105.664062 53.808594 105.761719 53.785156 105.839844 C 53.757812 105.914062 53.707031 105.964844 53.632812 106.039062 L 53.003906 106.566406 C 53.152344 106.871094 53.355469 107.121094 53.554688 107.347656 C 53.757812 107.574219 53.984375 107.75 54.261719 107.898438 L 54.867188 107.347656 C 54.941406 107.273438 55.019531 107.222656 55.09375 107.195312 C 55.167969 107.171875 55.269531 107.171875 55.371094 107.195312 L 55.902344 107.320312 C 56.027344 107.347656 56.101562 107.398438 56.152344 107.472656 C 56.203125 107.546875 56.226562 107.648438 56.226562 107.75 Z M 76.644531 105.738281 C 76.621094 105.964844 76.367188 106.117188 76.167969 105.988281 L 74.804688 105.136719 L 74.554688 105.136719 L 74.453125 106.441406 L 73.644531 106.441406 L 73.746094 105.136719 L 73.34375 105.136719 C 73.140625 105.109375 72.992188 105.035156 72.890625 104.882812 C 72.761719 104.734375 72.738281 104.558594 72.738281 104.382812 L 72.8125 103.550781 C 72.839844 103.351562 72.914062 103.175781 73.089844 103.023438 C 73.242188 102.875 73.445312 102.796875 73.671875 102.796875 L 75.03125 102.796875 L 76.542969 101.945312 C 76.746094 101.816406 77 101.96875 76.972656 102.195312 Z M 69.488281 38.539062 C 68.832031 37.882812 68.453125 36.929688 68.554688 35.875 L 68.628906 35.019531 L 71.753906 30.371094 C 72.007812 29.816406 72.335938 29.316406 72.761719 28.886719 C 73.34375 28.257812 74.097656 27.78125 74.90625 27.480469 C 75.613281 28.335938 76.695312 28.886719 77.957031 28.886719 C 79.214844 28.886719 80.375 28.335938 81.234375 27.480469 C 81.988281 27.78125 82.644531 28.257812 83.148438 28.886719 C 83.476562 29.316406 83.726562 29.816406 83.90625 30.371094 L 86.25 35.019531 L 86.171875 35.875 C 86.074219 36.929688 85.542969 37.859375 84.785156 38.539062 L 83.703125 36.578125 L 83.476562 39.292969 C 83.074219 39.417969 82.667969 39.492188 82.242188 39.492188 L 71.90625 39.492188 C 71.476562 39.492188 71.074219 39.417969 70.722656 39.292969 L 70.949219 36.578125 Z M 69.488281 38.539062 " fill-opacity="1" fill-rule="nonzero"/><g clip-path="url(#d35608408d)"><path fill="#ffc900" d="M 33.820312 100.109375 C 31.578125 100.109375 29.609375 101.917969 29.410156 104.15625 C 29.207031 106.390625 30.894531 108.203125 33.140625 108.203125 C 35.382812 108.203125 37.347656 106.390625 37.550781 104.15625 C 37.753906 101.917969 36.0625 100.109375 33.820312 100.109375 Z M 34.199219 106.894531 L 32.308594 106.894531 L 32.359375 106.316406 L 32.785156 106.316406 L 32.835938 105.738281 L 33.871094 105.738281 L 33.820312 106.316406 L 34.25 106.316406 Z M 34.347656 104.480469 C 34.300781 104.960938 33.871094 105.363281 33.390625 105.363281 C 32.914062 105.363281 32.535156 104.960938 32.585938 104.480469 L 32.761719 102.296875 C 32.8125 101.816406 33.242188 101.414062 33.71875 101.414062 C 34.199219 101.414062 34.578125 101.816406 34.527344 102.296875 Z M 50.480469 3.480469 L 75.234375 3.480469 C 75.058594 5.667969 73.117188 7.449219 70.921875 7.449219 L 54.136719 7.449219 C 51.941406 7.449219 50.304688 5.667969 50.480469 3.480469 Z M 75.613281 100.109375 C 73.367188 100.109375 71.402344 101.917969 71.199219 104.15625 C 71 106.390625 72.6875 108.203125 74.929688 108.203125 C 77.175781 108.203125 79.140625 106.390625 79.34375 104.15625 C 79.542969 101.917969 77.855469 100.109375 75.613281 100.109375 Z M 76.644531 105.738281 C 76.621094 105.964844 76.367188 106.117188 76.167969 105.988281 L 74.804688 105.136719 L 74.554688 105.136719 L 74.453125 106.441406 L 73.644531 106.441406 L 73.746094 105.136719 L 73.34375 105.136719 C 73.140625 105.109375 72.992188 105.035156 72.890625 104.882812 C 72.761719 104.734375 72.738281 104.558594 72.738281 104.382812 L 72.8125 103.550781 C 72.839844 103.351562 72.914062 103.175781 73.089844 103.023438 C 73.242188 102.875 73.445312 102.796875 73.671875 102.796875 L 75.03125 102.796875 L 76.542969 101.945312 C 76.746094 101.816406 77 101.96875 76.972656 102.195312 Z M 101.09375 14.714844 L 99.003906 39.59375 L 95.550781 39.59375 L 97.640625 14.714844 Z M 54.488281 102.722656 C 52.246094 102.722656 50.28125 104.53125 50.078125 106.769531 C 49.875 109.003906 51.566406 110.816406 53.808594 110.816406 C 56.050781 110.816406 58.019531 109.003906 58.21875 106.769531 C 58.421875 104.53125 56.734375 102.722656 54.488281 102.722656 Z M 56.152344 108.527344 C 56.152344 108.628906 56.101562 108.730469 56.027344 108.804688 C 55.949219 108.878906 55.851562 108.90625 55.75 108.90625 C 55.269531 108.90625 54.816406 108.78125 54.363281 108.554688 C 53.910156 108.328125 53.53125 108.027344 53.179688 107.648438 C 52.824219 107.273438 52.574219 106.871094 52.371094 106.390625 C 52.171875 105.914062 52.09375 105.460938 52.144531 104.984375 C 52.144531 104.882812 52.195312 104.785156 52.269531 104.707031 C 52.347656 104.632812 52.449219 104.582031 52.546875 104.582031 L 53.304688 104.582031 C 53.429688 104.582031 53.53125 104.609375 53.582031 104.683594 C 53.65625 104.734375 53.683594 104.832031 53.707031 104.960938 L 53.808594 105.5625 C 53.808594 105.664062 53.808594 105.761719 53.785156 105.839844 C 53.757812 105.914062 53.707031 105.964844 53.632812 106.039062 L 53.003906 106.566406 C 53.152344 106.871094 53.355469 107.121094 53.554688 107.347656 C 53.757812 107.574219 53.984375 107.75 54.261719 107.898438 L 54.867188 107.347656 C 54.941406 107.273438 55.019531 107.222656 55.09375 107.195312 C 55.167969 107.171875 55.269531 107.171875 55.371094 107.195312 L 55.902344 107.320312 C 56.027344 107.347656 56.101562 107.398438 56.152344 107.472656 C 56.203125 107.546875 56.226562 107.648438 56.226562 107.75 Z M 73.796875 67.261719 L 87.609375 84.378906 L 86.097656 102.296875 L 86.222656 100.839844 C 84.460938 97.066406 81.054688 94.277344 76.820312 93.296875 L 74.375 88.949219 L 74.050781 92.945312 C 70.972656 92.847656 68.023438 93.625 65.453125 95.082031 C 63.183594 96.363281 60.742188 97.195312 58.21875 97.546875 L 51.617188 97.546875 C 49.171875 97.195312 46.851562 96.390625 44.808594 95.082031 C 42.492188 93.625 39.667969 92.820312 36.566406 92.945312 L 36.894531 88.949219 L 33.71875 93.296875 C 33.191406 93.425781 32.636719 93.574219 32.132812 93.75 C 32.105469 93.75 32.105469 93.75 32.082031 93.777344 C 31.828125 93.851562 31.578125 93.953125 31.324219 94.050781 C 31.324219 94.050781 31.324219 94.050781 31.300781 94.050781 C 30.796875 94.253906 30.292969 94.480469 29.8125 94.730469 C 29.785156 94.730469 29.761719 94.757812 29.761719 94.757812 C 29.535156 94.882812 29.28125 95.007812 29.054688 95.132812 C 29.03125 95.132812 29.03125 95.160156 29.003906 95.160156 C 28.550781 95.433594 28.097656 95.710938 27.667969 96.011719 C 27.644531 96.039062 27.621094 96.039062 27.59375 96.0625 C 27.390625 96.214844 27.191406 96.363281 26.988281 96.515625 C 26.964844 96.539062 26.9375 96.539062 26.914062 96.566406 C 26.511719 96.890625 26.105469 97.21875 25.730469 97.570312 C 25.703125 97.597656 25.679688 97.621094 25.652344 97.644531 C 25.476562 97.820312 25.300781 98 25.125 98.175781 C 25.097656 98.199219 25.074219 98.222656 25.046875 98.25 C 24.871094 98.425781 24.695312 98.625 24.542969 98.800781 C 24.367188 99.003906 24.214844 99.179688 24.066406 99.378906 C 24.039062 99.40625 24.015625 99.457031 23.988281 99.480469 C 23.839844 99.683594 23.6875 99.859375 23.5625 100.058594 C 23.535156 100.085938 23.511719 100.132812 23.484375 100.160156 C 23.335938 100.359375 23.207031 100.5625 23.058594 100.789062 L 24.367188 85.308594 L 40.726562 67.765625 C 41.558594 66.585938 42.542969 65.554688 43.652344 64.648438 L 43.675781 64.625 C 45.085938 63.46875 46.726562 62.5625 48.464844 61.984375 C 50.558594 64.597656 53.785156 66.257812 57.539062 66.257812 C 61.292969 66.257812 64.824219 64.597656 67.34375 61.984375 C 68.984375 62.5625 70.46875 63.46875 71.703125 64.625 L 71.730469 64.648438 C 72.535156 65.453125 73.21875 66.308594 73.796875 67.261719 Z M 73.796875 67.261719 " fill-opacity="1" fill-rule="nonzero"/></g><g clip-path="url(#a1caee3b09)"><path fill="#2d2828" d="M 85.71875 109.933594 L 87.863281 84.402344 L 94.113281 10.089844 C 94.265625 8.253906 93.683594 6.519531 92.5 5.214844 C 91.316406 3.933594 89.652344 3.203125 87.8125 3.203125 L 37.902344 3.203125 C 34.121094 3.203125 30.796875 6.269531 30.46875 10.039062 L 22.832031 100.789062 C 22.832031 100.789062 22.832031 100.789062 22.832031 100.8125 L 22.074219 109.910156 C 21.921875 111.746094 22.503906 113.480469 23.6875 114.785156 C 24.871094 116.066406 26.535156 116.796875 28.375 116.796875 L 78.285156 116.796875 C 82.066406 116.769531 85.390625 113.703125 85.71875 109.933594 Z M 24.621094 85.457031 L 39.339844 69.699219 C 38.535156 71.359375 38.003906 73.144531 37.851562 75.003906 L 36.695312 88.851562 L 33.59375 93.074219 C 29.585938 94.003906 25.878906 96.441406 23.410156 99.882812 Z M 36.59375 89.832031 L 36.339844 92.695312 C 35.660156 92.71875 34.980469 92.796875 34.324219 92.921875 Z M 38.355469 75.054688 C 38.585938 72.488281 39.492188 70.050781 40.953125 67.992188 L 43.878906 64.875 C 45.214844 63.792969 46.75 62.941406 48.390625 62.363281 C 48.539062 62.539062 48.667969 62.6875 48.816406 62.863281 C 51.035156 65.277344 54.136719 66.585938 57.5625 66.585938 C 61.34375 66.585938 64.875 64.949219 67.421875 62.335938 C 68.984375 62.914062 70.367188 63.769531 71.527344 64.851562 L 73.59375 67.414062 C 74.90625 69.601562 75.5625 72.238281 75.308594 75.027344 L 73.824219 92.695312 C 70.898438 92.644531 67.972656 93.375 65.328125 94.882812 C 62.328125 96.589844 58.898438 97.496094 55.445312 97.496094 L 54.386719 97.496094 C 50.933594 97.496094 47.683594 96.589844 44.960938 94.882812 C 42.589844 93.398438 39.792969 92.644531 36.871094 92.695312 Z M 48.667969 61.859375 C 47.152344 59.976562 46.347656 57.664062 46.273438 55.175781 L 46.421875 53.265625 C 55.121094 52.257812 58.421875 47.511719 59.304688 45.953125 C 60.085938 47.585938 63.085938 52.484375 70.949219 52.410156 C 70.949219 52.863281 70.949219 53.316406 70.921875 53.765625 C 70.34375 60.527344 64.371094 66.054688 57.5625 66.054688 C 54.289062 66.054688 51.3125 64.800781 49.195312 62.488281 C 49.019531 62.285156 48.84375 62.085938 48.667969 61.859375 Z M 74.578125 89.78125 L 76.34375 92.945312 C 75.6875 92.820312 75.007812 92.746094 74.328125 92.695312 Z M 77 93.097656 L 74.652344 88.902344 L 75.8125 75.054688 C 75.988281 72.96875 75.6875 70.957031 75.007812 69.148438 L 87.359375 84.453125 L 86.046875 99.933594 C 84.132812 96.492188 80.855469 94.027344 77 93.097656 Z M 74.957031 3.730469 C 74.652344 5.667969 72.890625 7.199219 70.921875 7.199219 L 54.136719 7.199219 C 53.152344 7.199219 52.246094 6.824219 51.617188 6.117188 C 51.011719 5.464844 50.707031 4.636719 50.734375 3.730469 Z M 30.972656 10.089844 C 31.273438 6.570312 34.375 3.730469 37.902344 3.730469 L 50.230469 3.730469 C 50.203125 4.761719 50.558594 5.71875 51.238281 6.472656 C 51.96875 7.273438 53.003906 7.703125 54.136719 7.703125 L 70.921875 7.703125 C 73.167969 7.703125 75.160156 5.941406 75.460938 3.730469 L 87.835938 3.730469 C 89.527344 3.730469 91.0625 4.386719 92.148438 5.566406 C 93.257812 6.773438 93.785156 8.355469 93.632812 10.039062 L 87.433594 83.722656 L 74 67.113281 C 73.140625 65.679688 71.980469 64.421875 70.597656 63.441406 L 71.402344 53.816406 C 71.453125 53.265625 71.453125 52.710938 71.425781 52.160156 C 71.425781 52.160156 71.425781 52.160156 71.425781 52.132812 C 71.425781 52.109375 71.425781 52.082031 71.425781 52.035156 C 71.425781 51.90625 71.402344 51.78125 71.402344 51.65625 C 71.402344 51.582031 71.402344 51.503906 71.378906 51.429688 C 71.351562 51.304688 71.351562 51.152344 71.328125 51.027344 C 71.328125 50.976562 71.300781 50.925781 71.300781 50.878906 C 71.277344 50.726562 71.25 50.574219 71.226562 50.425781 C 71.226562 50.398438 71.199219 50.351562 71.199219 50.324219 C 71.175781 50.148438 71.125 49.996094 71.101562 49.847656 C 71.101562 49.820312 71.101562 49.820312 71.101562 49.796875 C 70.644531 47.910156 69.714844 46.179688 68.402344 44.71875 C 66.589844 42.734375 64.144531 41.503906 61.445312 41.125 C 61.421875 41.125 61.421875 41.125 61.394531 41.125 C 61.21875 41.101562 61.042969 41.078125 60.867188 41.078125 C 60.789062 41.078125 60.714844 41.078125 60.640625 41.050781 C 60.511719 41.050781 60.386719 41.027344 60.261719 41.027344 C 60.058594 41.027344 59.859375 41 59.65625 41 C 59.453125 41 59.226562 41 59.027344 41.027344 C 58.949219 41.027344 58.898438 41.027344 58.824219 41.050781 C 58.671875 41.050781 58.523438 41.078125 58.371094 41.078125 C 58.296875 41.078125 58.246094 41.101562 58.167969 41.101562 C 58.019531 41.125 57.890625 41.125 57.742188 41.152344 C 57.664062 41.152344 57.613281 41.175781 57.539062 41.175781 C 57.386719 41.203125 57.238281 41.226562 57.109375 41.253906 C 57.058594 41.253906 57.007812 41.277344 56.933594 41.277344 C 56.78125 41.300781 56.632812 41.351562 56.457031 41.378906 C 56.40625 41.378906 56.378906 41.402344 56.328125 41.402344 C 56.152344 41.453125 55.976562 41.503906 55.800781 41.554688 C 55.773438 41.554688 55.75 41.578125 55.722656 41.578125 C 51.238281 42.9375 47.558594 46.554688 46.222656 51.152344 C 46.222656 51.179688 46.195312 51.203125 46.195312 51.253906 C 46.144531 51.429688 46.09375 51.582031 46.070312 51.757812 C 46.046875 51.832031 46.046875 51.90625 46.019531 51.957031 C 45.996094 52.058594 45.96875 52.160156 45.945312 52.257812 L 45.917969 52.335938 C 45.867188 52.535156 45.84375 52.738281 45.816406 52.9375 L 45.816406 52.964844 C 45.792969 53.214844 45.742188 53.464844 45.742188 53.71875 C 45.691406 54.195312 45.691406 54.671875 45.691406 55.125 L 45.011719 63.292969 C 43.222656 64.421875 41.683594 65.878906 40.5 67.589844 L 24.621094 84.601562 Z M 78.285156 116.269531 L 28.375 116.269531 C 26.6875 116.269531 25.148438 115.613281 24.066406 114.433594 C 22.957031 113.226562 22.425781 111.644531 22.578125 109.960938 L 23.335938 100.9375 C 26.257812 96.441406 31.25 93.472656 36.390625 93.222656 C 39.414062 93.074219 42.265625 93.800781 44.710938 95.335938 C 47.507812 97.09375 50.859375 98.023438 54.414062 98.023438 L 55.472656 98.023438 C 59.027344 98.023438 62.53125 97.09375 65.605469 95.335938 C 68.300781 93.800781 71.300781 93.074219 74.277344 93.222656 C 75.109375 93.273438 75.941406 93.375 76.746094 93.574219 C 76.769531 93.601562 76.820312 93.601562 76.847656 93.601562 C 80.828125 94.554688 84.207031 97.195312 85.996094 100.914062 L 85.242188 109.933594 C 84.914062 113.402344 81.8125 116.269531 78.285156 116.269531 Z M 61.800781 6.296875 C 61.597656 6.070312 61.496094 5.765625 61.523438 5.441406 C 61.570312 4.8125 62.152344 4.285156 62.78125 4.285156 C 63.109375 4.285156 63.386719 4.410156 63.613281 4.636719 C 63.816406 4.863281 63.917969 5.164062 63.890625 5.492188 C 63.839844 6.117188 63.261719 6.648438 62.628906 6.648438 C 62.304688 6.648438 62 6.519531 61.800781 6.296875 Z M 69.335938 38.714844 C 69.335938 38.738281 69.335938 38.738281 69.335938 38.714844 C 69.335938 38.738281 69.335938 38.738281 69.335938 38.714844 C 70.015625 39.390625 70.898438 39.746094 71.882812 39.746094 L 82.214844 39.746094 C 83.199219 39.746094 84.15625 39.367188 84.886719 38.738281 C 84.914062 38.714844 84.9375 38.6875 84.964844 38.664062 C 85.769531 37.960938 86.300781 36.980469 86.398438 35.875 L 87.609375 21.375 C 87.6875 20.34375 87.382812 19.363281 86.703125 18.609375 C 86.023438 17.878906 85.089844 17.476562 84.03125 17.476562 L 73.695312 17.476562 C 71.554688 17.476562 69.6875 19.210938 69.511719 21.324219 L 68.300781 35.824219 C 68.226562 36.855469 68.527344 37.835938 69.210938 38.589844 C 69.261719 38.664062 69.285156 38.6875 69.335938 38.714844 Z M 69.816406 38.511719 L 70.570312 37.457031 L 70.445312 38.941406 C 70.242188 38.816406 70.015625 38.664062 69.816406 38.511719 Z M 71.882812 39.242188 C 71.554688 39.242188 71.25 39.191406 70.949219 39.117188 L 71.554688 32.078125 C 71.703125 30.195312 73.015625 28.484375 74.832031 27.757812 C 74.832031 27.757812 74.855469 27.78125 74.855469 27.78125 C 75.636719 28.636719 76.746094 29.113281 77.957031 29.113281 C 79.214844 29.113281 80.402344 28.585938 81.308594 27.757812 C 82.417969 28.234375 83.222656 29.113281 83.601562 30.195312 L 83.601562 30.21875 C 83.804688 30.773438 83.878906 31.402344 83.828125 32.054688 L 83.222656 39.117188 C 82.898438 39.214844 82.570312 39.265625 82.242188 39.265625 L 71.882812 39.265625 Z M 74.277344 24.617188 C 74.277344 24.589844 74.277344 24.589844 74.277344 24.566406 C 76.871094 24.238281 78.058594 22.957031 78.535156 22.253906 C 78.964844 22.957031 80.046875 24.238281 82.34375 24.261719 C 82.34375 24.363281 82.34375 24.464844 82.34375 24.539062 C 82.164062 26.75 80.199219 28.5625 77.957031 28.5625 C 76.898438 28.5625 75.914062 28.160156 75.234375 27.40625 C 75.207031 27.378906 75.183594 27.355469 75.160156 27.328125 C 75.132812 27.28125 75.082031 27.230469 75.03125 27.203125 C 74.476562 26.5 74.199219 25.59375 74.277344 24.617188 Z M 83.855469 37.40625 L 84.433594 38.460938 C 84.207031 38.636719 83.980469 38.765625 83.726562 38.890625 Z M 84.835938 38.136719 L 83.929688 36.527344 L 84.308594 32.078125 C 84.308594 31.980469 84.308594 31.878906 84.332031 31.777344 L 85.996094 35.070312 L 85.921875 35.847656 C 85.820312 36.730469 85.417969 37.53125 84.835938 38.136719 Z M 70.015625 21.398438 C 70.167969 19.539062 71.832031 18.007812 73.695312 18.007812 L 84.03125 18.007812 C 84.9375 18.007812 85.746094 18.359375 86.324219 18.984375 C 86.90625 19.613281 87.179688 20.46875 87.105469 21.375 L 86.023438 34.113281 L 84.410156 30.921875 L 84.003906 29.992188 C 84.003906 29.992188 84.003906 29.96875 83.980469 29.96875 C 83.550781 28.835938 82.71875 27.882812 81.609375 27.355469 C 82.265625 26.601562 82.695312 25.644531 82.796875 24.617188 C 82.820312 24.414062 82.820312 24.238281 82.796875 24.0625 C 82.796875 24.0625 82.796875 24.039062 82.796875 24.039062 C 82.796875 23.988281 82.796875 23.9375 82.769531 23.886719 C 82.769531 23.8125 82.769531 23.734375 82.746094 23.6875 C 82.746094 23.609375 82.71875 23.558594 82.71875 23.484375 C 82.695312 23.410156 82.695312 23.332031 82.667969 23.257812 C 82.644531 23.207031 82.644531 23.15625 82.621094 23.082031 C 82.59375 23.007812 82.570312 22.933594 82.542969 22.855469 C 82.519531 22.804688 82.519531 22.78125 82.492188 22.730469 C 82.390625 22.453125 82.265625 22.203125 82.089844 21.953125 C 82.066406 21.902344 82.015625 21.851562 81.988281 21.777344 C 81.9375 21.726562 81.914062 21.675781 81.863281 21.625 C 81.8125 21.574219 81.761719 21.523438 81.738281 21.449219 C 81.710938 21.425781 81.710938 21.425781 81.6875 21.398438 C 81.660156 21.375 81.609375 21.324219 81.585938 21.296875 C 81.535156 21.246094 81.511719 21.199219 81.460938 21.171875 C 81.410156 21.121094 81.332031 21.070312 81.285156 21.023438 C 81.234375 20.996094 81.207031 20.972656 81.15625 20.921875 C 81.082031 20.871094 81.007812 20.820312 80.929688 20.769531 C 80.90625 20.746094 80.855469 20.71875 80.828125 20.71875 C 80.753906 20.671875 80.652344 20.621094 80.578125 20.570312 C 80.550781 20.542969 80.527344 20.542969 80.476562 20.519531 C 80.375 20.46875 80.300781 20.445312 80.199219 20.394531 C 80.175781 20.394531 80.148438 20.367188 80.097656 20.367188 C 79.996094 20.34375 79.898438 20.292969 79.820312 20.269531 C 79.769531 20.269531 79.746094 20.242188 79.695312 20.242188 C 79.59375 20.21875 79.519531 20.191406 79.417969 20.167969 C 79.34375 20.167969 79.292969 20.140625 79.214844 20.140625 C 79.140625 20.140625 79.066406 20.117188 78.988281 20.117188 C 78.839844 20.09375 78.710938 20.09375 78.5625 20.09375 C 78.410156 20.09375 78.257812 20.09375 78.105469 20.117188 C 78.058594 20.117188 78.03125 20.117188 77.980469 20.140625 C 77.878906 20.167969 77.78125 20.167969 77.679688 20.191406 C 77.628906 20.191406 77.578125 20.21875 77.554688 20.21875 C 77.453125 20.242188 77.351562 20.269531 77.25 20.292969 C 77.199219 20.292969 77.175781 20.316406 77.125 20.34375 C 77.023438 20.367188 76.921875 20.417969 76.820312 20.445312 C 76.796875 20.46875 76.746094 20.46875 76.722656 20.492188 C 76.621094 20.542969 76.519531 20.59375 76.417969 20.644531 C 76.394531 20.671875 76.367188 20.671875 76.34375 20.695312 C 76.242188 20.746094 76.140625 20.820312 76.015625 20.871094 C 75.988281 20.871094 75.988281 20.894531 75.964844 20.894531 C 75.863281 20.972656 75.738281 21.046875 75.636719 21.121094 C 75.636719 21.121094 75.613281 21.148438 75.613281 21.148438 C 75.511719 21.222656 75.386719 21.324219 75.285156 21.425781 C 75.285156 21.425781 75.285156 21.425781 75.257812 21.425781 C 74.605469 22.027344 74.097656 22.804688 73.847656 23.6875 C 73.847656 23.734375 73.824219 23.761719 73.824219 23.8125 C 73.796875 23.910156 73.773438 23.988281 73.746094 24.085938 L 73.746094 24.113281 C 73.746094 24.136719 73.746094 24.136719 73.746094 24.164062 L 73.722656 24.3125 C 73.722656 24.3125 73.722656 24.339844 73.722656 24.339844 C 73.722656 24.414062 73.695312 24.488281 73.695312 24.589844 C 73.621094 25.59375 73.871094 26.574219 74.402344 27.355469 C 73.292969 27.832031 72.359375 28.660156 71.753906 29.667969 C 71.753906 29.667969 71.730469 29.691406 71.730469 29.691406 L 71.101562 30.746094 L 68.855469 34.089844 Z M 68.804688 35.898438 L 68.882812 35.09375 L 71.074219 31.804688 C 71.074219 31.878906 71.050781 31.953125 71.050781 32.027344 L 70.671875 36.476562 L 69.460938 38.136719 C 68.957031 37.507812 68.730469 36.730469 68.804688 35.898438 Z M 34.527344 15.417969 L 34.804688 12.101562 C 34.851562 11.546875 35.332031 11.09375 35.886719 11.09375 L 38.835938 11.09375 C 39.113281 11.09375 39.367188 11.195312 39.542969 11.398438 C 39.71875 11.597656 39.820312 11.847656 39.792969 12.125 L 39.667969 13.53125 C 39.617188 14.085938 39.136719 14.539062 38.585938 14.539062 L 36.238281 14.539062 L 34.929688 15.617188 C 34.878906 15.644531 34.828125 15.667969 34.777344 15.667969 C 34.726562 15.667969 34.703125 15.667969 34.652344 15.644531 C 34.578125 15.617188 34.527344 15.519531 34.527344 15.417969 Z M 85.191406 14.160156 L 89.324219 14.160156 C 89.777344 14.160156 90.15625 13.808594 90.207031 13.355469 L 90.433594 10.769531 C 90.457031 10.542969 90.382812 10.339844 90.230469 10.164062 C 90.082031 10.015625 89.878906 9.914062 89.652344 9.914062 L 89.199219 9.914062 C 89.121094 9.914062 89.046875 9.890625 88.996094 9.839844 C 88.945312 9.789062 88.921875 9.710938 88.921875 9.636719 C 88.921875 9.535156 88.894531 9.410156 88.820312 9.335938 C 88.746094 9.261719 88.644531 9.210938 88.542969 9.210938 L 86.726562 9.210938 C 86.527344 9.210938 86.324219 9.386719 86.324219 9.585938 C 86.324219 9.710938 86.222656 9.839844 86.097656 9.890625 L 86.121094 9.710938 C 86.121094 9.636719 86.097656 9.5625 86.046875 9.511719 C 85.996094 9.460938 85.921875 9.4375 85.871094 9.4375 L 85.390625 9.4375 C 85.265625 9.4375 85.140625 9.535156 85.140625 9.664062 L 85.113281 10.015625 C 84.863281 10.140625 84.660156 10.417969 84.636719 10.71875 L 84.410156 13.304688 C 84.382812 13.53125 84.460938 13.734375 84.609375 13.910156 C 84.761719 14.085938 84.964844 14.160156 85.191406 14.160156 Z M 86.628906 12.074219 C 86.675781 11.621094 87.054688 11.246094 87.507812 11.246094 C 87.710938 11.246094 87.914062 11.320312 88.039062 11.472656 C 88.164062 11.621094 88.242188 11.824219 88.214844 12.023438 C 88.164062 12.476562 87.785156 12.855469 87.332031 12.855469 C 87.132812 12.855469 86.929688 12.777344 86.804688 12.628906 C 86.675781 12.476562 86.601562 12.277344 86.628906 12.074219 Z M 54.488281 102.472656 C 52.121094 102.472656 50.027344 104.382812 49.824219 106.742188 C 49.726562 107.898438 50.078125 108.980469 50.835938 109.808594 C 51.589844 110.613281 52.625 111.066406 53.785156 111.066406 C 56.152344 111.066406 58.246094 109.15625 58.445312 106.792969 C 58.546875 105.636719 58.195312 104.558594 57.4375 103.726562 C 56.707031 102.921875 55.648438 102.472656 54.488281 102.472656 Z M 57.96875 106.769531 C 57.792969 108.878906 55.925781 110.589844 53.808594 110.589844 C 52.800781 110.589844 51.867188 110.1875 51.210938 109.484375 C 50.558594 108.78125 50.230469 107.824219 50.332031 106.792969 C 50.507812 104.683594 52.371094 102.972656 54.488281 102.972656 C 55.496094 102.972656 56.429688 103.375 57.085938 104.078125 C 57.742188 104.785156 58.042969 105.738281 57.96875 106.769531 Z M 33.820312 99.859375 C 31.449219 99.859375 29.359375 101.769531 29.15625 104.128906 C 29.054688 105.285156 29.410156 106.367188 30.164062 107.195312 C 30.921875 108 31.953125 108.453125 33.113281 108.453125 C 35.484375 108.453125 37.574219 106.542969 37.777344 104.179688 C 37.878906 103.023438 37.523438 101.945312 36.769531 101.113281 C 36.039062 100.285156 34.980469 99.859375 33.820312 99.859375 Z M 37.296875 104.128906 C 37.121094 106.242188 35.257812 107.949219 33.140625 107.949219 C 32.132812 107.949219 31.199219 107.546875 30.542969 106.84375 C 29.886719 106.140625 29.558594 105.1875 29.660156 104.15625 C 29.835938 102.042969 31.703125 100.335938 33.820312 100.335938 C 34.828125 100.335938 35.761719 100.738281 36.417969 101.441406 C 37.070312 102.167969 37.375 103.125 37.296875 104.128906 Z M 75.613281 99.859375 C 73.242188 99.859375 71.152344 101.769531 70.949219 104.128906 C 70.847656 105.285156 71.199219 106.367188 71.957031 107.195312 C 72.714844 108 73.746094 108.453125 74.90625 108.453125 C 77.277344 108.453125 79.367188 106.542969 79.570312 104.179688 C 79.671875 103.023438 79.316406 101.945312 78.5625 101.113281 C 77.804688 100.285156 76.746094 99.859375 75.613281 99.859375 Z M 79.066406 104.128906 C 78.890625 106.242188 77.023438 107.949219 74.90625 107.949219 C 73.898438 107.949219 72.964844 107.546875 72.308594 106.84375 C 71.65625 106.140625 71.328125 105.1875 71.425781 104.15625 C 71.605469 102.042969 73.46875 100.335938 75.585938 100.335938 C 76.59375 100.335938 77.527344 100.738281 78.183594 101.441406 C 78.839844 102.167969 79.167969 103.125 79.066406 104.128906 Z M 34.851562 103.125 C 34.804688 103.125 34.753906 103.125 34.703125 103.148438 L 34.777344 102.296875 C 34.804688 101.992188 34.703125 101.691406 34.5 101.492188 C 34.300781 101.265625 34.023438 101.164062 33.71875 101.164062 C 33.113281 101.164062 32.558594 101.667969 32.507812 102.269531 L 32.433594 103.199219 C 32.382812 103.175781 32.359375 103.148438 32.308594 103.148438 C 32.15625 103.125 32.054688 103.25 32.03125 103.375 L 31.90625 104.859375 C 31.878906 105.160156 31.980469 105.4375 32.179688 105.664062 C 32.28125 105.789062 32.433594 105.863281 32.585938 105.941406 L 32.558594 106.089844 L 32.359375 106.089844 C 32.230469 106.089844 32.105469 106.191406 32.105469 106.316406 L 32.054688 106.894531 C 32.054688 106.96875 32.082031 107.046875 32.132812 107.09375 C 32.179688 107.144531 32.257812 107.171875 32.308594 107.171875 L 34.199219 107.171875 C 34.324219 107.171875 34.449219 107.070312 34.449219 106.945312 L 34.5 106.367188 C 34.5 106.292969 34.476562 106.214844 34.425781 106.164062 C 34.375 106.117188 34.300781 106.089844 34.25 106.089844 L 34.097656 106.089844 L 34.097656 105.941406 C 34.550781 105.789062 34.902344 105.386719 34.953125 104.910156 L 35.082031 103.425781 C 35.082031 103.277344 34.980469 103.148438 34.851562 103.125 Z M 33.011719 102.296875 C 33.039062 101.945312 33.367188 101.640625 33.71875 101.640625 C 33.894531 101.640625 34.023438 101.691406 34.148438 101.816406 C 34.25 101.945312 34.300781 102.09375 34.300781 102.246094 L 34.121094 104.433594 C 34.097656 104.785156 33.769531 105.085938 33.417969 105.085938 C 33.242188 105.085938 33.113281 105.035156 32.988281 104.910156 C 32.886719 104.785156 32.835938 104.632812 32.835938 104.480469 Z M 32.410156 104.960938 C 32.457031 105.085938 32.507812 105.1875 32.609375 105.285156 C 32.6875 105.386719 32.785156 105.4375 32.914062 105.511719 C 32.761719 105.488281 32.660156 105.4375 32.558594 105.335938 C 32.433594 105.210938 32.410156 105.085938 32.410156 104.960938 Z M 33.972656 106.644531 L 32.585938 106.644531 L 32.585938 106.566406 L 33.972656 106.566406 Z M 33.0625 106.066406 L 33.0625 105.988281 L 33.59375 105.988281 L 33.59375 106.066406 Z M 33.972656 105.460938 C 34.148438 105.363281 34.300781 105.210938 34.398438 105.035156 C 34.324219 105.210938 34.171875 105.386719 33.972656 105.460938 Z M 55.976562 107.070312 L 55.445312 106.945312 C 55.296875 106.917969 55.167969 106.917969 55.042969 106.945312 C 54.917969 106.996094 54.816406 107.046875 54.714844 107.144531 L 54.261719 107.574219 C 54.085938 107.449219 53.933594 107.320312 53.785156 107.171875 C 53.632812 107.019531 53.507812 106.84375 53.378906 106.617188 L 53.832031 106.214844 C 53.933594 106.140625 54.011719 106.039062 54.0625 105.914062 C 54.109375 105.8125 54.109375 105.6875 54.109375 105.539062 C 54.109375 105.539062 54.109375 105.511719 54.109375 105.511719 L 54.011719 104.933594 C 53.984375 104.757812 53.910156 104.609375 53.808594 104.507812 C 53.683594 104.40625 53.53125 104.355469 53.355469 104.355469 L 52.597656 104.355469 C 52.421875 104.355469 52.269531 104.433594 52.144531 104.53125 C 52.019531 104.65625 51.941406 104.808594 51.917969 104.960938 C 51.867188 105.460938 51.96875 105.964844 52.171875 106.46875 C 52.371094 106.96875 52.648438 107.421875 53.027344 107.800781 C 53.378906 108.175781 53.808594 108.503906 54.289062 108.753906 C 54.765625 109.003906 55.269531 109.132812 55.773438 109.132812 C 55.949219 109.132812 56.101562 109.082031 56.226562 108.957031 C 56.355469 108.828125 56.429688 108.679688 56.457031 108.503906 L 56.53125 107.75 C 56.554688 107.574219 56.503906 107.421875 56.429688 107.296875 C 56.277344 107.222656 56.152344 107.121094 55.976562 107.070312 Z M 55.976562 107.75 L 55.902344 108.503906 C 55.902344 108.554688 55.875 108.578125 55.851562 108.628906 C 55.824219 108.652344 55.773438 108.679688 55.722656 108.679688 C 55.296875 108.679688 54.867188 108.578125 54.464844 108.351562 C 54.035156 108.125 53.65625 107.847656 53.355469 107.496094 C 53.027344 107.144531 52.773438 106.742188 52.597656 106.316406 C 52.421875 105.890625 52.347656 105.460938 52.398438 105.035156 C 52.398438 104.984375 52.421875 104.960938 52.449219 104.933594 C 52.472656 104.910156 52.523438 104.882812 52.574219 104.882812 L 53.328125 104.882812 C 53.378906 104.882812 53.429688 104.882812 53.457031 104.910156 C 53.480469 104.933594 53.480469 104.984375 53.507812 105.035156 L 53.605469 105.613281 C 53.605469 105.6875 53.605469 105.738281 53.582031 105.761719 C 53.554688 105.789062 53.554688 105.8125 53.507812 105.863281 L 52.875 106.390625 C 52.773438 106.46875 52.75 106.59375 52.824219 106.695312 C 53.003906 107.019531 53.203125 107.296875 53.40625 107.523438 C 53.632812 107.75 53.882812 107.949219 54.160156 108.125 C 54.261719 108.175781 54.386719 108.175781 54.464844 108.101562 L 55.070312 107.546875 C 55.121094 107.496094 55.144531 107.472656 55.195312 107.472656 C 55.21875 107.472656 55.269531 107.472656 55.320312 107.472656 L 55.851562 107.597656 C 55.902344 107.625 55.949219 107.625 55.949219 107.648438 C 55.949219 107.648438 55.976562 107.671875 55.976562 107.75 Z M 77.375 102.445312 C 77.324219 102.394531 77.25 102.394531 77.199219 102.394531 L 77.199219 102.296875 L 77.601562 101.84375 C 77.703125 101.742188 77.679688 101.59375 77.578125 101.492188 C 77.476562 101.390625 77.324219 101.414062 77.226562 101.515625 L 77.023438 101.742188 C 77 101.71875 77 101.71875 76.972656 101.691406 C 76.796875 101.59375 76.59375 101.59375 76.394531 101.691406 L 74.929688 102.523438 L 73.644531 102.523438 C 73.367188 102.523438 73.117188 102.621094 72.914062 102.824219 C 72.714844 103.023438 72.585938 103.25 72.5625 103.527344 L 72.488281 104.355469 C 72.460938 104.609375 72.535156 104.859375 72.6875 105.035156 C 72.839844 105.234375 73.066406 105.363281 73.316406 105.386719 C 73.316406 105.386719 73.34375 105.386719 73.34375 105.386719 L 73.46875 105.386719 L 73.417969 105.863281 L 72.914062 106.441406 C 72.8125 106.542969 72.839844 106.695312 72.941406 106.792969 C 72.992188 106.84375 73.039062 106.84375 73.117188 106.84375 C 73.191406 106.84375 73.269531 106.820312 73.316406 106.769531 L 73.46875 106.59375 C 73.519531 106.644531 73.570312 106.667969 73.644531 106.667969 L 74.453125 106.667969 C 74.578125 106.667969 74.703125 106.566406 74.703125 106.441406 L 74.78125 105.386719 L 76.039062 106.191406 C 76.191406 106.292969 76.394531 106.292969 76.570312 106.214844 C 76.746094 106.117188 76.871094 105.941406 76.898438 105.738281 L 76.921875 105.460938 C 76.949219 105.460938 76.972656 105.460938 77 105.460938 C 77.046875 105.460938 77.097656 105.4375 77.125 105.410156 C 77.351562 105.261719 77.554688 105.058594 77.730469 104.785156 C 77.90625 104.53125 77.980469 104.230469 78.03125 103.929688 C 78.058594 103.601562 78.007812 103.324219 77.878906 103.050781 C 77.753906 102.847656 77.578125 102.621094 77.375 102.445312 Z M 77.097656 103.453125 C 77.148438 103.5 77.175781 103.550781 77.199219 103.601562 C 77.25 103.703125 77.25 103.804688 77.25 103.929688 C 77.25 104.054688 77.199219 104.15625 77.148438 104.253906 C 77.125 104.304688 77.074219 104.355469 77.023438 104.40625 Z M 73.921875 104.960938 C 73.871094 104.910156 73.796875 104.882812 73.746094 104.882812 L 73.367188 104.882812 C 73.242188 104.859375 73.167969 104.808594 73.089844 104.734375 C 73.015625 104.632812 72.992188 104.53125 72.992188 104.40625 L 73.066406 103.578125 C 73.066406 103.425781 73.140625 103.300781 73.269531 103.199219 C 73.394531 103.101562 73.519531 103.050781 73.671875 103.050781 L 75.03125 103.050781 C 75.082031 103.050781 75.109375 103.050781 75.160156 103.023438 L 76.671875 102.167969 C 76.695312 102.167969 76.695312 102.167969 76.695312 102.167969 L 74 105.234375 L 74 105.160156 C 74 105.085938 73.972656 105.007812 73.921875 104.960938 Z M 73.921875 106.191406 L 73.921875 106.089844 L 74.25 105.714844 L 74.199219 106.191406 Z M 76.394531 105.714844 C 76.394531 105.738281 76.367188 105.761719 76.34375 105.761719 C 76.34375 105.761719 76.316406 105.789062 76.292969 105.761719 L 74.929688 104.910156 C 74.929688 104.910156 74.929688 104.910156 74.90625 104.910156 L 76.621094 102.949219 Z M 101.273438 14.539062 C 101.222656 14.488281 101.144531 14.460938 101.09375 14.460938 L 100.414062 14.460938 L 100.894531 8.808594 C 101.09375 6.472656 100.363281 4.285156 98.828125 2.625 C 97.316406 0.992188 95.195312 0.0859375 92.878906 0.0859375 L 37.148438 0.0859375 C 32.359375 0.0859375 28.125 3.984375 27.71875 8.757812 L 19.074219 111.191406 C 18.871094 113.527344 19.605469 115.714844 21.140625 117.375 C 22.652344 119.007812 24.769531 119.914062 27.089844 119.914062 L 82.820312 119.914062 C 87.609375 119.914062 91.84375 116.015625 92.273438 111.242188 L 98.296875 39.871094 L 99.027344 39.871094 C 99.15625 39.871094 99.28125 39.769531 99.28125 39.644531 L 101.371094 14.765625 C 101.347656 14.664062 101.324219 14.589844 101.273438 14.539062 Z M 30.871094 119.410156 L 27.089844 119.410156 C 24.898438 119.410156 22.90625 118.554688 21.496094 117.023438 C 20.058594 115.488281 19.375 113.429688 19.578125 111.21875 L 28.222656 8.808594 C 28.601562 4.285156 32.609375 0.589844 37.148438 0.589844 L 89.070312 0.589844 C 91.265625 0.589844 93.257812 1.445312 94.667969 2.976562 C 96.105469 4.511719 96.785156 6.570312 96.582031 8.78125 L 87.964844 111.191406 C 87.585938 115.714844 83.578125 119.410156 79.015625 119.410156 Z M 91.742188 111.191406 C 91.367188 115.714844 87.359375 119.410156 82.796875 119.410156 L 81.964844 119.410156 C 85.441406 118.203125 88.140625 114.988281 88.441406 111.242188 L 97.0625 8.832031 C 97.265625 6.496094 96.53125 4.308594 95.019531 2.652344 C 94.164062 1.722656 93.128906 1.042969 91.945312 0.617188 L 92.828125 0.617188 C 95.019531 0.617188 97.011719 1.46875 98.421875 3.003906 C 99.859375 4.535156 100.539062 6.597656 100.339844 8.808594 L 99.859375 14.488281 L 97.589844 14.488281 C 97.464844 14.488281 97.339844 14.589844 97.339844 14.714844 L 95.246094 39.59375 C 95.246094 39.667969 95.273438 39.746094 95.324219 39.792969 C 95.375 39.84375 95.449219 39.871094 95.5 39.871094 L 97.71875 39.871094 Z M 99.078125 35.699219 L 97.289062 35.699219 L 98.097656 26.171875 L 99.886719 26.171875 Z M 97.617188 25.671875 L 96.988281 25.671875 L 97.894531 14.964844 L 98.523438 14.964844 Z M 96.9375 26.171875 L 97.566406 26.171875 L 96.761719 35.699219 L 96.128906 35.699219 Z M 96.105469 36.199219 L 96.734375 36.199219 L 96.457031 39.367188 L 95.828125 39.367188 Z M 98.777344 39.34375 L 96.988281 39.34375 L 97.265625 36.175781 L 99.054688 36.175781 Z M 99.910156 25.671875 L 98.121094 25.671875 L 99.027344 14.964844 L 100.816406 14.964844 Z M 99.910156 25.671875 " fill-opacity="1" fill-rule="nonzero"/></g></svg>