<svg xmlns="http://www.w3.org/2000/svg" xmlns:xlink="http://www.w3.org/1999/xlink" width="1400" zoomAndPan="magnify" viewBox="0 0 1050 374.999991" height="500" preserveAspectRatio="xMidYMid meet" version="1.0"><defs><g/><clipPath id="309d691091"><rect x="0" width="1050" y="0" height="177"/></clipPath></defs><g transform="matrix(1, 0, 0, 1, 0, 99)"><g clip-path="url(#309d691091)"><g fill="#e964a1" fill-opacity="1"><g transform="translate(0.0000126, 154.643894)"><g><path d="M 126.875 15.40625 C 119.175781 14.820312 112.085938 13.15625 105.609375 10.40625 C 99.140625 7.664062 93.945312 3.46875 90.03125 -2.1875 C 86.125 -7.84375 84.171875 -15.28125 84.171875 -24.5 L 84.171875 -82.59375 C 84.171875 -87.96875 85.25 -93.046875 87.40625 -97.828125 C 89.570312 -102.609375 93.070312 -106.515625 97.90625 -109.546875 C 102.75 -112.578125 109.140625 -114.09375 117.078125 -114.09375 C 118.710938 -114.09375 120.285156 -114.003906 121.796875 -113.828125 C 123.316406 -113.660156 124.773438 -113.457031 126.171875 -113.21875 L 133.34375 -124.078125 C 133.695312 -124.660156 133.875 -125.242188 133.875 -125.828125 C 133.875 -127.222656 133.113281 -127.921875 131.59375 -127.921875 L 97.65625 -127.921875 L 85.578125 -106.921875 C 84.753906 -105.523438 83.585938 -104.828125 82.078125 -104.828125 C 80.910156 -104.828125 79.859375 -105.265625 78.921875 -106.140625 C 77.992188 -107.015625 77.53125 -108.035156 77.53125 -109.203125 C 77.53125 -110.128906 77.757812 -111.003906 78.21875 -111.828125 L 97.828125 -146.125 C 98.640625 -147.519531 99.863281 -148.21875 101.5 -148.21875 C 102.664062 -148.21875 103.742188 -147.8125 104.734375 -147 C 105.722656 -146.1875 106.21875 -145.195312 106.21875 -144.03125 C 106.21875 -143.320312 106.046875 -142.617188 105.703125 -141.921875 L 102.546875 -136.328125 L 131.25 -136.328125 C 135.332031 -136.328125 138.394531 -135.507812 140.4375 -133.875 C 142.476562 -132.238281 143.5 -130.195312 143.5 -127.75 C 143.5 -125.414062 142.625 -122.90625 140.875 -120.21875 L 134.21875 -110.421875 C 139.707031 -107.742188 143.734375 -103.894531 146.296875 -98.875 C 148.867188 -93.851562 150.15625 -88.425781 150.15625 -82.59375 L 150.15625 -59.84375 C 150.15625 -54.363281 148.988281 -49.234375 146.65625 -44.453125 C 144.320312 -39.671875 140.703125 -35.789062 135.796875 -32.8125 C 130.898438 -29.832031 124.660156 -28.34375 117.078125 -28.34375 C 111.585938 -28.34375 106.859375 -29.101562 102.890625 -30.625 C 98.929688 -32.144531 95.609375 -34.1875 92.921875 -36.75 L 92.921875 -24.5 C 92.921875 -17.144531 94.40625 -11.335938 97.375 -7.078125 C 100.351562 -2.828125 104.5 0.316406 109.8125 2.359375 C 115.125 4.398438 121.21875 5.832031 128.09375 6.65625 C 129.382812 6.769531 130.347656 7.234375 130.984375 8.046875 C 131.628906 8.867188 131.953125 9.742188 131.953125 10.671875 C 131.953125 11.835938 131.515625 12.945312 130.640625 14 C 129.765625 15.050781 128.507812 15.519531 126.875 15.40625 Z M 24.328125 -37.09375 C 24.328125 -38.84375 25.023438 -40.65625 26.421875 -42.53125 L 45.5 -67.90625 L 27.828125 -80.84375 C 25.835938 -82.363281 24.84375 -84.113281 24.84375 -86.09375 C 24.84375 -87.382812 25.253906 -88.726562 26.078125 -90.125 L 57.40625 -145.25 C 57.863281 -146.0625 58.414062 -146.613281 59.0625 -146.90625 C 59.707031 -147.195312 60.320312 -147.34375 60.90625 -147.34375 C 62.1875 -147.34375 63.347656 -146.875 64.390625 -145.9375 C 65.441406 -145.007812 65.96875 -143.90625 65.96875 -142.625 C 65.96875 -141.6875 65.738281 -140.925781 65.28125 -140.34375 L 34.296875 -86.796875 L 50.75 -74.71875 L 63.34375 -91.53125 C 64.050781 -92.570312 65.101562 -93.09375 66.5 -93.09375 C 67.78125 -93.09375 68.914062 -92.625 69.90625 -91.6875 C 70.90625 -90.757812 71.40625 -89.65625 71.40625 -88.375 C 71.40625 -87.5625 71.050781 -86.6875 70.34375 -85.75 L 34.125 -39.03125 L 65.453125 -39.03125 L 63.53125 -54.78125 C 63.40625 -56.40625 63.835938 -57.65625 64.828125 -58.53125 C 65.828125 -59.40625 66.910156 -59.84375 68.078125 -59.84375 C 69.003906 -59.84375 69.90625 -59.519531 70.78125 -58.875 C 71.65625 -58.238281 72.15625 -57.28125 72.28125 -56 L 74.546875 -36.921875 C 74.785156 -35.054688 74.347656 -33.539062 73.234375 -32.375 C 72.128906 -31.207031 70.703125 -30.625 68.953125 -30.625 L 55.828125 -30.625 L 55.828125 -12.421875 L 73.328125 -0.171875 C 74.722656 0.878906 75.421875 2.101562 75.421875 3.5 C 75.421875 4.664062 75.007812 5.6875 74.1875 6.5625 C 73.375 7.4375 72.382812 7.875 71.21875 7.875 C 70.40625 7.875 69.53125 7.582031 68.59375 7 L 55.828125 -1.921875 L 55.828125 11.203125 C 55.828125 12.835938 55.390625 14.09375 54.515625 14.96875 C 53.640625 15.84375 52.617188 16.28125 51.453125 16.28125 C 50.398438 16.28125 49.4375 15.84375 48.5625 14.96875 C 47.6875 14.09375 47.25 12.835938 47.25 11.203125 L 47.25 -8.578125 L 32.203125 6.65625 C 31.378906 7.582031 30.382812 8.046875 29.21875 8.046875 C 28.050781 8.046875 26.972656 7.550781 25.984375 6.5625 C 24.992188 5.570312 24.5 4.492188 24.5 3.328125 C 24.5 2.273438 24.96875 1.28125 25.90625 0.34375 L 47.25 -21.171875 L 47.25 -30.625 L 32.203125 -30.625 C 29.628906 -30.625 27.671875 -31.234375 26.328125 -32.453125 C 24.992188 -33.679688 24.328125 -35.226562 24.328125 -37.09375 Z M 92.921875 -60.203125 C 92.921875 -56.929688 93.414062 -53.601562 94.40625 -50.21875 C 95.40625 -46.84375 97.332031 -43.925781 100.1875 -41.46875 C 103.039062 -39.019531 107.15625 -37.445312 112.53125 -36.75 L 112.53125 -95.203125 C 112.53125 -96.710938 112.992188 -97.847656 113.921875 -98.609375 C 114.859375 -99.367188 115.851562 -99.75 116.90625 -99.75 C 118.070312 -99.75 119.09375 -99.367188 119.96875 -98.609375 C 120.84375 -97.847656 121.28125 -96.710938 121.28125 -95.203125 L 121.28125 -36.75 C 126.289062 -37.445312 130.253906 -38.988281 133.171875 -41.375 C 136.085938 -43.769531 138.1875 -46.660156 139.46875 -50.046875 C 140.757812 -53.429688 141.40625 -56.816406 141.40625 -60.203125 L 141.40625 -82.25 C 141.40625 -85.75 140.644531 -89.304688 139.125 -92.921875 C 137.601562 -96.535156 135.09375 -99.566406 131.59375 -102.015625 C 128.09375 -104.472656 123.253906 -105.703125 117.078125 -105.703125 C 110.421875 -105.703125 105.375 -104.503906 101.9375 -102.109375 C 98.5 -99.722656 96.132812 -96.75 94.84375 -93.1875 C 93.5625 -89.625 92.921875 -85.976562 92.921875 -82.25 Z M 92.921875 -60.203125 "/></g></g></g><g fill="#e964a1" fill-opacity="1"><g transform="translate(174.997006, 154.643894)"><g><path d="M 113.921875 15.40625 C 112.523438 15.40625 111.445312 14.9375 110.6875 14 C 109.925781 13.0625 109.546875 12.070312 109.546875 11.03125 C 109.546875 9.863281 109.925781 8.84375 110.6875 7.96875 C 111.445312 7.09375 112.523438 6.65625 113.921875 6.65625 C 118.359375 6.65625 121.363281 5.515625 122.9375 3.234375 C 124.507812 0.960938 125.296875 -1.921875 125.296875 -5.421875 L 125.296875 -109.203125 L 91.34375 -109.203125 C 89.945312 -109.203125 88.867188 -109.664062 88.109375 -110.59375 C 87.347656 -111.53125 86.96875 -112.523438 86.96875 -113.578125 C 86.96875 -114.742188 87.347656 -115.765625 88.109375 -116.640625 C 88.867188 -117.515625 89.945312 -117.953125 91.34375 -117.953125 L 125.296875 -117.953125 L 125.296875 -143.328125 C 125.296875 -144.722656 125.734375 -145.769531 126.609375 -146.46875 C 127.484375 -147.175781 128.503906 -147.53125 129.671875 -147.53125 C 130.722656 -147.53125 131.710938 -147.175781 132.640625 -146.46875 C 133.578125 -145.769531 134.046875 -144.722656 134.046875 -143.328125 L 134.046875 -117.953125 L 148.578125 -117.953125 C 150.085938 -117.953125 151.191406 -117.515625 151.890625 -116.640625 C 152.597656 -115.765625 152.953125 -114.742188 152.953125 -113.578125 C 152.953125 -112.523438 152.597656 -111.53125 151.890625 -110.59375 C 151.191406 -109.664062 150.085938 -109.203125 148.578125 -109.203125 L 134.046875 -109.203125 L 134.046875 -5.421875 C 134.046875 0.640625 132.441406 5.625 129.234375 9.53125 C 126.023438 13.445312 120.921875 15.40625 113.921875 15.40625 Z M 23.28125 -113.75 C 23.28125 -114.914062 23.65625 -115.9375 24.40625 -116.8125 C 25.164062 -117.6875 26.25 -118.125 27.65625 -118.125 L 49.171875 -118.125 L 49.171875 -143.671875 C 49.171875 -145.191406 49.632812 -146.328125 50.5625 -147.078125 C 51.5 -147.835938 52.492188 -148.21875 53.546875 -148.21875 C 54.710938 -148.21875 55.734375 -147.835938 56.609375 -147.078125 C 57.484375 -146.328125 57.921875 -145.191406 57.921875 -143.671875 L 57.921875 -118.125 L 79.96875 -118.125 C 81.488281 -118.125 82.597656 -117.6875 83.296875 -116.8125 C 83.992188 -115.9375 84.34375 -114.914062 84.34375 -113.75 C 84.34375 -112.695312 83.992188 -111.703125 83.296875 -110.765625 C 82.597656 -109.835938 81.488281 -109.375 79.96875 -109.375 L 73.15625 -109.375 C 73.03125 -92.570312 72.207031 -77.40625 70.6875 -63.875 C 69.175781 -50.34375 66.554688 -38.148438 62.828125 -27.296875 L 79.96875 -16.96875 C 81.257812 -16.15625 81.90625 -14.988281 81.90625 -13.46875 C 81.90625 -12.300781 81.492188 -11.191406 80.671875 -10.140625 C 79.859375 -9.097656 78.8125 -8.578125 77.53125 -8.578125 C 76.59375 -8.578125 75.832031 -8.8125 75.25 -9.28125 L 59.5 -18.71875 C 54.601562 -7.40625 48.1875 2.566406 40.25 11.203125 C 39.082031 12.367188 37.859375 12.953125 36.578125 12.953125 C 35.410156 12.953125 34.359375 12.484375 33.421875 11.546875 C 32.492188 10.617188 32.03125 9.507812 32.03125 8.21875 C 32.03125 6.9375 32.550781 5.769531 33.59375 4.71875 C 37.332031 0.757812 40.6875 -3.582031 43.65625 -8.3125 C 46.632812 -13.039062 49.234375 -18.144531 51.453125 -23.625 L 33.78125 -34.296875 C 32.488281 -35.117188 31.84375 -36.226562 31.84375 -37.625 C 31.84375 -38.90625 32.3125 -40.039062 33.25 -41.03125 C 34.1875 -42.03125 35.238281 -42.53125 36.40625 -42.53125 C 37.101562 -42.53125 37.800781 -42.351562 38.5 -42 L 54.78125 -32.203125 C 58.15625 -42.585938 60.601562 -54.222656 62.125 -67.109375 C 63.644531 -80.003906 64.34375 -94.09375 64.21875 -109.375 L 27.65625 -109.375 C 26.25 -109.375 25.164062 -109.835938 24.40625 -110.765625 C 23.65625 -111.703125 23.28125 -112.695312 23.28125 -113.75 Z M 88.546875 -41.828125 C 88.546875 -43.109375 89.007812 -44.242188 89.9375 -45.234375 C 90.875 -46.222656 91.925781 -46.71875 93.09375 -46.71875 C 93.675781 -46.71875 94.320312 -46.546875 95.03125 -46.203125 L 116.90625 -34.296875 C 118.300781 -33.484375 119 -32.316406 119 -30.796875 C 119 -29.628906 118.5625 -28.519531 117.6875 -27.46875 C 116.8125 -26.425781 115.734375 -25.90625 114.453125 -25.90625 C 113.867188 -25.90625 113.226562 -26.078125 112.53125 -26.421875 L 90.65625 -38.328125 C 89.25 -39.140625 88.546875 -40.304688 88.546875 -41.828125 Z M 88.546875 -41.828125 "/></g></g></g><g fill="#e964a1" fill-opacity="1"><g transform="translate(349.994, 154.643894)"><g><path d="M 92.921875 15.75 C 91.753906 15.75 90.734375 15.367188 89.859375 14.609375 C 88.984375 13.847656 88.546875 12.769531 88.546875 11.375 C 88.546875 10.789062 88.601562 10.320312 88.71875 9.96875 L 92.578125 -5.25 L 60.375 -13.65625 C 58.625 -14.113281 57.398438 -14.984375 56.703125 -16.265625 C 56.003906 -17.554688 55.65625 -18.898438 55.65625 -20.296875 C 55.65625 -21.234375 55.710938 -21.875 55.828125 -22.21875 L 66.5 -70.53125 L 38.15625 -70.53125 C 36.75 -70.53125 35.664062 -70.992188 34.90625 -71.921875 C 34.15625 -72.859375 33.78125 -73.851562 33.78125 -74.90625 C 33.78125 -76.070312 34.15625 -77.09375 34.90625 -77.96875 C 35.664062 -78.84375 36.75 -79.28125 38.15625 -79.28125 L 68.421875 -79.28125 L 74.203125 -105.171875 C 74.429688 -106.453125 75.007812 -107.414062 75.9375 -108.0625 C 76.875 -108.707031 77.8125 -109.03125 78.75 -109.03125 C 80.03125 -109.03125 81.195312 -108.53125 82.25 -107.53125 C 83.300781 -106.539062 83.59375 -105.113281 83.125 -103.25 L 77.875 -79.28125 L 137.203125 -79.28125 C 138.710938 -79.28125 139.816406 -78.84375 140.515625 -77.96875 C 141.222656 -77.09375 141.578125 -76.070312 141.578125 -74.90625 C 141.578125 -73.851562 141.222656 -72.859375 140.515625 -71.921875 C 139.816406 -70.992188 138.710938 -70.53125 137.203125 -70.53125 L 117.78125 -70.53125 L 103.25 -11.546875 L 125.296875 -5.78125 C 127.628906 -5.070312 128.796875 -3.613281 128.796875 -1.40625 C 128.796875 -0.238281 128.300781 0.867188 127.3125 1.921875 C 126.320312 2.972656 125.007812 3.265625 123.375 2.796875 L 101.15625 -2.96875 L 97.46875 11.71875 C 97.125 13.125 96.515625 14.144531 95.640625 14.78125 C 94.765625 15.425781 93.859375 15.75 92.921875 15.75 Z M 25.71875 -113.21875 C 25.71875 -118.351562 27.265625 -122.582031 30.359375 -125.90625 C 33.453125 -129.238281 37.972656 -130.90625 43.921875 -130.90625 L 82.78125 -130.90625 L 82.78125 -144.546875 C 82.78125 -146.066406 83.242188 -147.203125 84.171875 -147.953125 C 85.109375 -148.710938 86.101562 -149.09375 87.15625 -149.09375 C 88.320312 -149.09375 89.34375 -148.710938 90.21875 -147.953125 C 91.09375 -147.203125 91.53125 -146.066406 91.53125 -144.546875 L 91.53125 -130.90625 L 130.375 -130.90625 C 136.675781 -130.90625 141.457031 -129.382812 144.71875 -126.34375 C 147.988281 -123.3125 149.625 -119.113281 149.625 -113.75 L 149.625 -98.703125 C 149.625 -97.296875 149.1875 -96.242188 148.3125 -95.546875 C 147.4375 -94.847656 146.414062 -94.5 145.25 -94.5 C 144.195312 -94.5 143.203125 -94.847656 142.265625 -95.546875 C 141.335938 -96.242188 140.875 -97.296875 140.875 -98.703125 L 140.875 -113.21875 C 140.875 -115.90625 140.113281 -118.066406 138.59375 -119.703125 C 137.082031 -121.335938 134.632812 -122.15625 131.25 -122.15625 L 43.921875 -122.15625 C 40.660156 -122.15625 38.269531 -121.28125 36.75 -119.53125 C 35.226562 -117.78125 34.46875 -115.5625 34.46875 -112.875 L 34.46875 -98.703125 C 34.46875 -97.296875 34.03125 -96.242188 33.15625 -95.546875 C 32.28125 -94.847656 31.257812 -94.5 30.09375 -94.5 C 29.050781 -94.5 28.0625 -94.847656 27.125 -95.546875 C 26.1875 -96.242188 25.71875 -97.296875 25.71875 -98.703125 Z M 65.09375 -21.703125 L 94.671875 -13.828125 L 108.671875 -70.53125 L 75.953125 -70.53125 Z M 65.09375 -21.703125 "/></g></g></g><g fill="#e964a1" fill-opacity="1"><g transform="translate(524.990968, 154.643894)"><g><path d="M 42.703125 9.453125 C 41.296875 9.453125 40.210938 8.984375 39.453125 8.046875 C 38.703125 7.117188 38.328125 6.128906 38.328125 5.078125 C 38.328125 3.910156 38.703125 2.890625 39.453125 2.015625 C 40.210938 1.140625 41.296875 0.703125 42.703125 0.703125 L 82.953125 0.703125 L 82.953125 -49.53125 L 50.75 -49.53125 C 49.351562 -49.53125 48.273438 -49.992188 47.515625 -50.921875 C 46.753906 -51.859375 46.375 -52.851562 46.375 -53.90625 C 46.375 -55.070312 46.753906 -56.09375 47.515625 -56.96875 C 48.273438 -57.84375 49.351562 -58.28125 50.75 -58.28125 L 82.953125 -58.28125 L 82.953125 -91 L 52.15625 -91 C 50.75 -91 49.664062 -91.460938 48.90625 -92.390625 C 48.15625 -93.328125 47.78125 -94.320312 47.78125 -95.375 C 47.78125 -96.539062 48.15625 -97.5625 48.90625 -98.4375 C 49.664062 -99.3125 50.75 -99.75 52.15625 -99.75 L 122.84375 -99.75 C 124.363281 -99.75 125.472656 -99.3125 126.171875 -98.4375 C 126.867188 -97.5625 127.21875 -96.539062 127.21875 -95.375 C 127.21875 -94.320312 126.867188 -93.328125 126.171875 -92.390625 C 125.472656 -91.460938 124.363281 -91 122.84375 -91 L 91.875 -91 L 91.875 -58.28125 L 124.421875 -58.28125 C 125.941406 -58.28125 127.050781 -57.84375 127.75 -56.96875 C 128.445312 -56.09375 128.796875 -55.070312 128.796875 -53.90625 C 128.796875 -52.851562 128.445312 -51.859375 127.75 -50.921875 C 127.050781 -49.992188 125.941406 -49.53125 124.421875 -49.53125 L 91.875 -49.53125 L 91.875 0.703125 L 132.65625 0.703125 C 134.164062 0.703125 135.269531 1.140625 135.96875 2.015625 C 136.675781 2.890625 137.03125 3.910156 137.03125 5.078125 C 137.03125 6.128906 136.675781 7.117188 135.96875 8.046875 C 135.269531 8.984375 134.164062 9.453125 132.65625 9.453125 Z M 22.921875 -94.328125 C 22.921875 -95.378906 23.390625 -96.367188 24.328125 -97.296875 L 72.796875 -142.625 C 77.117188 -146.59375 82.078125 -148.578125 87.671875 -148.578125 C 90.359375 -148.578125 92.984375 -148.078125 95.546875 -147.078125 C 98.117188 -146.085938 100.507812 -144.546875 102.71875 -142.453125 L 150.5 -97.296875 C 151.550781 -96.242188 152.078125 -95.078125 152.078125 -93.796875 C 152.078125 -92.628906 151.640625 -91.578125 150.765625 -90.640625 C 149.890625 -89.710938 148.867188 -89.25 147.703125 -89.25 C 146.421875 -89.25 145.3125 -89.71875 144.375 -90.65625 L 98.171875 -134.921875 C 94.671875 -138.304688 91.226562 -140 87.84375 -140 C 84.46875 -140 81.085938 -138.363281 77.703125 -135.09375 L 30.28125 -90.65625 C 29.457031 -89.832031 28.582031 -89.421875 27.65625 -89.421875 C 26.488281 -89.421875 25.40625 -89.945312 24.40625 -91 C 23.414062 -92.050781 22.921875 -93.160156 22.921875 -94.328125 Z M 22.921875 -94.328125 "/></g></g></g><g fill="#e964a1" fill-opacity="1"><g transform="translate(699.987986, 154.643894)"><g><path d="M 61.78125 15.40625 C 60.613281 15.40625 59.59375 15.023438 58.71875 14.265625 C 57.84375 13.503906 57.40625 12.425781 57.40625 11.03125 L 57.40625 -8.40625 L 36.21875 3.5 C 35.289062 3.96875 34.535156 4.203125 33.953125 4.203125 C 32.785156 4.203125 31.789062 3.734375 30.96875 2.796875 C 30.15625 1.867188 29.75 0.820312 29.75 -0.34375 C 29.75 -1.976562 30.507812 -3.207031 32.03125 -4.03125 L 57.40625 -18.203125 L 57.40625 -34.46875 L 43.046875 -34.46875 C 36.160156 -34.46875 31.460938 -36.1875 28.953125 -39.625 C 26.453125 -43.070312 25.4375 -47.539062 25.90625 -53.03125 L 26.953125 -63.53125 C 27.421875 -67.84375 29.226562 -71.367188 32.375 -74.109375 C 35.519531 -76.847656 39.660156 -78.21875 44.796875 -78.21875 L 57.40625 -78.21875 L 57.40625 -118.296875 L 27.46875 -118.296875 C 26.070312 -118.296875 24.992188 -118.757812 24.234375 -119.6875 C 23.472656 -120.625 23.09375 -121.617188 23.09375 -122.671875 C 23.09375 -123.835938 23.472656 -124.859375 24.234375 -125.734375 C 24.992188 -126.609375 26.070312 -127.046875 27.46875 -127.046875 L 45.15625 -127.046875 L 37.625 -141.046875 C 37.269531 -141.984375 37.09375 -142.742188 37.09375 -143.328125 C 37.09375 -144.609375 37.5625 -145.65625 38.5 -146.46875 C 39.4375 -147.289062 40.425781 -147.703125 41.46875 -147.703125 C 43.101562 -147.703125 44.332031 -146.882812 45.15625 -145.25 L 54.59375 -127.046875 L 68.59375 -127.046875 L 78.21875 -145.421875 C 79.039062 -146.941406 80.207031 -147.703125 81.71875 -147.703125 C 82.882812 -147.703125 83.9375 -147.289062 84.875 -146.46875 C 85.8125 -145.65625 86.28125 -144.609375 86.28125 -143.328125 C 86.28125 -142.503906 86.101562 -141.742188 85.75 -141.046875 L 78.046875 -127.046875 L 81.71875 -127.046875 C 87.09375 -127.046875 91.351562 -125.5 94.5 -122.40625 C 97.644531 -119.320312 99.21875 -115.210938 99.21875 -110.078125 L 99.21875 -86.625 C 99.21875 -81.144531 97.816406 -76.914062 95.015625 -73.9375 C 92.222656 -70.957031 87.789062 -69.46875 81.71875 -69.46875 L 65.96875 -69.46875 L 65.96875 -43.21875 L 78.921875 -43.21875 C 84.410156 -43.21875 88.960938 -41.644531 92.578125 -38.5 C 96.191406 -35.351562 98 -30.863281 98 -25.03125 L 98 -18.203125 C 98 -11.785156 96.484375 -7.117188 93.453125 -4.203125 C 90.421875 -1.285156 85.988281 0.460938 80.15625 1.046875 C 78.40625 1.160156 77.09375 0.722656 76.21875 -0.265625 C 75.34375 -1.253906 74.90625 -2.332031 74.90625 -3.5 C 74.90625 -4.4375 75.164062 -5.28125 75.6875 -6.03125 C 76.207031 -6.789062 76.992188 -7.226562 78.046875 -7.34375 C 82.828125 -8.050781 85.890625 -9.28125 87.234375 -11.03125 C 88.578125 -12.78125 89.25 -15.285156 89.25 -18.546875 L 89.25 -25.03125 C 89.25 -27.820312 88.253906 -30.09375 86.265625 -31.84375 C 84.285156 -33.59375 81.835938 -34.46875 78.921875 -34.46875 L 65.96875 -34.46875 L 65.96875 11.03125 C 65.96875 12.425781 65.53125 13.503906 64.65625 14.265625 C 63.78125 15.023438 62.820312 15.40625 61.78125 15.40625 Z M 34.65625 -52.84375 C 34.414062 -49.8125 34.90625 -47.445312 36.125 -45.75 C 37.351562 -44.0625 39.546875 -43.21875 42.703125 -43.21875 L 57.40625 -43.21875 L 57.40625 -69.46875 L 44.453125 -69.46875 C 42.003906 -69.46875 39.929688 -68.679688 38.234375 -67.109375 C 36.546875 -65.535156 35.582031 -63.582031 35.34375 -61.25 Z M 81.71875 -78.21875 C 84.632812 -78.21875 86.820312 -79.003906 88.28125 -80.578125 C 89.738281 -82.160156 90.46875 -84.175781 90.46875 -86.625 L 90.46875 -110.078125 C 90.46875 -112.640625 89.5625 -114.648438 87.75 -116.109375 C 85.945312 -117.566406 83.9375 -118.296875 81.71875 -118.296875 L 65.96875 -118.296875 L 65.96875 -78.21875 Z M 112.875 -133.875 C 112.875 -135.394531 113.3125 -136.53125 114.1875 -137.28125 C 115.0625 -138.039062 116.082031 -138.421875 117.25 -138.421875 C 118.300781 -138.421875 119.265625 -138.039062 120.140625 -137.28125 C 121.015625 -136.53125 121.453125 -135.394531 121.453125 -133.875 L 121.453125 -21.703125 C 121.453125 -20.179688 121.015625 -19.070312 120.140625 -18.375 C 119.265625 -17.675781 118.300781 -17.328125 117.25 -17.328125 C 116.082031 -17.328125 115.0625 -17.675781 114.1875 -18.375 C 113.3125 -19.070312 112.875 -20.179688 112.875 -21.703125 Z M 123.03125 10.671875 C 123.03125 9.617188 123.347656 8.6875 123.984375 7.875 C 124.628906 7.0625 125.648438 6.65625 127.046875 6.65625 C 131.484375 6.65625 134.578125 5.515625 136.328125 3.234375 C 138.078125 0.960938 138.953125 -1.921875 138.953125 -5.421875 L 138.953125 -143.328125 C 138.953125 -144.722656 139.390625 -145.769531 140.265625 -146.46875 C 141.140625 -147.175781 142.160156 -147.53125 143.328125 -147.53125 C 144.378906 -147.53125 145.367188 -147.175781 146.296875 -146.46875 C 147.234375 -145.769531 147.703125 -144.722656 147.703125 -143.328125 L 147.703125 -5.421875 C 147.703125 0.640625 146.097656 5.625 142.890625 9.53125 C 139.679688 13.445312 134.578125 15.40625 127.578125 15.40625 C 126.054688 15.40625 124.914062 14.90625 124.15625 13.90625 C 123.40625 12.914062 123.03125 11.835938 123.03125 10.671875 Z M 123.03125 10.671875 "/></g></g></g><g fill="#e964a1" fill-opacity="1"><g transform="translate(874.985005, 154.643894)"><g><path d="M 50.40625 15.046875 C 49.238281 15.046875 48.1875 14.609375 47.25 13.734375 C 46.3125 12.859375 45.84375 11.835938 45.84375 10.671875 C 45.84375 9.742188 46.132812 8.925781 46.71875 8.21875 C 53.019531 0.0507812 58.007812 -8.84375 61.6875 -18.46875 C 65.363281 -28.09375 68.015625 -39.203125 69.640625 -51.796875 C 71.273438 -64.398438 72.09375 -79.21875 72.09375 -96.25 L 72.09375 -130.203125 L 34.65625 -130.203125 C 33.25 -130.203125 32.164062 -130.664062 31.40625 -131.59375 C 30.65625 -132.53125 30.28125 -133.523438 30.28125 -134.578125 C 30.28125 -135.742188 30.65625 -136.765625 31.40625 -137.640625 C 32.164062 -138.515625 33.25 -138.953125 34.65625 -138.953125 L 119.171875 -138.953125 C 126.867188 -138.953125 132.523438 -137.054688 136.140625 -133.265625 C 139.765625 -129.472656 141.578125 -124.3125 141.578125 -117.78125 L 141.578125 -7.34375 C 141.578125 -0.582031 139.851562 4.601562 136.40625 8.21875 C 132.96875 11.84375 127.984375 13.945312 121.453125 14.53125 C 119.816406 14.644531 118.5625 14.234375 117.6875 13.296875 C 116.8125 12.367188 116.375 11.320312 116.375 10.15625 C 116.375 9.21875 116.664062 8.335938 117.25 7.515625 C 117.832031 6.703125 118.765625 6.238281 120.046875 6.125 C 124.597656 5.539062 127.863281 4.253906 129.84375 2.265625 C 131.832031 0.285156 132.828125 -2.914062 132.828125 -7.34375 L 132.828125 -117.59375 C 132.828125 -126 128.273438 -130.203125 119.171875 -130.203125 L 80.84375 -130.203125 L 80.84375 -96.953125 C 80.84375 -70.703125 78.6875 -48.707031 74.375 -30.96875 C 70.0625 -13.238281 63.238281 1.515625 53.90625 13.296875 C 52.851562 14.460938 51.6875 15.046875 50.40625 15.046875 Z M 50.40625 15.046875 "/></g></g></g></g></g></svg>