<svg xmlns="http://www.w3.org/2000/svg" xmlns:xlink="http://www.w3.org/1999/xlink" width="160" zoomAndPan="magnify" viewBox="0 0 120 119.999999" height="160" preserveAspectRatio="xMidYMid meet" version="1.0"><defs><clipPath id="e3bf1e2507"><path d="M 22 1 L 106 1 L 106 117 L 22 117 Z M 22 1 " clip-rule="nonzero"/></clipPath><clipPath id="dbe5f23825"><path d="M 67.8125 -11.796875 L 119.878906 19.503906 L 52.253906 131.992188 L 0.1875 100.691406 Z M 67.8125 -11.796875 " clip-rule="nonzero"/></clipPath><clipPath id="c5fffbf655"><path d="M 67.8125 -11.796875 L 119.878906 19.503906 L 52.253906 131.992188 L 0.1875 100.691406 Z M 67.8125 -11.796875 " clip-rule="nonzero"/></clipPath><clipPath id="e795bfc6f3"><path d="M 23 52 L 66 52 L 66 116 L 23 116 Z M 23 52 " clip-rule="nonzero"/></clipPath><clipPath id="279d5de4f0"><path d="M 67.8125 -11.796875 L 119.878906 19.503906 L 52.253906 131.992188 L 0.1875 100.691406 Z M 67.8125 -11.796875 " clip-rule="nonzero"/></clipPath><clipPath id="6c78aa541c"><path d="M 67.8125 -11.796875 L 119.878906 19.503906 L 52.253906 131.992188 L 0.1875 100.691406 Z M 67.8125 -11.796875 " clip-rule="nonzero"/></clipPath><clipPath id="ee267cea5c"><path d="M 50 3 L 105 3 L 105 59 L 50 59 Z M 50 3 " clip-rule="nonzero"/></clipPath><clipPath id="ecbd8a4399"><path d="M 67.8125 -11.796875 L 119.878906 19.503906 L 52.253906 131.992188 L 0.1875 100.691406 Z M 67.8125 -11.796875 " clip-rule="nonzero"/></clipPath><clipPath id="433d0b348a"><path d="M 67.8125 -11.796875 L 119.878906 19.503906 L 52.253906 131.992188 L 0.1875 100.691406 Z M 67.8125 -11.796875 " clip-rule="nonzero"/></clipPath><clipPath id="327f403fd4"><path d="M 73 39 L 96 39 L 96 51 L 73 51 Z M 73 39 " clip-rule="nonzero"/></clipPath><clipPath id="112ee3ce17"><path d="M 67.8125 -11.796875 L 119.878906 19.503906 L 52.253906 131.992188 L 0.1875 100.691406 Z M 67.8125 -11.796875 " clip-rule="nonzero"/></clipPath><clipPath id="8cfefd77e5"><path d="M 67.8125 -11.796875 L 119.878906 19.503906 L 52.253906 131.992188 L 0.1875 100.691406 Z M 67.8125 -11.796875 " clip-rule="nonzero"/></clipPath><clipPath id="7ba8b81fe6"><path d="M 70 7 L 84 7 L 84 12 L 70 12 Z M 70 7 " clip-rule="nonzero"/></clipPath><clipPath id="dfbcc00084"><path d="M 67.8125 -11.796875 L 119.878906 19.503906 L 52.253906 131.992188 L 0.1875 100.691406 Z M 67.8125 -11.796875 " clip-rule="nonzero"/></clipPath><clipPath id="0b67eb4843"><path d="M 67.8125 -11.796875 L 119.878906 19.503906 L 52.253906 131.992188 L 0.1875 100.691406 Z M 67.8125 -11.796875 " clip-rule="nonzero"/></clipPath><clipPath id="1e18a9a71e"><path d="M 85 8 L 89 8 L 89 11 L 85 11 Z M 85 8 " clip-rule="nonzero"/></clipPath><clipPath id="59928798bd"><path d="M 67.8125 -11.796875 L 119.878906 19.503906 L 52.253906 131.992188 L 0.1875 100.691406 Z M 67.8125 -11.796875 " clip-rule="nonzero"/></clipPath><clipPath id="819a4d3a48"><path d="M 67.8125 -11.796875 L 119.878906 19.503906 L 52.253906 131.992188 L 0.1875 100.691406 Z M 67.8125 -11.796875 " clip-rule="nonzero"/></clipPath></defs><g clip-path="url(#e3bf1e2507)"><g clip-path="url(#dbe5f23825)"><g clip-path="url(#c5fffbf655)"><path fill="#000000" d="M 59.71875 52.023438 C 57.460938 55.554688 43.195312 77.851562 38.402344 85.761719 C 34.128906 92.808594 26.558594 104.800781 23.585938 109.820312 C 22.777344 111.191406 22.304688 112.101562 22.257812 112.316406 C 22.1875 112.621094 22.269531 113.066406 22.640625 113.546875 C 23.109375 114.140625 24.117188 114.933594 25.21875 115.566406 C 26.351562 116.21875 27.597656 116.691406 28.453125 116.695312 C 29.027344 116.703125 29.480469 116.523438 29.789062 116.207031 C 30.347656 115.628906 37.496094 103.414062 45.6875 90.234375 C 54.335938 76.324219 64.128906 61.308594 67.015625 56.613281 C 71.648438 58.753906 76.546875 59.773438 80.746094 59.621094 C 87.679688 59.375 95.671875 52.847656 97.144531 51.59375 C 97.570312 51.605469 98.347656 51.597656 99.054688 51.484375 C 99.585938 51.398438 100.078125 51.238281 100.40625 51.015625 C 100.695312 50.820312 101.304688 50.035156 101.984375 48.941406 C 103.398438 46.652344 105.289062 42.992188 105.609375 41.835938 C 105.875 40.855469 105.507812 40.125 104.949219 39.609375 C 104.667969 39.351562 104.339844 39.152344 104.042969 39.007812 C 105.570312 34.558594 107.097656 27.191406 104.804688 20.457031 C 102.390625 13.34375 92.875 3.277344 80.789062 1.820312 C 70.222656 0.550781 60.871094 8.089844 58.660156 10.03125 C 58.167969 9.726562 57.421875 9.421875 56.566406 9.597656 C 56.378906 9.632812 56.132812 9.746094 55.855469 9.96875 C 55.46875 10.277344 54.933594 10.855469 54.351562 11.589844 C 52.484375 13.917969 50.019531 17.847656 49.644531 19.015625 C 49.367188 19.90625 49.527344 20.734375 49.84375 21.40625 C 50.070312 21.886719 50.367188 22.28125 50.605469 22.554688 C 47.195312 32.015625 50.976562 43.199219 57.367188 49.835938 C 58.105469 50.613281 58.890625 51.339844 59.71875 52.023438 Z M 59.71875 52.023438 " fill-opacity="1" fill-rule="evenodd"/></g></g></g><g clip-path="url(#e795bfc6f3)"><g clip-path="url(#279d5de4f0)"><g clip-path="url(#6c78aa541c)"><path fill="#5995f0" d="M 60.925781 52.992188 C 58.421875 56.910156 44.445312 78.761719 39.710938 86.5625 C 35.441406 93.605469 27.875 105.589844 24.902344 110.609375 C 24.410156 111.441406 23.988281 112.234375 23.820312 112.546875 C 23.871094 112.613281 23.941406 112.707031 24.011719 112.78125 C 24.445312 113.238281 25.1875 113.777344 25.972656 114.230469 C 26.742188 114.667969 27.5625 115.035156 28.21875 115.128906 C 28.34375 115.144531 28.457031 115.15625 28.5625 115.140625 C 28.605469 115.136719 28.640625 115.152344 28.664062 115.128906 C 29.21875 114.554688 36.253906 102.449219 44.359375 89.410156 C 52.929688 75.628906 62.621094 60.753906 65.601562 55.921875 C 63.988281 55.09375 62.414062 54.109375 60.925781 52.992188 Z M 60.925781 52.992188 " fill-opacity="1" fill-rule="evenodd"/></g></g></g><g clip-path="url(#ee267cea5c)"><g clip-path="url(#ecbd8a4399)"><g clip-path="url(#433d0b348a)"><path fill="#f763b0" d="M 102.574219 38.472656 C 104.019531 34.261719 105.484375 27.308594 103.324219 20.953125 C 101.039062 14.226562 92.019531 4.734375 80.585938 3.355469 C 70.851562 2.179688 62.203125 8.988281 59.863281 11.023438 C 60.929688 12.089844 64.039062 15.136719 68.273438 18.605469 C 72.125 21.757812 77.023438 25.207031 81.59375 28.097656 C 81.953125 28.328125 82.0625 28.804688 81.839844 29.164062 C 81.609375 29.523438 81.128906 29.632812 80.769531 29.40625 C 76.148438 26.484375 71.191406 22.996094 67.292969 19.808594 C 62.289062 15.703125 58.832031 12.1875 58.394531 11.734375 C 58.296875 11.691406 58.214844 11.636719 58.136719 11.558594 C 58.136719 11.558594 57.617188 10.992188 56.921875 11.097656 C 56.824219 11.191406 56.101562 11.855469 55.546875 12.550781 C 53.804688 14.726562 51.457031 18.382812 51.117188 19.472656 C 50.921875 20.082031 51.148438 20.632812 51.398438 21.039062 C 51.675781 21.488281 52.003906 21.777344 52.003906 21.777344 C 52.0625 21.828125 52.113281 21.886719 52.148438 21.945312 C 52.3125 22.132812 55.632812 25.875 60.941406 30.261719 C 64 32.78125 67.933594 35.660156 71.78125 37.976562 C 72.144531 38.195312 72.265625 38.667969 72.046875 39.03125 C 71.828125 39.394531 71.351562 39.515625 70.988281 39.296875 C 67.074219 36.941406 63.066406 34.019531 59.957031 31.449219 C 55.996094 28.179688 53.125 25.261719 51.800781 23.847656 C 49.054688 32.59375 52.632812 42.691406 58.480469 48.769531 C 64.621094 55.152344 73.671875 58.320312 80.679688 58.074219 C 87.917969 57.816406 96.335938 50.230469 96.335938 50.230469 C 96.488281 50.089844 96.691406 50.027344 96.894531 50.035156 C 96.894531 50.035156 97.648438 50.082031 98.421875 50.003906 C 98.84375 49.964844 99.277344 49.902344 99.53125 49.730469 C 99.589844 49.691406 99.664062 49.585938 99.761719 49.457031 C 100.003906 49.140625 100.3125 48.679688 100.648438 48.132812 C 101.988281 45.96875 103.800781 42.527344 104.101562 41.429688 C 104.214844 41.019531 103.9375 40.753906 103.671875 40.582031 C 103.285156 40.320312 102.851562 40.203125 102.851562 40.203125 C 102.792969 40.1875 102.742188 40.164062 102.683594 40.136719 C 102.664062 40.132812 102.648438 40.128906 102.632812 40.121094 C 94.65625 37.574219 87.425781 33.550781 87.425781 33.550781 C 87.054688 33.34375 86.917969 32.871094 87.125 32.5 C 87.332031 32.128906 87.804688 31.996094 88.175781 32.203125 C 88.179688 32.195312 94.960938 35.972656 102.574219 38.472656 Z M 102.574219 38.472656 " fill-opacity="1" fill-rule="evenodd"/></g></g></g><g clip-path="url(#327f403fd4)"><g clip-path="url(#112ee3ce17)"><g clip-path="url(#8cfefd77e5)"><path fill="#000000" d="M 73.710938 41.300781 C 73.710938 41.300781 82.679688 46.917969 94.652344 50.863281 C 95.0625 50.996094 95.492188 50.773438 95.628906 50.371094 C 95.761719 49.960938 95.542969 49.53125 95.140625 49.394531 C 83.355469 45.515625 74.53125 39.996094 74.53125 39.996094 C 74.171875 39.773438 73.695312 39.882812 73.46875 40.242188 C 73.242188 40.597656 73.351562 41.078125 73.710938 41.300781 Z M 73.710938 41.300781 " fill-opacity="1" fill-rule="evenodd"/></g></g></g><g clip-path="url(#7ba8b81fe6)"><g clip-path="url(#dfbcc00084)"><g clip-path="url(#0b67eb4843)"><path fill="#000000" d="M 72.113281 11.144531 C 72.113281 11.144531 76.925781 8.050781 82.867188 9.203125 C 83.285156 9.28125 83.695312 9.007812 83.773438 8.589844 C 83.851562 8.175781 83.582031 7.765625 83.164062 7.683594 C 76.597656 6.414062 71.277344 9.851562 71.277344 9.851562 C 70.921875 10.085938 70.8125 10.558594 71.046875 10.917969 C 71.277344 11.273438 71.753906 11.378906 72.113281 11.144531 Z M 72.113281 11.144531 " fill-opacity="1" fill-rule="evenodd"/></g></g></g><g clip-path="url(#1e18a9a71e)"><g clip-path="url(#59928798bd)"><g clip-path="url(#819a4d3a48)"><path fill="#000000" d="M 85.71875 9.902344 L 87.011719 10.34375 C 87.417969 10.484375 87.855469 10.265625 87.992188 9.863281 C 88.132812 9.457031 87.914062 9.019531 87.511719 8.882812 L 86.214844 8.441406 C 85.8125 8.304688 85.375 8.519531 85.238281 8.925781 C 85.097656 9.328125 85.316406 9.765625 85.71875 9.902344 Z M 85.71875 9.902344 " fill-opacity="1" fill-rule="evenodd"/></g></g></g></svg>