<svg xmlns="http://www.w3.org/2000/svg" xmlns:xlink="http://www.w3.org/1999/xlink" width="160" zoomAndPan="magnify" viewBox="0 0 120 119.999999" height="160" preserveAspectRatio="xMidYMid meet" version="1.0"><path fill="#f794d1" d="M 56.699219 71.601562 C 57.230469 71.753906 57.75 71.941406 58.253906 72.164062 C 58.761719 72.382812 59.253906 72.640625 59.734375 72.929688 C 60.214844 73.21875 60.675781 73.542969 61.121094 73.894531 C 61.570312 74.25 61.996094 74.636719 62.410156 75.050781 C 62.820312 75.46875 63.207031 75.910156 63.578125 76.386719 C 63.949219 76.859375 64.296875 77.359375 64.621094 77.882812 C 64.945312 78.410156 65.246094 78.960938 65.527344 79.535156 C 65.804688 80.109375 66.058594 80.703125 66.285156 81.320312 C 66.515625 81.933594 66.714844 82.570312 66.894531 83.222656 C 67.070312 83.875 67.21875 84.542969 67.339844 85.222656 C 67.464844 85.90625 67.558594 86.601562 67.625 87.308594 C 67.691406 88.011719 67.730469 88.726562 67.742188 89.449219 C 67.753906 90.171875 67.738281 90.898438 67.695312 91.632812 C 67.652344 92.363281 67.578125 93.097656 67.480469 93.832031 C 67.378906 94.566406 67.253906 95.300781 67.101562 96.03125 C 66.945312 96.761719 66.765625 97.488281 66.558594 98.207031 C 66.351562 98.925781 66.121094 99.636719 65.863281 100.335938 C 65.605469 101.035156 65.324219 101.722656 65.015625 102.398438 C 64.710938 103.074219 64.382812 103.734375 64.03125 104.378906 C 63.679688 105.023438 63.308594 105.648438 62.914062 106.253906 C 62.519531 106.859375 62.105469 107.445312 61.675781 108.007812 C 61.242188 108.570312 60.792969 109.109375 60.328125 109.621094 C 59.863281 110.132812 59.378906 110.621094 58.882812 111.078125 C 58.390625 111.539062 57.878906 111.96875 57.359375 112.371094 C 56.839844 112.769531 56.308594 113.140625 55.769531 113.480469 C 55.226562 113.816406 54.679688 114.125 54.125 114.394531 C 53.570312 114.667969 53.007812 114.90625 52.445312 115.113281 C 51.878906 115.316406 51.3125 115.488281 50.746094 115.621094 C 50.175781 115.757812 49.609375 115.855469 49.042969 115.917969 C 48.476562 115.980469 47.914062 116.007812 47.351562 116 C 46.792969 115.988281 46.238281 115.945312 45.691406 115.863281 C 45.144531 115.78125 44.605469 115.667969 44.078125 115.515625 C 43.546875 115.363281 43.027344 115.175781 42.523438 114.953125 C 42.015625 114.730469 41.523438 114.476562 41.042969 114.183594 C 40.566406 113.894531 40.101562 113.574219 39.65625 113.21875 C 39.207031 112.863281 38.78125 112.480469 38.371094 112.0625 C 37.960938 111.648438 37.570312 111.203125 37.199219 110.730469 C 36.828125 110.257812 36.480469 109.757812 36.15625 109.230469 C 35.832031 108.703125 35.53125 108.15625 35.25 107.582031 C 34.972656 107.007812 34.71875 106.414062 34.492188 105.796875 C 34.261719 105.179688 34.0625 104.546875 33.882812 103.894531 C 33.707031 103.242188 33.558594 102.574219 33.4375 101.890625 C 33.316406 101.207031 33.21875 100.515625 33.152344 99.808594 C 33.085938 99.101562 33.046875 98.386719 33.035156 97.664062 C 33.023438 96.941406 33.039062 96.214844 33.082031 95.484375 C 33.125 94.75 33.199219 94.015625 33.296875 93.28125 C 33.398438 92.546875 33.523438 91.8125 33.675781 91.082031 C 33.832031 90.351562 34.011719 89.628906 34.21875 88.910156 C 34.425781 88.191406 34.65625 87.480469 34.914062 86.777344 C 35.171875 86.078125 35.453125 85.390625 35.761719 84.714844 C 36.066406 84.039062 36.394531 83.378906 36.746094 82.734375 C 37.097656 82.089844 37.472656 81.464844 37.863281 80.859375 C 38.257812 80.253906 38.671875 79.671875 39.101562 79.109375 C 39.535156 78.546875 39.984375 78.007812 40.449219 77.492188 C 40.917969 76.980469 41.398438 76.496094 41.894531 76.035156 C 42.386719 75.574219 42.898438 75.144531 43.417969 74.746094 C 43.9375 74.34375 44.46875 73.972656 45.007812 73.636719 C 45.550781 73.296875 46.097656 72.992188 46.652344 72.71875 C 47.207031 72.445312 47.769531 72.207031 48.332031 72.003906 C 48.898438 71.796875 49.464844 71.628906 50.03125 71.492188 C 50.601562 71.359375 51.167969 71.261719 51.734375 71.195312 C 52.300781 71.132812 52.863281 71.105469 53.425781 71.117188 C 53.984375 71.125 54.539062 71.171875 55.085938 71.25 C 55.632812 71.332031 56.171875 71.449219 56.699219 71.601562 Z M 56.699219 71.601562 " fill-opacity="1" fill-rule="nonzero"/><path fill="#1e1e1e" d="M 47.554688 116.707031 C 46.304688 116.710938 45.082031 116.539062 43.882812 116.195312 C 34.589844 113.523438 29.949219 101.195312 33.539062 88.714844 C 37.125 76.230469 47.605469 68.25 56.894531 70.921875 C 61.4375 72.226562 65.007812 75.832031 66.949219 81.074219 C 68.863281 86.238281 68.964844 92.390625 67.238281 98.402344 C 64.117188 109.257812 55.785156 116.707031 47.554688 116.707031 Z M 53.199219 71.816406 C 45.59375 71.816406 37.839844 78.867188 34.898438 89.105469 C 31.523438 100.835938 35.730469 112.378906 44.273438 114.835938 C 52.8125 117.289062 62.507812 109.742188 65.878906 98.011719 C 67.523438 92.289062 67.433594 86.449219 65.621094 81.5625 C 63.839844 76.753906 60.601562 73.457031 56.503906 72.28125 C 55.425781 71.96875 54.320312 71.816406 53.199219 71.816406 Z M 34.21875 88.910156 Z M 34.21875 88.910156 " fill-opacity="1" fill-rule="nonzero"/><path fill="#f794d1" d="M 48.40625 63.003906 C 48.539062 63.539062 48.636719 64.078125 48.699219 64.628906 C 48.761719 65.179688 48.785156 65.734375 48.773438 66.292969 C 48.761719 66.851562 48.714844 67.414062 48.632812 67.980469 C 48.546875 68.542969 48.429688 69.105469 48.273438 69.671875 C 48.117188 70.234375 47.929688 70.792969 47.703125 71.351562 C 47.476562 71.90625 47.21875 72.457031 46.925781 73.003906 C 46.632812 73.546875 46.308594 74.085938 45.949219 74.613281 C 45.59375 75.140625 45.203125 75.65625 44.785156 76.164062 C 44.363281 76.667969 43.917969 77.160156 43.441406 77.640625 C 42.964844 78.117188 42.460938 78.582031 41.929688 79.027344 C 41.398438 79.476562 40.847656 79.90625 40.269531 80.316406 C 39.691406 80.726562 39.09375 81.117188 38.472656 81.492188 C 37.851562 81.863281 37.214844 82.210938 36.558594 82.539062 C 35.902344 82.867188 35.230469 83.171875 34.542969 83.453125 C 33.859375 83.734375 33.160156 83.992188 32.449219 84.222656 C 31.742188 84.457031 31.023438 84.664062 30.296875 84.84375 C 29.570312 85.023438 28.839844 85.175781 28.105469 85.304688 C 27.367188 85.433594 26.632812 85.53125 25.894531 85.605469 C 25.15625 85.675781 24.417969 85.722656 23.6875 85.738281 C 22.953125 85.757812 22.226562 85.746094 21.503906 85.710938 C 20.78125 85.671875 20.070312 85.605469 19.367188 85.511719 C 18.664062 85.421875 17.972656 85.300781 17.292969 85.152344 C 16.617188 85.007812 15.957031 84.832031 15.308594 84.632812 C 14.664062 84.433594 14.039062 84.207031 13.429688 83.957031 C 12.824219 83.707031 12.238281 83.433594 11.675781 83.132812 C 11.109375 82.835938 10.570312 82.511719 10.058594 82.167969 C 9.542969 81.824219 9.058594 81.460938 8.597656 81.074219 C 8.136719 80.6875 7.707031 80.28125 7.308594 79.855469 C 6.90625 79.429688 6.539062 78.988281 6.199219 78.527344 C 5.859375 78.070312 5.554688 77.59375 5.285156 77.105469 C 5.011719 76.617188 4.773438 76.113281 4.570312 75.601562 C 4.367188 75.085938 4.199219 74.5625 4.066406 74.027344 C 3.933594 73.492188 3.835938 72.949219 3.773438 72.398438 C 3.714844 71.851562 3.6875 71.296875 3.699219 70.734375 C 3.710938 70.175781 3.757812 69.613281 3.84375 69.050781 C 3.925781 68.484375 4.046875 67.921875 4.199219 67.359375 C 4.355469 66.796875 4.546875 66.234375 4.769531 65.679688 C 4.996094 65.121094 5.253906 64.570312 5.546875 64.027344 C 5.839844 63.480469 6.164062 62.945312 6.523438 62.417969 C 6.882812 61.890625 7.269531 61.371094 7.6875 60.867188 C 8.109375 60.359375 8.558594 59.867188 9.035156 59.390625 C 9.511719 58.910156 10.015625 58.449219 10.542969 58 C 11.074219 57.554688 11.628906 57.125 12.207031 56.710938 C 12.78125 56.300781 13.382812 55.910156 14 55.539062 C 14.621094 55.167969 15.261719 54.816406 15.917969 54.488281 C 16.574219 54.160156 17.242188 53.855469 17.929688 53.574219 C 18.617188 53.292969 19.3125 53.039062 20.023438 52.804688 C 20.734375 52.574219 21.449219 52.367188 22.175781 52.1875 C 22.902344 52.003906 23.632812 51.851562 24.371094 51.722656 C 25.105469 51.597656 25.84375 51.496094 26.582031 51.425781 C 27.320312 51.351562 28.054688 51.308594 28.789062 51.289062 C 29.519531 51.273438 30.25 51.28125 30.96875 51.320312 C 31.691406 51.359375 32.40625 51.421875 33.109375 51.515625 C 33.8125 51.609375 34.5 51.730469 35.179688 51.875 C 35.855469 52.023438 36.519531 52.195312 37.164062 52.394531 C 37.808594 52.59375 38.4375 52.820312 39.042969 53.070312 C 39.652344 53.320312 40.234375 53.597656 40.800781 53.894531 C 41.363281 54.195312 41.902344 54.515625 42.414062 54.859375 C 42.929688 55.203125 43.417969 55.570312 43.875 55.957031 C 44.335938 56.34375 44.765625 56.75 45.167969 57.171875 C 45.566406 57.597656 45.9375 58.039062 46.273438 58.5 C 46.613281 58.960938 46.917969 59.433594 47.191406 59.921875 C 47.460938 60.410156 47.699219 60.914062 47.902344 61.429688 C 48.105469 61.941406 48.273438 62.46875 48.40625 63.003906 Z M 48.40625 63.003906 " fill-opacity="1" fill-rule="nonzero"/><path fill="#1e1e1e" d="M 22.972656 86.464844 C 19.578125 86.492188 16.308594 85.875 13.160156 84.613281 C 7.992188 82.480469 4.519531 78.78125 3.378906 74.199219 C 2.238281 69.613281 3.578125 64.71875 7.144531 60.414062 C 10.660156 56.175781 15.9375 53.007812 22.007812 51.5 C 34.609375 48.367188 46.761719 53.449219 49.09375 62.832031 C 51.425781 72.214844 43.070312 82.394531 30.46875 85.527344 C 28.007812 86.144531 25.507812 86.457031 22.972656 86.464844 Z M 22.347656 52.871094 C 16.570312 54.308594 11.558594 57.308594 8.234375 61.316406 C 4.960938 65.265625 3.722656 69.71875 4.753906 73.855469 C 5.78125 77.992188 8.957031 81.351562 13.699219 83.304688 C 18.515625 85.289062 24.347656 85.59375 30.125 84.15625 C 41.972656 81.210938 49.867188 71.796875 47.722656 63.171875 C 45.578125 54.546875 34.195312 49.929688 22.347656 52.871094 Z M 22.175781 52.1875 Z M 22.175781 52.1875 " fill-opacity="1" fill-rule="nonzero"/><path fill="#f794d1" d="M 47.960938 23.398438 C 48.480469 23.9375 48.976562 24.492188 49.457031 25.066406 C 49.933594 25.640625 50.390625 26.226562 50.820312 26.828125 C 51.253906 27.433594 51.660156 28.046875 52.042969 28.675781 C 52.421875 29.300781 52.777344 29.9375 53.105469 30.578125 C 53.433594 31.222656 53.734375 31.875 54.003906 32.527344 C 54.277344 33.183594 54.519531 33.839844 54.730469 34.5 C 54.941406 35.164062 55.121094 35.820312 55.269531 36.480469 C 55.421875 37.140625 55.539062 37.796875 55.625 38.445312 C 55.714844 39.097656 55.769531 39.742188 55.789062 40.378906 C 55.8125 41.015625 55.804688 41.644531 55.761719 42.261719 C 55.722656 42.878906 55.648438 43.484375 55.542969 44.074219 C 55.4375 44.664062 55.304688 45.242188 55.136719 45.800781 C 54.96875 46.359375 54.769531 46.902344 54.539062 47.421875 C 54.3125 47.945312 54.054688 48.445312 53.765625 48.925781 C 53.476562 49.40625 53.164062 49.863281 52.820312 50.296875 C 52.472656 50.730469 52.105469 51.140625 51.707031 51.523438 C 51.3125 51.90625 50.890625 52.257812 50.445312 52.585938 C 50 52.914062 49.53125 53.214844 49.039062 53.484375 C 48.550781 53.753906 48.039062 53.996094 47.507812 54.203125 C 46.980469 54.414062 46.429688 54.59375 45.867188 54.738281 C 45.300781 54.886719 44.71875 55.003906 44.125 55.085938 C 43.53125 55.167969 42.925781 55.21875 42.304688 55.238281 C 41.6875 55.257812 41.0625 55.246094 40.425781 55.199219 C 39.789062 55.152344 39.148438 55.074219 38.5 54.964844 C 37.851562 54.855469 37.199219 54.710938 36.546875 54.539062 C 35.894531 54.363281 35.242188 54.160156 34.589844 53.925781 C 33.9375 53.691406 33.289062 53.425781 32.644531 53.128906 C 32 52.835938 31.359375 52.511719 30.730469 52.160156 C 30.097656 51.808594 29.476562 51.433594 28.863281 51.027344 C 28.25 50.625 27.652344 50.195312 27.0625 49.742188 C 26.476562 49.289062 25.90625 48.8125 25.351562 48.3125 C 24.792969 47.8125 24.257812 47.296875 23.738281 46.757812 C 23.21875 46.21875 22.71875 45.664062 22.242188 45.089844 C 21.761719 44.515625 21.308594 43.925781 20.875 43.324219 C 20.445312 42.722656 20.039062 42.105469 19.65625 41.480469 C 19.273438 40.855469 18.917969 40.21875 18.589844 39.574219 C 18.261719 38.929688 17.964844 38.28125 17.691406 37.625 C 17.421875 36.972656 17.179688 36.3125 16.96875 35.652344 C 16.757812 34.992188 16.574219 34.332031 16.425781 33.675781 C 16.277344 33.015625 16.15625 32.359375 16.070312 31.707031 C 15.984375 31.058594 15.929688 30.414062 15.90625 29.777344 C 15.882812 29.136719 15.890625 28.511719 15.933594 27.894531 C 15.976562 27.277344 16.046875 26.671875 16.152344 26.082031 C 16.257812 25.488281 16.394531 24.914062 16.5625 24.355469 C 16.730469 23.796875 16.929688 23.253906 17.15625 22.730469 C 17.386719 22.210938 17.644531 21.707031 17.929688 21.226562 C 18.21875 20.746094 18.535156 20.289062 18.878906 19.855469 C 19.222656 19.421875 19.59375 19.015625 19.988281 18.632812 C 20.386719 18.25 20.808594 17.894531 21.253906 17.566406 C 21.699219 17.238281 22.167969 16.941406 22.65625 16.671875 C 23.148438 16.398438 23.65625 16.160156 24.1875 15.949219 C 24.71875 15.742188 25.265625 15.5625 25.832031 15.414062 C 26.398438 15.269531 26.976562 15.152344 27.570312 15.070312 C 28.164062 14.984375 28.773438 14.933594 29.390625 14.914062 C 30.007812 14.898438 30.636719 14.910156 31.273438 14.957031 C 31.910156 15.003906 32.550781 15.082031 33.199219 15.191406 C 33.847656 15.300781 34.496094 15.441406 35.148438 15.617188 C 35.804688 15.789062 36.457031 15.996094 37.109375 16.230469 C 37.761719 16.464844 38.410156 16.730469 39.054688 17.023438 C 39.699219 17.320312 40.335938 17.640625 40.96875 17.992188 C 41.601562 18.34375 42.222656 18.722656 42.835938 19.125 C 43.445312 19.53125 44.046875 19.960938 44.632812 20.414062 C 45.21875 20.867188 45.792969 21.34375 46.347656 21.84375 C 46.902344 22.339844 47.441406 22.859375 47.960938 23.398438 Z M 47.960938 23.398438 " fill-opacity="1" fill-rule="nonzero"/><path fill="#1e1e1e" d="M 41.8125 55.960938 C 40.660156 55.957031 39.515625 55.859375 38.378906 55.660156 C 32.949219 54.734375 27.570312 51.75 23.230469 47.25 C 14.214844 37.898438 12.539062 24.835938 19.5 18.125 C 26.457031 11.414062 39.453125 13.558594 48.46875 22.90625 C 57.484375 32.253906 59.15625 45.320312 52.199219 52.03125 C 49.523438 54.613281 45.914062 55.960938 41.8125 55.960938 Z M 29.914062 15.613281 C 26.277344 15.613281 22.953125 16.757812 20.480469 19.140625 C 14.082031 25.3125 15.773438 37.480469 24.246094 46.265625 C 28.378906 50.550781 33.484375 53.394531 38.617188 54.265625 C 43.671875 55.128906 48.148438 53.972656 51.21875 51.011719 C 57.613281 44.84375 55.925781 32.675781 47.449219 23.886719 C 42.253906 18.496094 35.6875 15.613281 29.914062 15.613281 Z M 29.914062 15.613281 " fill-opacity="1" fill-rule="nonzero"/><path fill="#f794d1" d="M 75.925781 4.726562 C 76.453125 4.878906 76.972656 5.066406 77.480469 5.289062 C 77.984375 5.507812 78.480469 5.765625 78.957031 6.054688 C 79.4375 6.34375 79.898438 6.667969 80.347656 7.019531 C 80.792969 7.375 81.222656 7.761719 81.632812 8.175781 C 82.042969 8.59375 82.433594 9.035156 82.800781 9.511719 C 83.171875 9.984375 83.519531 10.484375 83.84375 11.007812 C 84.171875 11.535156 84.472656 12.085938 84.75 12.660156 C 85.027344 13.234375 85.28125 13.828125 85.511719 14.445312 C 85.738281 15.058594 85.941406 15.695312 86.117188 16.347656 C 86.292969 17 86.441406 17.667969 86.566406 18.347656 C 86.6875 19.03125 86.78125 19.726562 86.847656 20.433594 C 86.917969 21.136719 86.957031 21.851562 86.96875 22.574219 C 86.980469 23.296875 86.964844 24.023438 86.917969 24.757812 C 86.875 25.488281 86.804688 26.222656 86.703125 26.957031 C 86.605469 27.691406 86.476562 28.425781 86.324219 29.15625 C 86.171875 29.886719 85.988281 30.613281 85.78125 31.332031 C 85.578125 32.050781 85.34375 32.761719 85.085938 33.460938 C 84.828125 34.160156 84.546875 34.847656 84.242188 35.523438 C 83.933594 36.199219 83.605469 36.859375 83.253906 37.503906 C 82.902344 38.148438 82.53125 38.773438 82.136719 39.378906 C 81.742188 39.984375 81.332031 40.570312 80.898438 41.132812 C 80.464844 41.695312 80.015625 42.234375 79.550781 42.746094 C 79.085938 43.257812 78.605469 43.746094 78.109375 44.203125 C 77.613281 44.664062 77.105469 45.09375 76.582031 45.496094 C 76.0625 45.894531 75.53125 46.265625 74.992188 46.605469 C 74.453125 46.941406 73.902344 47.25 73.347656 47.519531 C 72.792969 47.792969 72.234375 48.03125 71.667969 48.238281 C 71.105469 48.441406 70.539062 48.613281 69.96875 48.746094 C 69.402344 48.882812 68.832031 48.980469 68.265625 49.042969 C 67.699219 49.105469 67.136719 49.132812 66.578125 49.125 C 66.015625 49.113281 65.464844 49.070312 64.917969 48.988281 C 64.367188 48.90625 63.832031 48.792969 63.300781 48.640625 C 62.769531 48.488281 62.253906 48.300781 61.746094 48.078125 C 61.238281 47.855469 60.746094 47.601562 60.265625 47.308594 C 59.789062 47.019531 59.324219 46.699219 58.878906 46.34375 C 58.433594 45.988281 58.003906 45.605469 57.59375 45.1875 C 57.183594 44.773438 56.792969 44.328125 56.421875 43.855469 C 56.054688 43.382812 55.707031 42.882812 55.378906 42.355469 C 55.054688 41.828125 54.753906 41.28125 54.476562 40.707031 C 54.195312 40.132812 53.945312 39.539062 53.714844 38.921875 C 53.488281 38.304688 53.285156 37.671875 53.109375 37.019531 C 52.933594 36.367188 52.78125 35.699219 52.660156 35.015625 C 52.539062 34.332031 52.445312 33.640625 52.375 32.933594 C 52.308594 32.226562 52.269531 31.511719 52.257812 30.789062 C 52.246094 30.066406 52.261719 29.339844 52.304688 28.609375 C 52.351562 27.875 52.421875 27.140625 52.519531 26.40625 C 52.621094 25.671875 52.746094 24.9375 52.902344 24.207031 C 53.054688 23.476562 53.234375 22.753906 53.441406 22.035156 C 53.648438 21.316406 53.882812 20.605469 54.136719 19.902344 C 54.394531 19.203125 54.679688 18.515625 54.984375 17.839844 C 55.289062 17.164062 55.617188 16.503906 55.96875 15.859375 C 56.320312 15.214844 56.695312 14.589844 57.089844 13.984375 C 57.480469 13.378906 57.894531 12.796875 58.328125 12.234375 C 58.757812 11.671875 59.207031 11.132812 59.671875 10.617188 C 60.140625 10.105469 60.621094 9.621094 61.117188 9.160156 C 61.613281 8.699219 62.121094 8.269531 62.640625 7.871094 C 63.160156 7.46875 63.691406 7.097656 64.234375 6.761719 C 64.773438 6.421875 65.320312 6.117188 65.875 5.84375 C 66.433594 5.570312 66.992188 5.332031 67.554688 5.128906 C 68.121094 4.921875 68.6875 4.753906 69.253906 4.617188 C 69.824219 4.484375 70.390625 4.386719 70.957031 4.320312 C 71.523438 4.257812 72.089844 4.230469 72.648438 4.242188 C 73.207031 4.25 73.761719 4.296875 74.308594 4.375 C 74.855469 4.457031 75.394531 4.574219 75.925781 4.726562 Z M 75.925781 4.726562 " fill-opacity="1" fill-rule="nonzero"/><path fill="#1e1e1e" d="M 66.777344 49.832031 C 65.53125 49.835938 64.304688 49.664062 63.105469 49.320312 C 53.816406 46.648438 49.175781 34.320312 52.761719 21.839844 C 56.351562 9.355469 66.828125 1.375 76.117188 4.046875 C 85.410156 6.71875 90.050781 19.042969 86.460938 31.527344 C 83.34375 42.382812 75.007812 49.832031 66.777344 49.832031 Z M 72.421875 4.941406 C 64.816406 4.941406 57.0625 11.992188 54.121094 22.230469 C 50.75 33.960938 54.953125 45.503906 63.496094 47.960938 C 72.039062 50.414062 81.730469 42.867188 85.101562 31.136719 L 85.78125 31.332031 L 85.101562 31.136719 C 88.476562 19.402344 84.269531 7.859375 75.726562 5.40625 C 74.648438 5.09375 73.546875 4.941406 72.421875 4.941406 Z M 72.421875 4.941406 " fill-opacity="1" fill-rule="nonzero"/><path fill="#f794d1" d="M 115.933594 46.214844 C 116.066406 46.746094 116.164062 47.289062 116.226562 47.839844 C 116.289062 48.390625 116.3125 48.945312 116.300781 49.503906 C 116.289062 50.0625 116.242188 50.625 116.160156 51.191406 C 116.074219 51.753906 115.957031 52.316406 115.800781 52.882812 C 115.644531 53.445312 115.457031 54.003906 115.230469 54.5625 C 115.003906 55.117188 114.746094 55.667969 114.453125 56.214844 C 114.160156 56.757812 113.835938 57.296875 113.476562 57.824219 C 113.121094 58.351562 112.730469 58.867188 112.3125 59.375 C 111.890625 59.878906 111.445312 60.371094 110.96875 60.851562 C 110.492188 61.328125 109.988281 61.792969 109.457031 62.238281 C 108.925781 62.6875 108.375 63.117188 107.796875 63.527344 C 107.21875 63.9375 106.621094 64.328125 106 64.703125 C 105.378906 65.074219 104.742188 65.421875 104.085938 65.75 C 103.429688 66.078125 102.757812 66.382812 102.070312 66.664062 C 101.386719 66.945312 100.6875 67.203125 99.976562 67.433594 C 99.269531 67.667969 98.550781 67.875 97.824219 68.054688 C 97.097656 68.234375 96.367188 68.386719 95.632812 68.515625 C 94.894531 68.640625 94.160156 68.742188 93.421875 68.816406 C 92.683594 68.886719 91.945312 68.933594 91.214844 68.949219 C 90.480469 68.96875 89.753906 68.957031 89.03125 68.921875 C 88.308594 68.882812 87.597656 68.816406 86.894531 68.722656 C 86.191406 68.632812 85.5 68.511719 84.820312 68.363281 C 84.144531 68.21875 83.484375 68.042969 82.835938 67.84375 C 82.191406 67.644531 81.566406 67.417969 80.957031 67.167969 C 80.351562 66.917969 79.765625 66.644531 79.203125 66.34375 C 78.636719 66.046875 78.097656 65.722656 77.585938 65.378906 C 77.070312 65.035156 76.585938 64.671875 76.125 64.285156 C 75.664062 63.898438 75.234375 63.492188 74.835938 63.066406 C 74.433594 62.640625 74.066406 62.199219 73.726562 61.738281 C 73.386719 61.28125 73.082031 60.804688 72.8125 60.316406 C 72.539062 59.828125 72.300781 59.324219 72.097656 58.8125 C 71.894531 58.296875 71.726562 57.773438 71.59375 57.238281 C 71.460938 56.703125 71.363281 56.160156 71.300781 55.609375 C 71.242188 55.058594 71.214844 54.503906 71.226562 53.945312 C 71.238281 53.386719 71.285156 52.824219 71.371094 52.261719 C 71.453125 51.695312 71.574219 51.132812 71.726562 50.570312 C 71.882812 50.007812 72.074219 49.445312 72.296875 48.890625 C 72.523438 48.332031 72.78125 47.78125 73.074219 47.238281 C 73.367188 46.691406 73.691406 46.15625 74.050781 45.628906 C 74.410156 45.101562 74.796875 44.582031 75.214844 44.078125 C 75.636719 43.570312 76.085938 43.078125 76.5625 42.601562 C 77.039062 42.121094 77.542969 41.660156 78.070312 41.210938 C 78.601562 40.765625 79.15625 40.335938 79.734375 39.921875 C 80.308594 39.511719 80.910156 39.121094 81.527344 38.75 C 82.148438 38.378906 82.789062 38.027344 83.445312 37.699219 C 84.101562 37.371094 84.769531 37.066406 85.457031 36.785156 C 86.144531 36.503906 86.839844 36.246094 87.550781 36.015625 C 88.261719 35.785156 88.976562 35.578125 89.703125 35.398438 C 90.429688 35.214844 91.160156 35.0625 91.898438 34.933594 C 92.632812 34.808594 93.371094 34.707031 94.109375 34.636719 C 94.847656 34.5625 95.582031 34.515625 96.316406 34.5 C 97.046875 34.480469 97.777344 34.492188 98.496094 34.53125 C 99.21875 34.566406 99.933594 34.632812 100.636719 34.726562 C 101.339844 34.820312 102.027344 34.9375 102.707031 35.085938 C 103.382812 35.234375 104.046875 35.40625 104.691406 35.605469 C 105.335938 35.804688 105.964844 36.03125 106.570312 36.28125 C 107.179688 36.53125 107.761719 36.808594 108.328125 37.105469 C 108.890625 37.40625 109.429688 37.726562 109.941406 38.070312 C 110.457031 38.414062 110.945312 38.78125 111.402344 39.167969 C 111.863281 39.554688 112.292969 39.960938 112.695312 40.382812 C 113.09375 40.808594 113.464844 41.25 113.800781 41.710938 C 114.140625 42.167969 114.445312 42.644531 114.71875 43.132812 C 114.988281 43.621094 115.226562 44.125 115.429688 44.640625 C 115.632812 45.152344 115.800781 45.679688 115.933594 46.214844 Z M 115.933594 46.214844 " fill-opacity="1" fill-rule="nonzero"/><path fill="#1e1e1e" d="M 90.5 69.675781 C 87.105469 69.703125 83.835938 69.085938 80.6875 67.824219 C 75.519531 65.691406 72.046875 61.992188 70.90625 57.410156 C 68.574219 48.027344 76.929688 37.84375 89.535156 34.710938 C 102.136719 31.578125 114.289062 36.660156 116.621094 46.042969 C 117.761719 50.628906 116.425781 55.523438 112.855469 59.824219 C 109.339844 64.066406 104.0625 67.230469 97.996094 68.738281 C 95.535156 69.355469 93.035156 69.667969 90.5 69.675781 Z M 97.007812 35.195312 C 94.59375 35.199219 92.21875 35.496094 89.875 36.082031 C 78.027344 39.027344 70.136719 48.441406 72.28125 57.066406 C 73.308594 61.203125 76.484375 64.558594 81.226562 66.515625 C 86.042969 68.5 91.875 68.804688 97.652344 67.367188 C 103.429688 65.929688 108.441406 62.933594 111.769531 58.921875 C 115.042969 54.972656 116.277344 50.519531 115.25 46.382812 C 113.542969 39.523438 105.988281 35.195312 97.007812 35.195312 Z M 97.007812 35.195312 " fill-opacity="1" fill-rule="nonzero"/><path fill="#f794d1" d="M 96.261719 73.484375 C 96.78125 74.023438 97.28125 74.578125 97.757812 75.152344 C 98.238281 75.722656 98.691406 76.3125 99.125 76.914062 C 99.558594 77.519531 99.964844 78.132812 100.34375 78.757812 C 100.726562 79.386719 101.082031 80.019531 101.410156 80.664062 C 101.738281 81.308594 102.039062 81.957031 102.308594 82.613281 C 102.582031 83.269531 102.820312 83.925781 103.03125 84.585938 C 103.246094 85.246094 103.425781 85.90625 103.574219 86.566406 C 103.726562 87.226562 103.84375 87.878906 103.929688 88.53125 C 104.015625 89.183594 104.070312 89.828125 104.09375 90.464844 C 104.117188 91.101562 104.109375 91.730469 104.066406 92.347656 C 104.027344 92.964844 103.953125 93.570312 103.847656 94.160156 C 103.742188 94.75 103.605469 95.328125 103.4375 95.886719 C 103.269531 96.445312 103.074219 96.984375 102.84375 97.507812 C 102.617188 98.03125 102.355469 98.53125 102.070312 99.011719 C 101.78125 99.492188 101.464844 99.949219 101.121094 100.382812 C 100.777344 100.816406 100.40625 101.226562 100.011719 101.605469 C 99.613281 101.988281 99.195312 102.34375 98.75 102.671875 C 98.300781 103 97.835938 103.300781 97.34375 103.570312 C 96.855469 103.839844 96.34375 104.078125 95.8125 104.289062 C 95.28125 104.5 94.734375 104.679688 94.167969 104.824219 C 93.605469 104.972656 93.023438 105.089844 92.429688 105.171875 C 91.835938 105.253906 91.230469 105.304688 90.609375 105.324219 C 89.992188 105.34375 89.363281 105.332031 88.730469 105.285156 C 88.09375 105.238281 87.449219 105.160156 86.804688 105.050781 C 86.15625 104.9375 85.503906 104.796875 84.851562 104.625 C 84.199219 104.449219 83.546875 104.246094 82.894531 104.011719 C 82.242188 103.773438 81.59375 103.511719 80.949219 103.214844 C 80.300781 102.921875 79.664062 102.597656 79.03125 102.246094 C 78.402344 101.894531 77.777344 101.519531 77.167969 101.113281 C 76.554688 100.710938 75.953125 100.28125 75.367188 99.828125 C 74.78125 99.371094 74.210938 98.898438 73.652344 98.398438 C 73.097656 97.898438 72.5625 97.382812 72.042969 96.84375 C 71.523438 96.304688 71.023438 95.75 70.546875 95.175781 C 70.066406 94.601562 69.613281 94.011719 69.179688 93.410156 C 68.75 92.808594 68.339844 92.191406 67.960938 91.566406 C 67.578125 90.941406 67.222656 90.304688 66.894531 89.660156 C 66.566406 89.015625 66.265625 88.367188 65.996094 87.710938 C 65.722656 87.054688 65.484375 86.398438 65.273438 85.738281 C 65.058594 85.078125 64.878906 84.417969 64.730469 83.757812 C 64.578125 83.101562 64.460938 82.445312 64.375 81.792969 C 64.289062 81.144531 64.234375 80.5 64.210938 79.859375 C 64.1875 79.222656 64.195312 78.597656 64.238281 77.980469 C 64.277344 77.363281 64.351562 76.757812 64.457031 76.167969 C 64.5625 75.574219 64.699219 75 64.867188 74.441406 C 65.035156 73.878906 65.230469 73.339844 65.460938 72.816406 C 65.691406 72.292969 65.949219 71.792969 66.234375 71.3125 C 66.523438 70.832031 66.839844 70.375 67.183594 69.941406 C 67.527344 69.507812 67.898438 69.101562 68.292969 68.71875 C 68.691406 68.335938 69.109375 67.980469 69.558594 67.652344 C 70.003906 67.324219 70.46875 67.027344 70.960938 66.757812 C 71.453125 66.484375 71.960938 66.246094 72.492188 66.035156 C 73.023438 65.828125 73.570312 65.648438 74.136719 65.5 C 74.699219 65.351562 75.28125 65.238281 75.875 65.15625 C 76.46875 65.070312 77.078125 65.019531 77.695312 65 C 78.3125 64.980469 78.941406 64.996094 79.578125 65.042969 C 80.210938 65.085938 80.855469 65.164062 81.503906 65.277344 C 82.148438 65.386719 82.800781 65.527344 83.453125 65.703125 C 84.105469 65.875 84.757812 66.082031 85.410156 66.316406 C 86.0625 66.550781 86.710938 66.816406 87.359375 67.109375 C 88.003906 67.40625 88.640625 67.726562 89.273438 68.078125 C 89.902344 68.429688 90.527344 68.808594 91.136719 69.210938 C 91.75 69.617188 92.351562 70.046875 92.9375 70.5 C 93.523438 70.953125 94.09375 71.429688 94.652344 71.925781 C 95.207031 72.425781 95.742188 72.945312 96.261719 73.484375 Z M 96.261719 73.484375 " fill-opacity="1" fill-rule="nonzero"/><path fill="#1e1e1e" d="M 90.113281 106.046875 C 88.964844 106.042969 87.820312 105.941406 86.683594 105.746094 C 81.253906 104.820312 75.871094 101.832031 71.53125 97.332031 C 62.515625 87.984375 60.84375 74.921875 67.800781 68.210938 C 71.203125 64.929688 76.109375 63.640625 81.621094 64.578125 C 87.050781 65.503906 92.433594 68.492188 96.773438 72.992188 C 101.113281 77.492188 103.902344 82.976562 104.632812 88.4375 C 105.371094 93.980469 103.902344 98.835938 100.503906 102.117188 C 97.824219 104.695312 94.214844 106.046875 90.113281 106.046875 Z M 78.199219 65.695312 C 74.460938 65.695312 71.191406 66.90625 68.785156 69.226562 C 62.386719 75.398438 64.078125 87.566406 72.550781 96.351562 C 76.683594 100.636719 81.785156 103.476562 86.921875 104.351562 C 91.976562 105.214844 96.453125 104.058594 99.519531 101.097656 C 102.589844 98.136719 103.90625 93.707031 103.230469 88.625 C 102.542969 83.460938 99.886719 78.257812 95.753906 73.972656 C 91.621094 69.6875 86.519531 66.847656 81.382812 65.972656 C 80.328125 65.789062 79.265625 65.699219 78.199219 65.695312 Z M 78.199219 65.695312 " fill-opacity="1" fill-rule="nonzero"/><path fill="#f9cf64" d="M 63.265625 40 C 63.925781 40.105469 64.578125 40.246094 65.222656 40.414062 C 65.867188 40.585938 66.503906 40.789062 67.128906 41.023438 C 67.753906 41.253906 68.367188 41.519531 68.964844 41.8125 C 69.566406 42.105469 70.148438 42.429688 70.71875 42.78125 C 71.285156 43.128906 71.835938 43.507812 72.367188 43.914062 C 72.894531 44.320312 73.40625 44.75 73.894531 45.203125 C 74.382812 45.660156 74.847656 46.136719 75.289062 46.636719 C 75.730469 47.136719 76.148438 47.660156 76.539062 48.199219 C 76.925781 48.742188 77.289062 49.300781 77.625 49.878906 C 77.960938 50.457031 78.269531 51.046875 78.546875 51.65625 C 78.820312 52.261719 79.070312 52.882812 79.285156 53.515625 C 79.5 54.144531 79.6875 54.785156 79.839844 55.4375 C 79.992188 56.085938 80.113281 56.742188 80.203125 57.402344 C 80.292969 58.066406 80.347656 58.730469 80.371094 59.398438 C 80.394531 60.0625 80.386719 60.730469 80.34375 61.398438 C 80.304688 62.0625 80.230469 62.726562 80.121094 63.386719 C 80.015625 64.042969 79.875 64.695312 79.707031 65.339844 C 79.535156 65.988281 79.332031 66.621094 79.097656 67.246094 C 78.863281 67.875 78.601562 68.484375 78.308594 69.085938 C 78.015625 69.683594 77.691406 70.269531 77.339844 70.835938 C 76.988281 71.40625 76.613281 71.953125 76.207031 72.484375 C 75.800781 73.015625 75.371094 73.523438 74.917969 74.015625 C 74.460938 74.503906 73.984375 74.96875 73.484375 75.410156 C 72.984375 75.851562 72.460938 76.265625 71.917969 76.65625 C 71.378906 77.046875 70.820312 77.410156 70.242188 77.746094 C 69.664062 78.082031 69.070312 78.386719 68.464844 78.664062 C 67.855469 78.941406 67.238281 79.1875 66.605469 79.40625 C 65.972656 79.621094 65.332031 79.804688 64.683594 79.960938 C 64.035156 80.113281 63.378906 80.234375 62.71875 80.324219 C 62.054688 80.410156 61.390625 80.46875 60.722656 80.492188 C 60.054688 80.515625 59.390625 80.507812 58.722656 80.464844 C 58.058594 80.421875 57.394531 80.347656 56.734375 80.242188 C 56.078125 80.132812 55.425781 79.996094 54.777344 79.824219 C 54.132812 79.652344 53.5 79.453125 52.871094 79.21875 C 52.246094 78.984375 51.632812 78.722656 51.035156 78.425781 C 50.433594 78.132812 49.851562 77.8125 49.285156 77.460938 C 48.714844 77.109375 48.167969 76.730469 47.636719 76.328125 C 47.105469 75.921875 46.59375 75.492188 46.105469 75.035156 C 45.617188 74.582031 45.152344 74.105469 44.710938 73.601562 C 44.269531 73.101562 43.855469 72.582031 43.464844 72.039062 C 43.074219 71.496094 42.710938 70.9375 42.375 70.359375 C 42.039062 69.785156 41.734375 69.191406 41.457031 68.585938 C 41.179688 67.976562 40.933594 67.355469 40.714844 66.726562 C 40.5 66.09375 40.316406 65.453125 40.160156 64.804688 C 40.007812 64.152344 39.886719 63.5 39.796875 62.835938 C 39.707031 62.175781 39.652344 61.511719 39.628906 60.84375 C 39.605469 60.175781 39.613281 59.507812 39.65625 58.84375 C 39.699219 58.175781 39.773438 57.515625 39.878906 56.855469 C 39.984375 56.195312 40.125 55.542969 40.296875 54.898438 C 40.46875 54.253906 40.667969 53.617188 40.902344 52.992188 C 41.136719 52.367188 41.398438 51.753906 41.691406 51.15625 C 41.988281 50.554688 42.308594 49.972656 42.660156 49.402344 C 43.011719 48.835938 43.390625 48.285156 43.792969 47.753906 C 44.199219 47.222656 44.628906 46.714844 45.085938 46.226562 C 45.539062 45.738281 46.015625 45.273438 46.519531 44.832031 C 47.019531 44.390625 47.539062 43.972656 48.082031 43.582031 C 48.621094 43.191406 49.183594 42.828125 49.757812 42.496094 C 50.335938 42.160156 50.929688 41.851562 51.535156 41.574219 C 52.144531 41.296875 52.761719 41.050781 53.394531 40.835938 C 54.027344 40.617188 54.667969 40.433594 55.316406 40.28125 C 55.964844 40.128906 56.621094 40.007812 57.285156 39.917969 C 57.945312 39.828125 58.609375 39.773438 59.277344 39.75 C 59.945312 39.722656 60.613281 39.734375 61.277344 39.777344 C 61.945312 39.816406 62.605469 39.890625 63.265625 40 Z M 63.265625 40 " fill-opacity="1" fill-rule="nonzero"/><path fill="#1e1e1e" d="M 60 81.210938 C 59.308594 81.210938 58.621094 81.175781 57.933594 81.109375 C 57.246094 81.042969 56.5625 80.941406 55.886719 80.804688 C 55.207031 80.671875 54.539062 80.503906 53.878906 80.304688 C 53.21875 80.101562 52.566406 79.871094 51.929688 79.605469 C 51.292969 79.339844 50.667969 79.046875 50.058594 78.722656 C 49.449219 78.394531 48.855469 78.039062 48.28125 77.65625 C 47.707031 77.273438 47.15625 76.863281 46.621094 76.425781 C 46.085938 75.984375 45.574219 75.523438 45.085938 75.035156 C 44.597656 74.546875 44.136719 74.035156 43.695312 73.5 C 43.257812 72.964844 42.847656 72.414062 42.464844 71.835938 C 42.078125 71.261719 41.726562 70.671875 41.398438 70.0625 C 41.074219 69.453125 40.777344 68.828125 40.515625 68.191406 C 40.25 67.554688 40.019531 66.902344 39.816406 66.242188 C 39.617188 65.582031 39.449219 64.914062 39.3125 64.234375 C 39.179688 63.558594 39.078125 62.875 39.011719 62.1875 C 38.941406 61.5 38.910156 60.8125 38.910156 60.121094 C 38.910156 59.429688 38.941406 58.738281 39.011719 58.050781 C 39.078125 57.363281 39.179688 56.683594 39.3125 56.003906 C 39.449219 55.328125 39.617188 54.660156 39.816406 53.996094 C 40.019531 53.335938 40.25 52.6875 40.515625 52.046875 C 40.777344 51.410156 41.074219 50.785156 41.398438 50.175781 C 41.726562 49.566406 42.078125 48.976562 42.464844 48.402344 C 42.847656 47.828125 43.257812 47.273438 43.695312 46.738281 C 44.136719 46.207031 44.597656 45.695312 45.085938 45.207031 C 45.574219 44.71875 46.085938 44.253906 46.621094 43.816406 C 47.15625 43.378906 47.707031 42.96875 48.28125 42.582031 C 48.855469 42.199219 49.449219 41.84375 50.058594 41.519531 C 50.667969 41.195312 51.292969 40.898438 51.929688 40.632812 C 52.566406 40.371094 53.21875 40.136719 53.878906 39.9375 C 54.539062 39.734375 55.207031 39.570312 55.886719 39.433594 C 56.5625 39.300781 57.246094 39.199219 57.933594 39.128906 C 58.621094 39.0625 59.308594 39.027344 60 39.027344 C 60.691406 39.027344 61.378906 39.0625 62.066406 39.128906 C 62.753906 39.199219 63.4375 39.300781 64.117188 39.433594 C 64.792969 39.570312 65.460938 39.734375 66.125 39.9375 C 66.785156 40.136719 67.433594 40.371094 68.070312 40.632812 C 68.710938 40.898438 69.332031 41.195312 69.941406 41.519531 C 70.550781 41.84375 71.144531 42.199219 71.71875 42.582031 C 72.292969 42.96875 72.847656 43.378906 73.382812 43.816406 C 73.914062 44.253906 74.425781 44.71875 74.914062 45.207031 C 75.402344 45.695312 75.867188 46.207031 76.304688 46.738281 C 76.742188 47.273438 77.152344 47.828125 77.539062 48.402344 C 77.921875 48.976562 78.277344 49.566406 78.601562 50.175781 C 78.925781 50.785156 79.222656 51.410156 79.488281 52.046875 C 79.75 52.6875 79.984375 53.335938 80.183594 53.996094 C 80.382812 54.660156 80.550781 55.328125 80.6875 56.003906 C 80.820312 56.683594 80.921875 57.363281 80.992188 58.050781 C 81.058594 58.738281 81.09375 59.429688 81.09375 60.121094 C 81.089844 60.8125 81.058594 61.5 80.988281 62.1875 C 80.921875 62.875 80.816406 63.554688 80.683594 64.234375 C 80.546875 64.910156 80.378906 65.578125 80.179688 66.238281 C 79.976562 66.902344 79.746094 67.550781 79.480469 68.1875 C 79.214844 68.824219 78.921875 69.449219 78.59375 70.058594 C 78.269531 70.667969 77.914062 71.257812 77.53125 71.832031 C 77.144531 72.40625 76.734375 72.960938 76.296875 73.492188 C 75.859375 74.027344 75.394531 74.539062 74.90625 75.027344 C 74.417969 75.515625 73.90625 75.976562 73.375 76.417969 C 72.839844 76.855469 72.285156 77.265625 71.710938 77.648438 C 71.136719 78.035156 70.546875 78.386719 69.9375 78.714844 C 69.328125 79.039062 68.707031 79.335938 68.066406 79.597656 C 67.429688 79.863281 66.78125 80.097656 66.121094 80.296875 C 65.460938 80.5 64.789062 80.667969 64.113281 80.800781 C 63.4375 80.9375 62.753906 81.039062 62.066406 81.109375 C 61.378906 81.175781 60.691406 81.210938 60 81.210938 Z M 60 40.441406 C 59.355469 40.441406 58.714844 40.472656 58.070312 40.539062 C 57.429688 40.601562 56.792969 40.695312 56.160156 40.820312 C 55.53125 40.945312 54.90625 41.101562 54.289062 41.289062 C 53.671875 41.476562 53.066406 41.695312 52.46875 41.941406 C 51.875 42.1875 51.292969 42.460938 50.726562 42.765625 C 50.15625 43.070312 49.605469 43.402344 49.066406 43.757812 C 48.53125 44.117188 48.015625 44.5 47.515625 44.910156 C 47.019531 45.316406 46.542969 45.75 46.085938 46.207031 C 45.628906 46.660156 45.199219 47.136719 44.789062 47.636719 C 44.378906 48.136719 43.996094 48.652344 43.640625 49.1875 C 43.28125 49.722656 42.949219 50.277344 42.648438 50.84375 C 42.34375 51.414062 42.066406 51.996094 41.820312 52.589844 C 41.574219 53.183594 41.359375 53.792969 41.171875 54.40625 C 40.984375 55.023438 40.828125 55.648438 40.699219 56.28125 C 40.574219 56.914062 40.480469 57.550781 40.417969 58.191406 C 40.355469 58.832031 40.324219 59.476562 40.324219 60.121094 C 40.324219 60.765625 40.355469 61.40625 40.417969 62.046875 C 40.480469 62.691406 40.574219 63.328125 40.699219 63.957031 C 40.828125 64.589844 40.984375 65.214844 41.171875 65.832031 C 41.359375 66.449219 41.574219 67.054688 41.820312 67.648438 C 42.066406 68.246094 42.34375 68.828125 42.648438 69.394531 C 42.949219 69.964844 43.28125 70.515625 43.640625 71.050781 C 43.996094 71.589844 44.378906 72.105469 44.789062 72.601562 C 45.199219 73.101562 45.628906 73.578125 46.085938 74.035156 C 46.542969 74.488281 47.019531 74.921875 47.515625 75.332031 C 48.015625 75.738281 48.53125 76.125 49.066406 76.480469 C 49.605469 76.839844 50.15625 77.171875 50.726562 77.472656 C 51.292969 77.777344 51.875 78.054688 52.46875 78.300781 C 53.066406 78.546875 53.671875 78.761719 54.289062 78.949219 C 54.90625 79.136719 55.53125 79.292969 56.160156 79.417969 C 56.792969 79.546875 57.429688 79.640625 58.070312 79.703125 C 58.714844 79.765625 59.355469 79.796875 60 79.796875 C 60.644531 79.796875 61.289062 79.765625 61.929688 79.703125 C 62.570312 79.640625 63.207031 79.546875 63.839844 79.417969 C 64.472656 79.292969 65.097656 79.136719 65.710938 78.949219 C 66.328125 78.761719 66.933594 78.546875 67.53125 78.300781 C 68.125 78.054688 68.707031 77.777344 69.277344 77.472656 C 69.84375 77.171875 70.398438 76.839844 70.933594 76.480469 C 71.46875 76.125 71.984375 75.738281 72.484375 75.332031 C 72.980469 74.921875 73.460938 74.488281 73.914062 74.035156 C 74.371094 73.578125 74.800781 73.101562 75.210938 72.601562 C 75.621094 72.105469 76.003906 71.589844 76.363281 71.050781 C 76.71875 70.515625 77.050781 69.964844 77.355469 69.394531 C 77.660156 68.828125 77.933594 68.246094 78.179688 67.648438 C 78.425781 67.054688 78.644531 66.449219 78.832031 65.832031 C 79.019531 65.214844 79.175781 64.589844 79.300781 63.957031 C 79.425781 63.328125 79.519531 62.691406 79.582031 62.046875 C 79.648438 61.40625 79.679688 60.765625 79.679688 60.121094 C 79.675781 59.476562 79.644531 58.832031 79.582031 58.191406 C 79.519531 57.550781 79.421875 56.914062 79.296875 56.28125 C 79.171875 55.652344 79.011719 55.027344 78.824219 54.410156 C 78.636719 53.792969 78.421875 53.1875 78.175781 52.59375 C 77.925781 52 77.652344 51.417969 77.347656 50.847656 C 77.042969 50.28125 76.714844 49.730469 76.355469 49.191406 C 75.996094 48.65625 75.613281 48.140625 75.203125 47.644531 C 74.796875 47.144531 74.363281 46.667969 73.90625 46.210938 C 73.453125 45.757812 72.976562 45.324219 72.476562 44.914062 C 71.980469 44.507812 71.464844 44.125 70.925781 43.765625 C 70.390625 43.40625 69.839844 43.078125 69.273438 42.773438 C 68.703125 42.46875 68.121094 42.191406 67.527344 41.945312 C 66.933594 41.699219 66.328125 41.480469 65.710938 41.292969 C 65.09375 41.105469 64.46875 40.949219 63.839844 40.824219 C 63.207031 40.699219 62.570312 40.601562 61.929688 40.539062 C 61.289062 40.476562 60.644531 40.441406 60 40.441406 Z M 60 40.441406 " fill-opacity="1" fill-rule="nonzero"/><path fill="#1e1e1e" d="M 64.523438 39.601562 C 64.011719 37.332031 63.804688 35.035156 63.90625 32.710938 C 64.007812 30.386719 64.410156 28.117188 65.117188 25.902344 C 65.519531 24.644531 66.015625 23.425781 66.605469 22.246094 C 67.011719 21.433594 65.792969 20.71875 65.386719 21.53125 C 63.949219 24.382812 63.042969 27.390625 62.660156 30.558594 C 62.28125 33.726562 62.445312 36.867188 63.160156 39.976562 C 63.363281 40.863281 64.726562 40.488281 64.523438 39.601562 Z M 64.523438 39.601562 " fill-opacity="1" fill-rule="nonzero"/><path fill="#1e1e1e" d="M 67.574219 40.789062 C 68.113281 39.085938 68.894531 37.503906 69.917969 36.039062 C 70.941406 34.578125 72.160156 33.300781 73.570312 32.207031 C 73.707031 32.066406 73.777344 31.902344 73.777344 31.707031 C 73.777344 31.511719 73.707031 31.34375 73.570312 31.207031 C 73.429688 31.074219 73.261719 31.007812 73.070312 31.007812 C 72.878906 31.007812 72.710938 31.074219 72.570312 31.207031 C 71.070312 32.382812 69.777344 33.757812 68.691406 35.328125 C 67.605469 36.894531 66.78125 38.589844 66.210938 40.410156 C 65.9375 41.28125 67.300781 41.652344 67.574219 40.789062 Z M 67.574219 40.789062 " fill-opacity="1" fill-rule="nonzero"/><path fill="#1e1e1e" d="M 80.269531 52.40625 C 81.898438 50.925781 83.699219 49.699219 85.671875 48.730469 C 87.648438 47.757812 89.71875 47.082031 91.886719 46.695312 C 93.109375 46.480469 94.34375 46.363281 95.585938 46.351562 C 96.492188 46.34375 96.496094 44.929688 95.585938 44.941406 C 92.558594 44.976562 89.640625 45.550781 86.828125 46.664062 C 84.019531 47.78125 81.496094 49.359375 79.269531 51.40625 C 78.597656 52.019531 79.597656 53.019531 80.269531 52.40625 Z M 80.269531 52.40625 " fill-opacity="1" fill-rule="nonzero"/><path fill="#1e1e1e" d="M 72.15625 76.472656 C 72.378906 78.707031 73 80.824219 74.019531 82.824219 C 75.039062 84.824219 76.386719 86.570312 78.0625 88.0625 C 79.015625 88.90625 80.046875 89.632812 81.15625 90.25 C 81.953125 90.6875 82.667969 89.46875 81.871094 89.027344 C 80.070312 88.023438 78.519531 86.726562 77.207031 85.136719 C 75.898438 83.546875 74.921875 81.773438 74.28125 79.816406 C 73.921875 78.726562 73.683594 77.613281 73.570312 76.472656 C 73.566406 76.277344 73.496094 76.113281 73.359375 75.976562 C 73.222656 75.839844 73.058594 75.769531 72.863281 75.765625 C 72.671875 75.765625 72.503906 75.835938 72.367188 75.972656 C 72.230469 76.109375 72.160156 76.277344 72.15625 76.472656 Z M 72.15625 76.472656 " fill-opacity="1" fill-rule="nonzero"/><path fill="#1e1e1e" d="M 74.804688 74.640625 C 76.503906 75.515625 78.207031 76.390625 79.910156 77.265625 C 80.078125 77.359375 80.257812 77.382812 80.445312 77.335938 C 80.628906 77.285156 80.773438 77.179688 80.875 77.011719 C 80.972656 76.84375 80.996094 76.664062 80.945312 76.476562 C 80.898438 76.289062 80.789062 76.144531 80.621094 76.046875 C 78.921875 75.171875 77.21875 74.296875 75.515625 73.417969 C 75.347656 73.324219 75.167969 73.304688 74.984375 73.351562 C 74.796875 73.402344 74.652344 73.507812 74.550781 73.671875 C 74.453125 73.84375 74.429688 74.019531 74.480469 74.207031 C 74.527344 74.398438 74.636719 74.539062 74.804688 74.640625 Z M 74.804688 74.640625 " fill-opacity="1" fill-rule="nonzero"/><path fill="#1e1e1e" d="M 51.796875 78.84375 C 49.96875 80.371094 48.457031 82.164062 47.269531 84.226562 C 46.078125 86.289062 45.28125 88.492188 44.875 90.839844 C 44.832031 91.027344 44.855469 91.203125 44.949219 91.371094 C 45.046875 91.539062 45.183594 91.652344 45.371094 91.707031 C 45.558594 91.757812 45.738281 91.734375 45.90625 91.640625 C 46.074219 91.542969 46.1875 91.402344 46.238281 91.214844 C 46.617188 88.988281 47.367188 86.898438 48.496094 84.941406 C 49.625 82.984375 51.058594 81.285156 52.796875 79.84375 C 52.933594 79.707031 53 79.539062 53 79.34375 C 53 79.152344 52.933594 78.984375 52.796875 78.84375 C 52.65625 78.710938 52.492188 78.644531 52.296875 78.644531 C 52.101562 78.644531 51.9375 78.710938 51.796875 78.84375 Z M 51.796875 78.84375 " fill-opacity="1" fill-rule="nonzero"/><path fill="#1e1e1e" d="M 55 80.363281 C 54.238281 83.113281 54.125 85.894531 54.660156 88.699219 C 54.714844 88.882812 54.824219 89.027344 54.992188 89.121094 C 55.164062 89.21875 55.339844 89.242188 55.527344 89.191406 C 55.714844 89.136719 55.855469 89.023438 55.949219 88.855469 C 56.046875 88.6875 56.070312 88.507812 56.023438 88.320312 C 55.550781 85.765625 55.664062 83.238281 56.363281 80.738281 C 56.609375 79.859375 55.242188 79.484375 55 80.363281 Z M 55 80.363281 " fill-opacity="1" fill-rule="nonzero"/><path fill="#1e1e1e" d="M 39.601562 62.824219 C 37.0625 62.570312 34.546875 62.695312 32.046875 63.207031 C 29.550781 63.714844 27.183594 64.585938 24.949219 65.816406 C 24.152344 66.253906 24.863281 67.476562 25.664062 67.035156 C 27.789062 65.871094 30.042969 65.050781 32.417969 64.574219 C 34.796875 64.097656 37.1875 63.984375 39.601562 64.238281 C 39.792969 64.234375 39.960938 64.167969 40.097656 64.027344 C 40.234375 63.890625 40.304688 63.726562 40.308594 63.53125 C 40.300781 63.335938 40.230469 63.171875 40.09375 63.035156 C 39.957031 62.898438 39.792969 62.828125 39.601562 62.824219 Z M 39.601562 62.824219 " fill-opacity="1" fill-rule="nonzero"/><path fill="#1e1e1e" d="M 40.445312 66.324219 C 37.800781 67.109375 35.5 68.472656 33.542969 70.417969 C 32.898438 71.058594 33.898438 72.058594 34.542969 71.417969 C 36.320312 69.644531 38.414062 68.402344 40.820312 67.6875 C 41.691406 67.425781 41.320312 66.0625 40.445312 66.324219 Z M 40.445312 66.324219 " fill-opacity="1" fill-rule="nonzero"/><path fill="#1e1e1e" d="M 44.566406 46.46875 C 41.578125 43.472656 38.191406 41.035156 34.402344 39.15625 C 33.589844 38.753906 32.871094 39.972656 33.6875 40.375 C 37.371094 42.195312 40.664062 44.558594 43.566406 47.46875 C 44.210938 48.113281 45.210938 47.113281 44.566406 46.46875 Z M 44.566406 46.46875 " fill-opacity="1" fill-rule="nonzero"/><path fill="#1e1e1e" d="M 47.949219 43.710938 C 47.15625 41.652344 45.808594 40.054688 43.917969 38.921875 C 43.75 38.820312 43.570312 38.796875 43.382812 38.847656 C 43.191406 38.898438 43.050781 39.003906 42.949219 39.175781 C 42.851562 39.34375 42.828125 39.523438 42.878906 39.710938 C 42.925781 39.898438 43.035156 40.042969 43.203125 40.140625 C 43.402344 40.257812 43.59375 40.382812 43.78125 40.511719 C 43.835938 40.554688 43.894531 40.59375 43.949219 40.632812 C 43.960938 40.644531 44.097656 40.75 44.039062 40.703125 C 43.988281 40.664062 44.132812 40.78125 44.128906 40.777344 C 44.175781 40.8125 44.21875 40.847656 44.261719 40.886719 C 44.621094 41.191406 44.953125 41.519531 45.257812 41.878906 C 45.332031 41.964844 45.40625 42.054688 45.476562 42.144531 C 45.414062 42.066406 45.488281 42.160156 45.511719 42.191406 C 45.546875 42.238281 45.578125 42.28125 45.613281 42.328125 C 45.746094 42.515625 45.871094 42.707031 45.992188 42.902344 C 46.117188 43.109375 46.230469 43.316406 46.339844 43.535156 C 46.390625 43.636719 46.4375 43.738281 46.484375 43.84375 C 46.503906 43.882812 46.546875 43.988281 46.511719 43.894531 C 46.535156 43.957031 46.5625 44.023438 46.585938 44.085938 C 46.640625 44.273438 46.753906 44.414062 46.921875 44.507812 C 47.089844 44.601562 47.269531 44.628906 47.457031 44.582031 C 47.644531 44.527344 47.785156 44.414062 47.878906 44.246094 C 47.976562 44.078125 48 43.898438 47.949219 43.710938 Z M 47.949219 43.710938 " fill-opacity="1" fill-rule="nonzero"/><path fill="#1e1e1e" d="M 80.351562 57.585938 C 81.984375 57.359375 83.613281 57.136719 85.246094 56.910156 C 85.625 56.855469 85.832031 56.375 85.738281 56.039062 C 85.683594 55.855469 85.570312 55.714844 85.402344 55.621094 C 85.234375 55.523438 85.058594 55.5 84.871094 55.546875 C 83.238281 55.773438 81.605469 55.996094 79.976562 56.222656 C 79.597656 56.273438 79.390625 56.757812 79.480469 57.089844 C 79.539062 57.277344 79.648438 57.417969 79.820312 57.511719 C 79.988281 57.609375 80.164062 57.632812 80.351562 57.585938 Z M 80.351562 57.585938 " fill-opacity="1" fill-rule="nonzero"/></svg>