<svg xmlns="http://www.w3.org/2000/svg" xmlns:xlink="http://www.w3.org/1999/xlink" width="160" zoomAndPan="magnify" viewBox="0 0 120 119.999999" height="160" preserveAspectRatio="xMidYMid meet" version="1.0"><defs><clipPath id="e7183fd18e"><path d="M 15 9.273438 L 120 9.273438 L 120 110 L 15 110 Z M 15 9.273438 " clip-rule="nonzero"/></clipPath><clipPath id="c94d2975ad"><path d="M 15 9.273438 L 120 9.273438 L 120 110.523438 L 15 110.523438 Z M 15 9.273438 " clip-rule="nonzero"/></clipPath><clipPath id="93a19154af"><path d="M 1 9.273438 L 106 9.273438 L 106 110 L 1 110 Z M 1 9.273438 " clip-rule="nonzero"/></clipPath><clipPath id="a9f80d946e"><path d="M 1 9.273438 L 106 9.273438 L 106 110.523438 L 1 110.523438 Z M 1 9.273438 " clip-rule="nonzero"/></clipPath></defs><g clip-path="url(#e7183fd18e)"><path fill="#fce82e" d="M 53.359375 109.9375 C 53.15625 109.9375 52.96875 109.8125 52.902344 109.617188 L 52.128906 107.484375 L 50.714844 103.535156 L 46.4375 91.695312 L 45.136719 88.066406 L 44.988281 87.945312 C 43.425781 86.644531 41.859375 85.324219 40.316406 84 C 38.765625 82.675781 37.265625 81.339844 35.851562 80.035156 C 34.257812 78.554688 32.96875 77.296875 31.785156 76.066406 C 30.507812 74.765625 29.285156 73.429688 28.160156 72.09375 C 27.417969 71.230469 26.683594 70.3125 25.964844 69.351562 C 25.648438 68.9375 25.351562 68.523438 25.0625 68.105469 C 24.140625 66.832031 23.273438 65.488281 22.488281 64.121094 C 21.777344 62.917969 21.085938 61.617188 20.382812 60.140625 C 19.742188 58.773438 19.171875 57.429688 18.703125 56.140625 C 18.222656 54.835938 17.785156 53.5 17.414062 52.164062 C 17.035156 50.769531 16.726562 49.425781 16.492188 48.164062 C 16.253906 46.851562 16.074219 45.550781 15.945312 44.179688 C 15.820312 42.78125 15.773438 41.429688 15.800781 40.167969 C 15.828125 39.582031 15.859375 39.28125 15.859375 39.28125 C 15.851562 38.207031 15.90625 37.148438 16.019531 36.175781 C 16.148438 34.832031 16.375 33.484375 16.699219 32.164062 C 17.019531 30.816406 17.4375 29.464844 17.957031 28.152344 C 18.523438 26.722656 19.179688 25.371094 19.902344 24.132812 C 20.710938 22.726562 21.648438 21.378906 22.691406 20.121094 C 23.90625 18.648438 25.273438 17.296875 26.742188 16.109375 C 27.308594 15.640625 27.917969 15.183594 28.640625 14.6875 L 29.257812 10.335938 C 29.289062 10.101562 29.5 9.925781 29.742188 9.925781 L 44.011719 9.925781 C 47.691406 9.925781 51.257812 10.652344 54.617188 12.085938 C 57.019531 13.097656 59.265625 14.453125 61.289062 16.109375 C 62.773438 17.316406 64.128906 18.667969 65.332031 20.121094 C 66.167969 21.128906 66.9375 22.203125 67.628906 23.304688 C 68.308594 22.222656 69.082031 21.15625 69.9375 20.121094 C 70.976562 18.863281 72.148438 17.679688 73.414062 16.597656 L 73.5625 16.277344 L 75.507812 12.320312 L 76.542969 10.195312 C 76.625 10.027344 76.789062 9.925781 76.980469 9.925781 L 91.246094 9.925781 C 94.933594 9.925781 98.5 10.652344 101.859375 12.085938 C 104.226562 13.085938 106.46875 14.441406 108.519531 16.109375 C 110.007812 17.296875 111.363281 18.652344 112.5625 20.125 C 113.59375 21.363281 114.535156 22.714844 115.359375 24.132812 C 116.109375 25.425781 116.765625 26.78125 117.300781 28.152344 C 117.828125 29.460938 118.253906 30.816406 118.574219 32.164062 C 118.894531 33.476562 119.125 34.832031 119.246094 36.1875 C 119.359375 37.167969 119.414062 38.195312 119.414062 39.324219 C 119.417969 39.328125 119.445312 39.625 119.464844 40.160156 C 119.492188 41.4375 119.445312 42.785156 119.316406 44.179688 C 119.210938 45.421875 119.023438 46.765625 118.765625 48.164062 C 118.519531 49.519531 118.210938 50.867188 117.84375 52.164062 C 117.46875 53.5 117.035156 54.84375 116.554688 56.140625 C 116.085938 57.421875 115.523438 58.765625 114.882812 60.132812 C 114.203125 61.570312 113.511719 62.871094 112.773438 64.121094 C 112.023438 65.414062 111.160156 66.757812 110.203125 68.113281 C 109.90625 68.523438 109.609375 68.9375 109.289062 69.351562 C 108.671875 70.1875 107.976562 71.058594 107.109375 72.085938 C 105.945312 73.460938 104.722656 74.796875 103.476562 76.070312 C 102.226562 77.359375 100.859375 78.695312 99.40625 80.035156 C 97.949219 81.386719 96.40625 82.738281 94.957031 83.996094 C 93.40625 85.324219 91.839844 86.644531 90.265625 87.949219 C 89.640625 88.472656 89.011719 88.992188 88.390625 89.515625 C 87.433594 90.308594 86.476562 91.097656 85.53125 91.898438 C 83.710938 93.4375 82.246094 94.691406 80.945312 95.839844 C 79.359375 97.234375 77.96875 98.523438 76.679688 99.777344 C 75.214844 101.183594 73.964844 102.464844 72.851562 103.703125 C 71.625 105.050781 70.550781 106.328125 69.566406 107.613281 C 69.035156 108.3125 68.523438 109.011719 68.03125 109.726562 C 67.9375 109.863281 67.789062 109.9375 67.628906 109.9375 Z M 53.359375 109.9375 " fill-opacity="1" fill-rule="nonzero"/></g><g clip-path="url(#c94d2975ad)"><path fill="#1a1a1a" d="M 91.246094 9.429688 L 76.980469 9.429688 C 76.605469 9.429688 76.265625 9.648438 76.105469 9.980469 L 75.066406 12.105469 L 73.128906 16.058594 L 73.019531 16.289062 C 71.757812 17.378906 70.597656 18.5625 69.5625 19.8125 C 68.863281 20.648438 68.214844 21.519531 67.628906 22.40625 C 67.035156 21.507812 66.394531 20.636719 65.710938 19.8125 C 64.480469 18.328125 63.105469 16.960938 61.597656 15.734375 C 59.535156 14.046875 57.253906 12.671875 54.800781 11.636719 C 51.394531 10.175781 47.757812 9.429688 44.011719 9.429688 L 29.742188 9.429688 C 29.253906 9.429688 28.847656 9.789062 28.777344 10.269531 L 28.476562 12.394531 L 28.191406 14.410156 C 27.535156 14.863281 26.957031 15.300781 26.425781 15.734375 C 24.9375 16.933594 23.554688 18.308594 22.316406 19.8125 C 21.257812 21.085938 20.300781 22.460938 19.476562 23.890625 C 18.746094 25.148438 18.082031 26.519531 17.5 27.96875 C 16.976562 29.304688 16.550781 30.671875 16.222656 32.054688 C 15.894531 33.390625 15.667969 34.765625 15.535156 36.136719 C 15.425781 37.09375 15.363281 38.160156 15.363281 39.285156 C 15.359375 39.398438 15.332031 39.6875 15.316406 40.140625 C 15.285156 41.4375 15.332031 42.804688 15.457031 44.214844 C 15.585938 45.605469 15.773438 46.925781 16.019531 48.257812 C 16.246094 49.519531 16.5625 50.875 16.9375 52.285156 C 17.320312 53.640625 17.757812 54.996094 18.246094 56.3125 C 18.722656 57.609375 19.289062 58.964844 19.9375 60.34375 C 20.65625 61.839844 21.351562 63.160156 22.066406 64.371094 C 22.859375 65.742188 23.734375 67.101562 24.671875 68.402344 C 24.988281 68.851562 25.285156 69.265625 25.582031 69.644531 C 26.296875 70.605469 27.042969 71.539062 27.789062 72.414062 C 28.917969 73.742188 30.148438 75.09375 31.433594 76.410156 C 32.617188 77.636719 33.917969 78.90625 35.519531 80.390625 C 36.9375 81.703125 38.445312 83.039062 40 84.371094 C 41.464844 85.632812 43 86.925781 44.683594 88.324219 L 44.722656 88.355469 L 45.980469 91.863281 L 47.40625 95.804688 L 48.832031 99.761719 L 50.253906 103.707031 L 51.671875 107.652344 L 52.445312 109.785156 C 52.582031 110.171875 52.949219 110.429688 53.359375 110.429688 L 67.628906 110.429688 C 67.949219 110.429688 68.253906 110.269531 68.433594 110.003906 C 68.917969 109.300781 69.433594 108.59375 69.957031 107.910156 C 70.9375 106.628906 72 105.359375 73.210938 104.027344 C 74.320312 102.796875 75.566406 101.523438 77.011719 100.128906 C 78.300781 98.871094 79.691406 97.589844 81.265625 96.203125 C 82.585938 95.039062 84.042969 93.796875 85.84375 92.273438 C 86.800781 91.460938 87.773438 90.660156 88.734375 89.859375 C 89.351562 89.347656 89.964844 88.835938 90.582031 88.320312 C 91.882812 87.242188 93.59375 85.8125 95.273438 84.371094 C 96.726562 83.101562 98.277344 81.753906 99.742188 80.390625 C 101.199219 79.042969 102.574219 77.703125 103.828125 76.40625 C 105.09375 75.117188 106.320312 73.773438 107.480469 72.40625 C 108.339844 71.378906 109.0625 70.476562 109.683594 69.640625 C 110 69.234375 110.296875 68.816406 110.597656 68.394531 C 111.566406 67.027344 112.445312 65.671875 113.199219 64.359375 C 113.9375 63.109375 114.636719 61.792969 115.320312 60.351562 C 115.96875 58.964844 116.535156 57.609375 117.011719 56.308594 C 117.5 54.996094 117.9375 53.640625 118.316406 52.292969 C 118.679688 50.980469 118.992188 49.625 119.242188 48.25 C 119.507812 46.832031 119.699219 45.472656 119.800781 44.214844 C 119.933594 42.816406 119.980469 41.449219 119.949219 40.15625 C 119.9375 39.691406 119.914062 39.398438 119.90625 39.285156 C 119.902344 38.152344 119.84375 37.117188 119.734375 36.121094 C 119.605469 34.765625 119.371094 33.390625 119.050781 32.046875 C 118.722656 30.679688 118.289062 29.304688 117.757812 27.96875 C 117.210938 26.578125 116.542969 25.203125 115.777344 23.890625 C 114.949219 22.449219 113.988281 21.074219 112.933594 19.804688 C 111.722656 18.320312 110.339844 16.949219 108.820312 15.726562 C 106.746094 14.035156 104.464844 12.652344 102.042969 11.636719 C 98.628906 10.175781 95 9.429688 91.246094 9.429688 Z M 91.246094 10.410156 C 94.925781 10.410156 98.449219 11.15625 101.660156 12.53125 C 104.023438 13.523438 106.226562 14.871094 108.210938 16.484375 C 109.667969 17.65625 111.007812 18.980469 112.183594 20.429688 C 113.210938 21.660156 114.128906 22.972656 114.9375 24.378906 C 115.667969 25.632812 116.316406 26.957031 116.851562 28.332031 C 117.359375 29.609375 117.777344 30.925781 118.097656 32.273438 C 118.414062 33.5625 118.636719 34.886719 118.765625 36.230469 C 118.882812 37.253906 118.925781 38.289062 118.925781 39.328125 C 118.925781 39.328125 118.957031 39.625 118.976562 40.179688 C 118.992188 40.988281 118.992188 42.347656 118.832031 44.128906 C 118.734375 45.28125 118.554688 46.605469 118.285156 48.078125 C 118.0625 49.304688 117.765625 50.628906 117.375 52.03125 C 117.023438 53.289062 116.605469 54.601562 116.097656 55.976562 C 115.628906 57.25 115.074219 58.574219 114.4375 59.929688 C 113.828125 61.222656 113.140625 62.542969 112.351562 63.875 C 111.597656 65.179688 110.746094 66.5 109.800781 67.828125 C 109.511719 68.242188 109.214844 68.648438 108.90625 69.054688 C 108.210938 69.984375 107.480469 70.890625 106.742188 71.777344 C 105.585938 73.128906 104.390625 74.445312 103.128906 75.734375 C 101.828125 77.074219 100.46875 78.386719 99.074219 79.675781 C 97.628906 81.019531 96.140625 82.324219 94.636719 83.632812 C 93.09375 84.957031 91.523438 86.269531 89.949219 87.574219 C 88.371094 88.898438 86.777344 90.203125 85.214844 91.527344 C 83.667969 92.835938 82.125 94.148438 80.625 95.472656 C 79.148438 96.773438 77.710938 98.085938 76.332031 99.425781 C 75 100.714844 73.710938 102.019531 72.492188 103.375 C 71.320312 104.65625 70.214844 105.964844 69.183594 107.320312 C 68.640625 108.019531 68.128906 108.730469 67.628906 109.449219 L 53.359375 109.449219 L 52.59375 107.320312 L 51.171875 103.375 L 49.746094 99.425781 L 48.328125 95.472656 L 46.902344 91.527344 L 45.554688 87.777344 L 45.308594 87.574219 C 43.734375 86.269531 42.171875 84.957031 40.636719 83.632812 C 39.125 82.335938 37.628906 81.007812 36.183594 79.675781 C 34.789062 78.382812 33.433594 77.074219 32.128906 75.734375 C 30.875 74.445312 29.671875 73.128906 28.53125 71.777344 C 27.773438 70.890625 27.050781 69.984375 26.351562 69.054688 C 26.042969 68.648438 25.746094 68.242188 25.46875 67.828125 C 24.511719 66.503906 23.660156 65.179688 22.90625 63.875 C 22.117188 62.542969 21.4375 61.21875 20.820312 59.929688 C 20.183594 58.574219 19.628906 57.25 19.160156 55.976562 C 18.652344 54.601562 18.234375 53.289062 17.882812 52.03125 C 17.5 50.628906 17.199219 49.304688 16.976562 48.078125 C 16.703125 46.605469 16.535156 45.28125 16.433594 44.128906 C 16.273438 42.347656 16.273438 40.988281 16.289062 40.179688 C 16.308594 39.625 16.339844 39.328125 16.339844 39.328125 C 16.339844 38.289062 16.390625 37.246094 16.507812 36.230469 C 16.636719 34.886719 16.859375 33.5625 17.171875 32.273438 C 17.492188 30.925781 17.914062 29.59375 18.40625 28.332031 C 18.957031 26.957031 19.59375 25.632812 20.320312 24.378906 C 21.136719 22.972656 22.050781 21.660156 23.066406 20.429688 C 24.265625 18.980469 25.605469 17.65625 27.050781 16.484375 C 27.710938 15.941406 28.394531 15.445312 29.097656 14.964844 L 29.4375 12.53125 L 29.742188 10.410156 L 44.011719 10.410156 C 47.699219 10.410156 51.214844 11.15625 54.425781 12.53125 C 56.796875 13.535156 59 14.871094 60.980469 16.484375 C 62.425781 17.664062 63.765625 18.992188 64.957031 20.429688 C 65.945312 21.617188 66.839844 22.898438 67.628906 24.246094 C 68.417969 22.898438 69.328125 21.617188 70.316406 20.429688 C 71.375 19.148438 72.550781 17.964844 73.808594 16.898438 L 74.007812 16.484375 L 75.945312 12.53125 L 76.980469 10.410156 Z M 91.246094 10.410156 " fill-opacity="1" fill-rule="nonzero"/></g><path fill="#1a1a1a" d="M 101.660156 12.042969 L 75.945312 12.042969 C 75.679688 12.042969 75.457031 12.265625 75.457031 12.53125 C 75.457031 12.800781 75.679688 13.015625 75.945312 13.015625 L 101.660156 13.015625 C 101.933594 13.015625 102.148438 12.800781 102.148438 12.53125 C 102.148438 12.265625 101.933594 12.042969 101.660156 12.042969 Z M 101.660156 12.042969 " fill-opacity="1" fill-rule="nonzero"/><path fill="#1a1a1a" d="M 54.425781 12.042969 L 29.4375 12.042969 C 29.167969 12.042969 28.949219 12.265625 28.949219 12.53125 C 28.949219 12.800781 29.167969 13.015625 29.4375 13.015625 L 54.425781 13.015625 C 54.691406 13.015625 54.914062 12.800781 54.914062 12.53125 C 54.914062 12.265625 54.691406 12.042969 54.425781 12.042969 Z M 54.425781 12.042969 " fill-opacity="1" fill-rule="nonzero"/><path fill="#1a1a1a" d="M 108.210938 16 L 27.050781 16 C 26.777344 16 26.5625 16.21875 26.5625 16.484375 C 26.5625 16.757812 26.777344 16.972656 27.050781 16.972656 L 108.210938 16.972656 C 108.480469 16.972656 108.699219 16.757812 108.699219 16.484375 C 108.699219 16.21875 108.480469 16 108.210938 16 Z M 108.210938 16 " fill-opacity="1" fill-rule="nonzero"/><path fill="#1a1a1a" d="M 23.066406 20.921875 L 112.183594 20.921875 C 112.457031 20.921875 112.671875 20.699219 112.671875 20.429688 C 112.671875 20.164062 112.457031 19.949219 112.183594 19.949219 L 23.066406 19.949219 C 22.796875 19.949219 22.582031 20.164062 22.582031 20.429688 C 22.582031 20.699219 22.796875 20.921875 23.066406 20.921875 Z M 23.066406 20.921875 " fill-opacity="1" fill-rule="nonzero"/><path fill="#1a1a1a" d="M 114.9375 23.890625 L 20.320312 23.890625 C 20.054688 23.890625 19.832031 24.105469 19.832031 24.378906 C 19.832031 24.648438 20.054688 24.863281 20.320312 24.863281 L 114.9375 24.863281 C 115.203125 24.863281 115.425781 24.648438 115.425781 24.378906 C 115.425781 24.105469 115.203125 23.890625 114.9375 23.890625 Z M 114.9375 23.890625 " fill-opacity="1" fill-rule="nonzero"/><path fill="#1a1a1a" d="M 116.851562 27.847656 L 18.40625 27.847656 C 18.140625 27.847656 17.917969 28.0625 17.917969 28.332031 C 17.917969 28.605469 18.140625 28.820312 18.40625 28.820312 L 116.851562 28.820312 C 117.117188 28.820312 117.339844 28.605469 117.339844 28.332031 C 117.339844 28.0625 117.117188 27.847656 116.851562 27.847656 Z M 116.851562 27.847656 " fill-opacity="1" fill-rule="nonzero"/><path fill="#1a1a1a" d="M 118.097656 31.789062 L 17.171875 31.789062 C 16.902344 31.789062 16.683594 32.011719 16.683594 32.273438 C 16.683594 32.546875 16.902344 32.761719 17.171875 32.761719 L 118.097656 32.761719 C 118.371094 32.761719 118.585938 32.546875 118.585938 32.273438 C 118.585938 32.011719 118.371094 31.789062 118.097656 31.789062 Z M 118.097656 31.789062 " fill-opacity="1" fill-rule="nonzero"/><path fill="#1a1a1a" d="M 118.765625 35.742188 L 16.507812 35.742188 C 16.234375 35.742188 16.019531 35.960938 16.019531 36.230469 C 16.019531 36.5 16.234375 36.71875 16.507812 36.71875 L 118.765625 36.71875 C 119.03125 36.71875 119.253906 36.5 119.253906 36.230469 C 119.253906 35.960938 119.03125 35.742188 118.765625 35.742188 Z M 118.765625 35.742188 " fill-opacity="1" fill-rule="nonzero"/><path fill="#1a1a1a" d="M 118.976562 39.691406 L 16.289062 39.691406 C 16.023438 39.691406 15.800781 39.910156 15.800781 40.171875 C 15.800781 40.445312 16.023438 40.667969 16.289062 40.667969 L 118.976562 40.667969 C 119.246094 40.667969 119.464844 40.445312 119.464844 40.171875 C 119.464844 39.910156 119.246094 39.691406 118.976562 39.691406 Z M 118.976562 39.691406 " fill-opacity="1" fill-rule="nonzero"/><path fill="#1a1a1a" d="M 118.832031 43.640625 L 16.433594 43.640625 C 16.160156 43.640625 15.9375 43.863281 15.9375 44.128906 C 15.9375 44.398438 16.160156 44.621094 16.433594 44.621094 L 118.832031 44.621094 C 119.097656 44.621094 119.320312 44.398438 119.320312 44.128906 C 119.320312 43.863281 119.097656 43.640625 118.832031 43.640625 Z M 118.832031 43.640625 " fill-opacity="1" fill-rule="nonzero"/><path fill="#1a1a1a" d="M 118.285156 47.589844 L 16.976562 47.589844 C 16.703125 47.589844 16.488281 47.804688 16.488281 48.078125 C 16.488281 48.34375 16.703125 48.5625 16.976562 48.5625 L 118.285156 48.5625 C 118.554688 48.5625 118.773438 48.34375 118.773438 48.078125 C 118.773438 47.804688 118.554688 47.589844 118.285156 47.589844 Z M 118.285156 47.589844 " fill-opacity="1" fill-rule="nonzero"/><path fill="#1a1a1a" d="M 117.375 51.546875 L 17.882812 51.546875 C 17.609375 51.546875 17.394531 51.761719 17.394531 52.03125 C 17.394531 52.296875 17.609375 52.519531 17.882812 52.519531 L 117.375 52.519531 C 117.648438 52.519531 117.863281 52.296875 117.863281 52.03125 C 117.863281 51.761719 117.648438 51.546875 117.375 51.546875 Z M 117.375 51.546875 " fill-opacity="1" fill-rule="nonzero"/><path fill="#1a1a1a" d="M 116.097656 55.488281 L 19.160156 55.488281 C 18.890625 55.488281 18.671875 55.703125 18.671875 55.976562 C 18.671875 56.246094 18.890625 56.460938 19.160156 56.460938 L 116.097656 56.460938 C 116.371094 56.460938 116.585938 56.246094 116.585938 55.976562 C 116.585938 55.703125 116.371094 55.488281 116.097656 55.488281 Z M 116.097656 55.488281 " fill-opacity="1" fill-rule="nonzero"/><path fill="#1a1a1a" d="M 114.4375 59.445312 L 20.820312 59.445312 C 20.550781 59.445312 20.332031 59.660156 20.332031 59.929688 C 20.332031 60.203125 20.550781 60.417969 20.820312 60.417969 L 114.4375 60.417969 C 114.710938 60.417969 114.925781 60.203125 114.925781 59.929688 C 114.925781 59.660156 114.710938 59.445312 114.4375 59.445312 Z M 114.4375 59.445312 " fill-opacity="1" fill-rule="nonzero"/><path fill="#1a1a1a" d="M 112.351562 63.386719 L 22.90625 63.386719 C 22.640625 63.386719 22.417969 63.609375 22.417969 63.875 C 22.417969 64.144531 22.640625 64.359375 22.90625 64.359375 L 112.351562 64.359375 C 112.617188 64.359375 112.839844 64.144531 112.839844 63.875 C 112.839844 63.609375 112.617188 63.386719 112.351562 63.386719 Z M 112.351562 63.386719 " fill-opacity="1" fill-rule="nonzero"/><path fill="#1a1a1a" d="M 109.800781 67.34375 L 25.46875 67.34375 C 25.199219 67.34375 24.980469 67.5625 24.980469 67.828125 C 24.980469 68.101562 25.199219 68.316406 25.46875 68.316406 L 109.800781 68.316406 C 110.074219 68.316406 110.289062 68.101562 110.289062 67.828125 C 110.289062 67.5625 110.074219 67.34375 109.800781 67.34375 Z M 109.800781 67.34375 " fill-opacity="1" fill-rule="nonzero"/><path fill="#1a1a1a" d="M 106.742188 71.292969 L 28.53125 71.292969 C 28.257812 71.292969 28.042969 71.507812 28.042969 71.777344 C 28.042969 72.042969 28.257812 72.265625 28.53125 72.265625 L 106.742188 72.265625 C 107.007812 72.265625 107.226562 72.042969 107.226562 71.777344 C 107.226562 71.507812 107.007812 71.292969 106.742188 71.292969 Z M 106.742188 71.292969 " fill-opacity="1" fill-rule="nonzero"/><path fill="#1a1a1a" d="M 103.128906 75.246094 L 32.128906 75.246094 C 31.863281 75.246094 31.640625 75.460938 31.640625 75.734375 C 31.640625 75.996094 31.863281 76.21875 32.128906 76.21875 L 103.128906 76.21875 C 103.394531 76.21875 103.617188 75.996094 103.617188 75.734375 C 103.617188 75.460938 103.394531 75.246094 103.128906 75.246094 Z M 103.128906 75.246094 " fill-opacity="1" fill-rule="nonzero"/><path fill="#1a1a1a" d="M 99.074219 79.1875 L 36.183594 79.1875 C 35.914062 79.1875 35.699219 79.40625 35.699219 79.675781 C 35.699219 79.945312 35.914062 80.164062 36.183594 80.164062 L 99.074219 80.164062 C 99.34375 80.164062 99.5625 79.945312 99.5625 79.675781 C 99.5625 79.40625 99.34375 79.1875 99.074219 79.1875 Z M 99.074219 79.1875 " fill-opacity="1" fill-rule="nonzero"/><path fill="#1a1a1a" d="M 94.636719 83.144531 L 40.636719 83.144531 C 40.363281 83.144531 40.148438 83.359375 40.148438 83.632812 C 40.148438 83.902344 40.363281 84.117188 40.636719 84.117188 L 94.636719 84.117188 C 94.90625 84.117188 95.125 83.902344 95.125 83.632812 C 95.125 83.359375 94.90625 83.144531 94.636719 83.144531 Z M 94.636719 83.144531 " fill-opacity="1" fill-rule="nonzero"/><path fill="#1a1a1a" d="M 89.949219 87.085938 L 45.308594 87.085938 C 45.035156 87.085938 44.820312 87.308594 44.820312 87.574219 C 44.820312 87.84375 45.035156 88.0625 45.308594 88.0625 L 89.949219 88.0625 C 90.222656 88.0625 90.4375 87.84375 90.4375 87.574219 C 90.4375 87.308594 90.222656 87.085938 89.949219 87.085938 Z M 89.949219 87.085938 " fill-opacity="1" fill-rule="nonzero"/><path fill="#1a1a1a" d="M 85.214844 91.042969 L 46.902344 91.042969 C 46.628906 91.042969 46.414062 91.257812 46.414062 91.527344 C 46.414062 91.800781 46.628906 92.015625 46.902344 92.015625 L 85.214844 92.015625 C 85.488281 92.015625 85.703125 91.800781 85.703125 91.527344 C 85.703125 91.257812 85.488281 91.042969 85.214844 91.042969 Z M 85.214844 91.042969 " fill-opacity="1" fill-rule="nonzero"/><path fill="#1a1a1a" d="M 80.625 94.992188 L 48.328125 94.992188 C 48.054688 94.992188 47.832031 95.207031 47.832031 95.472656 C 47.832031 95.742188 48.054688 95.957031 48.328125 95.957031 L 80.625 95.957031 C 80.890625 95.957031 81.109375 95.742188 81.109375 95.472656 C 81.109375 95.207031 80.890625 94.992188 80.625 94.992188 Z M 80.625 94.992188 " fill-opacity="1" fill-rule="nonzero"/><path fill="#1a1a1a" d="M 76.332031 98.945312 L 49.746094 98.945312 C 49.480469 98.945312 49.257812 99.164062 49.257812 99.425781 C 49.257812 99.699219 49.480469 99.921875 49.746094 99.921875 L 76.332031 99.921875 C 76.605469 99.921875 76.820312 99.699219 76.820312 99.425781 C 76.820312 99.164062 76.605469 98.945312 76.332031 98.945312 Z M 76.332031 98.945312 " fill-opacity="1" fill-rule="nonzero"/><path fill="#1a1a1a" d="M 72.492188 102.890625 L 51.171875 102.890625 C 50.902344 102.890625 50.683594 103.105469 50.683594 103.375 C 50.683594 103.648438 50.902344 103.863281 51.171875 103.863281 L 72.492188 103.863281 C 72.757812 103.863281 72.980469 103.648438 72.980469 103.375 C 72.980469 103.105469 72.757812 102.890625 72.492188 102.890625 Z M 72.492188 102.890625 " fill-opacity="1" fill-rule="nonzero"/><path fill="#1a1a1a" d="M 69.183594 106.832031 L 52.59375 106.832031 C 52.320312 106.832031 52.097656 107.046875 52.097656 107.320312 C 52.097656 107.589844 52.320312 107.804688 52.59375 107.804688 L 69.183594 107.804688 C 69.449219 107.804688 69.671875 107.589844 69.671875 107.320312 C 69.671875 107.046875 69.449219 106.832031 69.183594 106.832031 Z M 69.183594 106.832031 " fill-opacity="1" fill-rule="nonzero"/><g clip-path="url(#93a19154af)"><path fill="#0cd4fc" d="M 53.359375 109.9375 C 53.199219 109.9375 53.042969 109.863281 52.957031 109.726562 C 47.703125 102.070312 40.15625 95.792969 32.15625 89.140625 C 24.839844 83.058594 17.277344 76.769531 11.691406 69.351562 C 0.257812 54.171875 1.566406 39.429688 1.582031 39.28125 C 1.582031 23.113281 14.210938 9.925781 29.742188 9.925781 C 39.363281 9.925781 48.136719 14.910156 53.359375 23.304688 C 55.628906 19.652344 58.699219 16.535156 62.265625 14.242188 C 66.691406 11.414062 71.777344 9.925781 76.976562 9.925781 C 92.507812 9.925781 105.140625 23.113281 105.140625 39.328125 C 105.15625 39.429688 106.449219 54.171875 95.019531 69.351562 C 89.4375 76.769531 81.875 83.058594 74.5625 89.140625 C 66.582031 95.773438 59.042969 102.046875 53.796875 109.679688 L 53.757812 109.726562 C 53.671875 109.851562 53.535156 109.929688 53.390625 109.9375 Z M 53.359375 109.9375 " fill-opacity="1" fill-rule="nonzero"/></g><g clip-path="url(#a9f80d946e)"><path fill="#1a1a1a" d="M 76.976562 9.429688 C 71.683594 9.429688 66.511719 10.960938 62.007812 13.835938 C 58.585938 16.023438 55.625 18.96875 53.359375 22.398438 C 48 14.25 39.285156 9.429688 29.742188 9.429688 C 13.957031 9.429688 1.117188 22.820312 1.09375 39.285156 C 0.992188 40.394531 -0.0234375 54.601562 11.300781 69.640625 C 16.917969 77.105469 24.507812 83.414062 31.839844 89.515625 C 39.816406 96.144531 47.339844 102.402344 52.550781 110.003906 C 52.734375 110.269531 53.035156 110.429688 53.359375 110.429688 L 53.417969 110.425781 C 53.710938 110.40625 53.976562 110.257812 54.140625 110.03125 L 54.199219 109.957031 C 59.40625 102.378906 66.917969 96.132812 74.875 89.515625 C 82.210938 83.414062 89.796875 77.105469 95.414062 69.640625 C 106.734375 54.601562 105.726562 40.390625 105.628906 39.285156 C 105.605469 22.820312 92.757812 9.429688 76.976562 9.429688 Z M 76.976562 10.410156 C 92.257812 10.410156 104.65625 23.355469 104.65625 39.328125 C 104.65625 39.328125 106.082031 53.851562 94.628906 69.054688 C 83.191406 84.253906 63.65625 94.472656 53.394531 109.402344 L 53.359375 109.449219 C 43.097656 94.492188 23.542969 84.273438 12.082031 69.054688 C 0.636719 53.851562 2.066406 39.328125 2.066406 39.328125 C 2.066406 23.355469 14.449219 10.410156 29.742188 10.410156 C 39.734375 10.410156 48.492188 15.949219 53.359375 24.246094 C 55.640625 20.34375 58.796875 17.050781 62.53125 14.65625 C 66.734375 11.96875 71.683594 10.410156 76.976562 10.410156 Z M 76.976562 10.410156 " fill-opacity="1" fill-rule="nonzero"/></g><path fill="#06aed4" d="M 53.394531 109.402344 C 53.609375 104.421875 55.679688 99.46875 58.0625 94.984375 C 60.46875 90.433594 63.210938 86.066406 65.96875 81.707031 C 66.4375 81.316406 66.90625 80.925781 67.375 80.539062 C 74.511719 74.597656 81.253906 69 86.054688 62.621094 C 94.710938 51.128906 93.976562 40.488281 93.96875 40.382812 L 93.914062 39.851562 L 93.914062 39.328125 C 93.914062 29.289062 86.316406 21.125 76.980469 21.125 C 76.683594 21.125 76.394531 21.128906 76.105469 21.148438 C 74.59375 19.320312 72.808594 17.742188 70.757812 16.554688 C 69.226562 15.667969 67.550781 15.023438 65.808594 14.675781 C 65.476562 14.605469 65.074219 14.582031 64.648438 14.582031 C 63.980469 14.582031 63.242188 14.636719 62.53125 14.65625 C 66.734375 11.96875 71.683594 10.410156 76.976562 10.410156 C 92.257812 10.410156 104.65625 23.355469 104.65625 39.328125 C 104.65625 39.328125 104.660156 39.367188 104.667969 39.441406 C 104.765625 40.832031 105.488281 54.640625 94.628906 69.054688 C 91.050781 73.816406 86.671875 78.09375 82.03125 82.171875 C 71.859375 91.117188 60.4375 99.148438 53.394531 109.402344 Z M 53.394531 109.402344 " fill-opacity="1" fill-rule="nonzero"/><path fill="#0e1516" d="M 82.03125 82.171875 C 86.671875 78.09375 91.050781 73.816406 94.628906 69.054688 C 105.488281 54.640625 104.765625 40.832031 104.667969 39.441406 C 104.765625 40.832031 105.488281 54.640625 94.628906 69.054688 C 91.050781 73.816406 86.671875 78.09375 82.03125 82.171875 Z M 82.03125 82.171875 " fill-opacity="1" fill-rule="nonzero"/><path fill="#fe5caf" d="M 53.359375 92.046875 C 53.234375 92.046875 53.109375 91.996094 53.019531 91.90625 C 48.773438 87.742188 44.136719 83.882812 39.65625 80.15625 C 32.535156 74.242188 25.820312 68.65625 21.0625 62.328125 C 12.945312 51.550781 13.183594 41.492188 13.242188 40.382812 L 13.289062 40 L 13.285156 39.328125 C 13.285156 29.558594 20.667969 21.609375 29.742188 21.609375 C 32.699219 21.609375 35.59375 22.46875 38.125 24.082031 C 40.363281 25.523438 42.285156 27.53125 43.667969 29.898438 L 53.351562 46.464844 L 63.050781 29.902344 C 66.09375 24.710938 71.300781 21.609375 76.980469 21.609375 C 86.050781 21.609375 93.425781 29.558594 93.425781 39.328125 L 93.425781 39.902344 L 93.480469 40.425781 C 93.492188 40.53125 94.082031 51.152344 85.667969 62.328125 C 80.894531 68.660156 74.179688 74.242188 67.074219 80.15625 C 62.585938 83.882812 57.957031 87.734375 53.703125 91.90625 C 53.605469 91.996094 53.480469 92.046875 53.359375 92.046875 Z M 53.359375 92.046875 " fill-opacity="1" fill-rule="nonzero"/><path fill="#1a1a1a" d="M 76.980469 21.125 C 71.125 21.125 65.757812 24.316406 62.628906 29.65625 L 53.351562 45.496094 L 44.09375 29.652344 C 42.667969 27.222656 40.699219 25.152344 38.382812 23.667969 C 35.777344 22.003906 32.789062 21.125 29.742188 21.125 C 20.402344 21.125 12.796875 29.289062 12.796875 39.328125 L 12.796875 40 L 12.757812 40.273438 L 12.753906 40.359375 C 12.699219 41.484375 12.449219 51.707031 20.667969 62.621094 C 25.46875 68.992188 32.203125 74.597656 39.332031 80.53125 C 43.816406 84.253906 48.4375 88.105469 52.679688 92.25 C 52.863281 92.441406 53.109375 92.535156 53.359375 92.535156 C 53.605469 92.535156 53.851562 92.441406 54.042969 92.257812 C 58.277344 88.105469 62.90625 84.253906 67.375 80.539062 C 74.511719 74.597656 81.253906 69 86.054688 62.621094 C 94.710938 51.128906 93.976562 40.488281 93.96875 40.382812 L 93.914062 39.851562 L 93.914062 39.328125 C 93.914062 29.289062 86.316406 21.125 76.980469 21.125 Z M 76.980469 22.097656 C 85.777344 22.097656 92.9375 29.828125 92.9375 39.328125 L 92.9375 39.902344 L 92.992188 40.476562 C 93.007812 40.574219 93.605469 50.96875 85.273438 62.039062 C 80.535156 68.320312 73.84375 73.890625 66.753906 79.785156 C 62.226562 83.550781 57.625 87.382812 53.359375 91.558594 C 49.097656 87.382812 44.488281 83.542969 39.964844 79.785156 C 32.875 73.890625 26.179688 68.320312 21.449219 62.039062 C 13.457031 51.417969 13.671875 41.578125 13.726562 40.40625 L 13.777344 40.070312 L 13.777344 39.328125 C 13.777344 29.828125 20.9375 22.097656 29.742188 22.097656 C 32.605469 22.097656 35.414062 22.929688 37.859375 24.496094 C 40.035156 25.886719 41.902344 27.847656 43.246094 30.144531 L 53.351562 47.425781 L 63.476562 30.148438 C 66.425781 25.105469 71.476562 22.097656 76.980469 22.097656 Z M 76.980469 22.097656 " fill-opacity="1" fill-rule="nonzero"/><path fill="#e54593" d="M 56.625 53.46875 L 53.351562 47.425781 L 63.476562 30.148438 C 63.480469 30.136719 63.488281 30.132812 63.488281 30.117188 C 63.492188 30.117188 63.492188 30.113281 63.492188 30.113281 C 63.5 30.105469 63.5 30.101562 63.507812 30.09375 C 63.507812 30.089844 63.511719 30.089844 63.511719 30.082031 C 63.519531 30.074219 63.519531 30.070312 63.523438 30.0625 C 63.523438 30.058594 63.523438 30.058594 63.53125 30.050781 C 63.53125 30.046875 63.535156 30.039062 63.535156 30.039062 C 63.542969 30.03125 63.542969 30.027344 63.550781 30.019531 C 63.550781 30.019531 63.554688 30.015625 63.554688 30.007812 C 63.5625 30.003906 63.5625 30.003906 63.5625 29.996094 C 63.566406 29.988281 63.566406 29.984375 63.574219 29.984375 C 63.574219 29.976562 63.582031 29.972656 63.582031 29.964844 C 63.585938 29.957031 63.585938 29.957031 63.585938 29.953125 C 63.59375 29.945312 63.597656 29.941406 63.597656 29.933594 C 63.597656 29.933594 63.605469 29.933594 63.605469 29.929688 C 63.605469 29.921875 63.609375 29.914062 63.617188 29.910156 C 63.617188 29.910156 63.617188 29.902344 63.617188 29.902344 C 66.328125 25.449219 70.691406 22.640625 75.542969 22.171875 C 74.265625 23.324219 73.136719 24.699219 72.214844 26.269531 Z M 56.625 53.46875 " fill-opacity="1" fill-rule="nonzero"/><path fill="#181316" d="M 63.476562 30.148438 C 63.480469 30.136719 63.488281 30.132812 63.488281 30.117188 C 63.488281 30.132812 63.480469 30.136719 63.476562 30.148438 Z M 63.492188 30.113281 C 63.5 30.105469 63.5 30.101562 63.507812 30.09375 C 63.5 30.101562 63.5 30.105469 63.492188 30.113281 Z M 63.511719 30.082031 C 63.519531 30.074219 63.519531 30.070312 63.523438 30.0625 C 63.519531 30.070312 63.519531 30.074219 63.511719 30.082031 Z M 63.53125 30.050781 C 63.53125 30.046875 63.535156 30.039062 63.535156 30.039062 C 63.535156 30.039062 63.53125 30.046875 63.53125 30.050781 Z M 63.550781 30.019531 C 63.550781 30.019531 63.554688 30.015625 63.554688 30.007812 C 63.554688 30.015625 63.550781 30.019531 63.550781 30.019531 Z M 63.5625 29.996094 C 63.566406 29.988281 63.566406 29.984375 63.574219 29.984375 C 63.566406 29.984375 63.566406 29.988281 63.5625 29.996094 Z M 63.582031 29.964844 C 63.585938 29.957031 63.585938 29.957031 63.585938 29.953125 C 63.585938 29.957031 63.585938 29.957031 63.582031 29.964844 Z M 63.597656 29.933594 C 63.597656 29.933594 63.605469 29.933594 63.605469 29.929688 C 63.605469 29.933594 63.597656 29.933594 63.597656 29.933594 Z M 63.617188 29.910156 C 63.617188 29.910156 63.617188 29.902344 63.617188 29.902344 C 63.617188 29.902344 63.617188 29.910156 63.617188 29.910156 Z M 63.617188 29.910156 " fill-opacity="1" fill-rule="nonzero"/><path fill="#e54593" d="M 53.359375 91.558594 C 49.179688 87.464844 44.667969 83.699219 40.226562 80.007812 C 40.140625 79.933594 40.054688 79.859375 39.964844 79.785156 C 39.785156 79.640625 39.605469 79.484375 39.425781 79.335938 C 32.535156 73.609375 26.0625 68.160156 21.449219 62.039062 C 21.222656 61.734375 21.007812 61.433594 20.789062 61.132812 C 14.246094 51.957031 13.714844 43.542969 13.714844 41.035156 C 13.714844 40.738281 13.722656 40.523438 13.726562 40.40625 L 13.777344 40.070312 L 13.777344 39.328125 C 13.777344 38.375 13.84375 37.4375 13.988281 36.527344 C 15.15625 28.851562 21.042969 22.875 28.316406 22.171875 C 24.777344 25.339844 22.519531 30.113281 22.519531 35.449219 L 22.519531 36.1875 L 22.476562 36.527344 C 22.414062 37.695312 22.199219 47.535156 30.191406 58.15625 C 34.925781 64.441406 41.625 70.007812 48.710938 75.90625 C 52.464844 79.023438 56.257812 82.207031 59.882812 85.585938 C 57.660156 87.511719 55.46875 89.488281 53.359375 91.558594 Z M 53.359375 91.558594 " fill-opacity="1" fill-rule="nonzero"/><path fill="#181316" d="M 53.359375 91.558594 C 55.46875 89.488281 57.660156 87.511719 59.882812 85.585938 C 57.660156 87.511719 55.46875 89.488281 53.359375 91.558594 Z M 40.226562 80.007812 C 40.140625 79.933594 40.054688 79.859375 39.964844 79.785156 C 39.785156 79.640625 39.605469 79.484375 39.425781 79.335938 C 39.605469 79.484375 39.785156 79.640625 39.964844 79.785156 C 40.054688 79.859375 40.140625 79.933594 40.226562 80.007812 Z M 21.449219 62.039062 C 21.222656 61.734375 21.007812 61.433594 20.789062 61.132812 C 21.007812 61.433594 21.222656 61.734375 21.449219 62.039062 Z M 13.714844 41.035156 C 13.714844 40.738281 13.722656 40.523438 13.726562 40.40625 C 13.722656 40.523438 13.714844 40.738281 13.714844 41.035156 Z M 13.726562 40.40625 L 13.777344 40.070312 L 13.777344 39.328125 C 13.777344 38.375 13.84375 37.4375 13.988281 36.527344 C 13.84375 37.4375 13.777344 38.375 13.777344 39.328125 L 13.777344 40.070312 Z M 13.726562 40.40625 " fill-opacity="1" fill-rule="nonzero"/></svg>