<svg xmlns="http://www.w3.org/2000/svg" xmlns:xlink="http://www.w3.org/1999/xlink" width="160" zoomAndPan="magnify" viewBox="0 0 120 119.999999" height="160" preserveAspectRatio="xMidYMid meet" version="1.0"><path fill="#fd97ea" d="M 74.28125 98.199219 C 74.886719 106.484375 78.9375 117.988281 89.488281 115.269531 C 93.269531 114.300781 96.417969 111.589844 98.699219 108.417969 C 108.410156 94.910156 102.289062 76.574219 87.65625 69.851562 C 84.964844 68.613281 81.972656 67.828125 79.035156 68.230469 C 76.035156 68.636719 72.808594 70.765625 71.210938 73.390625 C 69.101562 76.863281 70.984375 80.621094 72.316406 83.925781 C 74.128906 88.421875 73.929688 93.4375 74.28125 98.199219 Z M 74.28125 98.199219 " fill-opacity="1" fill-rule="nonzero"/><path fill="#fd97ea" d="M 39.535156 90.644531 C 36.882812 96.386719 35.804688 102.769531 37.839844 108.511719 C 43.242188 123.753906 60.792969 117.949219 68.34375 107.832031 C 72.847656 101.789062 74.121094 94.363281 73.855469 86.988281 C 73.699219 82.734375 72.308594 75.355469 68.585938 72.886719 C 62.53125 68.875 52.757812 74.492188 48.269531 78.625 C 44.871094 81.75 41.683594 85.988281 39.535156 90.644531 Z M 39.535156 90.644531 " fill-opacity="1" fill-rule="nonzero"/><path fill="#fd97ea" d="M 24.605469 57.835938 C 23.515625 58.289062 22.445312 58.847656 21.382812 59.539062 C 16.90625 62.453125 12.972656 66.378906 10.78125 71.316406 C 8.539062 76.363281 8.441406 82.585938 10.992188 87.539062 C 14.117188 93.617188 20.714844 94.714844 27 93.3125 C 32.261719 92.136719 36.976562 89.230469 41.308594 86.007812 C 44.640625 83.53125 47.859375 80.792969 50.1875 77.351562 C 52.519531 73.914062 53.90625 69.675781 53.261719 65.566406 C 51.828125 56.40625 41.824219 55.003906 34.199219 55.777344 C 30.75 56.125 27.613281 56.585938 24.605469 57.835938 Z M 24.605469 57.835938 " fill-opacity="1" fill-rule="nonzero"/><path fill="#fd97ea" d="M 28.5 24.957031 C 19.863281 25.8125 11.835938 31.378906 7.992188 39.179688 C 4.835938 45.582031 5.757812 53.195312 12.871094 56.320312 C 17 58.136719 22.222656 58.164062 26.597656 57.304688 C 29.914062 56.65625 32.8125 54.792969 36.058594 53.941406 C 39.382812 53.070312 42.660156 54.039062 46.011719 53.160156 C 47.820312 52.6875 49.570312 51.710938 50.601562 50.144531 C 51.902344 48.167969 51.871094 45.625 51.792969 43.253906 C 51.679688 39.738281 50.140625 35.554688 47.878906 32.839844 C 43.101562 27.105469 35.78125 24.234375 28.5 24.957031 Z M 28.5 24.957031 " fill-opacity="1" fill-rule="nonzero"/><path fill="#fd97ea" d="M 57.460938 7.851562 C 51.964844 2.308594 43.4375 0 35.90625 2.011719 C 31.371094 3.226562 27.082031 6.101562 25.132812 10.378906 C 23.179688 14.660156 24.128906 20.359375 27.953125 23.085938 C 32.695312 26.460938 39.839844 24.519531 44.464844 28.050781 C 46.984375 29.976562 48.367188 33.285156 51.222656 34.652344 C 56.703125 37.273438 63.121094 31.675781 63.773438 26.339844 C 64.585938 19.6875 62.171875 12.601562 57.460938 7.855469 Z M 57.460938 7.851562 " fill-opacity="1" fill-rule="nonzero"/><path fill="#fd97ea" d="M 83.671875 20.980469 C 83.636719 20.753906 83.601562 20.53125 83.5625 20.3125 C 82.804688 16.066406 80.660156 11.964844 77.183594 9.421875 C 71.757812 5.457031 63.480469 6.1875 61.113281 13.171875 C 60.066406 16.257812 61.164062 18.628906 62.058594 21.546875 C 62.964844 24.519531 62.046875 28.160156 63.492188 30.90625 C 64.4375 32.710938 66.40625 33.703125 68.304688 34.4375 C 71.957031 35.847656 78.980469 38.988281 81.550781 34.746094 C 84.070312 30.589844 84.386719 25.691406 83.671875 20.980469 Z M 83.671875 20.980469 " fill-opacity="1" fill-rule="nonzero"/><path fill="#fd97ea" d="M 96.691406 32.75 C 101.988281 35.679688 106.3125 41.074219 107.261719 46.503906 C 108.15625 51.625 105.378906 59.378906 99.390625 59.589844 C 96.367188 59.691406 92.195312 58.9375 90.371094 56.246094 C 88.722656 53.8125 89.195312 50.488281 87.960938 47.816406 C 87.078125 45.914062 85.414062 44.519531 83.820312 43.15625 C 82.230469 41.796875 80.605469 40.328125 79.855469 38.371094 C 77.886719 33.222656 83.328125 30.914062 87.503906 30.550781 C 90.59375 30.277344 93.789062 31.144531 96.691406 32.75 Z M 96.691406 32.75 " fill-opacity="1" fill-rule="nonzero"/><path fill="#fd97ea" d="M 105.632812 64.347656 C 111.113281 69.40625 115.046875 77.734375 113.140625 84.890625 C 111.390625 91.457031 101.605469 98.25 96.917969 90.5 C 95.453125 88.082031 95.699219 85.144531 94.761719 82.550781 C 93.722656 79.660156 91.515625 77.515625 89.519531 75.273438 C 86.058594 71.386719 83.679688 64.179688 89.371094 60.867188 C 93.566406 58.425781 98.484375 59.433594 102.433594 61.890625 C 103.535156 62.578125 104.609375 63.40625 105.632812 64.347656 Z M 105.632812 64.347656 " fill-opacity="1" fill-rule="nonzero"/><path fill="#fece14" d="M 92.535156 48.320312 C 95.050781 56.632812 94.371094 66.046875 89.296875 73.828125 C 85.402344 79.800781 79.210938 84.058594 72.722656 84.890625 C 60.734375 86.429688 48.9375 76.105469 44.425781 64.808594 C 39.621094 52.789062 42.164062 35.089844 54.703125 28.914062 C 58.957031 26.820312 63.679688 26.265625 68.164062 26.816406 C 76.738281 27.871094 84.761719 33.289062 89.347656 41.046875 C 90.691406 43.316406 91.765625 45.765625 92.535156 48.320312 Z M 92.535156 48.320312 " fill-opacity="1" fill-rule="nonzero"/><path fill="#000000" d="M 86.460938 116.117188 C 84.375 116.117188 82.488281 115.511719 80.816406 114.308594 C 78.710938 112.789062 77.011719 110.371094 75.761719 107.121094 C 74.753906 104.5 74.074219 101.34375 73.84375 98.230469 C 73.769531 97.199219 73.71875 96.140625 73.667969 95.117188 C 73.601562 93.742188 73.535156 92.324219 73.40625 90.9375 C 73.402344 90.917969 73.402344 90.898438 73.402344 90.878906 C 73.460938 89.632812 73.464844 88.328125 73.417969 87.003906 C 73.390625 86.300781 73.332031 85.558594 73.246094 84.792969 C 73.21875 84.5625 73.375 84.351562 73.601562 84.3125 C 79.339844 83.277344 84.769531 79.601562 88.503906 74.226562 C 88.65625 74.003906 88.796875 73.796875 88.929688 73.589844 C 89.421875 72.835938 89.878906 72.054688 90.289062 71.273438 C 90.34375 71.164062 90.441406 71.085938 90.558594 71.054688 C 90.675781 71.023438 90.800781 71.039062 90.902344 71.105469 C 98.859375 76.046875 103.816406 84.78125 103.839844 93.898438 C 103.851562 99.1875 102.199219 104.300781 99.050781 108.675781 C 97.207031 111.242188 94.066406 114.546875 89.597656 115.699219 C 88.507812 115.976562 87.460938 116.117188 86.460938 116.117188 Z M 74.277344 90.886719 C 74.40625 92.28125 74.472656 93.699219 74.539062 95.074219 C 74.589844 96.09375 74.640625 97.144531 74.714844 98.167969 C 75.113281 103.609375 77.058594 110.523438 81.324219 113.597656 C 83.582031 115.21875 86.289062 115.640625 89.378906 114.847656 C 93.597656 113.761719 96.582031 110.613281 98.34375 108.160156 C 101.382812 103.9375 102.980469 99.003906 102.964844 93.898438 C 102.945312 85.230469 98.308594 76.917969 90.839844 72.09375 C 90.476562 72.761719 90.082031 73.421875 89.664062 74.066406 C 89.523438 74.277344 89.378906 74.496094 89.21875 74.722656 C 85.441406 80.164062 79.96875 83.921875 74.15625 85.09375 C 74.222656 85.742188 74.265625 86.371094 74.289062 86.972656 C 74.339844 88.308594 74.335938 89.625 74.277344 90.886719 Z M 74.277344 90.886719 " fill-opacity="1" fill-rule="nonzero"/><path fill="#000000" d="M 50.058594 118.265625 C 49.320312 118.265625 48.597656 118.214844 47.898438 118.109375 C 44.464844 117.589844 39.863281 115.523438 37.425781 108.65625 C 35.023438 101.882812 37.03125 95.023438 39.136719 90.460938 C 40.070312 88.433594 41.222656 86.441406 42.558594 84.53125 C 44.1875 82.203125 46.007812 80.109375 47.972656 78.300781 C 48.683594 77.648438 49.484375 76.992188 50.351562 76.351562 C 50.691406 76.097656 51.046875 75.847656 51.40625 75.605469 C 51.582031 75.484375 51.820312 75.511719 51.96875 75.664062 C 58.117188 82.132812 65.640625 85.339844 72.621094 84.464844 C 72.621094 84.464844 72.636719 84.460938 72.652344 84.460938 C 72.652344 84.460938 72.664062 84.457031 72.667969 84.457031 C 72.996094 84.414062 73.300781 84.367188 73.597656 84.3125 C 73.71875 84.289062 73.839844 84.320312 73.9375 84.390625 C 74.035156 84.460938 74.097656 84.574219 74.113281 84.691406 C 74.203125 85.480469 74.261719 86.246094 74.289062 86.972656 C 74.335938 88.320312 74.332031 89.648438 74.273438 90.917969 C 73.96875 97.757812 72.089844 103.535156 68.691406 108.09375 C 66.3125 111.28125 62.960938 114.058594 59.25 115.914062 C 56.15625 117.460938 52.96875 118.269531 50.058594 118.269531 Z M 51.59375 76.535156 C 51.347656 76.707031 51.105469 76.882812 50.871094 77.054688 C 50.027344 77.675781 49.25 78.3125 48.5625 78.945312 C 46.671875 80.683594 44.84375 82.789062 43.273438 85.035156 C 41.96875 86.898438 40.84375 88.851562 39.929688 90.828125 C 37.890625 95.242188 35.945312 101.867188 38.25 108.363281 C 40.0625 113.476562 43.445312 116.546875 48.03125 117.246094 C 48.675781 117.34375 49.339844 117.390625 50.019531 117.390625 C 56.21875 117.390625 63.617188 113.433594 67.992188 107.570312 C 71.285156 103.15625 73.105469 97.539062 73.40625 90.878906 C 73.460938 89.632812 73.464844 88.328125 73.417969 87.003906 C 73.394531 86.445312 73.355469 85.855469 73.296875 85.253906 C 73.128906 85.277344 72.957031 85.304688 72.78125 85.328125 C 72.777344 85.328125 72.761719 85.328125 72.746094 85.332031 C 72.742188 85.332031 72.730469 85.332031 72.726562 85.332031 C 65.570312 86.230469 57.886719 83.03125 51.59375 76.539062 Z M 51.59375 76.535156 " fill-opacity="1" fill-rule="nonzero"/><path fill="#000000" d="M 22.296875 94.292969 C 20.648438 94.292969 19.09375 94.078125 17.683594 93.652344 C 14.507812 92.683594 12.125 90.695312 10.605469 87.742188 C 8.089844 82.855469 8.003906 76.496094 10.382812 71.140625 C 12.410156 66.574219 16.128906 62.4375 21.144531 59.171875 C 22.207031 58.480469 23.285156 57.914062 24.4375 57.433594 C 24.710938 57.320312 24.992188 57.210938 25.296875 57.097656 C 26.601562 56.621094 28.003906 56.246094 29.582031 55.957031 C 31.183594 55.660156 32.792969 55.480469 34.15625 55.339844 C 37.070312 55.046875 39.921875 55.109375 42.394531 55.523438 C 42.589844 55.554688 42.738281 55.714844 42.757812 55.910156 C 43.058594 59.015625 43.753906 61.953125 44.828125 64.644531 C 46.34375 68.4375 48.683594 72.109375 51.59375 75.265625 C 51.722656 75.402344 51.746094 75.605469 51.660156 75.773438 C 51.445312 76.171875 51.214844 76.5625 50.980469 76.9375 C 50.949219 76.984375 50.914062 77.023438 50.867188 77.058594 C 50.027344 77.675781 49.25 78.3125 48.5625 78.945312 C 46.671875 80.6875 44.84375 82.792969 43.273438 85.035156 C 43.25 85.070312 43.21875 85.101562 43.183594 85.128906 C 42.6875 85.519531 42.160156 85.921875 41.570312 86.363281 C 37.859375 89.121094 32.859375 92.457031 27.09375 93.742188 C 25.4375 94.109375 23.828125 94.296875 22.296875 94.296875 Z M 37.71875 56.035156 C 36.585938 56.035156 35.421875 56.09375 34.246094 56.210938 C 32.898438 56.347656 31.3125 56.527344 29.742188 56.816406 C 28.210938 57.097656 26.855469 57.460938 25.597656 57.917969 C 25.300781 58.027344 25.03125 58.132812 24.773438 58.242188 C 23.667969 58.699219 22.636719 59.246094 21.617188 59.90625 C 16.746094 63.078125 13.136719 67.085938 11.179688 71.496094 C 8.90625 76.617188 8.984375 82.6875 11.378906 87.339844 C 15.132812 94.636719 23.484375 93.648438 26.902344 92.886719 C 32.507812 91.636719 37.40625 88.367188 41.050781 85.65625 C 41.617188 85.238281 42.121094 84.851562 42.597656 84.476562 C 44.21875 82.171875 46.027344 80.09375 47.972656 78.300781 C 48.667969 77.664062 49.445312 77.023438 50.285156 76.398438 C 50.441406 76.148438 50.59375 75.890625 50.742188 75.628906 C 47.859375 72.445312 45.535156 68.765625 44.019531 64.96875 C 42.953125 62.300781 42.25 59.394531 41.921875 56.332031 C 40.609375 56.132812 39.191406 56.035156 37.71875 56.035156 Z M 37.71875 56.035156 " fill-opacity="1" fill-rule="nonzero"/><path fill="#000000" d="M 21.007812 58.289062 C 18.445312 58.289062 15.457031 57.933594 12.695312 56.722656 C 9.699219 55.40625 7.570312 53.210938 6.539062 50.371094 C 5.3125 46.996094 5.699219 42.84375 7.601562 38.984375 C 11.503906 31.066406 19.691406 25.386719 28.460938 24.519531 C 29.78125 24.390625 31.121094 24.375 32.4375 24.472656 C 33.679688 24.566406 34.917969 24.761719 36.125 25.058594 C 40.914062 26.214844 45.09375 28.808594 48.214844 32.558594 C 48.441406 32.832031 48.664062 33.121094 48.878906 33.421875 C 48.992188 33.589844 48.980469 33.8125 48.847656 33.964844 C 44.65625 38.75 42.378906 45.886719 42.605469 53.554688 C 42.609375 53.671875 42.566406 53.785156 42.484375 53.871094 C 42.394531 53.960938 42.273438 54.003906 42.148438 54.003906 C 41.765625 54.003906 41.382812 53.996094 41.007812 53.992188 C 39.34375 53.96875 37.769531 53.945312 36.171875 54.363281 C 34.722656 54.746094 33.308594 55.34375 31.9375 55.925781 C 31.25 56.21875 30.535156 56.523438 29.816406 56.796875 C 29.792969 56.808594 29.765625 56.8125 29.738281 56.820312 C 28.210938 57.101562 26.855469 57.460938 25.597656 57.917969 C 25.570312 57.929688 25.542969 57.9375 25.515625 57.941406 C 24.375 58.117188 22.796875 58.289062 21.007812 58.289062 Z M 30.722656 25.285156 C 29.996094 25.285156 29.269531 25.320312 28.546875 25.394531 C 20.070312 26.230469 12.15625 31.71875 8.382812 39.375 C 6.585938 43.019531 6.214844 46.917969 7.359375 50.070312 C 8.308594 52.679688 10.273438 54.703125 13.046875 55.921875 C 17.511719 57.882812 22.648438 57.496094 25.339844 57.082031 C 26.621094 56.617188 27.996094 56.25 29.542969 55.964844 C 30.230469 55.699219 30.925781 55.40625 31.597656 55.121094 C 32.996094 54.527344 34.441406 53.914062 35.949219 53.519531 C 37.664062 53.070312 39.371094 53.09375 41.019531 53.117188 C 41.25 53.121094 41.488281 53.125 41.722656 53.125 C 41.59375 45.550781 43.855469 38.5 47.964844 33.652344 C 47.828125 33.46875 47.6875 33.289062 47.546875 33.121094 C 44.542969 29.515625 40.523438 27.023438 35.921875 25.90625 C 34.761719 25.625 33.566406 25.4375 32.371094 25.347656 C 31.828125 25.304688 31.277344 25.285156 30.722656 25.285156 Z M 30.722656 25.285156 " fill-opacity="1" fill-rule="nonzero"/><path fill="#000000" d="M 49.070312 33.515625 C 48.953125 33.515625 48.84375 33.46875 48.761719 33.386719 C 48.105469 32.738281 47.507812 31.996094 46.929688 31.28125 C 46.09375 30.253906 45.230469 29.1875 44.203125 28.402344 C 41.945312 26.679688 39.085938 26.3125 36.058594 25.929688 L 35.96875 25.917969 C 35.953125 25.914062 35.9375 25.910156 35.921875 25.90625 C 34.761719 25.625 33.566406 25.4375 32.371094 25.347656 C 32.351562 25.347656 32.332031 25.34375 32.3125 25.339844 C 30.398438 24.921875 28.933594 24.320312 27.699219 23.445312 C 23.890625 20.726562 22.585938 14.910156 24.734375 10.199219 C 26.570312 6.167969 30.707031 2.949219 35.792969 1.589844 C 39.5625 0.582031 43.632812 0.613281 47.558594 1.675781 C 51.488281 2.742188 55.019531 4.769531 57.769531 7.542969 C 59.265625 9.050781 60.546875 10.796875 61.578125 12.734375 C 63.832031 16.953125 64.765625 21.804688 64.207031 26.390625 C 64.195312 26.5 64.179688 26.609375 64.164062 26.714844 C 64.128906 26.921875 63.957031 27.074219 63.75 27.082031 C 63.378906 27.101562 63 27.125 62.632812 27.160156 C 59.867188 27.417969 57.265625 28.140625 54.898438 29.308594 C 52.84375 30.316406 50.992188 31.6875 49.386719 33.378906 C 49.304688 33.464844 49.195312 33.511719 49.078125 33.515625 C 49.074219 33.515625 49.074219 33.515625 49.070312 33.515625 Z M 36.101562 25.050781 L 36.167969 25.058594 C 39.175781 25.441406 42.289062 25.839844 44.730469 27.703125 C 45.84375 28.554688 46.738281 29.660156 47.605469 30.730469 C 48.078125 31.3125 48.558594 31.90625 49.070312 32.449219 C 50.671875 30.832031 52.5 29.511719 54.511719 28.523438 C 56.976562 27.308594 59.679688 26.558594 62.550781 26.289062 C 62.816406 26.265625 63.082031 26.242188 63.347656 26.226562 C 63.871094 21.835938 62.972656 17.191406 60.808594 13.144531 C 59.816406 11.28125 58.585938 9.605469 57.152344 8.160156 C 51.734375 2.699219 43.4375 0.453125 36.015625 2.4375 C 31.179688 3.726562 27.257812 6.765625 25.527344 10.558594 C 23.550781 14.902344 24.726562 20.25 28.207031 22.730469 C 29.332031 23.53125 30.6875 24.085938 32.46875 24.476562 C 33.691406 24.570312 34.914062 24.761719 36.101562 25.050781 Z M 63.730469 26.648438 Z M 63.730469 26.648438 " fill-opacity="1" fill-rule="nonzero"/><path fill="#000000" d="M 36.023438 25.921875 C 36.007812 25.921875 35.988281 25.917969 35.96875 25.917969 C 34.828125 25.769531 33.535156 25.605469 32.3125 25.339844 C 32.085938 25.289062 31.941406 25.074219 31.972656 24.847656 C 32.007812 24.621094 32.207031 24.457031 32.4375 24.476562 C 33.679688 24.566406 34.921875 24.765625 36.128906 25.058594 C 36.351562 25.113281 36.496094 25.335938 36.453125 25.5625 C 36.414062 25.773438 36.230469 25.921875 36.023438 25.921875 Z M 36.023438 25.921875 " fill-opacity="1" fill-rule="nonzero"/><path fill="#000000" d="M 82.445312 33.480469 C 82.34375 33.480469 82.246094 33.449219 82.167969 33.382812 C 81.921875 33.183594 81.671875 32.984375 81.417969 32.792969 C 77.421875 29.746094 72.820312 27.832031 68.113281 27.25 C 66.648438 27.070312 65.179688 27.015625 63.753906 27.082031 C 63.621094 27.089844 63.492188 27.035156 63.40625 26.9375 C 63.320312 26.839844 63.28125 26.707031 63.300781 26.578125 C 63.316406 26.480469 63.328125 26.382812 63.339844 26.285156 C 63.878906 21.875 62.980469 17.210938 60.808594 13.144531 C 60.75 13.035156 60.742188 12.90625 60.785156 12.789062 C 61.824219 9.941406 63.957031 7.898438 66.789062 7.035156 C 70.214844 5.992188 74.296875 6.769531 77.441406 9.070312 C 80.773438 11.503906 83.160156 15.574219 83.992188 20.234375 C 84.023438 20.425781 84.0625 20.636719 84.101562 20.914062 C 84.726562 25.019531 84.484375 28.699219 83.386719 31.855469 C 83.222656 32.324219 83.039062 32.78125 82.84375 33.222656 C 82.785156 33.347656 82.675781 33.4375 82.546875 33.46875 C 82.511719 33.476562 82.480469 33.480469 82.445312 33.480469 Z M 64.933594 26.179688 C 66.019531 26.179688 67.121094 26.25 68.21875 26.382812 C 73.078125 26.980469 77.824219 28.957031 81.945312 32.09375 C 82.054688 32.175781 82.160156 32.261719 82.269531 32.34375 C 82.371094 32.089844 82.46875 31.828125 82.5625 31.566406 C 83.613281 28.546875 83.84375 25.007812 83.242188 21.046875 C 83.199219 20.78125 83.164062 20.578125 83.132812 20.390625 C 82.339844 15.949219 80.078125 12.082031 76.925781 9.777344 C 74 7.636719 70.214844 6.90625 67.042969 7.871094 C 65.261719 8.414062 62.902344 9.730469 61.671875 12.910156 C 63.828125 17.027344 64.734375 21.726562 64.230469 26.191406 C 64.464844 26.183594 64.699219 26.179688 64.9375 26.179688 Z M 82.972656 31.710938 Z M 82.972656 31.710938 " fill-opacity="1" fill-rule="nonzero"/><path fill="#000000" d="M 98.851562 60.035156 C 97.617188 60.035156 95.691406 59.898438 93.789062 59.210938 C 93.613281 59.144531 93.496094 58.976562 93.503906 58.785156 C 93.613281 55.320312 93.144531 51.84375 92.117188 48.449219 C 91.355469 45.929688 90.296875 43.511719 88.972656 41.273438 C 87.195312 38.261719 84.90625 35.609375 82.167969 33.382812 C 82.015625 33.257812 81.964844 33.046875 82.046875 32.863281 C 82.234375 32.445312 82.40625 32.007812 82.5625 31.566406 C 82.601562 31.457031 82.683594 31.363281 82.789062 31.3125 C 84.132812 30.6875 85.792969 30.261719 87.464844 30.113281 C 90.492188 29.847656 93.753906 30.625 96.902344 32.363281 C 102.507812 35.464844 106.742188 40.984375 107.691406 46.429688 C 108.3125 49.980469 107.214844 54.351562 105.027344 57.058594 C 103.519531 58.925781 101.574219 59.949219 99.40625 60.027344 C 99.242188 60.03125 99.054688 60.035156 98.851562 60.035156 Z M 99.390625 59.589844 Z M 94.382812 58.488281 C 96.363281 59.144531 98.34375 59.1875 99.375 59.152344 C 101.28125 59.082031 103.003906 58.167969 104.347656 56.507812 C 106.390625 53.984375 107.410156 49.902344 106.828125 46.578125 C 105.9375 41.46875 101.78125 36.0625 96.480469 33.128906 C 93.484375 31.476562 90.394531 30.734375 87.539062 30.984375 C 86.035156 31.117188 84.546875 31.488281 83.324219 32.03125 C 83.214844 32.332031 83.101562 32.625 82.976562 32.914062 C 85.679688 35.164062 87.949219 37.820312 89.726562 40.824219 C 91.085938 43.125 92.171875 45.605469 92.953125 48.195312 C 93.976562 51.574219 94.457031 55.035156 94.382812 58.488281 Z M 94.382812 58.488281 " fill-opacity="1" fill-rule="nonzero"/><path fill="#000000" d="M 70.332031 85.480469 C 63.785156 85.480469 56.984375 82.210938 51.335938 76.269531 C 51.207031 76.132812 51.078125 75.996094 50.953125 75.859375 C 47.972656 72.625 45.574219 68.859375 44.019531 64.972656 C 42.914062 62.203125 42.195312 59.183594 41.886719 55.996094 C 41.808594 55.1875 41.757812 54.375 41.734375 53.578125 C 41.5 45.695312 43.855469 38.335938 48.195312 33.386719 C 48.367188 33.191406 48.550781 32.988281 48.753906 32.777344 C 50.429688 31.011719 52.367188 29.578125 54.511719 28.523438 C 56.976562 27.308594 59.679688 26.558594 62.550781 26.289062 C 62.933594 26.253906 63.324219 26.226562 63.710938 26.210938 C 65.1875 26.140625 66.707031 26.199219 68.21875 26.382812 C 73.078125 26.980469 77.824219 28.957031 81.945312 32.097656 C 82.207031 32.292969 82.46875 32.496094 82.722656 32.707031 C 85.535156 34.996094 87.894531 37.726562 89.726562 40.824219 C 91.085938 43.128906 92.171875 45.605469 92.953125 48.195312 C 94.007812 51.679688 94.488281 55.253906 94.375 58.8125 C 94.371094 59.03125 94.359375 59.261719 94.347656 59.511719 C 94.113281 63.855469 93.007812 67.949219 91.0625 71.675781 C 90.640625 72.484375 90.167969 73.289062 89.664062 74.066406 C 89.523438 74.277344 89.378906 74.496094 89.21875 74.726562 C 85.355469 80.289062 79.71875 84.097656 73.757812 85.171875 C 73.445312 85.230469 73.125 85.28125 72.78125 85.324219 C 72.777344 85.324219 72.761719 85.328125 72.746094 85.328125 C 72.742188 85.328125 72.730469 85.332031 72.726562 85.332031 C 71.933594 85.429688 71.136719 85.480469 70.332031 85.480469 Z M 64.933594 27.054688 C 64.539062 27.054688 64.144531 27.066406 63.75 27.082031 C 63.378906 27.101562 63 27.125 62.628906 27.160156 C 59.867188 27.417969 57.265625 28.140625 54.894531 29.308594 C 52.84375 30.316406 50.988281 31.6875 49.386719 33.378906 C 49.191406 33.582031 49.015625 33.777344 48.851562 33.964844 C 44.65625 38.746094 42.378906 45.886719 42.609375 53.550781 C 42.628906 54.328125 42.679688 55.121094 42.757812 55.910156 C 43.058594 59.015625 43.753906 61.953125 44.828125 64.644531 C 46.34375 68.4375 48.683594 72.109375 51.59375 75.265625 C 51.71875 75.398438 51.839844 75.53125 51.964844 75.664062 C 58.117188 82.132812 65.644531 85.339844 72.621094 84.460938 C 72.621094 84.460938 72.636719 84.460938 72.652344 84.460938 C 72.65625 84.460938 72.664062 84.457031 72.667969 84.457031 C 72.996094 84.414062 73.300781 84.367188 73.601562 84.3125 C 79.339844 83.277344 84.769531 79.601562 88.503906 74.226562 C 88.65625 74.003906 88.796875 73.792969 88.929688 73.585938 C 89.421875 72.832031 89.878906 72.054688 90.289062 71.269531 C 92.175781 67.652344 93.25 63.683594 93.476562 59.464844 C 93.488281 59.222656 93.496094 59 93.503906 58.785156 C 93.613281 55.320312 93.144531 51.84375 92.121094 48.449219 C 91.355469 45.929688 90.300781 43.511719 88.972656 41.273438 C 87.195312 38.261719 84.90625 35.609375 82.167969 33.382812 C 81.921875 33.183594 81.671875 32.984375 81.417969 32.792969 C 77.417969 29.746094 72.820312 27.832031 68.113281 27.25 C 67.050781 27.121094 65.984375 27.054688 64.933594 27.054688 Z M 64.933594 27.054688 " fill-opacity="1" fill-rule="nonzero"/><path fill="#000000" d="M 103.402344 94.335938 C 103.296875 94.335938 103.195312 94.296875 103.113281 94.226562 C 103.019531 94.144531 102.964844 94.023438 102.964844 93.898438 C 102.945312 85.078125 98.148438 76.628906 90.445312 71.847656 C 90.25 71.726562 90.183594 71.476562 90.289062 71.269531 C 92.175781 67.652344 93.25 63.679688 93.476562 59.464844 C 93.484375 59.242188 93.660156 59.066406 93.882812 59.050781 C 97.484375 58.816406 100.648438 60.261719 102.664062 61.519531 C 103.78125 62.21875 104.878906 63.058594 105.929688 64.027344 C 108.789062 66.664062 111.144531 70.089844 112.5625 73.667969 C 114.136719 77.636719 114.480469 81.554688 113.5625 85.003906 C 112.359375 89.511719 107.734375 93.78125 103.457031 94.332031 C 103.4375 94.332031 103.421875 94.335938 103.402344 94.335938 Z M 91.246094 71.316406 C 98.855469 76.199219 103.632812 84.582031 103.832031 93.382812 C 107.652344 92.632812 111.644531 88.808594 112.71875 84.777344 C 114.671875 77.441406 110.261719 69.214844 105.335938 64.671875 C 104.328125 63.742188 103.273438 62.933594 102.203125 62.265625 C 99.636719 60.664062 96.851562 59.835938 94.324219 59.90625 C 94.054688 63.964844 93.019531 67.800781 91.246094 71.316406 Z M 91.246094 71.316406 " fill-opacity="1" fill-rule="nonzero"/><path fill="#000000" d="M 43.40625 43.417969 C 43.289062 43.417969 43.175781 43.375 43.089844 43.285156 C 42.238281 42.398438 41.136719 41.738281 40.265625 41.265625 C 36.71875 39.324219 32.386719 38.4375 27.390625 38.628906 C 27.148438 38.636719 26.949219 38.449219 26.9375 38.207031 C 26.929688 37.964844 27.117188 37.761719 27.359375 37.753906 C 32.511719 37.558594 36.996094 38.480469 40.683594 40.496094 C 41.609375 41 42.785156 41.707031 43.71875 42.675781 C 43.886719 42.851562 43.878906 43.128906 43.707031 43.296875 C 43.621094 43.378906 43.511719 43.417969 43.402344 43.417969 Z M 43.40625 43.417969 " fill-opacity="1" fill-rule="nonzero"/><path fill="#000000" d="M 21.195312 39.375 C 20.992188 39.375 20.808594 39.230469 20.769531 39.023438 C 20.722656 38.785156 20.875 38.554688 21.113281 38.507812 C 22.414062 38.25 23.703125 38.054688 24.949219 37.925781 C 25.1875 37.902344 25.402344 38.078125 25.425781 38.316406 C 25.449219 38.558594 25.277344 38.773438 25.035156 38.796875 C 23.820312 38.921875 22.554688 39.117188 21.28125 39.367188 C 21.253906 39.371094 21.222656 39.375 21.195312 39.375 Z M 21.195312 39.375 " fill-opacity="1" fill-rule="nonzero"/><path fill="#000000" d="M 50.144531 15.742188 C 50.050781 15.742188 49.953125 15.710938 49.875 15.648438 C 49.207031 15.113281 48.480469 14.625 47.714844 14.195312 C 47.507812 14.078125 47.433594 13.808594 47.550781 13.597656 C 47.667969 13.386719 47.933594 13.3125 48.144531 13.433594 C 48.949219 13.886719 49.714844 14.398438 50.417969 14.960938 C 50.605469 15.113281 50.636719 15.386719 50.488281 15.578125 C 50.402344 15.6875 50.273438 15.742188 50.144531 15.742188 Z M 50.144531 15.742188 " fill-opacity="1" fill-rule="nonzero"/><path fill="#000000" d="M 56.875 28.234375 C 56.640625 28.234375 56.445312 28.050781 56.4375 27.8125 C 56.355469 25.589844 55.511719 23.125 53.859375 20.269531 C 53.472656 19.601562 53.085938 19.011719 52.671875 18.472656 C 52.527344 18.28125 52.5625 18.007812 52.753906 17.859375 C 52.945312 17.710938 53.21875 17.75 53.363281 17.941406 C 53.800781 18.507812 54.210938 19.128906 54.617188 19.828125 C 56.339844 22.8125 57.21875 25.414062 57.3125 27.78125 C 57.320312 28.023438 57.132812 28.226562 56.890625 28.234375 C 56.886719 28.234375 56.878906 28.234375 56.875 28.234375 Z M 56.875 28.234375 " fill-opacity="1" fill-rule="nonzero"/><path fill="#000000" d="M 74.65625 28.589844 C 74.613281 28.589844 74.570312 28.582031 74.527344 28.566406 C 74.296875 28.496094 74.167969 28.25 74.242188 28.019531 C 74.257812 27.964844 75.679688 23.289062 74.320312 17.660156 C 74.265625 17.425781 74.410156 17.191406 74.644531 17.132812 C 74.878906 17.074219 75.113281 17.21875 75.167969 17.457031 C 76.589844 23.332031 75.136719 28.082031 75.074219 28.28125 C 75.015625 28.46875 74.84375 28.589844 74.65625 28.589844 Z M 74.65625 28.589844 " fill-opacity="1" fill-rule="nonzero"/><path fill="#000000" d="M 91.121094 44.832031 C 90.90625 44.832031 90.71875 44.671875 90.6875 44.453125 C 90.652344 44.214844 90.820312 43.992188 91.058594 43.960938 C 91.363281 43.914062 98.496094 42.894531 99.570312 42.894531 C 99.8125 42.894531 100.007812 43.089844 100.007812 43.332031 C 100.007812 43.574219 99.8125 43.769531 99.570312 43.769531 C 98.761719 43.769531 93.730469 44.460938 91.183594 44.824219 C 91.160156 44.828125 91.140625 44.832031 91.121094 44.832031 Z M 91.121094 44.832031 " fill-opacity="1" fill-rule="nonzero"/><path fill="#000000" d="M 101.757812 73.300781 C 101.628906 73.300781 101.5 73.242188 101.414062 73.132812 C 98.820312 69.753906 95.242188 67.664062 92.699219 66.503906 C 92.480469 66.40625 92.382812 66.148438 92.484375 65.925781 C 92.582031 65.707031 92.839844 65.609375 93.0625 65.707031 C 95.695312 66.90625 99.402344 69.074219 102.105469 72.597656 C 102.253906 72.789062 102.214844 73.0625 102.027344 73.210938 C 101.945312 73.273438 101.851562 73.300781 101.761719 73.300781 Z M 101.757812 73.300781 " fill-opacity="1" fill-rule="nonzero"/><path fill="#000000" d="M 103.796875 76.785156 C 103.625 76.785156 103.460938 76.679688 103.394531 76.511719 C 103.195312 76.035156 102.96875 75.554688 102.710938 75.089844 C 102.59375 74.878906 102.667969 74.613281 102.878906 74.492188 C 103.089844 74.375 103.355469 74.453125 103.472656 74.664062 C 103.746094 75.160156 103.992188 75.671875 104.199219 76.179688 C 104.292969 76.402344 104.1875 76.660156 103.960938 76.75 C 103.910156 76.773438 103.851562 76.785156 103.796875 76.785156 Z M 103.796875 76.785156 " fill-opacity="1" fill-rule="nonzero"/><path fill="#000000" d="M 89.695312 90.574219 C 89.507812 90.574219 89.332031 90.449219 89.277344 90.253906 C 88.4375 87.289062 87.152344 84.476562 85.460938 81.902344 C 85.066406 81.300781 84.535156 80.523438 83.921875 79.808594 C 83.765625 79.628906 83.785156 79.351562 83.96875 79.191406 C 84.148438 79.035156 84.425781 79.054688 84.582031 79.238281 C 85.230469 79.988281 85.78125 80.796875 86.191406 81.417969 C 87.929688 84.070312 89.253906 86.964844 90.117188 90.015625 C 90.183594 90.246094 90.050781 90.492188 89.816406 90.554688 C 89.777344 90.566406 89.738281 90.574219 89.699219 90.574219 Z M 89.695312 90.574219 " fill-opacity="1" fill-rule="nonzero"/><path fill="#000000" d="M 90.765625 98.144531 C 90.527344 98.144531 90.332031 97.949219 90.332031 97.707031 C 90.332031 96.601562 90.261719 95.480469 90.121094 94.371094 C 90.089844 94.132812 90.257812 93.914062 90.5 93.882812 C 90.738281 93.851562 90.957031 94.023438 90.984375 94.261719 C 91.128906 95.40625 91.203125 96.566406 91.203125 97.707031 C 91.203125 97.949219 91.007812 98.144531 90.765625 98.144531 Z M 90.765625 98.144531 " fill-opacity="1" fill-rule="nonzero"/><path fill="#000000" d="M 56.890625 96.917969 C 56.828125 96.917969 56.765625 96.90625 56.707031 96.878906 C 56.488281 96.773438 56.394531 96.515625 56.496094 96.296875 C 57.90625 93.253906 59.4375 89.632812 60.085938 85.820312 C 60.265625 84.757812 60.371094 83.703125 60.398438 82.6875 C 60.40625 82.449219 60.605469 82.257812 60.847656 82.265625 C 61.089844 82.269531 61.277344 82.472656 61.273438 82.714844 C 61.242188 83.769531 61.132812 84.863281 60.945312 85.96875 C 60.28125 89.878906 58.722656 93.570312 57.289062 96.664062 C 57.214844 96.824219 57.054688 96.917969 56.890625 96.917969 Z M 56.890625 96.917969 " fill-opacity="1" fill-rule="nonzero"/><path fill="#000000" d="M 54.308594 101.910156 C 54.234375 101.910156 54.160156 101.890625 54.089844 101.851562 C 53.878906 101.730469 53.808594 101.464844 53.929688 101.253906 C 54.285156 100.636719 54.628906 100.011719 54.957031 99.398438 C 55.074219 99.183594 55.335938 99.105469 55.550781 99.21875 C 55.761719 99.332031 55.84375 99.597656 55.726562 99.8125 C 55.394531 100.433594 55.042969 101.066406 54.6875 101.691406 C 54.605469 101.832031 54.457031 101.910156 54.308594 101.910156 Z M 54.308594 101.910156 " fill-opacity="1" fill-rule="nonzero"/><path fill="#000000" d="M 26.324219 75.722656 C 26.226562 75.722656 26.128906 75.691406 26.046875 75.621094 C 25.859375 75.46875 25.835938 75.191406 25.992188 75.007812 C 26.65625 74.203125 27.433594 73.449219 28.304688 72.753906 C 28.492188 72.605469 28.765625 72.636719 28.917969 72.824219 C 29.066406 73.015625 29.035156 73.289062 28.847656 73.441406 C 28.023438 74.097656 27.289062 74.8125 26.660156 75.566406 C 26.574219 75.671875 26.449219 75.722656 26.324219 75.722656 Z M 26.324219 75.722656 " fill-opacity="1" fill-rule="nonzero"/><path fill="#000000" d="M 31.660156 71.542969 C 31.503906 71.542969 31.355469 71.460938 31.273438 71.316406 C 31.160156 71.101562 31.238281 70.835938 31.449219 70.722656 C 35.207031 68.679688 39.722656 67.523438 45.660156 67.082031 C 45.902344 67.0625 46.113281 67.246094 46.128906 67.488281 C 46.148438 67.726562 45.964844 67.9375 45.726562 67.957031 C 39.914062 68.386719 35.511719 69.511719 31.867188 71.492188 C 31.800781 71.527344 31.730469 71.542969 31.660156 71.542969 Z M 31.660156 71.542969 " fill-opacity="1" fill-rule="nonzero"/><path fill="#f4f7fe" d="M 51.113281 35.839844 C 50.476562 36.507812 49.894531 37.242188 49.363281 38.042969 C 47.65625 40.609375 43.308594 47.550781 46.101562 50.496094 C 46.796875 51.230469 47.960938 51.390625 48.90625 51.046875 C 51.261719 50.195312 51.667969 47.488281 52.265625 45.375 C 53.613281 40.597656 56.988281 37.476562 60.253906 33.941406 C 60.542969 33.625 60.84375 33.296875 60.976562 32.886719 C 61.363281 31.683594 60.207031 31.261719 59.269531 31.40625 C 56.171875 31.875 53.253906 33.582031 51.113281 35.839844 Z M 51.113281 35.839844 " fill-opacity="1" fill-rule="nonzero"/></svg>