<svg xmlns="http://www.w3.org/2000/svg" xmlns:xlink="http://www.w3.org/1999/xlink" width="160" zoomAndPan="magnify" viewBox="0 0 120 119.999999" height="160" preserveAspectRatio="xMidYMid meet" version="1.0"><defs><clipPath id="5fec762497"><path d="M 22.4375 72 L 77 72 L 77 120 L 22.4375 120 Z M 22.4375 72 " clip-rule="nonzero"/></clipPath></defs><path fill="#fe7fc9" d="M 104.394531 77.28125 C 104.324219 78.1875 104.179688 79.058594 103.960938 79.890625 C 101.890625 88.730469 91.1875 97.933594 82.261719 99.746094 C 82.222656 99.746094 82.222656 99.746094 82.1875 99.746094 C 77.796875 100.617188 73.117188 100.074219 69.015625 98.40625 C 64.839844 96.738281 61.175781 93.769531 58.78125 90 C 56.386719 86.230469 55.078125 81.8125 55.007812 77.355469 C 54.933594 73.625 55.660156 69.855469 57.292969 66.484375 C 57.621094 65.832031 57.984375 65.179688 58.382812 64.527344 C 60.597656 60.941406 64.078125 57.753906 68.324219 57.066406 C 69.777344 54.710938 72.171875 52.898438 74.855469 52.175781 C 89.878906 48.007812 105.664062 63.40625 104.394531 77.28125 Z M 104.394531 77.28125 " fill-opacity="1" fill-rule="nonzero"/><path fill="#000000" d="M 78.015625 100.433594 C 74.964844 100.433594 71.84375 99.820312 68.941406 98.660156 C 64.660156 96.957031 60.996094 93.914062 58.5625 90.144531 C 56.167969 86.375 54.824219 81.847656 54.753906 77.355469 C 54.679688 73.441406 55.480469 69.636719 57.074219 66.375 C 57.402344 65.6875 57.765625 65 58.164062 64.382812 C 60.742188 60.21875 64.371094 57.464844 68.179688 56.8125 C 69.703125 54.421875 72.097656 52.644531 74.785156 51.882812 C 81.535156 50.035156 88.972656 51.921875 95.179688 57.101562 C 101.675781 62.535156 105.304688 70.253906 104.6875 77.320312 C 104.613281 78.226562 104.46875 79.128906 104.25 79.964844 C 102.253906 88.550781 91.804688 98.117188 82.332031 100 L 82.222656 99.746094 L 82.261719 100 C 80.882812 100.289062 79.429688 100.433594 78.015625 100.433594 Z M 79.9375 51.738281 C 78.230469 51.738281 76.527344 51.957031 74.894531 52.425781 C 72.28125 53.152344 69.957031 54.890625 68.542969 57.210938 L 68.46875 57.320312 L 68.363281 57.355469 C 64.695312 57.972656 61.140625 60.652344 58.601562 64.710938 C 58.238281 65.324219 57.875 65.976562 57.546875 66.628906 C 56.023438 69.820312 55.226562 73.550781 55.296875 77.390625 C 55.371094 81.773438 56.675781 86.230469 59.035156 89.890625 C 61.394531 93.585938 64.988281 96.523438 69.160156 98.1875 C 73.371094 99.890625 78.015625 100.363281 82.1875 99.527344 L 82.261719 99.527344 C 91.550781 97.679688 101.78125 88.296875 103.742188 79.890625 C 103.921875 79.058594 104.070312 78.1875 104.140625 77.320312 C 104.757812 70.433594 101.203125 62.898438 94.851562 57.574219 C 90.28125 53.730469 85.054688 51.738281 79.9375 51.738281 Z M 79.9375 51.738281 " fill-opacity="1" fill-rule="nonzero"/><path fill="#fe7fc9" d="M 72.425781 84.058594 C 69.886719 79.492188 65.859375 75.109375 60.34375 73.371094 C 57.328125 72.425781 54.171875 72.28125 51.050781 72.972656 C 49.09375 73.40625 47.132812 74.273438 45.535156 75.472656 C 45.28125 75.363281 45.027344 75.253906 44.808594 75.144531 C 44.195312 74.890625 43.578125 74.636719 42.921875 74.527344 C 42.234375 74.421875 41.542969 74.347656 40.855469 74.3125 C 38.207031 74.203125 35.558594 74.78125 33.199219 75.90625 C 28.554688 78.152344 25.433594 82.609375 24.089844 87.101562 C 22.53125 92.246094 23.074219 97.898438 24.5625 102.972656 C 25.90625 107.609375 28.480469 112.136719 32.652344 115.179688 C 36.9375 118.296875 42.414062 119.746094 47.894531 119.675781 C 53.847656 119.566406 59.652344 117.609375 64.625 114.636719 C 67.019531 113.226562 69.269531 111.523438 71.046875 109.492188 C 72.605469 107.71875 73.769531 105.761719 74.566406 103.660156 C 74.855469 103.042969 75.148438 102.390625 75.363281 101.703125 C 77.398438 95.761719 75.402344 89.382812 72.425781 84.058594 Z M 72.425781 84.058594 " fill-opacity="1" fill-rule="nonzero"/><g clip-path="url(#5fec762497)"><path fill="#000000" d="M 47.421875 119.925781 C 41.835938 119.925781 36.535156 118.332031 32.507812 115.398438 C 27.644531 111.882812 25.359375 106.738281 24.308594 103.042969 C 22.601562 97.066406 22.457031 91.703125 23.835938 87.027344 C 25.359375 81.957031 28.808594 77.71875 33.089844 75.726562 C 35.59375 74.566406 38.277344 73.984375 40.890625 74.09375 C 41.726562 74.128906 42.378906 74.203125 42.960938 74.3125 C 43.648438 74.421875 44.339844 74.710938 44.882812 74.964844 C 45.101562 75.035156 45.28125 75.144531 45.5 75.253906 C 47.058594 74.09375 48.984375 73.226562 50.980469 72.789062 C 54.136719 72.101562 57.402344 72.246094 60.414062 73.1875 C 65.277344 74.710938 69.632812 78.550781 72.644531 83.984375 C 76.308594 90.542969 77.324219 96.703125 75.617188 101.8125 C 75.402344 102.464844 75.109375 103.152344 74.820312 103.804688 C 73.984375 105.976562 72.753906 107.972656 71.226562 109.710938 C 69.59375 111.558594 67.417969 113.332031 64.734375 114.925781 C 59.324219 118.152344 53.519531 119.890625 47.859375 120 C 47.75 119.925781 47.570312 119.925781 47.421875 119.925781 Z M 40.203125 74.601562 C 37.878906 74.601562 35.519531 75.144531 33.308594 76.195312 C 29.171875 78.152344 25.832031 82.246094 24.34375 87.175781 C 23 91.667969 23.148438 97.101562 24.816406 102.898438 C 25.867188 106.523438 28.082031 111.523438 32.800781 114.964844 C 36.863281 117.898438 42.234375 119.492188 47.894531 119.382812 C 53.410156 119.273438 59.144531 117.574219 64.480469 114.382812 C 67.089844 112.824219 69.230469 111.085938 70.828125 109.273438 C 72.316406 107.609375 73.476562 105.652344 74.3125 103.515625 C 74.601562 102.863281 74.894531 102.210938 75.109375 101.59375 C 77.214844 95.363281 74.675781 88.695312 72.171875 84.203125 C 69.195312 78.875 64.988281 75.144531 60.234375 73.660156 C 57.292969 72.753906 54.136719 72.609375 51.089844 73.261719 C 49.128906 73.695312 47.207031 74.566406 45.679688 75.726562 L 45.535156 75.832031 L 45.390625 75.761719 C 45.136719 75.652344 44.917969 75.542969 44.664062 75.433594 C 44.085938 75.179688 43.503906 74.925781 42.851562 74.820312 C 42.269531 74.710938 41.617188 74.675781 40.820312 74.636719 C 40.636719 74.601562 40.417969 74.601562 40.203125 74.601562 Z M 40.203125 74.601562 " fill-opacity="1" fill-rule="nonzero"/></g><path fill="#319a3c" d="M 75.257812 62.320312 C 74.277344 60.617188 72.859375 59.167969 71.410156 57.824219 C 70.03125 56.558594 68.578125 55.363281 67.273438 54.023438 C 66.039062 52.789062 64.949219 51.449219 63.933594 50.074219 C 62.882812 48.660156 61.867188 47.246094 61.066406 45.726562 C 60.234375 44.167969 59.472656 42.535156 58.816406 40.90625 C 56.242188 34.347656 55.1875 27.136719 56.167969 20.109375 C 56.242188 19.527344 56.351562 18.984375 56.421875 18.40625 C 56.421875 18.40625 56.421875 18.40625 56.421875 18.371094 C 56.714844 18.042969 56.714844 17.679688 56.566406 17.390625 C 56.640625 16.339844 55.042969 16.160156 54.824219 17.210938 C 54.824219 17.246094 54.824219 17.28125 54.789062 17.355469 C 48.4375 24.09375 43.792969 32.390625 41.328125 41.304688 C 37.914062 53.441406 37.699219 69.636719 43.792969 81.015625 C 44.265625 81.882812 44.738281 82.753906 45.28125 83.585938 C 45.863281 84.492188 46.515625 85.398438 47.53125 85.832031 C 48.546875 86.269531 49.78125 86.050781 50.542969 85.21875 C 51.160156 84.566406 51.304688 83.660156 51.304688 82.789062 C 51.304688 81.957031 51.089844 81.125 50.796875 80.363281 C 50.433594 79.421875 50.074219 78.441406 49.746094 77.464844 C 48.402344 73.625 47.277344 69.675781 46.445312 65.6875 C 44.808594 57.789062 44.195312 49.675781 45.535156 41.667969 C 46.734375 34.527344 49.347656 27.574219 53.664062 21.738281 C 52.902344 24.273438 52.683594 27.027344 52.648438 29.601562 C 52.578125 33.625 53.121094 37.71875 54.136719 41.59375 C 56.023438 48.984375 59.578125 56.015625 64.40625 61.921875 C 66.582031 64.566406 70.140625 68.296875 73.984375 66.992188 C 74.75 66.738281 75.4375 66.195312 75.765625 65.433594 C 76.199219 64.382812 75.835938 63.296875 75.257812 62.320312 Z M 75.257812 62.320312 " fill-opacity="1" fill-rule="nonzero"/><path fill="#000000" d="M 48.585938 86.339844 C 48.183594 86.339844 47.785156 86.269531 47.386719 86.085938 C 46.335938 85.617188 45.644531 84.675781 45.027344 83.730469 C 44.449219 82.824219 43.902344 81.847656 43.539062 81.125 C 36.898438 68.769531 38.0625 51.921875 41.035156 41.230469 C 43.578125 32.210938 48.222656 23.914062 54.535156 17.210938 L 54.535156 17.136719 C 54.679688 16.449219 55.335938 16.160156 55.878906 16.230469 C 56.460938 16.304688 56.859375 16.773438 56.820312 17.320312 C 57.003906 17.71875 56.929688 18.152344 56.640625 18.476562 C 56.566406 19.023438 56.460938 19.566406 56.386719 20.109375 C 55.480469 26.8125 56.386719 33.949219 59.035156 40.761719 C 59.6875 42.425781 60.414062 44.023438 61.25 45.542969 C 62.082031 47.101562 63.171875 48.585938 64.117188 49.855469 C 65.277344 51.414062 66.367188 52.71875 67.453125 53.804688 C 68.253906 54.601562 69.125 55.363281 69.957031 56.125 C 70.503906 56.59375 71.046875 57.101562 71.589844 57.609375 C 73.007812 58.914062 74.457031 60.398438 75.472656 62.175781 C 76.199219 63.441406 76.382812 64.566406 75.945312 65.542969 C 75.582031 66.339844 74.894531 66.957031 73.984375 67.246094 C 70.03125 68.585938 66.472656 64.964844 64.117188 62.101562 C 59.253906 56.195312 55.695312 49.128906 53.773438 41.667969 C 52.722656 37.5 52.214844 33.441406 52.285156 29.601562 C 52.320312 27.066406 52.539062 24.964844 52.9375 23.117188 C 49.457031 28.332031 46.953125 34.746094 45.789062 41.738281 C 44.554688 48.949219 44.882812 56.773438 46.699219 65.652344 C 47.460938 69.382812 48.546875 73.226562 49.964844 77.390625 C 50.289062 78.296875 50.617188 79.238281 51.015625 80.289062 C 51.378906 81.230469 51.558594 82.027344 51.558594 82.789062 C 51.558594 83.914062 51.304688 84.78125 50.726562 85.398438 C 50.144531 86.015625 49.382812 86.339844 48.585938 86.339844 Z M 55.695312 16.773438 C 55.441406 16.773438 55.152344 16.921875 55.078125 17.28125 L 55.042969 17.5 L 55.007812 17.535156 C 48.730469 24.203125 44.085938 32.425781 41.582031 41.375 C 38.605469 51.957031 37.480469 68.660156 44.046875 80.871094 C 44.449219 81.59375 44.957031 82.535156 45.535156 83.441406 C 46.082031 84.3125 46.734375 85.179688 47.640625 85.578125 C 48.546875 85.976562 49.671875 85.761719 50.328125 85.035156 C 50.796875 84.527344 51.015625 83.804688 51.015625 82.789062 C 51.015625 82.101562 50.871094 81.339844 50.507812 80.472656 C 50.109375 79.421875 49.78125 78.476562 49.457031 77.574219 C 48.003906 73.371094 46.914062 69.527344 46.152344 65.761719 C 44.300781 56.8125 44.011719 48.914062 45.246094 41.628906 C 46.515625 33.984375 49.347656 27.066406 53.410156 21.558594 L 54.355469 20.289062 L 53.917969 21.773438 C 53.265625 23.914062 52.976562 26.375 52.902344 29.566406 C 52.832031 33.371094 53.339844 37.390625 54.390625 41.484375 C 56.277344 48.839844 59.832031 55.832031 64.625 61.703125 C 66.875 64.421875 70.25 67.898438 73.878906 66.667969 C 74.601562 66.414062 75.21875 65.90625 75.511719 65.253906 C 75.875 64.457031 75.726562 63.515625 75.074219 62.390625 C 74.09375 60.6875 72.679688 59.273438 71.300781 57.972656 C 70.757812 57.464844 70.210938 56.992188 69.667969 56.484375 C 68.832031 55.726562 67.960938 54.964844 67.128906 54.167969 C 66.039062 53.042969 64.914062 51.738281 63.753906 50.179688 C 62.808594 48.875 61.722656 47.390625 60.851562 45.796875 C 60.015625 44.273438 59.253906 42.609375 58.601562 40.941406 C 55.914062 34.058594 54.972656 26.8125 55.914062 20 C 55.988281 19.421875 56.097656 18.875 56.167969 18.296875 L 56.167969 18.226562 L 56.203125 18.152344 C 56.460938 17.863281 56.421875 17.644531 56.3125 17.464844 L 56.277344 17.464844 L 56.277344 17.390625 C 56.3125 17.027344 56.023438 16.847656 55.769531 16.8125 C 55.769531 16.8125 55.734375 16.773438 55.695312 16.773438 Z M 55.695312 16.773438 " fill-opacity="1" fill-rule="nonzero"/><path fill="#319a3c" d="M 56.859375 16.992188 C 56.785156 16.882812 56.714844 16.773438 56.675781 16.628906 C 56.605469 16.414062 56.53125 16.230469 56.421875 16.050781 C 55.515625 14.09375 54.28125 12.246094 52.976562 10.507812 C 51.523438 8.550781 49.890625 6.738281 47.96875 5.21875 C 46.007812 3.695312 43.792969 2.5 41.363281 1.847656 C 39.078125 1.195312 36.683594 1.230469 34.359375 1.449219 C 31.855469 1.667969 29.351562 1.8125 27.136719 0.433594 C 26.773438 0.21875 26.011719 0.363281 26.230469 0.726562 C 26.957031 1.957031 27.390625 3.296875 27.753906 4.675781 C 28.15625 6.160156 28.554688 7.609375 28.917969 9.09375 C 29.277344 10.578125 29.679688 12.066406 30.257812 13.515625 C 30.585938 14.347656 30.949219 15.144531 31.382812 15.941406 C 32.800781 18.476562 35.15625 20.472656 37.84375 21.523438 C 40.820312 22.679688 43.941406 22.644531 46.988281 21.8125 C 49.964844 21.015625 52.867188 19.421875 55.550781 17.933594 C 55.988281 17.71875 56.386719 17.535156 56.859375 17.390625 C 56.859375 17.320312 56.859375 17.28125 56.859375 17.210938 C 56.859375 17.136719 56.859375 17.066406 56.859375 16.992188 Z M 56.859375 16.992188 " fill-opacity="1" fill-rule="nonzero"/><path fill="#000000" d="M 42.667969 22.679688 C 40.925781 22.679688 39.292969 22.390625 37.734375 21.773438 C 34.976562 20.6875 32.582031 18.625 31.128906 16.050781 C 30.695312 15.289062 30.332031 14.492188 29.96875 13.585938 C 29.386719 12.101562 28.988281 10.578125 28.625 9.128906 C 28.410156 8.296875 28.191406 7.425781 27.972656 6.59375 C 27.792969 5.976562 27.644531 5.324219 27.464844 4.710938 C 27.136719 3.40625 26.703125 2.027344 25.976562 0.832031 C 25.867188 0.652344 25.90625 0.433594 26.050781 0.289062 C 26.304688 0.0351562 26.921875 0 27.246094 0.21875 C 29.351562 1.484375 31.601562 1.414062 34.324219 1.160156 C 36.464844 0.976562 39.003906 0.871094 41.4375 1.558594 C 43.792969 2.210938 46.042969 3.371094 48.148438 5 C 49.925781 6.375 51.558594 8.117188 53.191406 10.324219 C 54.464844 12.027344 55.769531 13.914062 56.640625 15.90625 L 56.675781 15.976562 C 56.75 16.160156 56.820312 16.339844 56.894531 16.523438 C 56.929688 16.59375 56.96875 16.703125 57.039062 16.773438 L 57.074219 16.847656 L 57.074219 16.921875 L 56.820312 16.957031 L 57.113281 16.957031 C 57.113281 17.027344 57.113281 17.101562 57.113281 17.175781 C 57.113281 17.246094 57.113281 17.320312 57.113281 17.390625 L 57.113281 17.574219 L 56.929688 17.644531 C 56.496094 17.789062 56.097656 17.933594 55.695312 18.1875 C 52.683594 19.855469 49.925781 21.304688 47.058594 22.101562 C 45.535156 22.464844 44.085938 22.679688 42.667969 22.679688 Z M 26.484375 0.652344 C 27.246094 1.921875 27.644531 3.296875 28.007812 4.636719 C 28.15625 5.253906 28.335938 5.871094 28.515625 6.523438 C 28.734375 7.355469 28.988281 8.226562 29.207031 9.058594 C 29.570312 10.472656 29.96875 11.992188 30.511719 13.441406 C 30.839844 14.3125 31.203125 15.109375 31.636719 15.832031 C 33.015625 18.261719 35.339844 20.253906 37.988281 21.304688 C 40.671875 22.355469 43.6875 22.464844 46.953125 21.59375 C 49.78125 20.832031 52.46875 19.421875 55.480469 17.753906 C 55.84375 17.535156 56.242188 17.390625 56.640625 17.246094 C 56.640625 17.210938 56.640625 17.175781 56.640625 17.136719 C 56.566406 17.027344 56.496094 16.882812 56.460938 16.773438 C 56.421875 16.59375 56.351562 16.449219 56.277344 16.304688 L 56.242188 16.230469 C 55.296875 14.203125 54.027344 12.390625 52.757812 10.6875 C 51.160156 8.515625 49.527344 6.8125 47.824219 5.472656 C 45.789062 3.875 43.578125 2.753906 41.289062 2.101562 C 38.96875 1.449219 36.5 1.558594 34.394531 1.703125 C 32.039062 1.882812 29.386719 2.136719 26.992188 0.652344 C 26.847656 0.617188 26.628906 0.617188 26.484375 0.652344 Z M 26.484375 0.652344 " fill-opacity="1" fill-rule="nonzero"/><path fill="#319a3c" d="M 85.34375 27.933594 C 84.980469 28.007812 84.65625 28.078125 84.402344 28.042969 C 82.222656 27.679688 81.390625 25.109375 80.625 23.476562 C 79.101562 20.21875 76.164062 18.007812 72.714844 16.773438 C 68.253906 15.179688 63.0625 16.921875 58.417969 16.484375 C 57.691406 16.414062 56.167969 16.160156 55.84375 16.847656 C 55.296875 17.898438 56.097656 19.636719 56.277344 20.726562 C 56.714844 23.332031 56.859375 26.015625 57.839844 28.476562 C 59.832031 33.515625 64.480469 37.574219 70.066406 37.71875 C 73.261719 37.789062 76.308594 36.59375 79.101562 35.253906 C 80.300781 34.675781 88.246094 30.074219 86.542969 28.152344 C 86.289062 27.824219 85.816406 27.863281 85.34375 27.933594 Z M 85.34375 27.933594 " fill-opacity="1" fill-rule="nonzero"/><path fill="#000000" d="M 70.355469 37.972656 C 70.285156 37.972656 70.175781 37.972656 70.101562 37.972656 C 64.734375 37.863281 59.832031 34.167969 57.621094 28.585938 C 56.894531 26.738281 56.605469 24.78125 56.351562 22.863281 C 56.242188 22.175781 56.167969 21.449219 56.023438 20.761719 C 55.988281 20.472656 55.878906 20.144531 55.769531 19.78125 C 55.480469 18.730469 55.152344 17.574219 55.589844 16.703125 C 55.988281 15.941406 57.328125 16.085938 58.199219 16.195312 L 58.417969 16.230469 C 60.234375 16.414062 62.191406 16.230469 64.078125 16.085938 C 67.019531 15.832031 70.03125 15.578125 72.789062 16.558594 C 76.5625 17.898438 79.355469 20.289062 80.84375 23.40625 C 80.953125 23.625 81.0625 23.875 81.171875 24.09375 C 81.859375 25.617188 82.695312 27.535156 84.4375 27.824219 C 84.617188 27.863281 84.871094 27.789062 85.125 27.753906 L 85.273438 27.71875 C 85.671875 27.644531 86.324219 27.535156 86.722656 27.972656 C 86.976562 28.261719 87.085938 28.625 87.011719 29.058594 C 86.542969 31.414062 80.082031 35.074219 79.210938 35.507812 C 76.671875 36.703125 73.585938 37.972656 70.355469 37.972656 Z M 57.113281 16.628906 C 56.640625 16.628906 56.203125 16.703125 56.097656 16.921875 C 55.734375 17.609375 56.023438 18.660156 56.3125 19.601562 C 56.421875 19.964844 56.53125 20.324219 56.566406 20.652344 C 56.675781 21.339844 56.785156 22.066406 56.894531 22.753906 C 57.148438 24.636719 57.402344 26.558594 58.128906 28.332031 C 60.269531 33.730469 64.988281 37.28125 70.101562 37.390625 C 73.332031 37.464844 76.417969 36.195312 79.03125 34.964844 C 80.226562 34.382812 86.144531 30.871094 86.542969 28.914062 C 86.578125 28.660156 86.542969 28.476562 86.398438 28.296875 C 86.214844 28.117188 85.886719 28.117188 85.417969 28.1875 L 85.273438 28.226562 C 84.945312 28.296875 84.65625 28.332031 84.402344 28.296875 C 82.367188 27.972656 81.460938 25.90625 80.734375 24.273438 C 80.625 24.023438 80.519531 23.804688 80.410156 23.585938 C 78.632812 19.820312 75.21875 17.933594 72.679688 17.027344 C 70.03125 16.085938 67.089844 16.339844 64.226562 16.59375 C 62.265625 16.738281 60.269531 16.921875 58.417969 16.738281 L 58.199219 16.703125 C 57.910156 16.667969 57.511719 16.628906 57.113281 16.628906 Z M 57.113281 16.628906 " fill-opacity="1" fill-rule="nonzero"/><path fill="#000000" d="M 69.742188 69.023438 C 68.289062 69.023438 67.199219 68.730469 67.128906 68.730469 C 66.984375 68.695312 66.910156 68.550781 66.945312 68.40625 C 66.984375 68.261719 67.128906 68.1875 67.273438 68.226562 C 67.308594 68.226562 71.734375 69.347656 74.496094 66.957031 C 76.34375 65.324219 77.035156 62.5 76.5625 58.515625 C 76.5625 58.371094 76.636719 58.226562 76.816406 58.226562 C 76.960938 58.226562 77.105469 58.296875 77.105469 58.476562 C 77.613281 62.644531 76.851562 65.652344 74.855469 67.390625 C 73.296875 68.660156 71.300781 69.023438 69.742188 69.023438 Z M 69.742188 69.023438 " fill-opacity="1" fill-rule="nonzero"/><path fill="#000000" d="M 46.988281 86.703125 C 43.941406 86.703125 41 85.109375 40.820312 85.035156 C 40.671875 84.964844 40.636719 84.78125 40.710938 84.675781 C 40.78125 84.527344 40.964844 84.492188 41.074219 84.566406 C 41.109375 84.601562 46.445312 87.464844 49.964844 85.472656 C 51.886719 84.382812 52.9375 82.027344 53.046875 78.476562 C 53.046875 78.332031 53.191406 78.226562 53.339844 78.226562 C 53.484375 78.226562 53.59375 78.371094 53.59375 78.515625 C 53.445312 82.28125 52.320312 84.78125 50.21875 85.976562 C 49.238281 86.484375 48.113281 86.703125 46.988281 86.703125 Z M 46.988281 86.703125 " fill-opacity="1" fill-rule="nonzero"/></svg>