<svg xmlns="http://www.w3.org/2000/svg" xmlns:xlink="http://www.w3.org/1999/xlink" width="160" zoomAndPan="magnify" viewBox="0 0 120 119.999999" height="160" preserveAspectRatio="xMidYMid meet" version="1.0"><defs><clipPath id="af3869c271"><path d="M 31.632812 1 L 85.632812 1 L 85.632812 118.855469 L 31.632812 118.855469 Z M 31.632812 1 " clip-rule="nonzero"/></clipPath></defs><g clip-path="url(#af3869c271)"><path fill="#86c8ff" d="M 85.105469 118.785156 L 31.820312 118.785156 L 31.820312 27.117188 C 31.820312 -7.078125 85.105469 -7.078125 85.105469 27.117188 Z M 85.105469 118.785156 " fill-opacity="1" fill-rule="nonzero"/><path fill="#231f20" d="M 76.890625 7.746094 C 72.042969 3.582031 65.476562 1.300781 58.464844 1.300781 C 51.449219 1.300781 44.882812 3.582031 40.035156 7.746094 C 34.527344 12.453125 31.632812 19.140625 31.632812 27.117188 L 31.632812 118.785156 C 31.625 118.839844 31.640625 118.890625 31.679688 118.929688 C 31.71875 118.96875 31.765625 118.984375 31.820312 118.976562 L 85.105469 118.976562 C 85.160156 118.984375 85.207031 118.96875 85.246094 118.929688 C 85.289062 118.890625 85.300781 118.839844 85.292969 118.785156 L 85.292969 27.117188 C 85.292969 19.140625 82.398438 12.453125 76.890625 7.746094 Z M 84.941406 118.621094 L 31.988281 118.621094 L 31.988281 27.117188 C 31.988281 19.257812 34.859375 12.667969 40.269531 8.03125 C 45.074219 3.933594 51.519531 1.652344 58.464844 1.652344 C 65.40625 1.652344 71.855469 3.933594 76.65625 8.03125 C 82.070312 12.667969 84.941406 19.257812 84.941406 27.117188 Z M 84.941406 118.621094 " fill-opacity="1" fill-rule="nonzero"/></g><path fill="#231f20" d="M 58.417969 41.710938 L 58.910156 41.710938 L 58.910156 112.902344 L 58.417969 112.902344 Z M 58.417969 41.710938 " fill-opacity="1" fill-rule="nonzero"/><path fill="#ff00d8" d="M 58.628906 41.921875 L 50.4375 31.542969 L 58.628906 21.445312 L 66.867188 31.472656 Z M 58.628906 41.921875 " fill-opacity="1" fill-rule="nonzero"/><path fill="#231f20" d="M 67.007812 31.355469 L 58.769531 21.328125 C 58.730469 21.285156 58.683594 21.261719 58.628906 21.257812 C 58.566406 21.25 58.519531 21.273438 58.488281 21.328125 L 50.296875 31.425781 C 50.246094 31.503906 50.246094 31.582031 50.296875 31.660156 L 58.488281 42.039062 C 58.519531 42.09375 58.566406 42.117188 58.628906 42.117188 C 58.691406 42.117188 58.738281 42.09375 58.769531 42.039062 L 67.007812 31.589844 C 67.058594 31.511719 67.058594 31.433594 67.007812 31.355469 Z M 58.628906 41.636719 L 50.671875 31.542969 L 58.628906 21.726562 L 66.628906 31.472656 Z M 58.628906 41.636719 " fill-opacity="1" fill-rule="nonzero"/><path fill="#ff02b0" d="M 43.753906 21.445312 L 43.753906 36.34375 C 43.753906 36.984375 43.796875 37.625 43.882812 38.265625 C 43.964844 38.902344 44.089844 39.53125 44.253906 40.152344 C 44.417969 40.773438 44.625 41.382812 44.867188 41.976562 C 45.113281 42.570312 45.394531 43.148438 45.710938 43.707031 C 46.03125 44.265625 46.382812 44.800781 46.773438 45.3125 C 47.160156 45.828125 47.578125 46.3125 48.03125 46.769531 C 48.480469 47.230469 48.957031 47.65625 49.464844 48.050781 C 49.972656 48.449219 50.5 48.8125 51.054688 49.140625 C 51.605469 49.46875 52.179688 49.757812 52.769531 50.011719 C 53.359375 50.265625 53.964844 50.480469 54.582031 50.65625 C 55.203125 50.832031 55.828125 50.96875 56.464844 51.0625 C 57.101562 51.15625 57.742188 51.207031 58.382812 51.21875 C 59.027344 51.230469 59.667969 51.203125 60.304688 51.128906 C 60.945312 51.058594 61.578125 50.945312 62.203125 50.792969 C 62.824219 50.640625 63.4375 50.449219 64.039062 50.214844 C 64.636719 49.984375 65.21875 49.710938 65.785156 49.40625 Z M 43.753906 21.445312 " fill-opacity="1" fill-rule="nonzero"/><path fill="#231f20" d="M 65.925781 49.289062 L 43.894531 21.328125 C 43.84375 21.273438 43.78125 21.257812 43.707031 21.28125 C 43.632812 21.308594 43.59375 21.367188 43.589844 21.445312 L 43.589844 36.34375 C 43.589844 37.332031 43.6875 38.3125 43.878906 39.28125 C 44.070312 40.25 44.359375 41.195312 44.734375 42.105469 C 45.113281 43.019531 45.578125 43.890625 46.128906 44.710938 C 46.675781 45.535156 47.300781 46.292969 48 46.992188 C 48.699219 47.691406 49.460938 48.316406 50.285156 48.867188 C 51.105469 49.417969 51.972656 49.878906 52.886719 50.257812 C 53.800781 50.636719 54.742188 50.921875 55.714844 51.117188 C 56.683594 51.308594 57.664062 51.40625 58.652344 51.40625 C 61.214844 51.402344 63.625 50.792969 65.878906 49.570312 C 65.929688 49.546875 65.953125 49.507812 65.949219 49.453125 C 65.96875 49.394531 65.960938 49.339844 65.925781 49.289062 Z M 58.652344 51.027344 C 57.6875 51.027344 56.730469 50.933594 55.785156 50.746094 C 54.839844 50.558594 53.921875 50.28125 53.027344 49.910156 C 52.136719 49.542969 51.289062 49.089844 50.488281 48.554688 C 49.683594 48.019531 48.941406 47.410156 48.257812 46.730469 C 47.578125 46.046875 46.964844 45.304688 46.429688 44.503906 C 45.894531 43.703125 45.441406 42.855469 45.070312 41.964844 C 44.699219 41.074219 44.417969 40.15625 44.230469 39.210938 C 44.039062 38.261719 43.945312 37.308594 43.941406 36.34375 L 43.941406 21.964844 L 65.5 49.359375 C 63.355469 50.480469 61.074219 51.039062 58.652344 51.027344 Z M 58.652344 51.027344 " fill-opacity="1" fill-rule="nonzero"/><path fill="#ff02b0" d="M 73.550781 21.445312 L 73.550781 36.34375 C 73.550781 36.984375 73.507812 37.625 73.421875 38.265625 C 73.339844 38.902344 73.214844 39.53125 73.050781 40.152344 C 72.886719 40.773438 72.679688 41.382812 72.4375 41.976562 C 72.191406 42.570312 71.910156 43.148438 71.59375 43.707031 C 71.273438 44.265625 70.921875 44.800781 70.53125 45.3125 C 70.144531 45.828125 69.726562 46.3125 69.273438 46.769531 C 68.824219 47.230469 68.34375 47.65625 67.839844 48.050781 C 67.332031 48.449219 66.804688 48.8125 66.25 49.140625 C 65.699219 49.46875 65.125 49.757812 64.535156 50.011719 C 63.945312 50.265625 63.339844 50.480469 62.722656 50.65625 C 62.101562 50.832031 61.476562 50.96875 60.839844 51.0625 C 60.203125 51.15625 59.5625 51.207031 58.921875 51.21875 C 58.277344 51.230469 57.636719 51.203125 57 51.128906 C 56.359375 51.058594 55.726562 50.945312 55.101562 50.792969 C 54.480469 50.640625 53.867188 50.449219 53.265625 50.214844 C 52.667969 49.984375 52.085938 49.710938 51.519531 49.40625 Z M 73.550781 21.445312 " fill-opacity="1" fill-rule="nonzero"/><path fill="#231f20" d="M 73.597656 21.28125 C 73.523438 21.257812 73.460938 21.273438 73.410156 21.328125 L 51.378906 49.289062 C 51.347656 49.339844 51.332031 49.394531 51.332031 49.453125 C 51.351562 49.503906 51.382812 49.542969 51.425781 49.570312 C 53.679688 50.792969 56.089844 51.402344 58.652344 51.40625 C 59.640625 51.40625 60.621094 51.308594 61.589844 51.117188 C 62.5625 50.921875 63.503906 50.636719 64.417969 50.257812 C 65.332031 49.878906 66.199219 49.417969 67.019531 48.867188 C 67.84375 48.316406 68.605469 47.691406 69.304688 46.992188 C 70.003906 46.292969 70.625 45.535156 71.175781 44.710938 C 71.726562 43.890625 72.191406 43.019531 72.566406 42.105469 C 72.945312 41.195312 73.230469 40.25 73.425781 39.28125 C 73.617188 38.3125 73.714844 37.332031 73.714844 36.34375 L 73.714844 21.445312 C 73.710938 21.367188 73.671875 21.308594 73.597656 21.28125 Z M 73.363281 36.34375 C 73.359375 36.972656 73.316406 37.601562 73.234375 38.226562 C 73.152344 38.847656 73.03125 39.464844 72.871094 40.074219 C 72.707031 40.683594 72.507812 41.28125 72.269531 41.863281 C 72.035156 42.445312 71.757812 43.011719 71.449219 43.5625 C 71.136719 44.109375 70.792969 44.636719 70.417969 45.140625 C 70.039062 45.644531 69.628906 46.121094 69.191406 46.574219 C 68.75 47.023438 68.285156 47.445312 67.792969 47.839844 C 67.296875 48.230469 66.78125 48.589844 66.242188 48.914062 C 65.703125 49.238281 65.144531 49.53125 64.570312 49.785156 C 63.992188 50.039062 63.402344 50.253906 62.796875 50.433594 C 62.195312 50.609375 61.582031 50.75 60.960938 50.847656 C 60.335938 50.949219 59.710938 51.007812 59.082031 51.027344 C 58.453125 51.046875 57.824219 51.027344 57.195312 50.964844 C 56.570312 50.902344 55.949219 50.800781 55.335938 50.660156 C 54.722656 50.519531 54.117188 50.339844 53.527344 50.121094 C 52.9375 49.90625 52.363281 49.648438 51.804688 49.359375 L 73.363281 21.964844 Z M 73.363281 36.34375 " fill-opacity="1" fill-rule="nonzero"/><path fill="#038538" d="M 71.902344 85.90625 C 66.160156 90.851562 58.839844 91.746094 58.839844 91.746094 C 58.839844 91.746094 60.863281 84.660156 66.605469 79.742188 C 72.351562 74.824219 79.691406 73.882812 79.691406 73.882812 C 79.691406 73.882812 77.667969 80.964844 71.902344 85.90625 Z M 71.902344 85.90625 " fill-opacity="1" fill-rule="nonzero"/><path fill="#038538" d="M 58.839844 91.746094 L 69.265625 82.824219 " fill-opacity="1" fill-rule="nonzero"/><path fill="#038538" d="M 45.402344 85.90625 C 51.144531 90.851562 58.464844 91.746094 58.464844 91.746094 C 58.464844 91.746094 56.441406 84.660156 50.699219 79.742188 C 44.953125 74.824219 37.613281 73.882812 37.613281 73.882812 C 37.613281 73.882812 39.636719 80.964844 45.402344 85.90625 Z M 45.402344 85.90625 " fill-opacity="1" fill-rule="nonzero"/><path fill="#038538" d="M 58.464844 91.746094 L 48.039062 82.824219 " fill-opacity="1" fill-rule="nonzero"/><path fill="#231f20" d="M 79.667969 73.71875 C 79.597656 73.71875 72.230469 74.683594 66.488281 79.601562 C 60.746094 84.519531 58.675781 91.628906 58.675781 91.699219 C 58.675781 91.628906 56.582031 84.519531 50.863281 79.601562 C 45.144531 74.683594 37.753906 73.71875 37.683594 73.71875 L 37.421875 73.667969 L 37.496094 73.929688 C 37.519531 74 39.589844 81.128906 45.332031 86.050781 C 51.074219 90.96875 58.417969 91.933594 58.488281 91.933594 L 58.910156 91.933594 C 58.980469 91.933594 66.347656 90.96875 72.066406 86.050781 C 77.785156 81.128906 79.882812 74 79.90625 73.929688 L 79.976562 73.667969 Z M 37.871094 74.117188 C 39.28125 74.351562 45.566406 75.574219 50.578125 79.882812 C 55.59375 84.191406 57.453125 89.367188 58.085938 91.203125 L 48.15625 82.683594 L 47.921875 82.964844 L 57.851562 91.460938 C 55.96875 91.132812 50.179688 89.769531 45.519531 85.765625 C 40.859375 81.765625 38.316406 75.457031 37.871094 74.117188 Z M 71.785156 85.765625 C 67.125 89.769531 61.335938 91.132812 59.453125 91.460938 L 69.382812 82.964844 L 69.148438 82.683594 L 59.21875 91.203125 C 59.851562 89.367188 62.066406 83.882812 66.726562 79.882812 C 71.738281 75.574219 78.023438 74.351562 79.433594 74.117188 C 78.988281 75.457031 76.796875 81.484375 71.785156 85.765625 Z M 71.785156 85.765625 " fill-opacity="1" fill-rule="nonzero"/></svg>